<svg fill="none" height="22" viewBox="0 0 51 22" width="51" xmlns="http://www.w3.org/2000/svg">
    <path
        d="M50.4017 11.7178L47.1688 3.98317C46.1648 1.56679 43.8036 0 41.1886 0H4.68904C2.10715 0 0.0107422 2.09641 0.0107422 4.6783V18.1063C0.0107422 18.8015 0.573462 19.3531 1.25755 19.3531H49.2542C49.9493 19.3531 50.501 18.7904 50.501 18.1063V12.2033C50.501 12.0378 50.4679 11.8723 50.4017 11.7178Z"
        fill="#EB6440" />
    <path
        d="M50.4017 11.7178L47.1688 3.98317C46.1648 1.56679 43.8036 0 41.1886 0H4.68904C2.10715 0 0.0107422 2.09641 0.0107422 4.6783V5.49479C0.0107422 2.9129 2.10715 0.816494 4.68904 0.816494H41.1775C43.7925 0.816494 46.1537 2.38328 47.1578 4.79967L50.3907 12.5343C50.4569 12.6888 50.49 12.8543 50.49 13.0198V12.2033C50.501 12.0378 50.4679 11.8723 50.4017 11.7178Z"
        fill="#FCFCFD" />
    <path
        d="M0.0107422 17.9727V18.094C0.0107422 18.7891 0.573462 19.3408 1.25755 19.3408H49.2542C49.9493 19.3408 50.501 18.7781 50.501 18.094V17.9727H0.0107422Z"
        fill="#DEDEDF" />
    <path
        d="M0.0110338 13.5158H50.5013V12.2028C50.5013 12.0373 50.4682 11.8718 50.402 11.7173L49.8724 10.4595H0V13.5158H0.0110338Z"
        fill="#E3E3E3" />
    <path d="M17.5671 2.27002H9.96484V9.96052H17.5671V2.27002Z" fill="#404041" />
    <path d="M25.6022 2.27002H18V9.96052H25.6022V2.27002Z" fill="#404041" />
    <path d="M39 3H34V10H39V3Z" fill="#404041" />
    <path
        d="M9.01692 2.27002H2.827C2.22015 2.27002 1.72363 2.76654 1.72363 3.37339V8.85715C1.72363 9.464 2.22015 9.96052 2.827 9.96052H9.01692V2.27002Z"
        fill="#404041" />
    <path
        d="M46.5747 4.78571C45.8795 3.26305 44.3569 2.27002 42.6797 2.27002H40.1641V4.78571H46.5747Z"
        fill="#404041" />
    <path
        d="M48.7054 9.96113L46.8407 5.42627H40.1543V9.96113H42.361L44.8105 12.7858C44.8105 12.7858 47.3814 12.7858 48.4848 12.7858C49.5881 12.7858 48.7054 9.96113 48.7054 9.96113Z"
        fill="#404041" />
    <path d="M33.2111 3.46484H26.4033V18.7907H33.2111V3.46484Z" fill="#393D47" />
    <path d="M29.6906 3.75049H26.6895V18.5026H29.6906V3.75049Z" fill="#263238" />
    <path d="M32.925 3.75049H29.9238V18.5026H32.925V3.75049Z" fill="#263238" />
    <path
        d="M17.3771 18.7237C17.3771 16.5501 15.6117 14.7847 13.4381 14.7847C11.2644 14.7847 9.49902 16.5501 9.49902 18.7237C9.49902 18.9333 9.52109 19.143 9.55419 19.3526H17.333C17.355 19.143 17.3771 18.9444 17.3771 18.7237Z"
        fill="#02050C" />
    <path
        d="M45.6789 18.7237C45.6789 16.5501 43.9135 14.7847 41.7398 14.7847C39.5662 14.7847 37.8008 16.5501 37.8008 18.7237C37.8008 18.9333 37.8228 19.143 37.8559 19.3526H45.6347C45.6568 19.143 45.6789 18.9444 45.6789 18.7237Z"
        fill="#02050C" />
    <path
        d="M13.4284 21.9998C15.2382 21.9998 16.7054 20.5327 16.7054 18.7228C16.7054 16.913 15.2382 15.4458 13.4284 15.4458C11.6185 15.4458 10.1514 16.913 10.1514 18.7228C10.1514 20.5327 11.6185 21.9998 13.4284 21.9998Z"
        fill="#4F5565" />
    <path
        d="M13.427 20.6553C14.4934 20.6553 15.3579 19.7908 15.3579 18.7244C15.3579 17.658 14.4934 16.7935 13.427 16.7935C12.3606 16.7935 11.4961 17.658 11.4961 18.7244C11.4961 19.7908 12.3606 20.6553 13.427 20.6553Z"
        fill="#BDBDBE" />
    <path
        d="M13.4276 19.9386C14.0979 19.9386 14.6413 19.3953 14.6413 18.7249C14.6413 18.0546 14.0979 17.5112 13.4276 17.5112C12.7573 17.5112 12.2139 18.0546 12.2139 18.7249C12.2139 19.3953 12.7573 19.9386 13.4276 19.9386Z"
        fill="#EB6440" />
    <path
        d="M41.7282 21.9998C43.538 21.9998 45.0052 20.5327 45.0052 18.7228C45.0052 16.913 43.538 15.4458 41.7282 15.4458C39.9183 15.4458 38.4512 16.913 38.4512 18.7228C38.4512 20.5327 39.9183 21.9998 41.7282 21.9998Z"
        fill="#4F5565" />
    <path
        d="M41.7297 20.6553C42.7961 20.6553 43.6606 19.7908 43.6606 18.7244C43.6606 17.658 42.7961 16.7935 41.7297 16.7935C40.6633 16.7935 39.7988 17.658 39.7988 18.7244C39.7988 19.7908 40.6633 20.6553 41.7297 20.6553Z"
        fill="#BDBDBE" />
    <path
        d="M41.7303 19.9386C42.4006 19.9386 42.944 19.3953 42.944 18.7249C42.944 18.0546 42.4006 17.5112 41.7303 17.5112C41.06 17.5112 40.5166 18.0546 40.5166 18.7249C40.5166 19.3953 41.06 19.9386 41.7303 19.9386Z"
        fill="#EB6440" />
    <path
        d="M42.1451 16.851C41.0654 16.4629 39.8756 17.0235 39.4874 18.1031C39.0993 19.1828 39.6599 20.3726 40.7395 20.7607C41.8192 21.1489 43.0092 20.5882 43.3972 19.5085C43.7854 18.4289 43.2247 17.2392 42.1451 16.851Z"
        fill="#E1E3E3" />
    <path
        d="M40.7602 20.1291L41.0555 20.2432L41.2759 19.673C41.4022 19.6973 41.529 19.693 41.6489 19.6639L41.8964 20.223L42.1858 20.095L41.9386 19.5358C42.041 19.4665 42.1295 19.3752 42.1963 19.2659L42.7664 19.4862L42.8805 19.1908L42.3103 18.9704C42.3346 18.8441 42.3303 18.7171 42.3013 18.5972L42.8603 18.3499L42.7323 18.0605L42.1731 18.3077C42.1037 18.2053 42.0127 18.1168 41.9032 18.05L42.1235 17.4801L41.8282 17.366L41.608 17.9359C41.4816 17.9117 41.3545 17.9159 41.2346 17.945L40.9874 17.386L40.6978 17.514L40.9453 18.0731C40.8428 18.1425 40.7541 18.2337 40.6875 18.3432L40.1174 18.1228L40.0032 18.4182L40.5733 18.6385C40.549 18.7648 40.5534 18.8917 40.5824 19.0118L40.0233 19.2591L40.1515 19.5486L40.7103 19.3012C40.7798 19.4036 40.8711 19.4922 40.9806 19.559L40.7602 20.1291Z"
        fill="#B6B9BC" />
    <path d="M29.3496 4.57129H27.2422V10.7281H29.3496V4.57129Z" fill="white" />
    <path d="M32.374 4.57129H30.2666V10.7281H32.374V4.57129Z" fill="white" />
    <path
        d="M43.0869 9.9624L45.1613 12.4119H48.1183C48.1183 12.4119 48.6479 12.1471 48.4714 11.1871C48.2948 10.2272 48.008 9.9624 48.008 9.9624H43.0869Z"
        fill="#333842" />
    <path d="M50.5017 13.8784H49.0342V16.7913H50.5017V13.8784Z" fill="#FBD303" />
    <path
        d="M14.0998 16.8398C13.0311 16.4555 11.8534 17.0105 11.4692 18.0791C11.0849 19.1478 11.6398 20.3255 12.7085 20.7098C13.7772 21.094 14.9552 20.539 15.3392 19.4702C15.7234 18.4016 15.1685 17.224 14.0998 16.8398Z"
        fill="#E1E3E3" />
    <path
        d="M12.729 20.086L13.0212 20.199L13.2394 19.6345C13.3644 19.6586 13.4899 19.6544 13.6086 19.6256L13.8536 20.179L14.1401 20.0522L13.8953 19.4988C13.9967 19.4302 14.0844 19.3398 14.1505 19.2316L14.7147 19.4497L14.8278 19.1573L14.2633 18.9391C14.2874 18.8141 14.2831 18.6884 14.2544 18.5697L14.8078 18.3249L14.681 18.0384L14.1275 18.2832C14.0588 18.1817 13.9687 18.0942 13.8603 18.0281L14.0784 17.4639L13.7862 17.351L13.5681 17.9151C13.443 17.8912 13.3172 17.8953 13.1985 17.9241L12.9538 17.3708L12.6672 17.4975L12.9122 18.0509C12.8107 18.1196 12.7229 18.2099 12.657 18.3182L12.0927 18.1001L11.9797 18.3925L12.544 18.6106C12.5199 18.7356 12.5243 18.8612 12.553 18.9801L11.9995 19.2249L12.1264 19.5114L12.6796 19.2665C12.7484 19.3679 12.8387 19.4556 12.9471 19.5217L12.729 20.086Z"
        fill="#B6B9BC" />
</svg>
