<svg fill="none" height="24" viewBox="0 0 54 24" width="54" xmlns="http://www.w3.org/2000/svg">
    <mask style="mask-type:luminance" height="21" id="mask0_499_680" maskUnits="userSpaceOnUse" width="54"
        x="0" y="0">
        <path d="M0.189453 0H53.1895V20.6111H0.189453V0Z" fill="white" />
    </mask>
    <g mask="url(#mask0_499_680)">
        <path
            d="M46.3483 12.3278L49.9871 15.1954L49.5591 18.1314L47.9947 19.8701L38.2857 20.0433L14.5971 20.3165L6.53409 18.8829L5.46387 18.6097L7.60432 13.352L14.5253 11.5083L46.3483 12.3278Z"
            fill="#272739" />
        <path
            d="M30.0096 5.42383C30.0186 5.42739 34.7007 7.03444 38.4788 8.99482C38.4788 8.99482 39.7133 9.93673 39.3923 10.6144L38.215 11.4708L28.3682 6.31568L29.2606 5.65535L30.0096 5.42383Z"
            fill="#404041" />
        <path
            d="M12.2963 5.99609C12.2963 5.99609 6.89152 8.02947 5.62479 8.93914L4.3937 9.33168L4.17969 10.0453L5.26805 10.8303L12.5106 6.6916L12.2963 5.99609Z"
            fill="#404041" />
        <path
            d="M52.615 16.2168C53.0038 15.0854 52.5918 14.2599 52.2023 13.3429C51.6189 11.9685 40.9333 9.38325 38.2734 8.88517C38.2734 8.88517 39.3604 9.42013 38.327 10.3839C38.327 10.3839 31.2095 6.58448 29.4971 5.88866L30.032 5.35354C30.032 5.35354 23.2894 3.21309 12.3194 5.9959V6.31684L5.52327 9.84878C5.52327 9.84878 4.07166 9.63461 5.62353 8.93879C2.63833 9.90023 1.63257 9.95478 1.45622 10.4908L1.50952 13.3807V14.2368C1.50952 14.2368 0.225281 14.7184 0.385986 15.6283C0.546381 16.5381 0.813705 17.3408 0.813705 17.3408L1.0815 17.5012L1.18827 18.6251C1.18827 18.6251 3.88724 20.1291 6.02785 20.2896C5.44733 17.5793 6.44209 14.8983 10.483 15.0229C13.9617 15.1297 14.6205 18.7323 14.6205 18.7323L14.6738 20.2306L14.7274 20.5515L38.113 20.1233V19.1066V18.7859C38.113 18.7859 38.139 15.1857 43.0088 14.918C47.8786 14.6506 47.7534 19.6236 47.7534 19.6236L47.8603 20.3728C47.8603 20.3728 51.6024 20.3267 52.302 18.8746C52.302 18.8746 52.3475 16.8589 52.615 16.2168Z"
            fill="#EB6440" />
        <path
            d="M36.929 20.1461L38.1134 20.1244V19.1076V18.7868C38.1134 18.7868 38.1396 15.1867 43.0094 14.919C47.8794 14.6514 47.7542 19.6247 47.7542 19.6247L47.8611 20.3739C47.8611 20.3739 51.6029 20.3275 52.3026 18.8754C52.3026 18.8754 52.3153 18.3162 52.3662 17.6932L49.1793 18.1536C49.1793 18.1536 48.6823 16.6594 47.1617 15.2507C44.2659 12.568 39.5616 13.2914 37.4123 16.816C36.8534 17.7327 36.6074 19.4099 36.6074 19.4099C36.6074 19.4099 36.715 19.7033 36.929 20.1461Z"
            fill="#EB6440" />
        <path
            d="M1.50952 14.2376C1.50952 14.2376 0.225282 14.7191 0.385986 15.6291C0.546381 16.5389 0.81386 17.3417 0.81386 17.3417L1.08149 17.5021L1.18827 18.6259C1.18827 18.6259 3.88724 20.1299 6.02785 20.2906C5.62617 17.7369 6.44209 14.8992 10.483 15.0238C13.9617 15.1306 14.6207 18.7332 14.6207 18.7332L14.6538 19.6667C15.5556 19.3498 16.1237 19.1248 16.1237 19.1248C15.2581 15.6816 12.8111 12.6975 8.87885 13.7526C7.04539 14.2444 5.94959 15.8096 5.94959 15.8096C5.94959 15.8096 4.78685 15.6754 3.71352 15.273C2.64019 14.8704 1.50952 14.2376 1.50952 14.2376Z"
            fill="#C24625" />
        <path
            d="M38.1778 18.8388L38.0709 20.087L14.7746 20.5505L14.7033 20.2299L14.6318 18.8384L15.2387 18.8027L15.9877 19.1235L36.8219 19.088L37.0361 18.8027L38.1778 18.8388Z"
            fill="#EB6440" />
        <path
            d="M52.6606 16.0796L52.3667 17.6933C52.3667 17.6933 49.5009 18.2963 49.1797 18.1537L49.412 16.7636C49.412 16.7636 52.3041 16.5792 52.6606 16.0796Z"
            fill="#EB6440" />
        <path
            d="M51.7528 13.4172C51.7528 13.4172 51.4318 12.8824 51.0571 12.6417C51.0571 12.6417 50.5754 12.6146 49.7459 12.8286C48.9165 13.0428 48.3544 13.1231 48.3544 13.1231C48.3544 13.1231 47.4717 13.3368 48.7559 13.738C50.0402 14.1395 50.8965 14.1129 51.378 13.8722C51.8595 13.6312 51.7528 13.4172 51.7528 13.4172Z"
            fill="#FAF8F6" />
        <path
            d="M37.3583 11.2757L26.3346 10.9187C26.3346 10.9187 24.214 10.855 21.5342 10.7766C22.3089 7.83182 22.1628 8.27441 23.0345 5.66455C26.7364 5.67478 28.368 6.31636 28.368 6.31636C31.722 7.3153 37.3583 11.2757 37.3583 11.2757ZM21.1621 5.7098C16.1315 5.95962 14.3476 6.92276 13.1704 7.49352C13.1704 7.49352 11.3867 8.63534 10.9229 9.06337C10.9229 9.06337 9.46043 10.4903 10.7803 10.4903C11.5367 10.4903 16.5352 10.6311 20.6648 10.7512L22.1259 5.67447C21.817 5.68191 21.4961 5.69322 21.1621 5.7098Z"
            fill="#404041" />
        <path
            d="M24.3809 12.4842C24.3809 12.6097 24.9854 12.7115 25.7317 12.7115C26.4781 12.7115 27.0829 12.6097 27.0829 12.4842C27.0829 12.3587 26.4781 12.2568 25.7317 12.2568C24.9854 12.2568 24.3809 12.3587 24.3809 12.4842Z"
            fill="#57585B" />
        <path
            d="M11.5908 11.9476C11.5908 12.0734 12.1958 12.1752 12.942 12.1752C13.6882 12.1752 14.2932 12.0734 14.2932 11.9476C14.2932 11.822 13.6882 11.7202 12.942 11.7202C12.1958 11.7202 11.5908 11.822 11.5908 11.9476Z"
            fill="#57585B" />
        <path
            d="M1.47574 11.4816C1.20795 12.1598 1.52208 13.4158 1.52208 13.4158C1.84302 13.4868 3.16399 13.6639 3.53825 13.4144C4.08762 13.0484 4.27203 11.8421 3.57652 11.6454C3.05272 11.4979 2.12755 11.4796 1.70184 11.4796C1.56175 11.4796 1.47574 11.4816 1.47574 11.4816ZM0.798828 11.5593L1.31953 14.2379L4.68116 13.5844L4.16045 10.9058L0.798828 11.5593Z"
            fill="#C21111" />
        <path
            d="M34.9289 11.6968C35.4056 11.8308 37.3494 11.7061 37.4618 11.297C37.5791 10.8694 35.8919 9.79143 34.9199 9.88348L34.9289 11.6968Z"
            fill="#EB6440" />
        <path
            d="M51.936 13.7523C51.9189 14.4148 52.0753 15.91 52.3135 15.9141C52.5515 15.9183 52.7373 15.777 52.7417 15.7085C52.8494 14.0492 52.1782 13.2981 52.1782 13.2981C52.1782 13.2981 52.1446 13.2671 52.1024 13.2671C52.0353 13.2671 51.9465 13.3455 51.936 13.7523ZM51.9189 13.2671V15.9183H52.8494V13.2671H51.9189Z"
            fill="#7F7F7F" />
    </g>
    <mask style="mask-type:luminance" height="10" id="mask1_499_680" maskUnits="userSpaceOnUse" width="10"
        x="5" y="14">
        <path d="M6.64355 14.6836L14.3451 15.5361L13.4925 23.2376L5.79103 22.3851L6.64355 14.6836Z"
            fill="white" />
    </mask>
    <g mask="url(#mask1_499_680)">
        <path
            d="M10.3642 16.1928C8.82658 16.0149 7.43551 17.1174 7.25762 18.655C7.07956 20.1929 8.18191 21.5834 9.71965 21.7613C11.2574 21.9395 12.6483 20.8372 12.8261 19.2994C13.0041 17.7617 11.9019 16.3708 10.3642 16.1928Z"
            fill="#57585B" />
        <path
            d="M10.3704 16.21L9.54466 18.0468L7.54349 17.8213L9.03513 19.1742L8.20239 21.0078L9.95002 20.0072L11.4367 21.3658L11.025 19.3945L12.7764 18.4006L10.7745 18.1829L10.3704 16.21Z"
            fill="white" />
        <path
            d="M12.357 21.8522C13.9533 20.5868 14.2218 18.267 12.9565 16.6705C11.6913 15.074 9.37132 14.8056 7.77481 16.0708C6.17843 17.3362 5.90997 19.656 7.17529 21.2525C8.44048 22.849 10.7603 23.1175 12.357 21.8522ZM8.39711 16.8561C9.56002 15.9345 11.2496 16.13 12.1714 17.2928C13.093 18.4557 12.8974 20.1454 11.7346 21.0672C10.5717 21.9888 8.88199 21.7931 7.96025 20.6303C7.03866 19.4674 7.23436 17.7775 8.39711 16.8561Z"
            fill="#363638" />
        <path
            d="M10.1483 18.243C10.5447 18.2889 10.8288 18.6473 10.7829 19.0437C10.7371 19.4401 10.3785 19.7241 9.98211 19.6784C9.58586 19.6325 9.30173 19.2741 9.34766 18.8777C9.39331 18.4814 9.75188 18.1972 10.1483 18.243Z"
            fill="#9D9FA4" />
        <path
            d="M12.1717 17.2913C13.0931 18.4542 12.8975 20.1439 11.7347 21.0655C10.5718 21.9871 8.88216 21.7917 7.96042 20.6289C7.03883 19.466 7.23442 17.7759 8.39718 16.8544C9.56021 15.9328 11.2498 16.1284 12.1717 17.2913ZM12.9887 19.2834C13.1674 17.6692 12.0038 16.2161 10.3896 16.0374C8.77536 15.8587 7.32197 17.0222 7.14329 18.6364C6.9646 20.2506 8.12833 21.7039 9.74255 21.8826C11.3568 22.0613 12.81 20.8977 12.9887 19.2834Z"
            fill="white" />
        <path
            d="M10.653 16.1558C10.6684 16.0817 10.7746 18.1818 10.7746 18.1818L9.48421 18.0388C9.48421 18.0388 10.0479 16.1386 10.0475 16.0789C10.0474 16.0192 10.653 16.1558 10.653 16.1558Z"
            fill="white" />
        <path
            d="M12.8322 18.7073C12.9051 18.7004 10.9891 19.3967 10.9891 19.3967L10.7543 18.1603C10.7543 18.1603 12.6758 18.1418 12.731 18.1246C12.7862 18.1074 12.8322 18.7073 12.8322 18.7073Z"
            fill="white" />
        <path
            d="M11.1096 21.5314C11.1372 21.5994 9.91594 19.9677 9.91594 19.9677L11.0308 19.3849C11.0308 19.3849 11.6053 21.218 11.6378 21.2658C11.6703 21.3137 11.1096 21.5314 11.1096 21.5314Z"
            fill="white" />
        <path
            d="M7.9198 20.8498C7.86336 20.8998 9.03386 19.1597 9.03386 19.1597L9.9785 20.045C9.9785 20.045 8.39261 21.2254 8.35713 21.2732C8.32179 21.321 7.9198 20.8498 7.9198 20.8498Z"
            fill="white" />
        <path
            d="M7.62288 17.548C7.55839 17.5108 9.55452 18.0583 9.55452 18.0583L9.02383 19.2207C9.02383 19.2207 7.42061 18.1084 7.36473 18.0902C7.30882 18.0722 7.62288 17.548 7.62288 17.548Z"
            fill="white" />
    </g>
    <mask style="mask-type:luminance" height="10" id="mask2_499_680" maskUnits="userSpaceOnUse" width="9"
        x="38" y="14">
        <path d="M39.1904 14.6836L46.8919 15.5361L46.0394 23.2376L38.3379 22.3851L39.1904 14.6836Z"
            fill="white" />
    </mask>
    <g mask="url(#mask2_499_680)">
        <path
            d="M42.9101 16.1942C41.3725 16.0163 39.9814 17.1189 39.8035 18.6565C39.6255 20.1944 40.7278 21.5849 42.2656 21.7628C43.8033 21.941 45.1942 20.8387 45.3719 19.3009C45.55 17.7632 44.4478 16.3723 42.9101 16.1942Z"
            fill="#57585B" />
        <path
            d="M42.9123 16.21L42.0867 18.0468L40.0855 17.8213L41.5771 19.1742L40.7444 21.0078L42.492 20.0072L43.9787 21.3658L43.5669 19.3945L45.3184 18.4006L43.3165 18.1829L42.9123 16.21Z"
            fill="white" />
        <path
            d="M44.898 21.8522C46.4944 20.5868 46.7628 18.267 45.4975 16.6705C44.2323 15.074 41.9123 14.8056 40.3158 16.0708C38.7194 17.3362 38.451 19.656 39.7163 21.2525C40.9815 22.849 43.3013 23.1175 44.898 21.8522ZM40.9381 16.8561C42.101 15.9345 43.7906 16.13 44.7124 17.2928C45.634 18.4557 45.4384 20.1454 44.2756 21.0672C43.1127 21.9888 41.423 21.7931 40.5013 20.6303C39.5797 19.4674 39.7754 17.7775 40.9381 16.8561Z"
            fill="#363638" />
        <path
            d="M42.6942 18.243C43.0906 18.2889 43.3747 18.6473 43.3288 19.0437C43.283 19.4401 42.9244 19.7241 42.528 19.6784C42.1318 19.6325 41.8476 19.2741 41.8936 18.8777C41.9392 18.4814 42.2978 18.1972 42.6942 18.243Z"
            fill="#9D9FA4" />
        <path
            d="M44.7156 17.2913C45.6371 18.4542 45.4414 20.1439 44.2786 21.0655C43.1157 21.9871 41.4261 21.7917 40.5044 20.6289C39.5828 19.466 39.7784 17.7759 40.9411 16.8544C42.1042 15.9328 43.7938 16.1284 44.7156 17.2913ZM45.5327 19.2834C45.7114 17.6692 44.5477 16.2161 42.9335 16.0374C41.3193 15.8587 39.8659 17.0222 39.6872 18.6364C39.5085 20.2506 40.6723 21.7039 42.2865 21.8826C43.9007 22.0613 45.354 20.8977 45.5327 19.2834Z"
            fill="white" />
        <path
            d="M43.1959 16.1572C43.2114 16.0832 43.3176 18.1832 43.3176 18.1832L42.0272 18.0403C42.0272 18.0403 42.5908 16.14 42.5905 16.0803C42.5903 16.0206 43.1959 16.1572 43.1959 16.1572Z"
            fill="white" />
        <path
            d="M45.3732 18.7073C45.4461 18.7004 43.5302 19.3967 43.5302 19.3967L43.2953 18.1603C43.2953 18.1603 45.2168 18.1418 45.2721 18.1246C45.3272 18.1074 45.3732 18.7073 45.3732 18.7073Z"
            fill="white" />
        <path
            d="M43.6525 21.5329C43.6801 21.6008 42.4589 19.9691 42.4589 19.9691L43.5737 19.3863C43.5737 19.3863 44.1482 21.2195 44.1808 21.2673C44.2132 21.3152 43.6525 21.5329 43.6525 21.5329Z"
            fill="white" />
        <path
            d="M40.4628 20.8498C40.4063 20.8998 41.5768 19.1597 41.5768 19.1597L42.5215 20.045C42.5215 20.045 40.9356 21.2254 40.9001 21.2732C40.8648 21.321 40.4628 20.8498 40.4628 20.8498Z"
            fill="white" />
        <path
            d="M40.1659 17.5489C40.1014 17.5118 42.0975 18.0593 42.0975 18.0593L41.5668 19.2217C41.5668 19.2217 39.9636 18.1094 39.9077 18.0911C39.8518 18.0732 40.1659 17.5489 40.1659 17.5489Z"
            fill="white" />
    </g>
</svg>
