<svg fill="none" height="140" viewBox="0 0 118 140" width="118" xmlns="http://www.w3.org/2000/svg">
    <path d="M53.0749 132.226C82.3874 132.226 106.15 108.464 106.15 79.1512C106.15 49.8388 82.3874 26.0763 53.0749 26.0763C23.7625 26.0763 0 49.8388 0 79.1512C0 108.464 23.7625 132.226 53.0749 132.226Z"
        fill="#EB6440"
        opacity="0.2" />
    <path
        d="M4.13532 123.666C1.86494 118.773 0.687675 113.444 0.685401 108.049C0.683127 102.655 1.85589 97.3246 4.12215 92.4293C6.38841 87.534 9.69376 83.1911 13.8084 79.7026C17.923 76.2141 22.748 73.6637 27.9481 72.2287L31.1062 83.6459C27.5639 84.6223 24.2768 86.3586 21.4735 88.7342C18.6703 91.1098 16.4182 94.0675 14.8739 97.4017C13.3296 100.736 12.5302 104.366 12.5312 108.041C12.5323 111.715 13.3338 115.345 14.8801 118.679L4.13532 123.666Z"
        fill="#EB6440" />
    <path
        d="M4.75501 139.317C4.09891 139.317 3.45547 139.136 2.89601 138.794C2.33654 138.451 1.88288 137.96 1.58529 137.375C0.753819 135.742 0.252103 133.962 0.108791 132.135C-0.0345221 130.308 0.183375 128.471 0.750041 126.728C1.89447 123.209 4.39004 120.289 7.68775 118.61C9.32061 117.778 11.1013 117.276 12.928 117.133C14.7548 116.99 16.5919 117.208 18.3344 117.774C21.8536 118.919 24.7741 121.414 26.4533 124.712C26.6693 125.128 26.8007 125.583 26.84 126.05C26.8793 126.518 26.8257 126.988 26.6823 127.435C26.539 127.881 26.3086 128.295 26.0047 128.652C25.7007 129.009 25.329 129.303 24.9111 129.515C24.4932 129.728 24.0373 129.856 23.5697 129.892C23.1021 129.928 22.6321 129.871 22.1867 129.724C21.7412 129.577 21.3293 129.344 20.9745 129.037C20.6197 128.73 20.3291 128.357 20.1194 127.937C19.7127 127.134 19.1516 126.419 18.4682 125.833C17.7848 125.247 16.9925 124.802 16.1367 124.522C15.2809 124.243 14.3784 124.135 13.4808 124.205C12.5833 124.275 11.7084 124.521 10.9061 124.93C10.1039 125.338 9.39014 125.901 8.80569 126.586C8.22123 127.27 7.77758 128.064 7.50013 128.92C7.22268 129.776 7.11688 130.679 7.1888 131.576C7.26071 132.474 7.50892 133.348 7.91922 134.15C8.19477 134.691 8.32688 135.294 8.30292 135.902C8.27896 136.509 8.09975 137.1 7.78238 137.618C7.46501 138.136 7.02009 138.565 6.49009 138.862C5.9601 139.159 5.36272 139.316 4.75501 139.317V139.317Z"
        fill="#13141F" />
    <path
        d="M96.6091 78.7956C91.6171 83.059 85.5771 85.9117 79.1133 87.0589L77.0278 75.3972C82.7748 74.3614 87.9865 71.3694 91.7788 66.9288C95.5712 62.4882 97.7105 56.8724 97.8341 51.0341L109.677 51.2811C109.494 60.7953 105.65 69.8726 98.945 76.6253C98.1931 77.385 97.4145 78.1085 96.6091 78.7956Z"
        fill="#EB6440" />
    <path
        d="M113.082 50.9424C111.066 52.6549 108.605 53.7593 105.986 54.1268C103.367 54.4944 100.697 54.1098 98.2875 53.0181C95.8783 51.9264 93.829 50.1724 92.3784 47.9606C90.9279 45.7488 90.1358 43.1703 90.0946 40.5256C90.0854 39.5867 90.4482 38.6823 91.1037 38.01C91.7592 37.3377 92.6542 36.9521 93.593 36.9374C94.5319 36.9228 95.4384 37.2803 96.1145 37.9319C96.7907 38.5835 97.1814 39.4761 97.2016 40.4149C97.2298 42.2302 97.978 43.96 99.2815 45.2236C100.585 46.4873 102.337 47.1814 104.153 47.1532C105.968 47.125 107.698 46.3768 108.961 45.0732C110.225 43.7696 110.919 42.0174 110.891 40.2021C110.876 39.2597 111.237 38.3501 111.893 37.6733C112.549 36.9966 113.447 36.6081 114.389 36.5935C115.331 36.5788 116.241 36.9391 116.918 37.5952C117.595 38.2512 117.983 39.1492 117.998 40.0916C118.031 41.9244 117.701 43.7457 117.026 45.45C116.35 47.1543 115.344 48.7077 114.064 50.0204C113.75 50.345 113.422 50.6523 113.082 50.9424Z"
        fill="#13141F" />
    <path
        d="M87.7336 0.271202L84.51 9.61988C84.4895 9.67945 84.4832 9.74302 84.4918 9.80545C84.5003 9.86788 84.5235 9.92742 84.5593 9.97927C84.5951 10.0311 84.6426 10.0738 84.6979 10.1039C84.7533 10.134 84.8149 10.1507 84.8779 10.1526L87.0528 10.2175C87.1166 10.2194 87.179 10.2365 87.2349 10.2673C87.2908 10.2982 87.3385 10.3419 87.3742 10.3948C87.4098 10.4478 87.4324 10.5084 87.4399 10.5718C87.4475 10.6352 87.4398 10.6995 87.4176 10.7593L83.8299 20.4177C83.7965 20.5081 83.7966 20.6075 83.8302 20.6978C83.8639 20.7881 83.9289 20.8633 84.0133 20.9097C84.0978 20.9561 84.1961 20.9706 84.2904 20.9506C84.3846 20.9306 84.4686 20.8773 84.5269 20.8006L92.9739 9.66747C93.0113 9.61814 93.0369 9.56084 93.0485 9.50002C93.0601 9.43921 93.0575 9.37652 93.041 9.31687C93.0244 9.25721 92.9942 9.20219 92.9529 9.1561C92.9116 9.11001 92.8601 9.07409 92.8026 9.05115L90.2726 8.04171C90.2231 8.02197 90.1781 7.99259 90.1401 7.95528C90.1021 7.91796 90.0718 7.87346 90.0512 7.82436C90.0305 7.77526 90.0198 7.72255 90.0197 7.66928C90.0196 7.61601 90.0301 7.56325 90.0506 7.51408L92.8876 0.698931C92.9126 0.638867 92.9226 0.573636 92.9168 0.508839C92.911 0.444043 92.8896 0.381616 92.8544 0.326921C92.8192 0.272225 92.7712 0.226895 92.7146 0.194822C92.658 0.16275 92.5945 0.144893 92.5295 0.142785L88.1265 0.000209125C88.0406 -0.00256157 87.9562 0.0222607 87.8854 0.0710332C87.8147 0.119806 87.7615 0.189961 87.7336 0.271202V0.271202Z"
        fill="#EB6440" />
    <path
        d="M5.39668 43.1761L9.15282 50.4811C9.17667 50.5277 9.18925 50.5792 9.18956 50.6315C9.18987 50.6839 9.17789 50.7355 9.15459 50.7824C9.13129 50.8292 9.09732 50.8699 9.05541 50.9013C9.0135 50.9326 8.96482 50.9536 8.9133 50.9627L7.13296 51.2733C7.08075 51.2824 7.03147 51.3039 6.98919 51.3359C6.9469 51.3678 6.91283 51.4094 6.88978 51.4571C6.86672 51.5049 6.85535 51.5574 6.85661 51.6104C6.85786 51.6634 6.87169 51.7154 6.89697 51.7619L10.9896 59.2784C11.0271 59.3487 11.0383 59.4301 11.0211 59.508C11.0038 59.5858 10.9594 59.6549 10.8957 59.7029C10.832 59.7508 10.7533 59.7744 10.6737 59.7694C10.5941 59.7644 10.519 59.7311 10.4618 59.6756L2.19982 51.5214C2.16332 51.4853 2.13565 51.4412 2.11895 51.3926C2.10225 51.344 2.09698 51.2922 2.10355 51.2412C2.11011 51.1903 2.12833 51.1415 2.15679 51.0987C2.18526 51.056 2.2232 51.0203 2.26767 50.9946L4.22834 49.8654C4.26664 49.8433 4.30017 49.8137 4.32698 49.7785C4.35379 49.7434 4.37335 49.7032 4.38453 49.6604C4.3957 49.6176 4.39827 49.573 4.39209 49.5292C4.3859 49.4854 4.37109 49.4432 4.3485 49.4052L1.20985 44.1376C1.18237 44.0911 1.16654 44.0387 1.1637 43.9849C1.16086 43.931 1.17111 43.8772 1.19356 43.8282C1.21601 43.7791 1.25001 43.7362 1.29264 43.7031C1.33527 43.6701 1.38527 43.6478 1.43837 43.6382L5.04171 43.0005C5.11187 42.9881 5.18414 42.9985 5.248 43.0301C5.31185 43.0617 5.36394 43.1128 5.39668 43.1761V43.1761Z"
        fill="#13141F" />
    <path
        d="M19.9935 72.851L27.8466 117.265C28.8618 123.006 31.8666 128.207 36.3339 131.954C40.8011 135.7 46.4453 137.754 52.2757 137.754V137.754C57.9601 137.754 63.4721 135.802 67.8895 132.225C72.307 128.647 75.3619 123.661 76.5432 118.101L86.1566 72.8505L19.9935 72.851Z"
        fill="#EB6440" />
    <path
        d="M53.075 82.6314C71.3453 82.6314 86.1564 78.2524 86.1564 72.8507C86.1564 67.4489 71.3453 63.0699 53.075 63.0699C34.8046 63.0699 19.9935 67.4489 19.9935 72.8507C19.9935 78.2524 34.8046 82.6314 53.075 82.6314Z"
        fill="#13141F" />
    <path
        d="M64.8458 97.9478H41.6909C39.4975 97.9478 37.7194 99.7259 37.7194 101.919V113.121C37.7194 115.314 39.4975 117.092 41.6909 117.092H64.8458C67.0392 117.092 68.8173 115.314 68.8173 113.121V101.919C68.8173 99.7259 67.0392 97.9478 64.8458 97.9478Z"
        fill="#13141F" />
    <path
        d="M50.7595 107.877H49.3829C49.3829 106.064 50.2046 103.564 54.119 101.957C56.412 101.015 55.6529 97.5346 55.6447 97.4996L56.9865 97.1916C57.0301 97.381 58.0168 101.844 54.6421 103.229C52.0657 104.287 50.7595 105.852 50.7595 107.877Z"
        fill="#EB6440" />
    <path
        d="M63.1102 117.897C61.7715 115.387 61.2128 115.437 58.8571 115.646C58.0901 115.714 57.1359 115.799 55.9709 115.799C50.7566 115.799 50.214 112.004 50.2089 111.966L51.5743 111.792L50.8915 111.879L51.5735 111.786C51.5892 111.894 52.0061 114.423 55.9705 114.423C57.0744 114.423 57.9568 114.344 58.7347 114.275C61.3851 114.039 62.6286 114.069 64.3243 117.25L63.1102 117.897Z"
        fill="#EB6440" />
    <path
        d="M47.1977 108.583C47.1506 108.583 47.1043 108.572 47.0626 108.55L45.5746 107.783C45.5051 107.747 45.4527 107.685 45.4289 107.611C45.4052 107.536 45.412 107.455 45.4479 107.386C45.4838 107.316 45.5459 107.264 45.6204 107.24C45.695 107.216 45.7759 107.223 45.8454 107.259L47.3334 108.026C47.3923 108.056 47.4393 108.105 47.4668 108.166C47.4943 108.226 47.5008 108.294 47.4851 108.358C47.4694 108.422 47.4325 108.479 47.3804 108.52C47.3283 108.561 47.2639 108.583 47.1977 108.583V108.583Z"
        fill="white" />
    <path
        d="M45.4001 111.502C45.3312 111.502 45.2647 111.478 45.2118 111.434C45.159 111.39 45.1233 111.328 45.1108 111.261C45.0984 111.193 45.11 111.123 45.1436 111.063C45.1772 111.003 45.2308 110.957 45.295 110.932L46.8598 110.336C46.9319 110.313 47.0103 110.318 47.0788 110.35C47.1473 110.383 47.2007 110.441 47.2277 110.511C47.2547 110.582 47.2534 110.661 47.224 110.731C47.1946 110.801 47.1394 110.857 47.0699 110.887L45.5051 111.483C45.4715 111.496 45.436 111.502 45.4001 111.502Z"
        fill="white" />
    <path
        d="M54.8106 110.29C54.7366 110.29 54.6654 110.262 54.6111 110.212C54.5567 110.162 54.5231 110.093 54.517 110.019C54.5109 109.946 54.5326 109.872 54.578 109.814C54.6233 109.756 54.6889 109.716 54.7618 109.704L56.4137 109.425C56.4907 109.412 56.5695 109.431 56.6329 109.476C56.6963 109.521 56.7393 109.59 56.7522 109.667C56.7652 109.744 56.7473 109.823 56.7023 109.886C56.6572 109.95 56.5889 109.993 56.512 110.007L54.8601 110.286C54.8437 110.288 54.8272 110.29 54.8106 110.29V110.29Z"
        fill="white" />
    <path
        d="M53.6026 108.291C53.5499 108.291 53.4981 108.277 53.4527 108.25C53.4073 108.224 53.3699 108.185 53.3444 108.139C53.319 108.093 53.3064 108.04 53.3079 107.988C53.3094 107.935 53.3251 107.884 53.3532 107.839L54.247 106.423C54.2673 106.39 54.2941 106.36 54.3257 106.337C54.3574 106.314 54.3934 106.298 54.4316 106.288C54.4698 106.279 54.5094 106.278 54.5481 106.285C54.5868 106.291 54.6238 106.305 54.657 106.326C54.6902 106.347 54.7189 106.374 54.7414 106.406C54.7639 106.439 54.7797 106.475 54.788 106.513C54.7963 106.552 54.7968 106.591 54.7896 106.63C54.7824 106.668 54.7675 106.705 54.746 106.738L53.8522 108.154C53.8256 108.196 53.7887 108.231 53.7451 108.255C53.7015 108.279 53.6524 108.291 53.6026 108.291Z"
        fill="white" />
    <path
        d="M70.4409 106.847C67.5772 106.847 65.188 106.065 63.3206 104.512C59.8702 101.643 59.5003 97.2146 59.4858 97.0276L60.8584 96.9243L60.1721 96.976L60.8582 96.9233C60.8616 96.9627 61.2091 100.974 64.2108 103.463C66.1774 105.092 68.8584 105.735 72.1845 105.372L72.3336 106.741C71.7051 106.811 71.0733 106.846 70.4409 106.847V106.847Z"
        fill="#EB6440" />
    <path
        d="M34.5515 115.403L34.2972 114.05C39.5749 113.057 39.5709 110.862 39.5664 108.32C39.5635 106.608 39.5599 104.667 41.5768 103.533C45.3281 101.422 45.0276 96.639 45.0242 96.5906L46.3969 96.4873C46.4144 96.7188 46.7767 102.186 42.2518 104.732C41.0016 105.435 40.9399 106.552 40.943 108.317C40.9477 110.938 40.9534 114.199 34.5515 115.403Z"
        fill="#EB6440" />
    <path
        d="M75.2327 75.9025C75.2062 75.9025 75.1799 75.8998 75.154 75.8946C73.6639 75.5949 70.8527 74.3213 70.8779 71.6437C70.8758 71.1188 71.0006 70.6012 71.2416 70.1349C71.4826 69.6686 71.8326 69.2675 72.262 68.9656C71.8226 68.1513 71.6926 67.2055 71.896 66.3028C72.458 63.3744 75.4063 62.8613 76.8875 63.0002C76.9911 63.0102 77.0864 63.0608 77.1527 63.141C77.219 63.2211 77.2509 63.3243 77.2413 63.4279C77.2318 63.5314 77.1815 63.627 77.1017 63.6937C77.0218 63.7603 76.9188 63.7926 76.8152 63.7835C76.6698 63.7701 73.236 63.4956 72.6685 66.4511C72.5009 67.1644 72.5962 67.9142 72.9367 68.563C74.3967 67.8586 76.3965 67.8551 77.3145 68.5569C77.4984 68.6828 77.6416 68.8597 77.7264 69.0658C77.8113 69.2719 77.8341 69.4983 77.7922 69.7172C77.6085 70.6749 76.4844 71.1528 75.061 70.8794C74.1649 70.7159 73.3451 70.2687 72.7225 69.6037C72.393 69.8333 72.1245 70.1398 71.9401 70.4966C71.7557 70.8534 71.6612 71.2497 71.6645 71.6513C71.6392 74.3455 75.273 75.1162 75.3096 75.1237C75.4053 75.1429 75.4904 75.197 75.5485 75.2754C75.6065 75.3539 75.6333 75.4511 75.6236 75.5483C75.614 75.6454 75.5686 75.7355 75.4962 75.801C75.4238 75.8664 75.3297 75.9027 75.2321 75.9027L75.2327 75.9025ZM73.4317 69.202C73.9278 69.6647 74.5443 69.9782 75.2104 70.1066C76.1487 70.2861 76.9275 70.0553 77.0209 69.5685C77.0349 69.4929 77.0248 69.4148 76.9919 69.3453C76.959 69.2758 76.905 69.2185 76.8376 69.1815C76.2439 68.7272 74.6962 68.6533 73.4317 69.202Z"
        fill="white" />
    <path
        d="M41.6145 72.9482C41.532 72.9482 41.4515 72.9223 41.3846 72.874C41.3176 72.8257 41.2675 72.7576 41.2414 72.6793C41.2153 72.601 41.2145 72.5165 41.2391 72.4377C41.2637 72.3589 41.3125 72.2898 41.3785 72.2403C41.4633 72.1764 43.4434 70.6497 42.3176 68.7974C42.0762 68.3652 41.6973 68.026 41.2411 67.8338C40.7494 68.9547 39.6377 69.938 38.7646 70.0114C38.5806 70.0358 38.3934 70.0061 38.2261 69.9257C38.0588 69.8454 37.9185 69.7179 37.8226 69.5591C37.7149 69.3718 37.6603 69.1588 37.6646 68.9428C37.669 68.7269 37.7322 68.5162 37.8474 68.3335C38.2857 67.5329 39.376 66.9345 40.4393 66.9105C40.5278 66.9089 40.6163 66.9105 40.7028 66.9162C40.7522 66.6489 40.7386 66.3738 40.6632 66.1127C40.5877 65.8515 40.4525 65.6116 40.2682 65.4118C38.9746 63.9551 36.6387 65.3203 36.6155 65.3343C36.5711 65.3607 36.522 65.3781 36.4709 65.3856C36.4197 65.393 36.3677 65.3903 36.3176 65.3776C36.2675 65.3649 36.2204 65.3425 36.179 65.3116C36.1376 65.2807 36.1027 65.242 36.0763 65.1976C36.0498 65.1532 36.0324 65.1041 36.025 65.053C36.0175 65.0018 36.0202 64.9498 36.0329 64.8997C36.0456 64.8496 36.0681 64.8025 36.0989 64.7611C36.1298 64.7197 36.1686 64.6848 36.213 64.6584C36.3309 64.5878 39.1361 62.952 40.8562 64.8892C41.1229 65.1808 41.3177 65.5308 41.4249 65.9111C41.5322 66.2915 41.5489 66.6916 41.4737 67.0796C42.1134 67.33 42.6483 67.7916 42.9897 68.3878C44.1894 70.3598 42.7687 72.1809 41.8505 72.8684C41.7827 72.92 41.6998 72.9481 41.6145 72.9482V72.9482ZM40.4346 67.6989C39.5785 67.7264 38.7992 68.2334 38.5367 68.7127C38.4906 68.7752 38.4623 68.8491 38.4549 68.9265C38.4474 69.0038 38.4611 69.0818 38.4944 69.152C38.514 69.1852 38.5486 69.2393 38.6993 69.2283C39.1923 69.1874 40.0019 68.5321 40.4342 67.6989H40.4346Z"
        fill="white" />
    <path
        d="M84.6829 40.1997C86.6964 54.4377 73.3358 63.3159 55.6592 65.8155C37.9827 68.315 22.6848 63.49 20.6714 49.251C18.6581 35.0121 30.6917 16.7513 48.368 14.2518C66.0443 11.7523 82.6695 25.9608 84.6829 40.1997Z"
        fill="#EB6440" />
    <path
        d="M67.7257 24.9737L49.5203 27.5478C43.8138 28.3547 39.8418 33.6349 40.6487 39.3414C41.4555 45.048 46.7357 49.0199 52.4423 48.2131L70.6476 45.6389C76.3542 44.832 80.3261 39.5519 79.5193 33.8453C78.7124 28.1388 73.4322 24.1668 67.7257 24.9737Z"
        fill="white" />
    <path d="M46.8022 3.23327L45.3906 3.50384L48.1169 17.7285L49.5286 17.4579L46.8022 3.23327Z"
        fill="#EB6440" />
    <path
        d="M46.2982 7.04791C47.749 7.04791 48.9251 5.87179 48.9251 4.42096C48.9251 2.97014 47.749 1.79402 46.2982 1.79402C44.8474 1.79402 43.6713 2.97014 43.6713 4.42096C43.6713 5.87179 44.8474 7.04791 46.2982 7.04791Z"
        fill="#13141F" />
    <path
        d="M56.1585 41.7253C55.903 41.7254 55.6545 41.6421 55.4506 41.4881L47.7198 35.6736C47.5937 35.5813 47.4873 35.4649 47.4066 35.3311C47.3259 35.1973 47.2726 35.0489 47.2497 34.8943C47.2268 34.7398 47.2349 34.5822 47.2734 34.4308C47.3119 34.2794 47.3801 34.1372 47.474 34.0123C47.5679 33.8875 47.6857 33.7825 47.8205 33.7035C47.9553 33.6246 48.1044 33.5731 48.2592 33.5523C48.414 33.5314 48.5715 33.5414 48.7224 33.5819C48.8733 33.6223 49.0146 33.6923 49.1383 33.7878L56.8687 39.6028C57.0669 39.7515 57.2133 39.9588 57.2871 40.1954C57.3609 40.432 57.3583 40.6859 57.2797 40.9209C57.2012 41.1559 57.0506 41.3603 56.8493 41.5049C56.6481 41.6495 56.4064 41.7271 56.1585 41.7267V41.7253Z"
        fill="#13141F" />
    <path
        d="M49.3854 42.683C49.1662 42.6828 48.9514 42.6216 48.7651 42.5061C48.5787 42.3907 48.4282 42.2257 48.3304 42.0295C48.2326 41.8334 48.1914 41.6138 48.2113 41.3955C48.2313 41.1773 48.3117 40.9688 48.4435 40.7937L54.2588 33.0631C54.4479 32.8158 54.7271 32.6534 55.0355 32.611C55.3439 32.5687 55.6566 32.65 55.9053 32.8371C56.1541 33.0243 56.3188 33.3021 56.3636 33.6102C56.4084 33.9182 56.3297 34.2315 56.1445 34.4818L50.3294 42.2124C50.2194 42.3587 50.0769 42.4775 49.913 42.5592C49.7492 42.6409 49.5685 42.6832 49.3854 42.683Z"
        fill="#13141F" />
    <path
        d="M72.9466 39.3513C72.6911 39.3514 72.4426 39.2681 72.2387 39.1141L64.5083 33.299C64.3835 33.2062 64.2782 33.0897 64.1986 32.9561C64.119 32.8225 64.0666 32.6745 64.0444 32.5206C64.0222 32.3667 64.0306 32.2099 64.0692 32.0593C64.1078 31.9086 64.1758 31.7671 64.2692 31.6428C64.3627 31.5185 64.4798 31.4139 64.6139 31.3351C64.7479 31.2562 64.8962 31.2046 65.0502 31.1833C65.2043 31.1619 65.361 31.1712 65.5114 31.2107C65.6619 31.2501 65.803 31.3189 65.9268 31.4131L73.6571 37.2282C73.8554 37.3769 74.0018 37.5843 74.0756 37.8209C74.1494 38.0575 74.1468 38.3113 74.0682 38.5463C73.9896 38.7814 73.839 38.9857 73.6378 39.1303C73.4365 39.275 73.1948 39.3526 72.947 39.3521L72.9466 39.3513Z"
        fill="#13141F" />
    <path
        d="M66.174 40.309C65.9548 40.3089 65.7399 40.2477 65.5535 40.1323C65.3672 40.0169 65.2166 39.8518 65.1188 39.6556C65.021 39.4595 64.9797 39.2399 64.9997 39.0216C65.0196 38.8033 65.1 38.5949 65.2318 38.4197L71.0469 30.6891C71.2351 30.439 71.5148 30.2739 71.8247 30.2301C72.1346 30.1863 72.4491 30.2674 72.6992 30.4555C72.9493 30.6436 73.1145 30.9234 73.1583 31.2333C73.2021 31.5431 73.121 31.8577 72.9329 32.1078L67.1177 39.8384C67.0078 39.9848 66.8653 40.1035 66.7015 40.1852C66.5376 40.2669 66.357 40.3093 66.174 40.309V40.309Z"
        fill="#13141F" />
    <path
        d="M61.7184 51.4406C62.0735 50.9704 62.555 50.6109 63.1066 50.4038C63.6582 50.1968 64.2573 50.1507 64.8341 50.2711C65.4109 50.3915 65.9416 50.6733 66.3644 51.0837C66.7872 51.494 67.0846 52.0161 67.2221 52.5891C67.2471 52.6905 67.2517 52.7958 67.2359 52.899C67.22 53.0021 67.1839 53.1012 67.1296 53.1903C67.0753 53.2795 67.0039 53.3571 66.9195 53.4185C66.8351 53.48 66.7394 53.5242 66.6379 53.5485C66.5364 53.5729 66.431 53.5769 66.328 53.5603C66.2249 53.5438 66.1261 53.5071 66.0373 53.4522C65.9484 53.3973 65.8713 53.3254 65.8104 53.2407C65.7495 53.1559 65.7059 53.0599 65.6822 52.9582C65.6355 52.7635 65.551 52.5798 65.4333 52.4178C65.3156 52.2558 65.1672 52.1185 64.9965 52.0138C64.8258 51.9091 64.6361 51.8391 64.4383 51.8077C64.2406 51.7763 64.0385 51.7842 63.8438 51.8309C63.6491 51.8776 63.4654 51.9622 63.3034 52.0798C63.1413 52.1975 63.0041 52.3459 62.8994 52.5166C62.7947 52.6873 62.7247 52.877 62.6933 53.0748C62.6619 53.2726 62.6698 53.4746 62.7165 53.6693C62.7639 53.873 62.7288 54.0871 62.619 54.265C62.5091 54.4429 62.3333 54.5701 62.1299 54.6189C61.9266 54.6676 61.7122 54.6339 61.5336 54.5252C61.355 54.4165 61.2267 54.2415 61.1766 54.0384C61.0805 53.6415 61.064 53.2295 61.1281 52.8262C61.1923 52.4229 61.3357 52.0363 61.5503 51.6888C61.6025 51.6031 61.6585 51.5203 61.7184 51.4406Z"
        fill="#13141F" />
</svg>
