<svg fill="none" height="25" viewBox="0 0 39 25" width="39" xmlns="http://www.w3.org/2000/svg">
    <path d="M13.2677 20.5932H0.792969L1.49476 19.9004H13.6775L13.2677 20.5932Z" fill="#E0E0E0" />
    <path
        d="M23.7461 5.97456C23.8245 5.93646 23.8991 5.891 23.9689 5.83882C24.1034 5.74917 24.2865 5.62367 24.4812 5.48152L24.5824 5.4098L24.5452 5.40084C24.6528 5.58909 24.7488 5.75429 24.8206 5.87083C24.8563 5.93642 24.8993 5.99784 24.9486 6.05396C24.9256 5.98387 24.8942 5.91679 24.8551 5.85418C24.7924 5.73252 24.7002 5.56348 24.599 5.37522L24.5836 5.34961L24.5606 5.36626L24.4581 5.43797C24.2583 5.58013 24.0739 5.71075 23.9459 5.80808C23.8735 5.8562 23.8065 5.91202 23.7461 5.97456Z"
        fill="#263238" />
    <path
        d="M38.4993 20.126C38.6613 17.8125 36.9171 15.8057 34.6036 15.6438C32.2901 15.4818 30.2833 17.226 30.1214 19.5395C29.9594 21.853 31.7036 23.8598 34.0171 24.0217C36.3306 24.1837 38.3374 22.4395 38.4993 20.126Z"
        fill="#263238" />
    <path
        d="M29.9395 19.7559V19.7674C29.9346 20.8711 30.3656 21.9322 31.1387 22.72C31.9118 23.5077 32.9646 23.9585 34.0682 23.9744C35.1719 23.9903 36.2372 23.5699 37.0326 22.8047C37.828 22.0394 38.2893 20.9912 38.3162 19.8878C38.3162 19.8878 38.3162 19.8801 38.3162 19.8775L29.9395 19.7559Z"
        fill="#263238" />
    <path
        d="M31.1879 19.785C31.1785 20.3679 31.3424 20.9405 31.6587 21.4302C31.975 21.9199 32.4294 22.3048 32.9646 22.536C33.4997 22.7673 34.0915 22.8345 34.6648 22.7292C35.2382 22.624 35.7675 22.3509 36.1856 21.9447C36.6037 21.5384 36.8918 21.0172 37.0135 20.4471C37.1353 19.877 37.085 19.2836 36.8693 18.742C36.6535 18.2004 36.2819 17.7351 35.8014 17.4048C35.321 17.0746 34.7534 16.8944 34.1705 16.887C33.391 16.877 32.6394 17.1765 32.0804 17.7197C31.5213 18.2629 31.2004 19.0056 31.1879 19.785Z"
        fill="#FAFAFA" />
    <path
        d="M34.1701 16.887C33.3907 16.877 32.639 17.1765 32.08 17.7197C31.5209 18.2629 31.2 19.0056 31.1875 19.785L37.0682 19.8696C37.0781 19.0901 36.7787 18.3385 36.2354 17.7794C35.6922 17.2204 34.9495 16.8994 34.1701 16.887Z"
        fill="#E0E0E0" />
    <path
        d="M32.3361 19.8013C32.3308 20.156 32.4309 20.5042 32.6236 20.802C32.8162 21.0998 33.0929 21.3338 33.4186 21.4743C33.7443 21.6148 34.1043 21.6555 34.4532 21.5914C34.802 21.5272 35.124 21.361 35.3784 21.1138C35.6327 20.8666 35.8081 20.5495 35.8822 20.2027C35.9563 19.8558 35.9258 19.4947 35.7947 19.1652C35.6636 18.8356 35.4376 18.5524 35.1454 18.3512C34.8533 18.1501 34.508 18.0402 34.1534 18.0353C33.6783 18.0288 33.22 18.2112 32.8793 18.5423C32.5386 18.8734 32.3432 19.3263 32.3361 19.8013Z"
        fill="#263238" />
    <path
        d="M32.1394 13.6836C32.1394 13.6836 36.4283 12.3863 38.2032 17.0452L29.2285 19.8255L32.1394 13.6836Z"
        fill="#EB6440" />
    <path
        d="M4.09418 19.7659C4.08235 20.5944 4.31646 21.4077 4.7669 22.1031C5.21733 22.7985 5.86386 23.3447 6.62472 23.6726C7.38558 24.0005 8.22659 24.0955 9.04141 23.9454C9.85623 23.7954 10.6082 23.407 11.2024 22.8296C11.7965 22.2521 12.206 21.5114 12.3792 20.7012C12.5524 19.891 12.4814 19.0476 12.1752 18.2777C11.869 17.5079 11.3414 16.8461 10.6591 16.3761C9.97685 15.906 9.1705 15.6489 8.34206 15.6372C7.792 15.6292 7.24577 15.7297 6.73456 15.9329C6.22335 16.1361 5.75719 16.438 5.36271 16.8215C4.96823 17.2049 4.65316 17.6623 4.4355 18.1675C4.21784 18.6727 4.10186 19.2159 4.09418 19.7659Z"
        fill="#263238" />
    <path
        d="M4.09574 19.7559V19.7674C4.09088 20.8711 4.52183 21.9322 5.29495 22.72C6.06806 23.5077 7.12084 23.9585 8.22449 23.9744C9.32813 23.9903 10.3934 23.5699 11.1889 22.8047C11.9843 22.0394 12.4456 20.9912 12.4724 19.8878C12.4724 19.8878 12.4724 19.8801 12.4724 19.8775L4.09574 19.7559Z"
        fill="#263238" />
    <path
        d="M5.34218 19.785C5.33283 20.3681 5.49677 20.9408 5.81321 21.4306C6.12966 21.9204 6.58437 22.3052 7.11973 22.5364C7.6551 22.7675 8.24703 22.8346 8.82053 22.729C9.39403 22.6234 9.92329 22.35 10.3412 21.9434C10.7592 21.5367 11.0471 21.0152 11.1683 20.4448C11.2896 19.8744 11.2389 19.2808 11.0225 18.7393C10.8061 18.1978 10.4339 17.7327 9.95297 17.4029C9.47204 17.0732 8.90404 16.8936 8.32095 16.8869C7.54215 16.878 6.79153 17.1779 6.23329 17.721C5.67506 18.2642 5.35465 19.0063 5.34218 19.785Z"
        fill="#FAFAFA" />
    <path
        d="M8.3205 16.887C7.54105 16.877 6.78944 17.1765 6.23037 17.7197C5.6713 18.2629 5.35037 19.0056 5.33789 19.785L11.2186 19.8696C11.2285 19.0901 10.9291 18.3385 10.3858 17.7794C9.84261 17.2204 9.09992 16.8994 8.3205 16.887Z"
        fill="#E0E0E0" />
    <path
        d="M6.49043 19.8013C6.48515 20.156 6.58517 20.5042 6.77786 20.802C6.97054 21.0998 7.24723 21.3338 7.57291 21.4743C7.89859 21.6148 8.25862 21.6555 8.60747 21.5914C8.95631 21.5272 9.27828 21.361 9.53265 21.1138C9.78702 20.8666 9.96235 20.5495 10.0365 20.2027C10.1106 19.8558 10.0801 19.4947 9.94899 19.1652C9.81785 18.8356 9.59191 18.5524 9.29974 18.3512C9.00758 18.1501 8.66233 18.0402 8.30766 18.0353C7.83258 18.0288 7.37435 18.2112 7.03361 18.5423C6.69288 18.8734 6.49752 19.3263 6.49043 19.8013Z"
        fill="#263238" />
    <path
        d="M14.2406 18.1453C14.2112 18.1569 12.0341 17.8047 12.0341 17.8047C11.9162 17.9588 11.7661 18.0853 11.5942 18.1753C11.4223 18.2654 11.2329 18.3168 11.039 18.3259C10.0978 18.3707 9.1757 18.413 8.37787 18.454C8.02206 18.4703 7.68711 18.6265 7.44603 18.8887C7.20495 19.1509 7.07727 19.4978 7.09082 19.8537C7.10531 20.1929 7.24672 20.5142 7.48701 20.754C7.72729 20.9938 8.04891 21.1346 8.38811 21.1484L13.0266 21.3303C13.795 21.361 14.8041 20.8974 15.2805 20.3058L14.2406 18.1453Z"
        fill="#EB6440" />
    <path
        d="M2.84357 16.2921C2.84357 16.2921 2.64379 12.2107 6.48059 11.3591V10.8366H19.9196V12.0839C19.9196 12.0839 17.9475 14.4595 18.5916 16.4317C19.2358 18.4039 19.4368 18.6088 19.4368 18.6088H27.0861C27.6892 17.7599 28.0254 16.7504 28.0517 15.7094C28.0927 13.9793 27.373 11.0185 26.8364 9.12695C26.3485 7.40576 26.0398 5.9676 26.0398 5.9676L28.3334 5.19922C28.3334 5.19922 32.5801 10.7508 32.7529 11.0633C32.9258 11.3758 33.5213 12.1032 33.3779 13.6988C33.2345 15.2945 29.4233 20.2199 28.418 20.7757C27.4127 21.3315 26.5047 21.366 25.6082 21.5056C24.8245 21.626 19.0347 21.5453 17.5197 21.5223C16.9931 21.5194 16.4768 21.3762 16.0239 21.1073C15.5706 20.8333 15.2299 20.3787 14.8547 19.632L14.0569 18.0709L2.84357 16.2921Z"
        fill="#EB6440" />
    <path
        d="M3.8738 16.0117L2.1808 18.6588C2.13229 18.7328 2.10887 18.8204 2.11397 18.9087C2.11907 18.997 2.15243 19.0813 2.20913 19.1492C2.26583 19.2171 2.34286 19.265 2.42885 19.2858C2.51483 19.3065 2.60521 19.2991 2.68665 19.2645C2.89725 19.1715 3.08942 19.0414 3.25397 18.8804C4.02876 18.1427 5.40929 16.2025 5.40929 16.2025L3.8738 16.0117Z"
        fill="#EB6440" />
    <path
        d="M16.0117 16.4847C16.0136 16.4716 16.0166 16.4588 16.0207 16.4463C16.0292 16.4198 16.0408 16.3827 16.0553 16.3348C16.096 16.1918 16.1256 16.0458 16.1436 15.8981C16.2026 15.3513 16.1142 14.7985 15.8875 14.2973C15.7335 13.9522 15.5227 13.6353 15.2638 13.3599C14.9658 13.0459 14.62 12.781 14.2393 12.5749C13.8173 12.347 13.3656 12.1789 12.8972 12.0754C12.3923 11.9663 11.877 11.9131 11.3605 11.9166C10.8463 11.9206 10.3329 11.9583 9.82368 12.0293C9.32807 12.0972 8.85168 12.1792 8.40345 12.2855C7.6067 12.4541 6.83878 12.738 6.12391 13.1281C5.64404 13.3947 5.20534 13.7295 4.8215 14.1219C4.68575 14.2615 4.5897 14.378 4.52439 14.4574L4.45139 14.5484C4.44377 14.5589 4.4352 14.5688 4.42578 14.5778C4.53964 14.41 4.66821 14.2528 4.80997 14.1078C5.19023 13.7075 5.62839 13.3664 6.10982 13.0961C6.8255 12.698 7.59631 12.4084 8.39705 12.2368C8.84655 12.1331 9.32295 12.0498 9.81984 11.9807C10.3332 11.9078 10.8509 11.8693 11.3694 11.8654C11.8886 11.8617 12.4066 11.9159 12.9139 12.0268C13.3869 12.1344 13.8428 12.3068 14.2688 12.539C14.6546 12.7484 15.0048 13.0177 15.3061 13.3369C15.5675 13.6166 15.7792 13.9388 15.9323 14.2897C16.1596 14.797 16.245 15.3564 16.1795 15.9084C16.1591 16.0569 16.1261 16.2034 16.0809 16.3464L16.0412 16.4565C16.0319 16.4665 16.0221 16.4759 16.0117 16.4847Z"
        fill="#263238" />
    <path
        d="M15.2355 15.569C15.2291 15.569 15.2573 15.5037 15.2868 15.3872C15.3246 15.219 15.3294 15.045 15.3008 14.8749C15.2616 14.625 15.1774 14.3841 15.0524 14.1642C14.9811 14.0326 14.898 13.9079 14.8039 13.7915C14.7039 13.6665 14.591 13.5523 14.4671 13.4509C14.227 13.2541 13.9573 13.0963 13.668 12.9834C13.4308 12.8921 13.185 12.8252 12.9342 12.7836C12.7646 12.7552 12.5936 12.7355 12.422 12.7247C12.3585 12.7242 12.2952 12.7195 12.2324 12.7106C12.249 12.7084 12.2658 12.7084 12.2824 12.7106C12.3144 12.7106 12.3618 12.7106 12.4232 12.7106C12.5947 12.7133 12.7659 12.7274 12.9355 12.7529C13.19 12.7899 13.4398 12.8539 13.6808 12.9437C13.9764 13.0564 14.2518 13.216 14.4966 13.4163C14.6222 13.5214 14.736 13.64 14.836 13.7697C14.9327 13.8898 15.0185 14.0184 15.0921 14.1539C15.2182 14.38 15.3012 14.6275 15.3367 14.8839C15.3616 15.0572 15.3502 15.2338 15.3034 15.4026C15.2915 15.4468 15.2752 15.4897 15.2547 15.5306C15.2494 15.5439 15.243 15.5568 15.2355 15.569Z"
        fill="#F5F5F5" />
    <g opacity="0.4">
        <path
            d="M12.6055 11.9902C13.3292 12.1234 14.0178 12.4037 14.6289 12.8137C15.2435 13.2221 15.7171 13.8102 15.9851 14.4977C16.2527 15.188 16.213 16.1024 15.93 16.6748L16.8802 16.7529C17.2004 15.6874 16.8521 14.3786 16.0837 13.5437C15.6438 13.0572 15.1072 12.6678 14.5083 12.4003C13.9094 12.1328 13.2614 11.9932 12.6055 11.9902Z"
            fill="black" />
    </g>
    <path
        d="M19.9147 11.3101C19.9147 11.3255 16.8937 11.337 13.1683 11.337C9.44291 11.337 6.42188 11.3255 6.42188 11.3101C6.42188 11.2947 9.44291 11.2832 13.1683 11.2832C16.8937 11.2832 19.9147 11.296 19.9147 11.3101Z"
        fill="#263238" />
    <path
        d="M19.9207 10.8353C20.057 10.6616 20.1413 10.4529 20.164 10.2334C20.1845 9.89527 20.0359 9.47266 19.6684 9.47266H15.0273C14.8485 9.47266 14.6713 9.50791 14.5061 9.5764C14.3408 9.6449 14.1907 9.74528 14.0643 9.87183C13.9379 9.99837 13.8376 10.1486 13.7693 10.3139C13.7009 10.4792 13.6658 10.6564 13.666 10.8353H19.9207Z"
        fill="#EB6440" />
    <path
        d="M26.0411 5.96411L25.233 4.28135C25.1251 4.05041 25.1072 3.78756 25.1827 3.54413C25.2583 3.30069 25.4219 3.09415 25.6415 2.96485L28.0542 1.52541C28.1804 1.44996 28.3247 1.41013 28.4717 1.41016H28.993L29.203 4.81154L28.3975 5.12657L28.9097 5.95387L26.0411 5.96411Z"
        fill="#EB6440" />
    <path
        d="M29 1.5332C29 1.5332 29.826 1.72274 29.9297 2.99569C30.0335 4.26865 29.2023 4.66053 29.2023 4.66053L29 1.5332Z"
        fill="white" />
    <path
        d="M29.0004 1.53314C29.0061 1.55533 29.0091 1.57811 29.0094 1.60101L29.0248 1.78414C29.0388 1.95063 29.0555 2.17602 29.0773 2.45264C29.1208 3.01612 29.1784 3.79091 29.2348 4.66303L29.1874 4.63485C29.2761 4.58627 29.3576 4.52549 29.4294 4.45428C29.5931 4.29597 29.7176 4.10174 29.7931 3.88696C29.8646 3.6866 29.9031 3.47597 29.9071 3.26329C29.9205 2.90062 29.8508 2.53969 29.7035 2.20803C29.6003 1.98635 29.4399 1.79625 29.2386 1.65736C29.1633 1.60753 29.0835 1.56467 29.0004 1.5293C29.0241 1.53085 29.0475 1.53603 29.0696 1.54466C29.1334 1.56743 29.1948 1.59661 29.2527 1.63175C29.4657 1.76573 29.6366 1.95703 29.7458 2.1837C29.9034 2.5203 29.9797 2.88922 29.9686 3.26072C29.9663 3.479 29.9278 3.69538 29.8546 3.90104C29.7743 4.12584 29.6428 4.32885 29.4704 4.49398C29.3943 4.56955 29.3081 4.6342 29.2143 4.68608L29.1695 4.70913V4.6579C29.1131 3.77042 29.0696 2.98026 29.0414 2.41806C29.0286 2.14529 29.0171 1.92245 29.0094 1.75725L29.0017 1.5818C29 1.56564 28.9996 1.54937 29.0004 1.53314Z"
        fill="#263238" />
    <path
        d="M26.0272 3.66202C26.0272 3.66202 23.8283 4.70446 23.5594 4.86967C23.3737 4.98877 23.2136 5.19623 23.3596 5.56249C23.6093 6.18488 24.6402 5.59963 24.6402 5.59963L26.6892 4.57512C26.6892 4.57512 27.4756 4.20245 27.1848 3.73886C26.8544 3.22404 26.0272 3.66202 26.0272 3.66202Z"
        fill="#263238" />
    <path
        d="M25.7495 2.29747C26.1095 2.29747 26.4013 1.78316 26.4013 1.14873C26.4013 0.514306 26.1095 0 25.7495 0C25.3895 0 25.0977 0.514306 25.0977 1.14873C25.0977 1.78316 25.3895 2.29747 25.7495 2.29747Z"
        fill="#263238" />
    <path
        d="M25.8574 1.93993L26.216 3.18087C26.2814 3.14805 26.3337 3.0938 26.364 3.02715C26.3943 2.96051 26.4008 2.88549 26.3825 2.81461C26.2928 2.38943 26.2416 2.0872 26.143 1.71454C26.1315 1.6774 25.8574 1.93993 25.8574 1.93993Z"
        fill="#263238" />
    <g opacity="0.3">
        <path
            d="M18.7679 16.9602C18.732 16.8577 18.6962 16.754 18.6616 16.6464C18.627 16.5389 18.5924 16.4428 18.5656 16.3429C18.5236 16.1897 18.4937 16.0334 18.4759 15.8755C17.8714 18.3356 18.7935 20.0683 20.3789 20.19C22.6931 20.368 25.5156 20.4973 26.6541 20.1977C28.7351 19.6521 29.4984 17.9168 29.6802 17.6364C29.8621 17.3559 31.518 14.3246 30.5037 11.4125C29.4894 8.50028 27.7221 5.40625 27.7209 5.40625L26.0368 5.96845C26.0368 5.96845 26.3454 7.40661 26.8334 9.12779C27.37 11.0193 28.0897 13.9801 28.0487 15.7103C28.0223 16.7513 27.6862 17.7607 27.0831 18.6097H19.4364C19.4364 18.6097 19.2725 18.4457 18.7679 16.9653"
            fill="black" />
    </g>
    <path
        d="M2.5386 15.6504L2.59239 15.0664L16.5514 16.6749C16.738 16.697 16.9182 16.7569 17.0808 16.851C17.2435 16.9452 17.3852 17.0715 17.4973 17.2224C17.6094 17.3732 17.6895 17.5453 17.7328 17.7282C17.776 17.9111 17.7814 18.1009 17.7488 18.2859L17.686 18.6394L3.23911 16.5391C3.03075 16.5089 2.84195 16.3998 2.71162 16.2345C2.58128 16.0691 2.51936 15.86 2.5386 15.6504Z"
        fill="#EB6440" />
    <g opacity="0.3">
        <path
            d="M2.53665 15.6504L2.59043 15.0664L16.5494 16.6749C16.736 16.697 16.9162 16.7569 17.0789 16.851C17.2415 16.9452 17.3832 17.0715 17.4953 17.2224C17.6074 17.3732 17.6876 17.5453 17.7308 17.7282C17.774 17.9111 17.7795 18.1009 17.7468 18.2859L17.6841 18.6394L3.23716 16.5391C3.0288 16.5089 2.84 16.3998 2.70966 16.2345C2.57933 16.0691 2.5174 15.86 2.53665 15.6504Z"
            fill="black" />
    </g>
    <g opacity="0.3">
        <path
            d="M29.6836 19.5578C29.6836 19.5578 32.7571 16.1782 33.391 13.5196C33.7096 13.518 34.0277 13.5416 34.3426 13.59C34.3426 13.59 32.5241 18.5308 29.6836 19.5578Z"
            fill="black" />
    </g>
    <path
        d="M33.3469 12.3262C33.3553 12.3541 33.3609 12.3829 33.3635 12.412C33.3712 12.4683 33.3879 12.5503 33.3994 12.6591C33.4275 12.9647 33.4193 13.2725 33.3751 13.5761C33.304 14.0269 33.1672 14.4648 32.9691 14.8759C32.726 15.3756 32.4545 15.8609 32.1559 16.3295C31.6203 17.1861 31.0187 17.9996 30.3566 18.7627C30.1069 19.0585 29.9007 19.2941 29.756 19.4555L29.5908 19.6412C29.5722 19.6639 29.5516 19.6849 29.5293 19.7039C29.5447 19.6793 29.5622 19.6562 29.5818 19.6348L29.7406 19.4427L30.3284 18.7383C30.9798 17.9711 31.5751 17.1579 32.1098 16.3051C32.4073 15.8376 32.6796 15.3545 32.9256 14.858C33.1228 14.4527 33.2616 14.0216 33.3379 13.5774C33.3859 13.2764 33.3992 12.9709 33.3776 12.6668C33.3712 12.5592 33.3571 12.476 33.3533 12.4197C33.3485 12.3887 33.3464 12.3575 33.3469 12.3262Z"
        fill="#263238" />
    <path
        d="M28.0343 19.5327C27.6944 19.2495 27.3779 18.9395 27.0879 18.6055C27.2634 18.7402 27.4279 18.8888 27.5797 19.0499C27.7441 19.1981 27.8962 19.3596 28.0343 19.5327Z"
        fill="#263238" />
    <path
        d="M18.9121 19.4285C18.9611 19.2705 19.0374 19.1222 19.1375 18.9905C19.2237 18.8496 19.3327 18.7241 19.4602 18.6191C19.473 18.6294 19.3322 18.7984 19.1823 19.02C19.0325 19.2415 18.9262 19.4349 18.9121 19.4285Z"
        fill="#263238" />
    <path
        d="M13.0074 21.3803C13.1753 21.2269 13.3168 21.0469 13.4262 20.8475C13.5411 20.6297 13.6112 20.3911 13.6324 20.1457C13.6636 19.8467 13.6115 19.5448 13.4817 19.2736C13.352 19.0024 13.1497 18.7723 12.8973 18.609C12.6936 18.4705 12.464 18.3747 12.2224 18.3272C11.9987 18.2864 11.7697 18.2833 11.5449 18.3183C11.5449 18.3183 11.5603 18.3119 11.591 18.3042C11.633 18.2925 11.6758 18.284 11.7191 18.2786C11.8868 18.2554 12.0572 18.2593 12.2237 18.2901C12.4717 18.3339 12.708 18.4285 12.9178 18.568C13.1806 18.7343 13.3911 18.9715 13.525 19.2522C13.6589 19.5329 13.7108 19.8458 13.6746 20.1547C13.651 20.4057 13.5756 20.649 13.4531 20.8693C13.3721 21.0177 13.2684 21.1525 13.1457 21.2689C13.1035 21.3111 13.0638 21.3367 13.0407 21.3572C13.0305 21.3662 13.0194 21.3739 13.0074 21.3803Z"
        fill="#263238" />
    <path
        d="M7.91036 20.3096C7.87574 20.148 7.859 19.9831 7.86042 19.8179C7.8434 19.6531 7.8434 19.487 7.86042 19.3223C7.89508 19.4843 7.91183 19.6496 7.91036 19.8153C7.92808 19.9796 7.92808 20.1453 7.91036 20.3096Z"
        fill="#263238" />
    <path
        d="M8.27814 20.3102C8.2312 20.1499 8.20116 19.9851 8.18849 19.8185C8.15911 19.6541 8.14666 19.4872 8.15135 19.3203C8.19918 19.4805 8.22924 19.6454 8.241 19.8121C8.27191 19.9762 8.28437 20.1433 8.27814 20.3102Z"
        fill="#263238" />
    <path
        d="M14.0378 10.8355C14.0378 10.8496 12.3409 10.8624 10.2471 10.8624C8.15321 10.8624 6.45508 10.8496 6.45508 10.8355C6.45508 10.8214 8.15321 10.8086 10.2471 10.8086C12.3409 10.8086 14.0378 10.8201 14.0378 10.8355Z"
        fill="#263238" />
    <path
        d="M5.15012 22.6718C5.13354 22.6586 5.1185 22.6436 5.1053 22.627C5.07841 22.5962 5.03487 22.5514 4.9862 22.4887C4.84264 22.3151 4.71411 22.1296 4.60201 21.9341C4.23159 21.2867 4.03813 20.5532 4.04105 19.8073C4.04397 19.0614 4.24318 18.3295 4.61866 17.685C4.73059 17.4903 4.85914 17.3056 5.00285 17.133C5.05151 17.0703 5.09634 17.0267 5.12323 16.996C5.13703 16.9795 5.15248 16.9645 5.16933 16.9512C5.15858 16.9694 5.14614 16.9865 5.13219 17.0024C5.10658 17.0357 5.0656 17.0818 5.0195 17.1458C4.88325 17.3218 4.7608 17.5081 4.65323 17.7029C4.29103 18.3451 4.09923 19.0693 4.09609 19.8066C4.09295 20.5439 4.27858 21.2697 4.63531 21.9149C4.74195 22.1107 4.8631 22.2982 4.99773 22.4759C5.04255 22.5412 5.08353 22.586 5.10786 22.6206C5.12396 22.6359 5.13815 22.6531 5.15012 22.6718Z"
        fill="#EB6440" />
</svg>
