<svg fill="none" height="203" viewBox="0 0 184 203" width="184" xmlns="http://www.w3.org/2000/svg">
    <path
        d="M59.5578 71.4556L35.4461 168.605C34.4302 172.691 34.7348 176.994 36.3164 180.896C37.898 184.798 40.6751 188.098 44.2491 190.323C53.4466 196.044 68.6523 202.235 91.9048 202.945C116.552 203.697 132.948 196.617 142.644 190.19C146.07 187.916 148.709 184.638 150.199 180.805C151.688 176.973 151.955 172.773 150.964 168.782L126.807 71.4556"
        fill="#F4F4F4" />
    <path
        d="M93.1823 75.968C125.151 75.968 151.066 67.2287 151.066 56.4481C151.066 45.6676 125.151 36.9282 93.1823 36.9282C61.2142 36.9282 35.2988 45.6676 35.2988 56.4481C35.2988 67.2287 61.2142 75.968 93.1823 75.968Z"
        fill="#13141F" />
    <path
        d="M93.1824 76.292C77.6866 76.292 63.114 74.2556 52.149 70.5568C41.074 66.822 34.9746 61.8111 34.9746 56.4472C34.9746 51.0833 41.0734 46.0725 52.149 42.3377C63.114 38.6401 77.6866 36.6025 93.1824 36.6025C108.678 36.6025 123.25 38.6392 134.216 42.3377C145.29 46.0725 151.39 51.0833 151.39 56.4472C151.39 61.8111 145.291 66.822 134.216 70.5568C123.25 74.2556 108.678 76.292 93.1824 76.292ZM93.1824 37.2522C77.7551 37.2522 63.2561 39.2765 52.3557 42.9523C41.5653 46.5912 35.6225 51.3841 35.6225 56.4481C35.6225 61.5121 41.5653 66.305 52.3557 69.9438C63.2561 73.6197 77.7554 75.644 93.1824 75.644C108.609 75.644 123.108 73.6197 134.009 69.9438C144.799 66.305 150.742 61.5121 150.742 56.4481C150.742 51.3841 144.799 46.5912 134.009 42.9523C123.108 39.2765 108.609 37.2522 93.1824 37.2522Z"
        fill="#13141F" />
    <path
        d="M93.1822 68.5321C135.184 68.5321 169.233 59.165 169.233 47.6101C169.233 36.0551 135.184 26.688 93.1822 26.688C51.1802 26.688 17.1309 36.0551 17.1309 47.6101C17.1309 59.165 51.1802 68.5321 93.1822 68.5321Z"
        fill="#00A3E4" />
    <path
        d="M93.1822 68.8558C72.8398 68.8558 53.711 66.6753 39.3197 62.7161C24.802 58.7222 16.8066 53.3575 16.8066 47.6089C16.8066 41.8603 24.802 36.4964 39.3197 32.5017C53.711 28.5425 72.8398 26.3623 93.1822 26.3623C113.525 26.3623 132.653 28.5425 147.044 32.5017C161.562 36.4956 169.557 41.8606 169.557 47.6089C169.557 53.3572 161.562 58.7214 147.044 62.7161C132.653 66.6753 113.524 68.8558 93.1822 68.8558ZM93.1822 27.0116C72.8963 27.0116 53.8285 29.184 39.4915 33.1281C32.5391 35.0406 27.0862 37.2644 23.2837 39.7375C19.4157 42.2534 17.4546 44.9019 17.4546 47.6097C17.4546 50.3176 19.4157 52.9664 23.2837 55.482C27.0862 57.9551 32.5391 60.1789 39.4915 62.0917C53.8285 66.0363 72.8952 68.2078 93.1822 68.2078C113.469 68.2078 132.536 66.0358 146.873 62.0917C153.825 60.1789 159.278 57.9551 163.08 55.482C166.948 52.9664 168.91 50.3176 168.91 47.6097C168.91 44.9019 166.948 42.2534 163.08 39.7375C159.278 37.2644 153.825 35.0406 146.873 33.1281C132.536 29.184 113.468 27.0128 93.1822 27.0128V27.0116Z"
        fill="#13141F" />
    <path
        d="M128.174 35.4155C128.174 44.6647 112.144 46.8435 95.4269 47.2394C77.2143 47.6705 58.1904 44.5232 58.1904 35.4155C58.2166 26.1521 61.9149 17.277 68.4744 10.7361C75.0338 4.1951 83.9193 0.521973 93.1828 0.521973C102.446 0.521973 111.332 4.1951 117.891 10.7361C124.451 17.277 128.149 26.1521 128.175 35.4155H128.174Z"
        fill="white" />
    <path
        d="M123.633 33.5841C123.549 33.584 123.468 33.5513 123.408 33.4927C123.348 33.4341 123.312 33.3543 123.31 33.2702C123.211 29.9501 122.555 26.6702 121.369 23.5677C121.338 23.4875 121.341 23.3983 121.376 23.3199C121.411 23.2414 121.476 23.1801 121.556 23.1493C121.636 23.1186 121.725 23.121 121.804 23.1561C121.882 23.1911 121.943 23.2558 121.974 23.3361C123.186 26.5063 123.857 29.8578 123.957 33.2503C123.96 33.3362 123.929 33.4195 123.87 33.4821C123.811 33.5447 123.73 33.5814 123.644 33.5841H123.633Z"
        fill="#13141F" />
    <path
        d="M118.794 18.1374C118.74 18.1375 118.687 18.1241 118.64 18.0984C118.592 18.0727 118.552 18.0355 118.523 17.9903C114.248 11.4645 107.594 6.86554 99.9786 5.17264C99.8967 5.15238 99.826 5.10099 99.7814 5.02937C99.7368 4.95776 99.7219 4.87158 99.7399 4.78916C99.7578 4.70673 99.8072 4.63457 99.8776 4.58801C99.9479 4.54144 100.034 4.52415 100.117 4.53981C107.898 6.26939 114.697 10.9685 119.065 17.6364C119.097 17.6852 119.115 17.7417 119.118 17.8C119.12 17.8583 119.107 17.9162 119.079 17.9675C119.051 18.0188 119.01 18.0617 118.96 18.0916C118.91 18.1215 118.853 18.1373 118.794 18.1374Z"
        fill="#13141F" />
    <path
        d="M92.0346 47.6034C76.5637 47.6034 64.7857 45.0016 60.171 40.4974C58.6416 39.0041 57.8664 37.2942 57.8664 35.4156C57.8533 30.7694 58.7571 26.1664 60.526 21.8702C62.295 17.5739 64.8943 13.669 68.175 10.379C71.4557 7.08909 75.3533 4.47882 79.6445 2.6978C83.9357 0.916776 88.5362 0 93.1824 0C97.8285 0 102.429 0.916776 106.72 2.6978C111.011 4.47882 114.909 7.08909 118.19 10.379C121.47 13.669 124.07 17.5739 125.839 21.8702C127.608 26.1664 128.511 30.7694 128.498 35.4156C128.498 39.7785 125.02 42.9893 118.159 44.9588C112.88 46.4743 105.447 47.3262 95.4352 47.5631C94.2837 47.59 93.1501 47.6034 92.0346 47.6034ZM93.1817 0.74677C83.9902 0.757137 75.1782 4.41299 68.6789 10.9123C62.1795 17.4116 58.5236 26.2236 58.5132 35.415C58.5132 37.1126 59.2229 38.6664 60.6229 40.0333C65.4465 44.7442 78.4533 47.3161 95.4189 46.9155C109.342 46.5862 127.852 45.0352 127.852 35.4158C127.842 26.2242 124.186 17.412 117.686 10.9127C111.186 4.41331 102.374 0.757606 93.1825 0.74761L93.1817 0.74677Z"
        fill="#13141F" />
    <path
        d="M36.5566 50.4106C39.0661 50.4106 41.1005 48.3762 41.1005 45.8667C41.1005 43.3571 39.0661 41.3228 36.5566 41.3228C34.0471 41.3228 32.0127 43.3571 32.0127 45.8667C32.0127 48.3762 34.0471 50.4106 36.5566 50.4106Z"
        fill="white" />
    <path
        d="M36.5564 50.7343C35.5936 50.7343 34.6524 50.4488 33.8519 49.9139C33.0514 49.379 32.4275 48.6188 32.059 47.7293C31.6906 46.8398 31.5942 45.861 31.782 44.9167C31.9698 43.9725 32.4335 43.1051 33.1142 42.4243C33.795 41.7435 34.6624 41.2799 35.6067 41.0921C36.551 40.9042 37.5297 41.0006 38.4192 41.3691C39.3087 41.7375 40.069 42.3614 40.6038 43.162C41.1387 43.9625 41.4242 44.9036 41.4242 45.8664C41.4227 47.157 40.9094 48.3943 39.9968 49.3069C39.0842 50.2195 37.8469 50.7328 36.5564 50.7343ZM36.5564 41.6462C35.7217 41.6462 34.9057 41.8937 34.2117 42.3574C33.5177 42.8211 32.9768 43.4803 32.6574 44.2514C32.338 45.0225 32.2544 45.8711 32.4172 46.6897C32.5801 47.5084 32.982 48.2604 33.5722 48.8506C34.1624 49.4408 34.9144 49.8427 35.733 50.0055C36.5517 50.1684 37.4002 50.0848 38.1714 49.7654C38.9425 49.446 39.6016 48.9051 40.0653 48.211C40.5291 47.517 40.7766 46.7011 40.7766 45.8664C40.7755 44.7475 40.3305 43.6747 39.5393 42.8835C38.7481 42.0923 37.6753 41.6473 36.5564 41.6462Z"
        fill="#13141F" />
    <path
        d="M93.1826 63.4238C95.6921 63.4238 97.7265 61.3894 97.7265 58.8798C97.7265 56.3703 95.6921 54.3359 93.1826 54.3359C90.6731 54.3359 88.6387 56.3703 88.6387 58.8798C88.6387 61.3894 90.6731 63.4238 93.1826 63.4238Z"
        fill="white" />
    <path
        d="M93.1823 63.7475C92.2196 63.7475 91.2784 63.462 90.4779 62.9271C89.6774 62.3922 89.0534 61.6319 88.685 60.7425C88.3166 59.853 88.2202 58.8742 88.408 57.9299C88.5958 56.9856 89.0594 56.1183 89.7402 55.4375C90.421 54.7567 91.2884 54.2931 92.2327 54.1053C93.1769 53.9174 94.1557 54.0138 95.0452 54.3823C95.9347 54.7507 96.6949 55.3746 97.2298 56.1751C97.7647 56.9757 98.0502 57.9168 98.0502 58.8796C98.0487 60.1702 97.5354 61.4075 96.6228 62.3201C95.7102 63.2327 94.4729 63.746 93.1823 63.7475ZM93.1823 54.6597C92.3477 54.6597 91.5318 54.9071 90.8379 55.3708C90.1439 55.8345 89.603 56.4936 89.2836 57.2647C88.9642 58.0358 88.8806 58.8843 89.0435 59.7029C89.2063 60.5215 89.6082 61.2734 90.1984 61.8635C90.7885 62.4537 91.5405 62.8556 92.3591 63.0185C93.1777 63.1813 94.0261 63.0977 94.7972 62.7783C95.5683 62.4589 96.2274 61.918 96.6911 61.2241C97.1548 60.5301 97.4023 59.7142 97.4023 58.8796C97.4011 57.7608 96.9561 56.6881 96.165 55.897C95.3738 55.1058 94.3012 54.6608 93.1823 54.6597Z"
        fill="#13141F" />
    <path
        d="M149.799 50.4106C152.308 50.4106 154.343 48.3762 154.343 45.8667C154.343 43.3571 152.308 41.3228 149.799 41.3228C147.289 41.3228 145.255 43.3571 145.255 45.8667C145.255 48.3762 147.289 50.4106 149.799 50.4106Z"
        fill="white" />
    <path
        d="M149.799 50.7343C148.836 50.7343 147.895 50.4488 147.094 49.9139C146.294 49.379 145.67 48.6188 145.301 47.7293C144.933 46.8398 144.836 45.861 145.024 44.9167C145.212 43.9725 145.676 43.1051 146.356 42.4243C147.037 41.7435 147.905 41.2799 148.849 41.0921C149.793 40.9042 150.772 41.0006 151.661 41.3691C152.551 41.7375 153.311 42.3614 153.846 43.162C154.381 43.9625 154.666 44.9036 154.666 45.8664C154.665 47.157 154.152 48.3943 153.239 49.3069C152.326 50.2195 151.089 50.7328 149.799 50.7343ZM149.799 41.6462C148.964 41.6462 148.148 41.8937 147.454 42.3574C146.76 42.8211 146.219 43.4803 145.9 44.2514C145.58 45.0225 145.497 45.8711 145.659 46.6897C145.822 47.5084 146.224 48.2604 146.814 48.8506C147.405 49.4408 148.157 49.8427 148.975 50.0055C149.794 50.1684 150.642 50.0848 151.414 49.7654C152.185 49.446 152.844 48.9051 153.308 48.211C153.771 47.517 154.019 46.7011 154.019 45.8664C154.018 44.7475 153.573 43.6747 152.781 42.8835C151.99 42.0923 150.917 41.6473 149.799 41.6462Z"
        fill="#13141F" />
    <path
        d="M125.65 58.8798C128.16 58.8798 130.194 56.8454 130.194 54.3359C130.194 51.8264 128.16 49.792 125.65 49.792C123.141 49.792 121.106 51.8264 121.106 54.3359C121.106 56.8454 123.141 58.8798 125.65 58.8798Z"
        fill="white" />
    <path
        d="M125.65 59.2035C124.687 59.2035 123.746 58.918 122.946 58.3831C122.145 57.8483 121.521 57.088 121.153 56.1985C120.784 55.309 120.688 54.3302 120.876 53.386C121.064 52.4417 121.527 51.5743 122.208 50.8935C122.889 50.2128 123.756 49.7491 124.7 49.5613C125.645 49.3735 126.623 49.4699 127.513 49.8383C128.402 50.2068 129.163 50.8307 129.698 51.6312C130.232 52.4317 130.518 53.3729 130.518 54.3356C130.516 55.6262 130.003 56.8635 129.091 57.7761C128.178 58.6887 126.941 59.202 125.65 59.2035ZM125.65 50.1154C124.815 50.1154 123.999 50.3628 123.305 50.8265C122.611 51.2902 122.07 51.9493 121.751 52.7204C121.431 53.4916 121.348 54.3401 121.511 55.1588C121.673 55.9775 122.075 56.7295 122.666 57.3197C123.256 57.9099 124.008 58.3119 124.826 58.4748C125.645 58.6376 126.494 58.5541 127.265 58.2347C128.036 57.9152 128.695 57.3743 129.159 56.6803C129.623 55.9863 129.87 55.1703 129.87 54.3356C129.869 53.2168 129.424 52.144 128.633 51.3528C127.842 50.5616 126.769 50.1166 125.65 50.1154Z"
        fill="#13141F" />
    <path
        d="M60.7148 59.4985C63.2243 59.4985 65.2587 57.4641 65.2587 54.9546C65.2587 52.445 63.2243 50.4106 60.7148 50.4106C58.2053 50.4106 56.1709 52.445 56.1709 54.9546C56.1709 57.4641 58.2053 59.4985 60.7148 59.4985Z"
        fill="white" />
    <path
        d="M60.7146 59.8227C59.7518 59.8227 58.8106 59.5372 58.0101 59.0023C57.2096 58.4674 56.5857 57.7071 56.2172 56.8176C55.8488 55.9282 55.7524 54.9494 55.9402 54.0051C56.128 53.0608 56.5917 52.1935 57.2725 51.5127C57.9532 50.8319 58.8206 50.3683 59.7649 50.1805C60.7092 49.9926 61.6879 50.089 62.5774 50.4575C63.4669 50.8259 64.2272 51.4498 64.762 52.2503C65.2969 53.0509 65.5824 53.992 65.5824 54.9548C65.581 56.2454 65.0676 57.4827 64.155 58.3953C63.2424 59.3078 62.0051 59.8212 60.7146 59.8227ZM60.7146 50.7346C59.8798 50.7343 59.0637 50.9816 58.3695 51.4451C57.6753 51.9087 57.1342 52.5677 56.8146 53.3389C56.4949 54.11 56.4112 54.9586 56.5739 55.7774C56.7366 56.5961 57.1384 57.3482 57.7286 57.9385C58.3188 58.5289 59.0708 58.9309 59.8895 59.0939C60.7082 59.2568 61.5568 59.1732 62.328 58.8538C63.0993 58.5344 63.7584 57.9934 64.2222 57.2994C64.6859 56.6053 64.9334 55.7893 64.9334 54.9545C64.9322 53.8359 64.4874 52.7634 63.6965 51.9723C62.9056 51.1812 61.8332 50.736 60.7146 50.7346Z"
        fill="#13141F" />
    <path
        d="M141.364 31.4221C141.026 32.4477 140.333 33.3193 139.41 33.8805C138.487 34.4416 137.394 34.6558 136.328 34.4845C135.261 34.3132 134.291 33.7677 133.59 32.9457C132.889 32.1237 132.504 31.079 132.504 29.9989C132.504 29.8974 132.508 29.798 132.515 29.6987C135.618 30.2171 138.574 30.7915 141.364 31.4221Z"
        fill="white" />
    <path
        d="M137.048 34.8659C135.757 34.8647 134.519 34.3514 133.607 33.4388C132.694 32.5261 132.181 31.2887 132.18 29.998C132.18 29.8895 132.184 29.7829 132.191 29.6766L132.215 29.3193L132.568 29.3784C135.688 29.8996 138.672 30.4806 141.436 31.1051L141.784 31.184L141.672 31.5227C141.352 32.4964 140.733 33.344 139.902 33.9444C139.072 34.5448 138.072 34.8674 137.048 34.8659ZM132.829 30.0795C132.847 31.0447 133.197 31.9744 133.818 32.7135C134.439 33.4526 135.295 33.9563 136.243 34.1407C137.19 34.3251 138.172 34.1791 139.026 33.7269C139.879 33.2747 140.551 32.5438 140.93 31.6559C138.39 31.0894 135.668 30.5598 132.829 30.0795Z"
        fill="#13141F" />
    <path
        d="M53.3716 29.999C53.3713 31.07 52.9928 32.1064 52.3029 32.9256C51.6129 33.7447 50.6559 34.2939 49.6005 34.4762C48.5452 34.6585 47.4593 34.4623 46.5346 33.9221C45.6098 33.3819 44.9055 32.5325 44.5459 31.5237C47.3251 30.8886 50.2707 30.3056 53.3651 29.7808C53.3693 29.8521 53.3716 29.9254 53.3716 29.999Z"
        fill="white" />
    <path
        d="M48.8278 34.866C47.8233 34.8646 46.8436 34.5533 46.0225 33.9746C45.2014 33.3958 44.5788 32.5779 44.2397 31.6323L44.1172 31.2887L44.4728 31.2076C47.2656 30.5694 50.239 29.9819 53.3099 29.4613L53.6658 29.4009L53.6876 29.7609C53.6924 29.8387 53.6946 29.9187 53.6946 29.9987C53.6931 31.2891 53.1799 32.5261 52.2676 33.4386C51.3552 34.3511 50.1182 34.8644 48.8278 34.866ZM44.9892 31.7548C45.3843 32.6177 46.0586 33.3222 46.9033 33.7547C47.748 34.1872 48.7138 34.3225 49.6448 34.1386C50.5758 33.9547 51.4176 33.4624 52.0345 32.7412C52.6513 32.0201 53.0071 31.112 53.0444 30.1638C50.2535 30.6433 47.5476 31.1777 44.9892 31.7548Z"
        fill="#13141F" />
    <path
        d="M100.25 188.625L58.7119 164.962L90.8567 108.534L119.579 124.896L125.094 145.012L100.25 188.625Z"
        fill="white" />
    <path d="M106.989 160.518C108.355 160.518 109.463 159.41 109.463 158.044C109.463 156.677 108.355 155.569 106.989 155.569C105.622 155.569 104.515 156.677 104.515 158.044C104.515 159.41 105.622 160.518 106.989 160.518Z"
        fill="#00A3E4"
        opacity="0.3" />
    <path d="M80.8775 147.486C82.244 147.486 83.3518 146.378 83.3518 145.012C83.3518 143.645 82.244 142.538 80.8775 142.538C79.5111 142.538 78.4033 143.645 78.4033 145.012C78.4033 146.378 79.5111 147.486 80.8775 147.486Z"
        fill="#00A3E4"
        opacity="0.3" />
    <path
        d="M100.371 189.066L58.2705 165.083L90.7359 108.092L119.856 124.682L125.442 145.056L100.371 189.066ZM59.154 164.841L100.129 188.183L124.748 144.968L119.304 125.111L90.9784 108.976L59.154 164.841Z"
        fill="#13141F" />
    <path d="M119.58 124.896L112.279 137.711L125.095 145.012L119.58 124.896Z" fill="#00A3E4"
        opacity="0.3" />
    <path
        d="M125.094 145.335C125.038 145.335 124.983 145.32 124.934 145.293L112.118 137.992C112.044 137.95 111.989 137.879 111.967 137.796C111.944 137.713 111.955 137.625 111.998 137.55L119.298 124.734C119.33 124.678 119.377 124.633 119.434 124.605C119.492 124.576 119.556 124.565 119.62 124.573C119.683 124.581 119.743 124.608 119.792 124.65C119.84 124.692 119.875 124.747 119.892 124.809L125.407 144.924C125.42 144.972 125.422 145.022 125.412 145.071C125.403 145.12 125.382 145.166 125.352 145.206C125.322 145.245 125.283 145.277 125.238 145.299C125.193 145.321 125.144 145.333 125.094 145.333V145.335ZM112.721 137.59L124.575 144.343L119.474 125.735L112.721 137.59Z"
        fill="#13141F" />
    <path
        d="M89.193 141.756C90.2715 141.756 91.1457 140.882 91.1457 139.803C91.1457 138.725 90.2715 137.851 89.193 137.851C88.1145 137.851 87.2402 138.725 87.2402 139.803C87.2402 140.882 88.1145 141.756 89.193 141.756Z"
        fill="#13141F" />
    <path
        d="M107.509 150.084C108.588 150.084 109.462 149.21 109.462 148.131C109.462 147.053 108.588 146.179 107.509 146.179C106.431 146.179 105.557 147.053 105.557 148.131C105.557 149.21 106.431 150.084 107.509 150.084Z"
        fill="#13141F" />
    <path
        d="M99.2106 162.061C99.1262 162.061 99.0452 162.028 98.9848 161.969C98.9243 161.911 98.8892 161.831 98.8869 161.746C98.8461 160.185 98.4074 158.659 97.6122 157.315C96.8171 155.97 95.6918 154.851 94.3431 154.063C92.9943 153.275 91.4667 152.844 89.9049 152.811C88.3432 152.779 86.7989 153.146 85.4185 153.877C85.3808 153.898 85.3393 153.911 85.2964 153.916C85.2535 153.921 85.21 153.917 85.1686 153.905C85.1272 153.892 85.0887 153.872 85.0553 153.845C85.0219 153.817 84.9943 153.784 84.9741 153.745C84.9539 153.707 84.9416 153.665 84.9378 153.622C84.934 153.579 84.9388 153.536 84.952 153.495C84.9653 153.454 84.9865 153.416 85.0147 153.383C85.0428 153.35 85.0772 153.323 85.1158 153.304C86.5937 152.522 88.2467 152.13 89.9185 152.165C91.5903 152.2 93.2254 152.661 94.6692 153.505C96.1129 154.348 97.3175 155.546 98.1689 156.985C99.0203 158.424 99.4904 160.057 99.5345 161.729C99.5368 161.814 99.5049 161.898 99.4458 161.96C99.3868 162.022 99.3054 162.059 99.2195 162.061H99.2106Z"
        fill="#13141F" />
    <path
        d="M90.8922 137.806C89.8404 137.792 88.8141 137.48 87.9335 136.904C87.8641 136.854 87.8173 136.779 87.8033 136.695C87.7892 136.61 87.8089 136.524 87.8583 136.454C87.9076 136.385 87.9825 136.337 88.0666 136.322C88.1507 136.307 88.2373 136.326 88.3075 136.375C88.3333 136.393 90.2337 137.698 92.3571 136.887C92.4368 136.858 92.5244 136.862 92.6012 136.898C92.678 136.933 92.7379 136.997 92.7681 137.076C92.7983 137.155 92.7964 137.243 92.7627 137.321C92.7291 137.398 92.6665 137.46 92.5882 137.492C92.0469 137.7 91.472 137.806 90.8922 137.806Z"
        fill="#13141F" />
    <path
        d="M110.894 147.115C110.858 147.115 110.822 147.109 110.788 147.097C108.057 146.146 107.746 144.04 107.734 143.951C107.723 143.865 107.746 143.779 107.798 143.71C107.85 143.642 107.927 143.597 108.013 143.585C108.098 143.574 108.184 143.597 108.253 143.649C108.321 143.701 108.366 143.778 108.378 143.864C108.389 143.94 108.665 145.671 111.002 146.485C111.074 146.511 111.135 146.561 111.174 146.627C111.213 146.692 111.227 146.77 111.215 146.845C111.202 146.921 111.163 146.989 111.105 147.039C111.046 147.088 110.972 147.115 110.896 147.115H110.894Z"
        fill="#13141F" />
    <path
        d="M3.30625 71.7799C3.26372 71.7799 3.2216 71.7716 3.18231 71.7553C3.14302 71.739 3.10733 71.7151 3.07727 71.685C3.04721 71.6549 3.02337 71.6192 3.00712 71.5799C2.99087 71.5406 2.98253 71.4985 2.98256 71.456V62.3164C2.98129 62.2731 2.98872 62.2299 3.00442 62.1895C3.02012 62.1491 3.04377 62.1123 3.07397 62.0812C3.10416 62.0501 3.14029 62.0254 3.18022 62.0085C3.22014 61.9916 3.26304 61.9829 3.30639 61.9829C3.34973 61.9829 3.39264 61.9916 3.43256 62.0085C3.47248 62.0254 3.50861 62.0501 3.53881 62.0812C3.569 62.1123 3.59265 62.1491 3.60835 62.1895C3.62405 62.2299 3.63149 62.2731 3.63021 62.3164V71.456C3.63025 71.4985 3.6219 71.5407 3.60563 71.58C3.58936 71.6193 3.5655 71.655 3.53541 71.6851C3.50532 71.7152 3.46959 71.7391 3.43027 71.7554C3.39095 71.7716 3.3488 71.78 3.30625 71.7799Z"
        fill="#13141F" />
    <path
        d="M6.28823 67.2109H0.323965C0.238044 67.2109 0.155643 67.1768 0.0948873 67.116C0.034132 67.0553 0 66.9729 0 66.887C0 66.801 0.034132 66.7186 0.0948873 66.6579C0.155643 66.5971 0.238044 66.563 0.323965 66.563H6.28823C6.37415 66.563 6.45655 66.5971 6.51731 66.6579C6.57806 66.7186 6.6122 66.801 6.6122 66.887C6.6122 66.9729 6.57806 67.0553 6.51731 67.116C6.45655 67.1768 6.37415 67.2109 6.28823 67.2109Z"
        fill="#13141F" />
    <path
        d="M158.877 122.683C158.791 122.683 158.708 122.649 158.648 122.588C158.587 122.528 158.553 122.445 158.553 122.359V108.457C158.553 108.371 158.587 108.288 158.648 108.228C158.708 108.167 158.791 108.133 158.877 108.133C158.963 108.133 159.045 108.167 159.106 108.228C159.167 108.288 159.201 108.371 159.201 108.457V122.359C159.201 122.445 159.166 122.528 159.106 122.588C159.045 122.649 158.963 122.683 158.877 122.683Z"
        fill="#13141F" />
    <path
        d="M163.414 115.732H154.342C154.256 115.732 154.173 115.698 154.112 115.638C154.052 115.577 154.018 115.494 154.018 115.408C154.018 115.323 154.052 115.24 154.112 115.179C154.173 115.119 154.256 115.084 154.342 115.084H163.414C163.5 115.084 163.583 115.119 163.643 115.179C163.704 115.24 163.738 115.323 163.738 115.408C163.738 115.494 163.704 115.577 163.643 115.638C163.583 115.698 163.5 115.732 163.414 115.732Z"
        fill="#13141F" />
    <path
        d="M180.959 78.731C180.916 78.7311 180.874 78.7227 180.835 78.7065C180.795 78.6902 180.76 78.6663 180.73 78.6362C180.699 78.6061 180.676 78.5704 180.659 78.5311C180.643 78.4918 180.635 78.4496 180.635 78.4071V71.4558C180.635 71.3699 180.669 71.2875 180.73 71.2267C180.79 71.166 180.873 71.1318 180.959 71.1318C181.045 71.1318 181.127 71.166 181.188 71.2267C181.249 71.2875 181.283 71.3699 181.283 71.4558V78.4071C181.283 78.4496 181.274 78.4918 181.258 78.5311C181.242 78.5704 181.218 78.6061 181.188 78.6362C181.158 78.6663 181.122 78.6902 181.083 78.7065C181.043 78.7227 181.001 78.7311 180.959 78.731Z"
        fill="#13141F" />
    <path
        d="M183.228 75.2553H178.691C178.649 75.2553 178.606 75.247 178.567 75.2307C178.528 75.2144 178.492 75.1905 178.462 75.1605C178.432 75.1304 178.408 75.0947 178.392 75.0554C178.376 75.0161 178.367 74.9739 178.367 74.9314C178.367 74.8888 178.376 74.8467 178.392 74.8074C178.408 74.7681 178.432 74.7324 178.462 74.7023C178.492 74.6722 178.528 74.6484 178.567 74.6321C178.606 74.6158 178.649 74.6074 178.691 74.6074H183.228C183.313 74.6074 183.396 74.6416 183.457 74.7023C183.517 74.7631 183.551 74.8455 183.551 74.9314C183.551 75.0173 183.517 75.0997 183.457 75.1605C183.396 75.2212 183.313 75.2553 183.228 75.2553Z"
        fill="#13141F" />
</svg>
