<svg fill="none" height="21" viewBox="0 0 45 21" width="45" xmlns="http://www.w3.org/2000/svg">
    <path d="M6.10337 17.1822L12.9578 17.1897V12.8569H5.85742L6.10337 17.1822Z" fill="#162025" />
    <path d="M34.4964 17.1822L41.7681 17.1897V12.8569H34.2354L34.4964 17.1822Z" fill="#162025" />
    <path
        d="M43.5002 11.2098C43.5002 11.2098 41.1011 9.46021 38.4103 8.62512C38.4103 8.62512 32.8516 3.07536 31.4377 1.87358C31.4377 1.87358 29.0516 0 26.2059 0H3.15768C3.15768 0 2.78776 0.0706661 2.15145 0.512637C2.15145 0.512637 1.1804 2.78532 1.05566 9.34653V16.3399L6.10046 17.1806C6.09908 17.1396 6.09801 17.0983 6.09801 17.0568C6.09801 15.1628 7.63361 13.6267 9.52793 13.6267C11.4224 13.6267 12.9577 15.1628 12.9577 17.0568C12.9577 17.1009 12.9566 17.1445 12.9549 17.1882H34.6123C34.6106 17.1445 34.6095 17.1009 34.6095 17.0568C34.6095 15.1628 36.1453 13.6267 38.0394 13.6267C39.6941 13.6267 41.0744 14.7987 41.3975 16.3574C41.4365 16.5456 41.6712 16.6116 41.8024 16.4711L44.11 13.9979C44.11 13.9979 44.5209 12.6546 43.5002 11.2098Z"
        fill="#EB6440" />
    <path
        d="M1.05566 16.342L6.10046 17.1828C6.09908 17.1417 6.09801 17.1004 6.09801 17.0589C6.09801 15.1649 7.63361 13.629 9.52793 13.629C11.4224 13.629 12.9577 15.1649 12.9577 17.0589C12.9577 17.103 12.9565 17.1466 12.9549 17.1903H34.6123C34.6107 17.1466 34.6097 17.103 34.6097 17.0589C34.6097 15.1649 36.1453 13.629 38.0394 13.629C39.6941 13.629 41.0746 14.8007 41.3976 16.3593C41.4365 16.5477 41.6714 16.6139 41.8026 16.4732L44.1101 14.0002C44.1101 14.0002 44.2021 13.6989 44.1909 13.2285H1.05566V16.342Z"
        fill="#8F9495" />
    <path
        d="M26.684 1.633C29.9094 1.633 32.614 3.50643 32.614 3.50643C33.3475 4.05655 35.0651 5.51734 36.7124 6.94004C34.9558 5.20349 32.3442 2.6443 31.4374 1.87358C31.4374 1.87358 29.0513 0 26.2058 0H3.15735C3.15735 0 2.78728 0.0708196 2.15113 0.512637C2.15113 0.512637 2.0078 0.848455 1.82422 1.633H26.684Z"
        fill="#EB6440" />
    <path
        d="M36.8356 19.8336C35.2366 19.2156 34.4416 17.4188 35.0596 15.8198C35.6776 14.2209 37.4746 13.4255 39.0736 14.0435C40.6723 14.6615 41.4677 16.4589 40.8497 18.0578C40.2316 19.6568 38.4342 20.4516 36.8356 19.8336Z"
        fill="#29202D" />
    <path
        d="M40.8497 18.0578C41.4677 16.4589 40.6723 14.6615 39.0736 14.0435C37.4746 13.4255 35.6776 14.2209 35.0596 15.8198C34.4416 17.4188 35.2366 19.2156 36.8356 19.8336C38.4342 20.4516 40.2316 19.6568 40.8497 18.0578ZM35.3254 18.1021C35.1743 17.7606 35.0917 17.399 35.0801 17.0275C35.068 16.6429 35.133 16.2643 35.273 15.9022C35.413 15.54 35.6195 15.2162 35.8871 14.9396C36.1455 14.6726 36.4498 14.4605 36.7914 14.3094C37.1329 14.1583 37.4943 14.0758 37.8658 14.0641C38.2502 14.0521 38.629 14.1169 38.9911 14.2569C39.3532 14.3969 39.6771 14.6036 39.9535 14.871C40.2207 15.1296 40.4327 15.4337 40.584 15.7753C40.7351 16.1168 40.8175 16.4784 40.8292 16.8499C40.8412 17.2345 40.7763 17.6131 40.6363 17.9753C40.4964 18.3374 40.2897 18.6612 40.0222 18.9378C39.7637 19.2048 39.4595 19.417 39.118 19.5681C38.7763 19.7191 38.4149 19.8016 38.0433 19.8131C37.6589 19.8251 37.2801 19.7602 36.918 19.6203C36.5558 19.4803 36.232 19.2736 35.9556 19.0062C35.6883 18.7477 35.4765 18.4436 35.3254 18.1021Z"
        fill="#3F3644" />
    <path
        d="M40.0021 17.7337C40.4393 16.6027 39.8747 15.3269 38.7437 14.8898C37.6127 14.4526 36.3372 15.0171 35.9 16.1481C35.4629 17.2791 36.0271 18.5547 37.1581 18.9919C38.2891 19.4291 39.565 18.8647 40.0021 17.7337ZM37.2607 18.7267C37.0195 18.6335 36.8039 18.4959 36.6198 18.3177C36.4419 18.1457 36.3008 17.9431 36.2001 17.7156C36.0995 17.4881 36.0445 17.2473 36.0368 17C36.0287 16.744 36.0719 16.4917 36.1651 16.2506C36.2583 16.0094 36.396 15.7938 36.5742 15.6097C36.7462 15.4318 36.9489 15.2906 37.1764 15.19C37.4038 15.0893 37.6445 15.0343 37.8919 15.0266C38.148 15.0185 38.4 15.0618 38.6412 15.155C38.8824 15.2482 39.098 15.3858 39.2821 15.564C39.4599 15.7359 39.6012 15.9386 39.7019 16.1661C39.8025 16.3936 39.8575 16.6344 39.8653 16.8818C39.8732 17.1379 39.8303 17.3901 39.737 17.6312C39.6438 17.8724 39.506 18.0879 39.3279 18.272C39.1558 18.4499 38.9531 18.5911 38.7256 18.6918C38.4982 18.7924 38.2574 18.8474 38.01 18.8551C37.7539 18.8631 37.5018 18.8199 37.2607 18.7267Z"
        fill="#3F3644" />
    <path
        d="M38.777 15.1687C37.7824 14.8111 36.6863 15.3276 36.3287 16.3222C35.9711 17.3167 36.4876 18.4128 37.4822 18.7704C38.4767 19.128 39.573 18.6116 39.9304 17.617C40.288 16.6224 39.7715 15.5263 38.777 15.1687Z"
        fill="#E1E3E3" />
    <path
        d="M38.6914 15.4106C37.83 15.1009 36.8806 15.5482 36.571 16.4098C36.2612 17.2712 36.7086 18.2205 37.57 18.5302C38.4314 18.8399 39.3809 18.3925 39.6906 17.5311C40.0002 16.6695 39.5528 15.7204 38.6914 15.4106Z"
        fill="#B6B9BC" />
    <path
        d="M38.4384 15.8975C37.8055 15.67 37.1078 15.9986 36.8803 16.6316C36.6527 17.2647 36.9814 17.9622 37.6144 18.1898C38.2474 18.4173 38.945 18.0886 39.1725 17.4557C39.4001 16.8227 39.0715 16.1251 38.4384 15.8975Z"
        fill="#29202D" />
    <path
        d="M37.5049 18.1904L37.7769 18.2955L37.9799 17.7702C38.0963 17.7926 38.2131 17.7887 38.3236 17.7619L38.5516 18.2769L38.8182 18.1588L38.5904 17.6438C38.6847 17.58 38.7663 17.4959 38.8278 17.3952L39.353 17.5981L39.4581 17.326L38.9328 17.123C38.9552 17.0066 38.9512 16.8896 38.9246 16.7792L39.4395 16.5514L39.3216 16.2847L38.8065 16.5125C38.7425 16.4181 38.6587 16.3367 38.5578 16.2751L38.7607 15.7501L38.4888 15.645L38.2858 16.17C38.1694 16.1477 38.0523 16.1515 37.9418 16.1783L37.7141 15.6634L37.4474 15.7813L37.6754 16.2964C37.581 16.3603 37.4992 16.4444 37.4379 16.5452L36.9127 16.3422L36.8076 16.6143L37.3327 16.8173C37.3103 16.9336 37.3143 17.0506 37.3411 17.1611L36.8261 17.3888L36.9441 17.6556L37.4589 17.4277C37.5229 17.5221 37.607 17.6037 37.7079 17.6652L37.5049 18.1904Z"
        fill="#B6B9BC" />
    <path
        d="M38.2066 17.1032C38.2467 16.9993 38.195 16.8825 38.0912 16.8423C37.9873 16.8022 37.8704 16.8539 37.8303 16.9577C37.7901 17.0616 37.8418 17.1784 37.9457 17.2186C38.0496 17.2588 38.1664 17.2071 38.2066 17.1032Z"
        fill="#29202D" />
    <path
        d="M37.9628 16.5472C37.9451 16.5929 37.9679 16.6444 38.0136 16.6621C38.0593 16.6797 38.1105 16.6569 38.1281 16.6111C38.1458 16.5654 38.1233 16.5141 38.0776 16.4964C38.0319 16.4788 37.9805 16.5015 37.9628 16.5472Z"
        fill="#29202D" />
    <path
        d="M38.0754 17.513C38.0931 17.4673 38.0703 17.4158 38.0246 17.3982C37.9789 17.3805 37.9277 17.4034 37.9101 17.4491C37.8924 17.4948 37.9149 17.5461 37.9606 17.5638C38.0063 17.5815 38.0577 17.5587 38.0754 17.513Z"
        fill="#29202D" />
    <path
        d="M38.3743 16.7386C38.3942 16.7835 38.4466 16.8037 38.4914 16.7838C38.5363 16.764 38.5566 16.7115 38.5366 16.6668C38.5169 16.6219 38.4645 16.6016 38.4196 16.6215C38.3749 16.6413 38.3546 16.6937 38.3743 16.7386Z"
        fill="#29202D" />
    <path
        d="M37.6675 17.3211C37.6478 17.2762 37.5953 17.2559 37.5504 17.2758C37.5057 17.2957 37.4855 17.3479 37.5052 17.3927C37.5251 17.4376 37.5775 17.4579 37.6223 17.438C37.6672 17.4181 37.6874 17.366 37.6675 17.3211Z"
        fill="#29202D" />
    <path
        d="M38.6574 17.0169C38.6751 16.9712 38.6523 16.9197 38.6066 16.9021C38.5609 16.8844 38.5098 16.9073 38.4921 16.953C38.4744 16.9987 38.4969 17.05 38.5426 17.0677C38.5883 17.0854 38.6398 17.0626 38.6574 17.0169Z"
        fill="#29202D" />
    <path
        d="M37.5358 17.0863C37.5815 17.1039 37.6329 17.0812 37.6506 17.0355C37.6683 16.9897 37.6455 16.9383 37.5998 16.9206C37.5541 16.903 37.5026 16.9257 37.485 16.9714C37.4673 17.0171 37.4901 17.0686 37.5358 17.0863Z"
        fill="#29202D" />
    <path
        d="M38.4605 17.2537C38.4407 17.2088 38.3883 17.1886 38.3434 17.2084C38.2986 17.2283 38.2785 17.2805 38.2982 17.3253C38.3181 17.3702 38.3705 17.3905 38.4153 17.3706C38.4602 17.3507 38.4803 17.2986 38.4605 17.2537Z"
        fill="#29202D" />
    <path
        d="M37.7399 16.7386C37.72 16.6937 37.6677 16.6735 37.6228 16.6933C37.5779 16.7132 37.5577 16.7653 37.5776 16.8102C37.5975 16.8552 37.6498 16.8754 37.6947 16.8555C37.7394 16.8356 37.7596 16.7834 37.7399 16.7386Z"
        fill="#29202D" />
    <path
        d="M8.25352 19.8532C6.65454 19.2351 5.85952 17.4383 6.47757 15.8393C7.09555 14.2405 8.89255 13.445 10.4915 14.0631C12.0902 14.681 12.8856 16.4785 12.2677 18.0773C11.6496 19.6763 9.85221 20.4711 8.25352 19.8532Z"
        fill="#29202D" />
    <path
        d="M12.2677 18.0773C12.8856 16.4785 12.0902 14.681 10.4915 14.0631C8.89255 13.445 7.09555 14.2405 6.47757 15.8393C5.85952 17.4383 6.65454 19.2351 8.25352 19.8532C9.85221 20.4711 11.6496 19.6763 12.2677 18.0773ZM6.74333 18.1217C6.59222 17.7801 6.50966 17.4185 6.49808 17.0471C6.486 16.6624 6.55097 16.2839 6.69093 15.9218C6.83094 15.5595 7.03747 15.2357 7.3051 14.9592C7.56348 14.6921 7.8678 14.48 8.20933 14.3289C8.55085 14.1778 8.91229 14.0953 9.28377 14.0836C9.6682 14.0716 10.047 14.1365 10.4091 14.2764C10.7712 14.4164 11.0951 14.6231 11.3715 14.8905C11.6387 15.1491 11.8507 15.4533 12.0019 15.7948C12.1531 16.1364 12.2355 16.4979 12.2472 16.8694C12.2591 17.254 12.1943 17.6328 12.0543 17.9948C11.9143 18.3569 11.7077 18.6807 11.4402 18.9573C11.1817 19.2243 10.8775 19.4365 10.536 19.5876C10.1943 19.7386 9.83285 19.8211 9.46128 19.8326C9.07685 19.8446 8.69808 19.7798 8.33599 19.6398C7.97375 19.4998 7.64996 19.2931 7.37353 19.0257C7.10631 18.7672 6.89444 18.4632 6.74333 18.1217Z"
        fill="#3F3644" />
    <path
        d="M11.424 17.7532C11.8612 16.6222 11.2966 15.3465 10.1656 14.9093C9.0346 14.4722 7.75904 15.0366 7.32188 16.1676C6.88473 17.2986 7.44902 18.5743 8.58002 19.0114C9.71101 19.4486 10.9869 18.8842 11.424 17.7532ZM8.68254 18.7462C8.44138 18.653 8.22575 18.5155 8.04166 18.3372C7.86374 18.1652 7.72267 17.9626 7.62201 17.7351C7.52136 17.5077 7.46637 17.2669 7.45872 17.0195C7.4506 16.7635 7.49376 16.5113 7.58697 16.2701C7.68018 16.0289 7.81786 15.8134 7.99607 15.6293C8.16811 15.4514 8.37075 15.3101 8.59824 15.2095C8.82572 15.1088 9.06638 15.0538 9.31375 15.0461C9.56984 15.0381 9.82191 15.0813 10.0631 15.1745C10.3042 15.2678 10.5199 15.4053 10.704 15.5835C10.8817 15.7555 11.0231 15.9582 11.1237 16.1857C11.2244 16.4131 11.2794 16.6539 11.2872 16.9014C11.2951 17.1574 11.2521 17.4096 11.1589 17.6507C11.0657 17.8919 10.9279 18.1074 10.7498 18.2916C10.5776 18.4694 10.375 18.6107 10.1475 18.7113C9.92003 18.812 9.67923 18.8669 9.43186 18.8746C9.17577 18.8827 8.92369 18.8394 8.68254 18.7462Z"
        fill="#3F3644" />
    <path
        d="M10.194 15.1926C9.19937 14.8351 8.1033 15.3515 7.74572 16.3461C7.38813 17.3407 7.90458 18.4367 8.89916 18.7943C9.89374 19.1519 10.99 18.6354 11.3475 17.6407C11.705 16.6462 11.1885 15.5502 10.194 15.1926Z"
        fill="#E1E3E3" />
    <path
        d="M10.1094 15.4341C9.24802 15.1243 8.29858 15.5716 7.98899 16.4331C7.67921 17.2946 8.12656 18.2439 8.98795 18.5536C9.84934 18.8634 10.7988 18.4159 11.1086 17.5544C11.4182 16.6929 10.9708 15.7438 10.1094 15.4341Z"
        fill="#B6B9BC" />
    <path
        d="M9.96091 15.8447C9.32796 15.6172 8.63025 15.9459 8.40273 16.5788C8.17515 17.2119 8.50387 17.9095 9.13682 18.137C9.7699 18.3646 10.4675 18.0359 10.695 17.4029C10.9226 16.7698 10.594 16.0723 9.96091 15.8447Z"
        fill="#29202D" />
    <path
        d="M8.91799 18.2138L9.18996 18.3189L9.393 17.7936C9.50934 17.816 9.62615 17.8121 9.73665 17.7853L9.96464 18.3003L10.2313 18.1824L10.0035 17.6673C10.0978 17.6034 10.1794 17.5193 10.2409 17.4186L10.7661 17.6216L10.8712 17.3495L10.3459 17.1464C10.3683 17.0301 10.3643 16.9131 10.3377 16.8026L10.8526 16.5748L10.7347 16.3082L10.2196 16.536C10.1556 16.4416 10.0718 16.3601 9.97089 16.2985L10.1738 15.7735L9.90186 15.6684L9.69892 16.1934C9.58252 16.1712 9.46543 16.175 9.35493 16.2018L9.12723 15.6869L8.86046 15.8048L9.08845 16.3198C8.99406 16.3838 8.91233 16.4678 8.85097 16.5686L8.32581 16.3656L8.22064 16.6377L8.7458 16.8407C8.72339 16.957 8.72746 17.0739 8.7542 17.1846L8.23909 17.4123L8.3572 17.679L8.87203 17.4511C8.93601 17.5455 9.02009 17.6271 9.12098 17.6887L8.91799 18.2138Z"
        fill="#B6B9BC" />
    <path
        d="M9.62357 17.1261C9.66372 17.0222 9.61203 16.9054 9.50815 16.8653C9.40426 16.8251 9.28744 16.8768 9.24729 16.9807C9.20713 17.0846 9.25882 17.2014 9.36271 17.2415C9.46659 17.2817 9.58341 17.23 9.62357 17.1261Z"
        fill="#29202D" />
    <path
        d="M9.48915 16.495C9.47149 16.5407 9.49425 16.5921 9.53996 16.6098C9.58567 16.6275 9.63684 16.6046 9.65451 16.5589C9.67218 16.5132 9.6497 16.4618 9.60399 16.4442C9.55828 16.4265 9.50682 16.4493 9.48915 16.495Z"
        fill="#29202D" />
    <path
        d="M9.59787 17.4608C9.61554 17.415 9.59277 17.3636 9.54706 17.3459C9.50135 17.3282 9.45018 17.3511 9.43251 17.3968C9.41484 17.4425 9.43733 17.4939 9.48304 17.5116C9.52875 17.5292 9.5802 17.5065 9.59787 17.4608Z"
        fill="#29202D" />
    <path
        d="M9.79131 16.7581C9.81118 16.803 9.86362 16.8233 9.90838 16.8034C9.95328 16.7835 9.9735 16.7312 9.95363 16.6863C9.93391 16.6414 9.88146 16.6212 9.83656 16.641C9.7918 16.661 9.77159 16.7133 9.79131 16.7581Z"
        fill="#29202D" />
    <path
        d="M9.18996 17.2732C9.17023 17.2284 9.11779 17.2081 9.07289 17.228C9.02813 17.2479 9.00797 17.3 9.02769 17.3449C9.04756 17.3898 9.10001 17.41 9.14476 17.3901C9.18966 17.3703 9.20982 17.3181 9.18996 17.2732Z"
        fill="#29202D" />
    <path
        d="M10.0754 17.0403C10.0931 16.9946 10.0703 16.9432 10.0246 16.9255C9.97889 16.9078 9.92772 16.9307 9.91005 16.9764C9.89238 17.0221 9.91486 17.0735 9.96057 17.0912C10.0063 17.1088 10.0577 17.0861 10.0754 17.0403Z"
        fill="#29202D" />
    <path
        d="M8.95276 17.1058C8.99847 17.1235 9.04998 17.1006 9.06765 17.0548C9.08532 17.0091 9.0625 16.9578 9.01679 16.9402C8.97108 16.9225 8.91968 16.9451 8.90201 16.9908C8.88434 17.0365 8.90705 17.0881 8.95276 17.1058Z"
        fill="#29202D" />
    <path
        d="M9.88234 17.2732C9.86262 17.2284 9.81017 17.2081 9.76527 17.228C9.72051 17.2479 9.70035 17.3 9.72008 17.3449C9.73994 17.3898 9.79239 17.41 9.83715 17.3901C9.88205 17.3703 9.90221 17.3181 9.88234 17.2732Z"
        fill="#29202D" />
    <path
        d="M9.26135 16.6868C9.24149 16.6419 9.18919 16.6217 9.14429 16.6416C9.09938 16.6614 9.07922 16.7136 9.09909 16.7585C9.11896 16.8034 9.17126 16.8236 9.21616 16.8037C9.26092 16.7838 9.28108 16.7317 9.26135 16.6868Z"
        fill="#29202D" />
    <path
        d="M28.4346 10.0254V9.60935C28.4346 9.54529 28.4922 9.49352 28.5632 9.49336L30.2782 9.49121C30.3492 9.49121 30.4068 9.54298 30.4068 9.60689V10.0231C30.4068 10.087 30.3492 10.1389 30.2782 10.1389L28.5632 10.141C28.4922 10.1412 28.4346 10.0894 28.4346 10.0254Z"
        fill="#404040" />
    <path
        d="M28.5632 9.88003L30.2782 9.87788C30.3492 9.87788 30.4068 9.82595 30.4068 9.76189V9.60689C30.4068 9.54298 30.3492 9.49121 30.2782 9.49121L28.5632 9.49336C28.4922 9.49336 28.4346 9.54529 28.4346 9.60935V9.76435C28.4346 9.82841 28.4922 9.88018 28.5632 9.88003Z"
        fill="#172026" />
    <path
        d="M33.7171 5.23125C33.1514 4.57728 32.4799 4.17079 32.4799 4.17079C31.4522 3.79012 29.7207 3.66461 28.7807 3.62405C28.4544 3.60992 28.2688 3.88767 28.3003 4.21273C28.4351 5.60271 28.6093 7.40515 28.6093 7.40515C28.6744 7.91656 28.9942 8.24869 29.2305 8.42859C29.3654 8.53136 29.5233 8.59957 29.6898 8.63091L35.7876 9.64589C35.9206 9.67093 36.0437 9.56892 36.0437 9.43358V8.00413C36.0437 7.89736 36.0043 7.79443 35.9331 7.71516L33.7171 5.23125Z"
        fill="#5B5B5B" />
    <g opacity="0.15">
        <path
            d="M34.5844 9.44611L35.5774 7.31676L33.7172 5.23179C33.5869 5.08109 33.4511 4.94421 33.319 4.82178L31.4092 8.91765L34.5844 9.44611Z"
            fill="white" />
    </g>
    <g opacity="0.15">
        <path
            d="M28.7823 3.624C28.6923 3.62016 28.6144 3.64013 28.5474 3.67547L28.3018 4.20208C28.3021 4.20577 28.3016 4.20915 28.3019 4.21284C28.3707 4.92242 28.4497 5.73907 28.5107 6.36893L29.7621 3.68499C29.3937 3.65504 29.0544 3.63583 28.7823 3.624Z"
            fill="white" />
    </g>
    <g opacity="0.15">
        <path
            d="M30.9953 3.82422L28.9648 8.17849C29.0543 8.28111 29.148 8.36468 29.2314 8.42828C29.3294 8.50294 29.4398 8.55886 29.5568 8.59603L31.7204 3.95618C31.4881 3.90518 31.2438 3.86155 30.9953 3.82422Z"
            fill="white" />
    </g>
    <g opacity="0.15">
        <path
            d="M32.4297 4.15318C32.292 4.10448 32.1428 4.06009 31.9852 4.01953L29.8242 8.65354L30.2945 8.73189L32.4297 4.15318Z"
            fill="white" />
    </g>
    <path
        d="M1.04213 9.34766H2.01933V13.8036L0.94566 13.7552C0.94566 13.7552 0.779595 11.2455 0.93675 9.44367C0.941512 9.38929 0.987445 9.34766 1.04213 9.34766Z"
        fill="#A31D21" />
    <path
        d="M14.1277 17.1902C14.1292 17.1407 14.1303 17.0911 14.1303 17.0414C14.1303 14.4917 12.0561 12.4175 9.50674 12.4175C6.97797 12.4175 4.91712 14.4582 4.88379 16.9793L5.13235 17.0208C5.14356 14.618 7.10148 12.6665 9.50674 12.6665C11.9188 12.6665 13.8813 14.629 13.8813 17.0414C13.8813 17.0911 13.8801 17.1407 13.8785 17.1902H14.1277Z"
        fill="#BAC1C1" />
    <path
        d="M38.0524 12.4175C35.5029 12.4175 33.4287 14.4917 33.4287 17.0414C33.4287 17.0911 33.4298 17.1407 33.4315 17.1902H33.6807C33.679 17.1407 33.6779 17.0911 33.6779 17.0414C33.6779 14.629 35.6403 12.6667 38.0524 12.6667C40.0876 12.6667 41.8027 14.0637 42.289 15.9493L42.4881 15.7359C41.9234 13.8199 40.1488 12.4175 38.0524 12.4175Z"
        fill="#BAC1C1" />
    <path
        d="M1.05691 13.7588H0.707262C0.707262 13.7588 0.396484 13.7501 0.396484 14.0697L0.707723 16.4346C0.719091 16.522 0.78438 16.5927 0.870563 16.6108L3.04908 16.9628C3.13511 16.9809 3.21591 16.9153 3.21591 16.8274V15.8132L6.27837 15.9619C6.54675 15.1663 7.09917 14.5013 7.8149 14.0873L1.05691 13.7588Z"
        fill="#162025" />
    <path
        d="M2.01432 7.51369C2.02308 7.38833 2.32771 3.16772 3.15727 0.000488281C3.14959 0.00202454 3.09475 0.0138534 2.99781 0.0494938C2.17348 3.25221 1.8756 7.45547 1.87222 7.50632L1.87207 9.34778H2.01432V7.51369Z"
        fill="#8F9495" />
    <path
        d="M26.502 17.1907H26.6442V0.0174195C26.597 0.014347 26.5496 0.011428 26.502 0.00927734V17.1907Z"
        fill="#8F9495" />
    <path
        d="M4.73881 3.40947H24.8221C25.1206 3.40947 25.3726 3.59443 25.4744 3.85206C25.4591 3.48429 25.1558 3.18457 24.7776 3.18457H4.7806C4.42696 3.18457 4.12586 3.44204 4.07086 3.79138L4.05273 3.90721C4.14737 3.61487 4.42189 3.40947 4.73881 3.40947Z"
        fill="#8F9495" />
    <path
        d="M24.6032 8.31505L3.79755 8.17387C3.6705 8.17295 3.55621 8.12763 3.4668 8.0542C3.53977 8.24561 3.72381 8.38587 3.94579 8.38741L24.462 8.52858C24.7387 8.53043 24.9796 8.36452 25.0848 8.12333C24.9601 8.24315 24.7897 8.31628 24.6032 8.31505Z"
        fill="#F1F1F1" />
    <path d="M16.2607 17.1882H16.403V0H16.2607V17.1882Z" fill="#8F9495" />
    <path
        d="M11.3721 14.1646C12.0684 14.6093 12.5935 15.2987 12.8261 16.1116H34.7425C34.975 15.2987 35.5003 14.6093 36.1968 14.1646H11.3721Z"
        fill="#162025" />
    <path
        d="M2.01562 10.2266C2.01562 10.2266 23.4659 10.3316 31.0576 12.2783C31.0576 12.2783 22.0887 11.2526 2.01562 11.2526V10.2266Z"
        fill="#EB6440" />
    <path
        d="M31.0576 12.2783C23.4657 10.3315 2.01562 10.2266 2.01562 10.2266V10.363C2.01562 10.363 21.679 10.4595 30.0156 12.1763C30.7156 12.2393 31.0576 12.2783 31.0576 12.2783Z"
        fill="#8F9495" />
    <path
        d="M36.4046 7.53931C34.9569 5.8424 33.5813 4.47547 33.0572 3.96652C32.9412 3.85376 32.8003 3.76788 32.6498 3.7178C31.3047 3.27122 29.089 3.1196 28.1989 3.0752C27.982 3.0646 27.7976 3.22575 27.7803 3.44267C27.5853 5.86544 27.4855 8.72374 27.4844 8.75538C27.4844 11.2201 28.0606 15.0368 28.2373 16.1478C28.2751 16.386 28.4777 16.5588 28.7189 16.5588H32.5247C32.8247 16.5588 33.0791 16.3366 33.1162 16.0421C33.2604 14.8934 33.937 13.9593 33.9923 13.8847C34.8115 13.0788 35.6436 12.6386 36.0669 12.4478C36.3227 12.3326 36.488 12.0758 36.488 11.7937V7.76575C36.488 7.68279 36.4584 7.60245 36.4046 7.53931ZM36.3101 11.7937C36.3101 12.006 36.186 12.199 35.994 12.2856C35.5588 12.4816 34.7032 12.9342 33.8625 13.7627L33.8543 13.7721C33.8233 13.8126 33.0954 14.7791 32.9397 16.0199C32.9137 16.2257 32.7353 16.3809 32.5247 16.3809H28.7189C28.5656 16.3809 28.437 16.2712 28.4129 16.1199C28.2368 15.0121 27.6623 11.207 27.6623 8.75845C27.6632 8.72988 27.7629 5.87573 27.9575 3.45695C27.9669 3.34035 28.0629 3.25263 28.1786 3.25263C28.1823 3.25263 28.1861 3.25263 28.19 3.25294C29.0728 3.29703 31.2693 3.44697 32.5937 3.88663C32.7189 3.92826 32.8364 4.00001 32.9334 4.09402C33.3409 4.48975 34.7859 5.91614 36.2693 7.65483C36.2957 7.68571 36.3101 7.72519 36.3101 7.76575V11.7937Z"
        fill="#8F9495" />
    <path
        d="M43.5595 11.2931L43.3194 11.2676C43.3194 11.2676 42.2855 11.1438 41.8701 11.4532C41.8701 11.4532 41.7995 11.5858 41.9585 11.7537C41.9585 11.7537 42.5682 12.6816 43.2134 13.2738C43.2134 13.2738 43.6727 13.7532 44.1868 13.5296C44.2215 13.0283 44.1579 12.1848 43.5595 11.2931Z"
        fill="#EBE7C7" />
    <path
        d="M43.8345 12.6569C43.8345 12.9787 43.7149 13.2396 43.5676 13.2396C43.4201 13.2396 43.3008 12.9787 43.3008 12.6569C43.3008 12.3351 43.4201 12.0742 43.5676 12.0742C43.7149 12.0742 43.8345 12.3351 43.8345 12.6569Z"
        fill="#D9D5AF" />
    <path
        d="M43.171 12.0761C43.171 12.3228 43.0794 12.5229 42.9663 12.5229C42.8533 12.5229 42.7617 12.3228 42.7617 12.0761C42.7617 11.8294 42.8533 11.6294 42.9663 11.6294C43.0794 11.6294 43.171 11.8294 43.171 12.0761Z"
        fill="#D9D5AF" />
    <path
        d="M43.5595 11.2931L43.3196 11.2676C43.3196 11.2676 43.1152 11.2432 42.8519 11.2432C42.5226 11.2432 42.1009 11.2813 41.8701 11.4532C41.8701 11.4532 41.7995 11.5857 41.9585 11.7537C41.9585 11.7537 42.5684 12.6815 43.2134 13.2736C43.2134 13.2736 43.5156 13.589 43.9038 13.589C43.9944 13.589 44.0897 13.5718 44.1869 13.5295C44.2215 13.0283 44.158 12.1847 43.5595 11.2931ZM44.0499 13.4272C44.0021 13.4401 43.9533 13.4466 43.9038 13.4466C43.583 13.4466 43.3186 13.1776 43.3163 13.1753L43.3131 13.1719L43.3097 13.1688C42.6854 12.5958 42.0835 11.6845 42.0775 11.6755L42.0706 11.6649L42.0619 11.6558C42.0125 11.6037 41.9993 11.5639 41.997 11.5395C42.1656 11.4398 42.4656 11.3854 42.8519 11.3854C43.1028 11.3854 43.3007 11.4086 43.3027 11.4089H43.3036L43.3045 11.4091L43.4776 11.4275C43.9768 12.1979 44.0697 12.9236 44.0499 13.4272Z"
        fill="#A6A7AB" />
    <path
        d="M12.0574 14.7409H35.5116C35.7137 14.5205 35.9438 14.3262 36.1968 14.1646H11.3721C11.6252 14.3262 11.8554 14.5205 12.0574 14.7409Z"
        fill="#455259" />
    <path
        d="M7.8149 14.0873L1.05691 13.7588H0.707262C0.707262 13.7588 0.396484 13.7499 0.396484 14.0696L0.425058 14.287L7.16016 14.5795C7.35757 14.3908 7.57694 14.2249 7.8149 14.0873Z"
        fill="#455259" />
    <path
        d="M41.9079 17.3204C41.9079 17.3204 41.4837 17.3204 41.4704 17.0089C41.4704 17.0089 41.4883 15.5968 40.1626 14.3927C40.1275 14.3609 40.1501 14.3017 40.1968 14.2948L41.1957 14.1509C41.2441 14.143 41.2929 14.139 41.3418 14.139H43.5326C43.6656 14.139 43.7977 14.1152 43.9226 14.0688L44.1139 13.9976L44.3989 14.245C44.3989 14.245 44.2995 15.5177 43.7074 16.4632C43.7074 16.4632 43.4455 17.1702 41.9079 17.3204Z"
        fill="#162025" />
    <path
        d="M43.9226 14.069C43.7979 14.1154 43.6657 14.1392 43.5326 14.1392H41.3419C41.2929 14.1392 41.244 14.143 41.1958 14.1509L40.1966 14.2948C40.1499 14.3017 40.1277 14.361 40.1625 14.3928C40.2885 14.5073 40.4022 14.6234 40.5051 14.7402C43.9708 14.7099 44.3987 14.2452 44.3987 14.2452L44.1139 13.9976L43.9226 14.069Z"
        fill="#455259" />
    <path
        d="M0.869141 11.2525H2.01916V10.2266H0.888497C0.874978 10.5664 0.869601 10.914 0.869141 11.2525Z"
        fill="#EBE7C7" />
    <path
        d="M0.892578 12.6519C0.915007 13.3057 0.944656 13.7544 0.944656 13.7544L2.01832 13.8031V12.6519H0.892578Z"
        fill="#F5911D" />
    <path
        d="M41.8936 11.4351C42.287 11.5586 43.251 11.9516 44.1799 13.0288C44.1398 12.5473 43.9859 11.9326 43.5567 11.293L43.3166 11.2675C43.3166 11.2675 42.3243 11.1489 41.8936 11.4351Z"
        fill="white" />
    <path
        d="M35.933 7.71526L33.717 5.23135C33.1514 4.57738 32.4798 4.17089 32.4798 4.17089C31.4522 3.79022 29.7207 3.66455 28.7807 3.624C28.7727 3.62369 28.7649 3.62354 28.7571 3.62354C28.4455 3.62354 28.2696 3.89575 28.3003 4.21298C28.4351 5.6028 28.6093 7.40541 28.6093 7.40541C28.6744 7.91681 28.9942 8.24879 29.2305 8.42868C29.3654 8.5313 29.5233 8.59967 29.6898 8.63116L35.7876 9.64599C35.8012 9.6486 35.8148 9.64983 35.8281 9.64983C35.9446 9.64983 36.0437 9.55519 36.0437 9.43383V8.00423C36.0437 7.89761 36.0043 7.79468 35.933 7.71526ZM35.7946 9.39451L29.7336 8.38598C29.604 8.36109 29.4823 8.30732 29.3814 8.23067C29.172 8.07121 28.9111 7.79376 28.8568 7.37745C28.8477 7.28374 28.6793 5.54089 28.5483 4.18886C28.5381 4.08379 28.5627 3.98731 28.6143 3.93047C28.6497 3.89161 28.6964 3.87256 28.7571 3.87256C28.7614 3.87256 28.7657 3.87271 28.77 3.87286C29.6878 3.9125 31.3692 4.03309 32.3698 4.39579C32.4804 4.466 33.0489 4.83961 33.5287 5.39418L33.5299 5.39587L33.5312 5.39726L35.7476 7.88179C35.7779 7.91543 35.7946 7.95891 35.7946 8.00423V9.39451Z"
        fill="#8F9495" />
    <path
        d="M36.0721 9.13471H35.7482C35.6985 9.13471 35.6582 9.08094 35.6582 9.01473L35.6668 6.85158C35.6668 6.78521 35.7071 6.73145 35.7568 6.73145H36.0807C36.1304 6.73145 36.1707 6.78521 36.1707 6.85158L36.1621 9.01473C36.1621 9.08094 36.1218 9.13471 36.0721 9.13471Z"
        fill="#172026" />
</svg>
