<svg fill="none" height="24" viewBox="0 0 53 24" width="53" xmlns="http://www.w3.org/2000/svg">
    <mask style="mask-type:luminance" height="21" id="mask0_499_323" maskUnits="userSpaceOnUse" width="53"
        x="0" y="0">
        <path d="M0 0H53V20.6111H0V0Z" fill="white" />
    </mask>
    <g mask="url(#mask0_499_323)">
        <path
            d="M46.1583 12.3278L49.7972 15.1954L49.3692 18.1314L47.8047 19.8701L38.0958 20.0433L14.4071 20.3165L6.34415 18.8829L5.27393 18.6097L7.41438 13.352L14.3354 11.5083L46.1583 12.3278Z"
            fill="#272739" />
        <path
            d="M29.8206 5.42383C29.8296 5.42739 34.5118 7.03444 38.2898 8.99482C38.2898 8.99482 39.5243 9.93673 39.2034 10.6144L38.026 11.4708L28.1792 6.31568L29.0717 5.65535L29.8206 5.42383Z"
            fill="#404041" />
        <path
            d="M12.1068 5.99609C12.1068 5.99609 6.70207 8.02947 5.43534 8.93914L4.20425 9.33168L3.99023 10.0453L5.07859 10.8303L12.3212 6.6916L12.1068 5.99609Z"
            fill="#404041" />
        <path
            d="M52.4256 16.2168C52.8144 15.0854 52.4023 14.2599 52.0129 13.3429C51.4294 11.9685 40.7439 9.38325 38.0839 8.88517C38.0839 8.88517 39.1709 9.42013 38.1376 10.3839C38.1376 10.3839 31.0201 6.58448 29.3076 5.88866L29.8426 5.35354C29.8426 5.35354 23.1 3.21309 12.1299 5.9959V6.31684L5.33381 9.84878C5.33381 9.84878 3.8822 9.63461 5.43408 8.93879C2.44888 9.90023 1.44312 9.95478 1.26676 10.4908L1.32007 13.3807V14.2368C1.32007 14.2368 0.0358279 14.7184 0.196533 15.6283C0.356928 16.5381 0.624251 17.3408 0.624251 17.3408L0.892043 17.5012L0.998817 18.6251C0.998817 18.6251 3.69779 20.1291 5.8384 20.2896C5.25788 17.5793 6.25264 14.8983 10.2935 15.0229C13.7723 15.1297 14.4311 18.7323 14.4311 18.7323L14.4844 20.2306L14.538 20.5515L37.9235 20.1233V19.1066V18.7859C37.9235 18.7859 37.9496 15.1857 42.8194 14.918C47.6892 14.6506 47.564 19.6236 47.564 19.6236L47.6709 20.3728C47.6709 20.3728 51.413 20.3267 52.1125 18.8746C52.1125 18.8746 52.1581 16.8589 52.4256 16.2168Z"
            fill="#EB6440" />
        <path
            d="M36.74 20.1461L37.9245 20.1244V19.1076V18.7868C37.9245 18.7868 37.9507 15.1867 42.8205 14.919C47.6904 14.6514 47.5652 19.6247 47.5652 19.6247L47.6721 20.3739C47.6721 20.3739 51.4139 20.3275 52.1136 18.8754C52.1136 18.8754 52.1263 18.3162 52.1773 17.6932L48.9903 18.1536C48.9903 18.1536 48.4933 16.6594 46.9727 15.2507C44.077 12.568 39.3727 13.2914 37.2234 16.816C36.6644 17.7327 36.4185 19.4099 36.4185 19.4099C36.4185 19.4099 36.526 19.7033 36.74 20.1461Z"
            fill="#EB6440" />
        <path
            d="M1.32007 14.2376C1.32007 14.2376 0.0358284 14.7191 0.196533 15.6291C0.356928 16.5389 0.624407 17.3417 0.624407 17.3417L0.892042 17.5021L0.998816 18.6259C0.998816 18.6259 3.69779 20.1299 5.8384 20.2906C5.43671 17.7369 6.25264 14.8992 10.2935 15.0238C13.7723 15.1306 14.4312 18.7332 14.4312 18.7332L14.4644 19.6667C15.3662 19.3498 15.9343 19.1248 15.9343 19.1248C15.0686 15.6816 12.6216 12.6975 8.6894 13.7526C6.85594 14.2444 5.76014 15.8096 5.76014 15.8096C5.76014 15.8096 4.59739 15.6754 3.52407 15.273C2.45074 14.8704 1.32007 14.2376 1.32007 14.2376Z"
            fill="#C24625" />
        <path
            d="M37.9878 18.8388L37.8809 20.087L14.5846 20.5505L14.5133 20.2299L14.4419 18.8384L15.0488 18.8027L15.7977 19.1235L36.632 19.088L36.8462 18.8027L37.9878 18.8388Z"
            fill="#EB6440" />
        <path
            d="M52.4712 16.0796L52.1772 17.6933C52.1772 17.6933 49.3115 18.2963 48.9902 18.1537L49.2225 16.7636C49.2225 16.7636 52.1146 16.5792 52.4712 16.0796Z"
            fill="#EB6440" />
        <path
            d="M51.5633 13.4172C51.5633 13.4172 51.2424 12.8824 50.8676 12.6417C50.8676 12.6417 50.386 12.6146 49.5564 12.8286C48.727 13.0428 48.165 13.1231 48.165 13.1231C48.165 13.1231 47.2822 13.3368 48.5665 13.738C49.8507 14.1395 50.7071 14.1129 51.1886 13.8722C51.6701 13.6312 51.5633 13.4172 51.5633 13.4172Z"
            fill="#FAF8F6" />
        <path
            d="M37.1688 11.2757L26.1451 10.9187C26.1451 10.9187 24.0245 10.855 21.3448 10.7766C22.1195 7.83182 21.9733 8.27441 22.845 5.66455C26.547 5.67478 28.1785 6.31636 28.1785 6.31636C31.5325 7.3153 37.1688 11.2757 37.1688 11.2757ZM20.9727 5.7098C15.942 5.95962 14.1581 6.92276 12.981 7.49352C12.981 7.49352 11.1973 8.63534 10.7334 9.06337C10.7334 9.06337 9.27098 10.4903 10.5909 10.4903C11.3473 10.4903 16.3457 10.6311 20.4754 10.7512L21.9364 5.67447C21.6276 5.68191 21.3066 5.69322 20.9727 5.7098Z"
            fill="#404041" />
        <path
            d="M24.1919 12.4842C24.1919 12.6097 24.7964 12.7115 25.5428 12.7115C26.2891 12.7115 26.894 12.6097 26.894 12.4842C26.894 12.3587 26.2891 12.2568 25.5428 12.2568C24.7964 12.2568 24.1919 12.3587 24.1919 12.4842Z"
            fill="#57585B" />
        <path
            d="M11.4009 11.9476C11.4009 12.0734 12.0059 12.1752 12.7521 12.1752C13.4983 12.1752 14.1033 12.0734 14.1033 11.9476C14.1033 11.822 13.4983 11.7202 12.7521 11.7202C12.0059 11.7202 11.4009 11.822 11.4009 11.9476Z"
            fill="#57585B" />
        <path
            d="M1.28678 11.4816C1.01899 12.1598 1.33311 13.4158 1.33311 13.4158C1.65406 13.4868 2.97503 13.6639 3.34928 13.4144C3.89865 13.0484 4.08307 11.8421 3.38756 11.6454C2.86376 11.4979 1.93858 11.4796 1.51288 11.4796C1.37278 11.4796 1.28678 11.4816 1.28678 11.4816ZM0.609863 11.5593L1.13056 14.2379L4.49219 13.5844L3.97149 10.9058L0.609863 11.5593Z"
            fill="#C21111" />
        <path
            d="M34.7399 11.6968C35.2166 11.8308 37.1604 11.7061 37.2728 11.297C37.3901 10.8694 35.7029 9.79143 34.731 9.88348L34.7399 11.6968Z"
            fill="#EB6440" />
        <path
            d="M51.7461 13.7523C51.729 14.4148 51.8854 15.91 52.1236 15.9141C52.3616 15.9183 52.5474 15.777 52.5517 15.7085C52.6594 14.0492 51.9883 13.2981 51.9883 13.2981C51.9883 13.2981 51.9546 13.2671 51.9125 13.2671C51.8454 13.2671 51.7566 13.3455 51.7461 13.7523ZM51.729 13.2671V15.9183H52.6594V13.2671H51.729Z"
            fill="#7F7F7F" />
    </g>
    <mask style="mask-type:luminance" height="10" id="mask1_499_323" maskUnits="userSpaceOnUse" width="10"
        x="5" y="14">
        <path d="M6.45361 14.6836L14.1551 15.5361L13.3026 23.2376L5.60109 22.3851L6.45361 14.6836Z"
            fill="white" />
    </mask>
    <g mask="url(#mask1_499_323)">
        <path
            d="M10.1743 16.1928C8.63664 16.0149 7.24556 17.1174 7.06767 18.655C6.88962 20.1929 7.99197 21.5834 9.52971 21.7613C11.0674 21.9395 12.4583 20.8372 12.6361 19.2994C12.8142 17.7617 11.712 16.3708 10.1743 16.1928Z"
            fill="#57585B" />
        <path
            d="M10.1809 16.21L9.35521 18.0468L7.35403 17.8213L8.84568 19.1742L8.01294 21.0078L9.76057 20.0072L11.2472 21.3658L10.8355 19.3945L12.5869 18.4006L10.585 18.1829L10.1809 16.21Z"
            fill="#EB6440" />
        <path
            d="M12.167 21.8522C13.7634 20.5868 14.0319 18.267 12.7665 16.6705C11.5013 15.074 9.18138 14.8056 7.58487 16.0708C5.98849 17.3362 5.72003 19.656 6.98535 21.2525C8.25054 22.849 10.5704 23.1175 12.167 21.8522ZM8.20717 16.8561C9.37007 15.9345 11.0597 16.13 11.9814 17.2928C12.903 18.4557 12.7075 20.1454 11.5447 21.0672C10.3818 21.9888 8.69205 21.7931 7.77031 20.6303C6.84872 19.4674 7.04442 17.7775 8.20717 16.8561Z"
            fill="#363638" />
        <path
            d="M9.95834 18.243C10.3547 18.2889 10.6389 18.6473 10.5929 19.0437C10.5471 19.4401 10.1886 19.7241 9.79217 19.6784C9.39592 19.6325 9.11179 19.2741 9.15772 18.8777C9.20337 18.4814 9.56194 18.1972 9.95834 18.243Z"
            fill="#9D9FA4" />
        <path
            d="M11.9813 17.2913C12.9027 18.4542 12.707 20.1439 11.5443 21.0655C10.3814 21.9871 8.69173 21.7917 7.76999 20.6289C6.8484 19.466 7.04399 17.7759 8.20675 16.8544C9.36978 15.9328 11.0594 16.1284 11.9813 17.2913ZM12.7983 19.2834C12.977 17.6692 11.8134 16.2161 10.1992 16.0374C8.58493 15.8587 7.13155 17.0222 6.95286 18.6364C6.77417 20.2506 7.9379 21.7039 9.55212 21.8826C11.1663 22.0613 12.6196 20.8977 12.7983 19.2834Z"
            fill="#EB6440" />
        <path
            d="M10.463 16.1558C10.4785 16.0817 10.5847 18.1818 10.5847 18.1818L9.29427 18.0388C9.29427 18.0388 9.85793 16.1386 9.85754 16.0789C9.85743 16.0192 10.463 16.1558 10.463 16.1558Z"
            fill="#EB6440" />
        <path
            d="M12.6417 18.7073C12.7147 18.7004 10.7987 19.3967 10.7987 19.3967L10.5639 18.1603C10.5639 18.1603 12.4853 18.1418 12.5406 18.1246C12.5958 18.1074 12.6417 18.7073 12.6417 18.7073Z"
            fill="#EB6440" />
        <path
            d="M10.9196 21.5314C10.9472 21.5994 9.726 19.9677 9.726 19.9677L10.8408 19.3849C10.8408 19.3849 11.4153 21.218 11.4479 21.2658C11.4803 21.3137 10.9196 21.5314 10.9196 21.5314Z"
            fill="#EB6440" />
        <path
            d="M7.72985 20.8498C7.67341 20.8998 8.84392 19.1597 8.84392 19.1597L9.78856 20.045C9.78856 20.045 8.20267 21.2254 8.16719 21.2732C8.13185 21.321 7.72985 20.8498 7.72985 20.8498Z"
            fill="#EB6440" />
        <path
            d="M7.43294 17.548C7.36845 17.5108 9.36458 18.0583 9.36458 18.0583L8.83389 19.2207C8.83389 19.2207 7.23067 18.1084 7.17479 18.0902C7.11888 18.0722 7.43294 17.548 7.43294 17.548Z"
            fill="#EB6440" />
    </g>
    <mask style="mask-type:luminance" height="10" id="mask2_499_323" maskUnits="userSpaceOnUse" width="9"
        x="38" y="14">
        <path d="M39.0005 14.6836L46.702 15.5361L45.8495 23.2376L38.148 22.3851L39.0005 14.6836Z"
            fill="white" />
    </mask>
    <g mask="url(#mask2_499_323)">
        <path
            d="M42.7202 16.1942C41.1825 16.0163 39.7915 17.1189 39.6136 18.6565C39.4355 20.1944 40.5379 21.5849 42.0756 21.7628C43.6133 21.941 45.0042 20.8387 45.182 19.3009C45.36 17.7632 44.2579 16.3723 42.7202 16.1942Z"
            fill="#57585B" />
        <path
            d="M42.7229 16.21L41.8972 18.0468L39.896 17.8213L41.3877 19.1742L40.5549 21.0078L42.3026 20.0072L43.7892 21.3658L43.3775 19.3945L45.1289 18.4006L43.127 18.1829L42.7229 16.21Z"
            fill="#EB6440" />
        <path
            d="M44.7085 21.8522C46.3049 20.5868 46.5734 18.267 45.308 16.6705C44.0429 15.074 41.7229 14.8056 40.1264 16.0708C38.53 17.3362 38.2615 19.656 39.5269 21.2525C40.792 22.849 43.1119 23.1175 44.7085 21.8522ZM40.7487 16.8561C41.9116 15.9345 43.6012 16.13 44.5229 17.2928C45.4445 18.4557 45.249 20.1454 44.0862 21.0672C42.9233 21.9888 41.2336 21.7931 40.3118 20.6303C39.3902 19.4674 39.5859 17.7775 40.7487 16.8561Z"
            fill="#363638" />
        <path
            d="M42.5047 18.243C42.9011 18.2889 43.1852 18.6473 43.1393 19.0437C43.0935 19.4401 42.735 19.7241 42.3386 19.6784C41.9423 19.6325 41.6582 19.2741 41.7041 18.8777C41.7498 18.4814 42.1083 18.1972 42.5047 18.243Z"
            fill="#9D9FA4" />
        <path
            d="M44.5262 17.2913C45.4476 18.4542 45.2519 20.1439 44.0892 21.0655C42.9263 21.9871 41.2367 21.7917 40.3149 20.6289C39.3933 19.466 39.5889 17.7759 40.7517 16.8544C41.9147 15.9328 43.6043 16.1284 44.5262 17.2913ZM45.3432 19.2834C45.5219 17.6692 44.3583 16.2161 42.7441 16.0374C41.1299 15.8587 39.6765 17.0222 39.4978 18.6364C39.3191 20.2506 40.4828 21.7039 42.097 21.8826C43.7113 22.0613 45.1645 20.8977 45.3432 19.2834Z"
            fill="#EB6440" />
        <path
            d="M43.0065 16.1572C43.022 16.0832 43.1281 18.1832 43.1281 18.1832L41.8377 18.0403C41.8377 18.0403 42.4014 16.14 42.401 16.0803C42.4009 16.0206 43.0065 16.1572 43.0065 16.1572Z"
            fill="#EB6440" />
        <path
            d="M45.1832 18.7073C45.2562 18.7004 43.3402 19.3967 43.3402 19.3967L43.1054 18.1603C43.1054 18.1603 45.0268 18.1418 45.0821 18.1246C45.1373 18.1074 45.1832 18.7073 45.1832 18.7073Z"
            fill="#EB6440" />
        <path
            d="M43.4631 21.5329C43.4907 21.6008 42.2695 19.9691 42.2695 19.9691L43.3843 19.3863C43.3843 19.3863 43.9588 21.2195 43.9914 21.2673C44.0238 21.3152 43.4631 21.5329 43.4631 21.5329Z"
            fill="#EB6440" />
        <path
            d="M40.2733 20.8498C40.2169 20.8998 41.3874 19.1597 41.3874 19.1597L42.332 20.045C42.332 20.045 40.7461 21.2254 40.7106 21.2732C40.6753 21.321 40.2733 20.8498 40.2733 20.8498Z"
            fill="#EB6440" />
        <path
            d="M39.9764 17.5489C39.9119 17.5118 41.908 18.0593 41.908 18.0593L41.3773 19.2217C41.3773 19.2217 39.7741 18.1094 39.7183 18.0911C39.6623 18.0732 39.9764 17.5489 39.9764 17.5489Z"
            fill="#EB6440" />
    </g>
</svg>
