<svg fill="none" height="21" viewBox="0 0 22 21" width="22" xmlns="http://www.w3.org/2000/svg">
    <g id="Group">
        <path d="M19.9021 9.60534H18.216V9.07843C18.216 5.00231 14.8998 1.68612 10.8236 1.68612C6.74743 1.68612 3.43124 5.00231 3.43124 9.07843V9.60534H1.74512V9.07843C1.7452 4.07258 5.81778 0 10.8237 0C15.8296 0 19.9022 4.07258 19.9022 9.07843L19.9021 9.60534Z"
            fill="#FF8354"
            id="Vector" />
        <path d="M10.8236 0C5.8177 0 1.74512 4.07258 1.74512 9.07843V9.60534H1.74596C1.78019 4.62849 5.83886 0.590143 10.8236 0.590143C15.8084 0.590143 19.8671 4.62849 19.9013 9.60534H19.9021V9.07843C19.9021 4.07258 15.8296 0 10.8236 0Z"
            fill="#EB6440"
            id="Vector_2" />
        <path d="M20.1398 15.8612H17.9775C17.7726 15.8612 17.6064 15.6951 17.6064 15.4902V9.13275C17.6064 8.92789 17.7725 8.76172 17.9775 8.76172H20.1398C20.3446 8.76172 20.5108 8.9278 20.5108 9.13275V15.4902C20.5108 15.6951 20.3447 15.8612 20.1398 15.8612Z"
            fill="#EB6440"
            id="Vector_3" />
        <path d="M20.4463 14.1575V10.4658C21.0736 10.4658 21.5822 10.9744 21.5822 11.6018V13.0216C21.5822 13.6489 21.0737 14.1575 20.4463 14.1575Z"
            fill="#EB6440"
            id="Vector_4" />
        <path d="M1.13594 14.1576C0.508535 14.1576 0 13.649 0 13.0216V11.6018C0 10.9744 0.508535 10.4658 1.13594 10.4658V14.1576Z"
            fill="#EB6440"
            id="Vector_5" />
        <path d="M3.66914 15.8612H1.50677C1.30191 15.8612 1.13574 15.6951 1.13574 15.4902V9.13275C1.13574 8.92789 1.30183 8.76172 1.50677 8.76172H3.66906C3.87392 8.76172 4.04009 8.9278 4.04009 9.13275V15.4902C4.04009 15.6951 3.87401 15.8612 3.66914 15.8612Z"
            fill="#EB6440"
            id="Vector_6" />
        <path d="M18.5145 15.8613C18.5145 17.9274 16.8334 19.6085 14.7673 19.6085H14.2391C14.0796 19.3871 13.8202 19.2424 13.5266 19.2424H12.2116C11.7264 19.2424 11.333 19.6358 11.333 20.121C11.333 20.6062 11.7264 20.9995 12.2116 20.9995H13.5266C13.8203 20.9995 14.0796 20.8549 14.2391 20.6335H14.7673C17.3987 20.6335 19.5395 18.4927 19.5395 15.8613H18.5145Z"
            fill="#FF8354"
            id="Vector_7" />
        <path d="M14.7673 20.0433H14.2391C14.0796 20.2647 13.8202 20.4094 13.5266 20.4094H12.2116C11.8301 20.4094 11.5063 20.1657 11.3849 19.8259C11.3519 19.9182 11.333 20.0173 11.333 20.121C11.333 20.6062 11.7264 20.9995 12.2116 20.9995H13.5266C13.8203 20.9995 14.0796 20.8549 14.2391 20.6335H14.7673C17.3987 20.6335 19.5395 18.4927 19.5395 15.8613H19.5017C19.2098 18.2151 17.1987 20.0433 14.7673 20.0433Z"
            fill="#EB6440"
            id="Vector_8" />
        <path d="M10.7909 16.5848C13.9908 16.5848 16.5848 13.9908 16.5848 10.7909C16.5848 7.59107 13.9908 4.99707 10.7909 4.99707C7.59107 4.99707 4.99707 7.59107 4.99707 10.7909C4.99707 13.9908 7.59107 16.5848 10.7909 16.5848Z"
            fill="#FF8354"
            id="Vector_9" />
        <path d="M11.7079 12.6914C11.7061 12.712 11.7049 12.7325 11.7026 12.753C11.6949 12.8201 11.7007 12.8854 11.7169 12.9469C11.7185 12.8611 11.7155 12.7759 11.7079 12.6914Z"
            fill="#FFEFE4"
            id="Vector_10" />
        <path d="M6.99707 12.837C6.99707 12.6645 7.06654 12.4988 7.18937 12.3776C7.41877 12.1514 7.63392 11.9378 7.83499 11.7367C7.94265 11.6291 8.05275 11.5189 8.16555 11.4061C8.27819 11.2935 8.38332 11.1884 8.48077 11.0909C8.57806 10.9936 8.66524 10.9053 8.74212 10.8257C8.81901 10.7463 8.87786 10.6835 8.91891 10.6374C9.00086 10.5401 9.07387 10.4529 9.13803 10.376C9.20201 10.299 9.25336 10.2235 9.29172 10.1492C9.33016 10.075 9.35958 10.0007 9.38015 9.92624C9.40056 9.85196 9.41093 9.77128 9.41093 9.68411C9.41093 9.51499 9.34424 9.36771 9.21104 9.24209C9.07775 9.11656 8.89581 9.05375 8.66524 9.05375C8.4957 9.05375 8.22786 9.1507 8.03581 9.38423C7.89712 9.55284 7.66267 9.60823 7.46075 9.52511C7.14832 9.39646 7.05052 9.00283 7.26407 8.74089C7.35461 8.62986 7.4433 8.54547 7.50442 8.4964C7.64783 8.38107 7.8183 8.28631 8.01566 8.21204C8.21285 8.13776 8.43458 8.10059 8.68058 8.10059C8.94699 8.10059 9.18794 8.14038 9.40317 8.21971C9.6184 8.2993 9.80034 8.40814 9.94905 8.5464C10.0976 8.68474 10.2129 8.84762 10.295 9.03461C10.3769 9.22169 10.418 9.42276 10.418 9.63808C10.418 9.96611 10.3373 10.2673 10.1758 10.5413C10.0144 10.8156 9.81838 11.0705 9.58763 11.3062L8.9265 11.9673C8.75224 12.1416 8.55488 12.3363 8.33459 12.5515L8.36536 12.5976H10.0527C10.2969 12.5976 10.4948 12.7956 10.4948 13.0397C10.4948 13.2838 10.2968 13.4817 10.0527 13.4817H7.64184C7.28573 13.4819 6.99707 13.1931 6.99707 12.837Z"
            fill="#FFEFE4"
            id="Vector_11" />
        <path d="M12.9244 13.0131V12.5133H11.1196C10.7748 12.5133 10.4951 12.2337 10.4951 11.8888C10.4951 11.7647 10.5321 11.6433 10.6014 11.5404L12.6204 8.53843C12.7528 8.34166 12.9743 8.22363 13.2115 8.22363C13.6048 8.22363 13.9238 8.54256 13.9238 8.93594V11.5755H14.116C14.375 11.5755 14.5849 11.7854 14.5849 12.0444C14.5849 12.3034 14.375 12.5133 14.116 12.5133H13.9238V13.0131C13.9238 13.2721 13.7138 13.482 13.4549 13.482H13.3933C13.1343 13.482 12.9244 13.2721 12.9244 13.0131ZM12.9244 9.72277H12.8629L11.6098 11.5755H12.9244V9.72277Z"
            fill="#FFEFE4"
            id="Vector_12" />
    </g>
</svg>
