<svg fill="none" height="123" viewBox="0 0 195 123" width="195" xmlns="http://www.w3.org/2000/svg">
    <g id="loading/amico">
        <g id="Floor">
            <path d="M97.4572 123.001C151.281 123.001 194.914 105.847 194.914 84.6859C194.914 63.5252 151.281 46.3711 97.4572 46.3711C43.6331 46.3711 0 63.5252 0 84.6859C0 105.847 43.6331 123.001 97.4572 123.001Z"
                fill="#F5F5F5"
                id="floor" />
        </g>
        <g id="Shadows">
            <path d="M143.917 95.2175L97.5929 121.964C97.0009 122.264 96.3467 122.42 95.6831 122.42C95.0196 122.42 94.3653 122.264 93.7734 121.964L6.53902 71.6056C5.48569 70.9973 5.48569 70.0048 6.53902 69.3996L52.8631 42.6534C53.4551 42.3535 54.1093 42.1973 54.7729 42.1973C55.4365 42.1973 56.0907 42.3535 56.6827 42.6534L143.917 93.0147C144.97 93.623 144.97 94.6091 143.917 95.2175Z"
                fill="#E0E0E0"
                id="Shadow" />
        </g>
        <g id="Plants">
            <g id="plants">
                <path d="M133.565 88.8847L131.129 87.0529C131.129 87.0529 130.35 80.3841 131.677 74.6264C133.541 66.5302 139.313 64.0971 141.281 65.0525C143.249 66.0079 143.554 68.4661 139.568 72.9385C137.216 75.5797 134.03 81.2818 133.565 88.8847Z"
                    fill="#EB6440"
                    id="Vector" />
                <g id="Group" opacity="0.15">
                    <path d="M133.565 88.8842L131.129 87.0524C131.129 87.0524 130.35 80.3837 131.677 74.626C133.541 66.5297 139.313 64.0966 141.281 65.052C143.249 66.0074 143.554 68.4656 139.568 72.938C137.216 75.5792 134.03 81.2813 133.565 88.8842Z"
                        fill="black"
                        id="Vector_2" />
                </g>
                <path d="M132.865 85.5697L132.89 85.571C132.914 85.5698 132.938 85.5639 132.959 85.5535C132.981 85.543 133 85.5284 133.016 85.5103C133.032 85.4923 133.044 85.4713 133.052 85.4485C133.059 85.4257 133.062 85.4016 133.06 85.3776C132.538 77.6383 136.208 69.4602 139.906 66.3196C139.943 66.2884 139.967 66.2436 139.971 66.1951C139.975 66.1466 139.96 66.0984 139.929 66.0611C139.898 66.0238 139.853 66.0005 139.804 65.9962C139.756 65.992 139.708 66.0072 139.67 66.0384C135.902 69.2364 132.164 77.5489 132.697 85.4009C132.7 85.4445 132.719 85.4855 132.749 85.5164C132.78 85.5474 132.821 85.5663 132.865 85.5697Z"
                    fill="white"
                    id="Vector_3" />
                <path d="M139.958 93.6798C140.349 93.94 141.564 93.1198 141.897 92.9379C142.472 92.6035 142.951 92.1264 143.287 91.5528C143.663 90.9012 143.828 90.149 143.758 89.4C143.721 89.0048 143.656 88.6127 143.564 88.2265C143.484 87.8442 143.401 87.4617 143.321 87.0794C143.216 86.7082 143.187 86.3197 143.235 85.937C143.389 85.1754 144.105 84.6987 144.758 84.2669C145.481 83.8001 146.24 83.1718 146.3 82.2483C146.301 81.5272 146.062 80.8261 145.622 80.2553C144.98 79.3157 144.316 78.5672 144.573 77.3428C144.78 76.6074 145.071 75.8983 145.44 75.2292C145.587 74.9385 145.693 74.6289 145.756 74.3091C145.799 74.0215 145.78 73.7277 145.699 73.4482C145.618 73.1687 145.478 72.9101 145.287 72.6904C145.096 72.4706 144.86 72.295 144.595 72.1756C144.329 72.0562 144.041 71.996 143.75 71.999C143.221 72.0271 142.704 72.1694 142.235 72.4161C140.764 73.1047 139.794 75.0432 138.121 75.167C137.577 75.2068 137.029 75.1534 136.485 75.1964C135.936 75.2085 135.408 75.4081 134.988 75.7619C133.64 77.053 135.034 78.9026 134.434 80.3694C134.003 81.4183 132.931 81.7552 132.279 82.6807C132.011 83.0914 131.881 83.5765 131.907 84.066C131.901 84.8896 132.045 85.7075 132.333 86.479C132.666 87.2747 133.047 88.0497 133.473 88.7998L139.958 93.6798Z"
                    fill="#EB6440"
                    id="Vector_4" />
                <path d="M136.194 91.1044C136.219 91.1052 136.243 91.1012 136.265 91.0926C136.288 91.084 136.309 91.0709 136.326 91.0542C136.344 91.0375 136.358 91.0174 136.368 90.9952C136.377 90.973 136.383 90.9491 136.383 90.9248C136.59 83.6519 140.567 75.8836 143.215 73.7318C143.25 73.6989 143.272 73.6534 143.274 73.605C143.277 73.5566 143.26 73.5092 143.228 73.4728C143.213 73.4538 143.194 73.438 143.173 73.4262C143.152 73.4144 143.129 73.407 143.105 73.4043C143.081 73.4016 143.057 73.4037 143.033 73.4104C143.01 73.4172 142.989 73.4285 142.97 73.4437C140.268 75.6409 136.215 83.5368 135.996 90.9148C135.995 90.9407 136 90.9664 136.01 90.9903C136.02 91.0142 136.034 91.0357 136.053 91.0536C136.072 91.0714 136.094 91.0852 136.118 91.0939C136.143 91.1027 136.169 91.1062 136.194 91.1044Z"
                    fill="white"
                    id="Vector_5" />
                <path d="M137.969 82.3164C137.987 82.3203 138.006 82.3212 138.024 82.3192C139.774 81.9664 141.558 81.805 143.344 81.838C143.368 81.8392 143.392 81.8356 143.415 81.8273C143.437 81.819 143.458 81.8063 143.476 81.7898C143.493 81.7734 143.507 81.7535 143.517 81.7315C143.527 81.7095 143.532 81.6857 143.532 81.6616C143.534 81.6374 143.531 81.6132 143.523 81.5903C143.514 81.5675 143.502 81.5466 143.485 81.5289C143.469 81.5112 143.449 81.4971 143.426 81.4875C143.404 81.4779 143.38 81.473 143.356 81.4732C141.538 81.4392 139.722 81.6032 137.939 81.9623C137.892 81.974 137.852 82.0037 137.826 82.0449C137.801 82.0861 137.792 82.1357 137.803 82.183C137.813 82.2201 137.834 82.2531 137.864 82.2771C137.894 82.3011 137.931 82.3149 137.969 82.3164Z"
                    fill="white"
                    id="Vector_6" />
            </g>
            <g id="plants_2">
                <path d="M12.6591 64.7093L15.6481 63.5429C15.6481 63.5429 17.2226 57.7625 17.4565 53.1356C17.8044 46.636 14.8437 38.3022 9.63546 39.3596C4.42723 40.4171 10.6265 48.0363 11.4007 53.7111C12.1749 59.3858 12.6591 64.7093 12.6591 64.7093Z"
                    fill="#EB6440"
                    id="Vector_7" />
                <path d="M12.6591 64.7093L15.6481 63.5429C15.6481 63.5429 17.2226 57.7625 17.4565 53.1356C17.8044 46.636 14.8437 38.3022 9.63546 39.3596C4.42723 40.4171 10.6265 48.0363 11.4007 53.7111C12.1749 59.3858 12.6591 64.7093 12.6591 64.7093Z" fill="black"
                    id="Vector_8"
                    opacity="0.15" />
                <path d="M14.2048 64.2616C14.1616 64.2523 14.1236 64.2268 14.0986 64.1904C14.0736 64.1539 14.0635 64.1093 14.0704 64.0657C16.7094 49.9113 10.7145 41.6741 10.6704 41.5949C10.6536 41.5776 10.6407 41.5569 10.6325 41.5342C10.6244 41.5115 10.6212 41.4873 10.6231 41.4632C10.625 41.4392 10.6321 41.4158 10.6438 41.3947C10.6554 41.3736 10.6715 41.3552 10.6908 41.3408C10.7102 41.3264 10.7324 41.3163 10.7559 41.3111C10.7795 41.3059 10.8039 41.3059 10.8275 41.3109C10.8511 41.3159 10.8734 41.3259 10.8928 41.3402C10.9122 41.3545 10.9284 41.3728 10.9402 41.3938C11.0003 41.4738 17.079 49.8306 14.4039 64.1274C14.3996 64.1493 14.3911 64.1702 14.3788 64.1888C14.3665 64.2073 14.3506 64.2233 14.3321 64.2358C14.3136 64.2483 14.2929 64.257 14.271 64.2614C14.2492 64.2658 14.2266 64.2659 14.2048 64.2616Z"
                    fill="white"
                    id="Vector_9" />
                <path d="M10.7797 65.4347L12.9085 64.6063C12.9085 64.6063 13.8571 60.6183 12.6233 55.4107C11.5514 50.8686 7.81665 46.6855 5.55171 47.0999C3.28676 47.5143 3.10972 49.0505 3.91199 50.8093C4.71425 52.5681 10.515 57.3558 10.7797 65.4347Z"
                    fill="#EB6440"
                    id="Vector_10" />
                <path d="M11.8881 65.1641C11.8439 65.157 11.8043 65.1328 11.7779 65.0966C11.7515 65.0605 11.7405 65.0153 11.7472 64.9711C13.1633 55.9833 5.637 48.6144 5.56046 48.5432C5.53215 48.5114 5.51685 48.4701 5.51761 48.4275C5.51836 48.3849 5.53512 48.3441 5.56453 48.3133C5.59395 48.2825 5.63389 48.2639 5.6764 48.2611C5.71892 48.2584 5.76091 48.2718 5.79402 48.2986C5.8736 48.3731 13.5156 55.8633 12.0812 65.0232C12.0741 65.0674 12.0498 65.107 12.0137 65.1334C11.9775 65.1598 11.9324 65.1709 11.8881 65.1641Z"
                    fill="white"
                    id="Vector_11" />
            </g>
        </g>
        <g id="Device">
            <g id="device">
                <path d="M139.54 89.2925C140.154 89.8268 140.057 90.5368 139.245 90.9509L94.9196 113.647C94.4213 113.868 93.8782 113.968 93.334 113.941C92.7898 113.913 92.2596 113.758 91.7861 113.489L11.8625 61.7921C11.0896 61.2914 11.0623 60.5624 11.7654 60.0978C11.3441 60.3824 10.9901 60.7558 10.7283 61.1916C10.4664 61.6275 10.3031 62.1154 10.2498 62.621L10.1452 64.6898C10.1462 65.2357 10.2762 65.7736 10.5246 66.2597C10.773 66.7458 11.1328 67.1663 11.5745 67.4869L91.4921 119.177C91.9647 119.449 92.4951 119.605 93.0398 119.633C93.5845 119.66 94.128 119.558 94.6256 119.335L138.962 96.6588C139.434 96.3849 139.834 96.0034 140.13 95.5454C140.427 95.0873 140.61 94.5658 140.667 94.0234L140.772 91.9418C140.768 91.4377 140.656 90.9404 140.444 90.4834C140.231 90.0263 139.923 89.6202 139.54 89.2925Z"
                    fill="#37474F"
                    id="Vector_12" />
                <path d="M139.342 89.1413L59.4211 37.4513C58.9476 37.1816 58.4174 37.0268 57.8732 36.9993C57.3289 36.9718 56.7858 37.0723 56.2875 37.2929L11.9531 59.9854C11.0615 60.4372 11.0236 61.2496 11.8617 61.792L91.7855 113.485C92.259 113.755 92.7892 113.91 93.3334 113.937C93.8777 113.965 94.4207 113.864 94.9191 113.644L139.25 90.948C140.142 90.4961 140.183 89.684 139.342 89.1413ZM128.37 84.7398C129.087 85.2056 129.055 85.8996 128.292 86.2906L87.9788 106.92C87.5514 107.11 87.0852 107.197 86.618 107.173C86.1508 107.15 85.6958 107.016 85.2897 106.784L23.0663 66.5355C22.3429 66.0694 22.3813 65.3725 23.1447 64.9847L63.4578 44.3489C64.2213 43.9579 65.0043 43.7507 65.7247 44.2134L128.37 84.7398Z"
                    fill="#455A64"
                    id="Vector_13" />
                <path d="M11.7654 60.0944C11.3441 60.379 10.9901 60.7524 10.7283 61.1882C10.4664 61.6241 10.3031 62.112 10.2498 62.6176L10.1452 64.6864C10.147 65.2321 10.2773 65.7698 10.5256 66.2558C10.774 66.7417 11.1333 67.1623 11.5745 67.4835L91.4919 119.177C91.9616 119.458 92.4957 119.614 93.043 119.63L93.3307 113.938C92.7847 113.921 92.2522 113.765 91.7828 113.485L11.8623 61.7919C11.0894 61.2912 11.0621 60.5622 11.7654 60.0944Z"
                    fill="#263238"
                    id="Vector_14" />
                <path d="M113.048 101.471C112.15 101.443 111.273 101.187 110.502 100.727C109.797 100.271 109.426 99.6818 109.457 99.071C109.488 98.4603 109.917 97.905 110.663 97.5292C112.124 96.7792 114.436 96.8961 115.814 97.7896C116.522 98.2453 116.893 98.8347 116.862 99.4454C116.831 100.056 116.403 100.612 115.653 100.987C114.84 101.367 113.943 101.534 113.048 101.471ZM113.252 97.4357C112.426 97.3777 111.6 97.5312 110.851 97.8817C110.239 98.1937 109.89 98.6217 109.866 99.0853C109.843 99.549 110.14 100.006 110.724 100.382C111.44 100.791 112.243 101.026 113.067 101.068C113.89 101.109 114.712 100.957 115.466 100.622C116.078 100.307 116.427 99.8818 116.45 99.4182C116.474 98.9546 116.176 98.4939 115.592 98.1214C114.883 97.6972 114.078 97.4611 113.252 97.4357Z"
                    fill="#E6E6E6"
                    id="Vector_15" />
                <path d="M38.1288 51.2879C38.7269 50.9976 38.7551 50.4412 38.1901 50.0761C37.873 49.8942 37.5175 49.7898 37.1524 49.7713C36.7874 49.7529 36.4231 49.8209 36.0893 49.9699C35.4944 50.2603 35.4661 50.8199 36.028 51.1817C36.3451 51.3636 36.7007 51.468 37.0657 51.4864C37.4308 51.5049 37.795 51.4369 38.1288 51.2879Z"
                    fill="black"
                    id="Vector_16" />
                <path d="M36.8885 55.274L45.2343 50.9996C45.7311 50.7458 45.7789 50.309 45.3381 50.0239C45.0791 49.8815 44.7902 49.8023 44.4948 49.793C44.1994 49.7836 43.906 49.8443 43.6386 49.97L35.2935 54.2317C34.7966 54.4854 34.7488 54.9222 35.1896 55.2074C35.4477 55.3509 35.736 55.4318 36.0311 55.4434C36.3262 55.455 36.6199 55.3969 36.8885 55.274Z"
                    fill="black"
                    id="Vector_17" />
                <path d="M65.7204 44.2291C65.0001 43.7664 64.217 43.9736 63.4536 44.3646L23.1412 64.9844C22.3811 65.3724 22.3427 66.0693 23.0628 66.5352L85.2903 106.768C85.6963 107 86.1514 107.134 86.6186 107.157C87.0858 107.181 87.552 107.094 87.9794 106.904L128.289 86.2679C129.056 85.8771 129.088 85.1831 128.368 84.7171L65.7204 44.2291Z" fill="white"
                    id="Vector_18"
                    opacity="0.8" />
            </g>
        </g>
        <g id="speach-bubble">
            <g id="speach-bubble_2">
                <g id="speach-bubble_3">
                    <path d="M69.582 66.9195L65.3761 69.0759L66.7558 75.3294C66.777 75.3833 66.8137 75.4298 66.8612 75.463L70.1635 77.611C70.2006 77.6339 70.2423 77.6482 70.2856 77.653C70.3289 77.6579 70.3727 77.653 70.4139 77.6388C70.4551 77.6247 70.4926 77.6015 70.5238 77.5711C70.5549 77.5407 70.579 77.5037 70.5942 77.4629L72.8749 69.0639L69.582 66.9195Z"
                        fill="#EB6440"
                        id="Vector_19" />
                    <path d="M72.8755 69.0616L70.5948 77.4606C70.5747 77.5164 70.5381 77.5647 70.4899 77.5991C70.4416 77.6335 70.384 77.6524 70.3248 77.6532C70.2655 77.6541 70.2074 77.6368 70.1582 77.6038C70.109 77.5707 70.0711 77.5235 70.0494 77.4683L68.6698 71.2148L72.8755 69.0616Z"
                        fill="#EB6440"
                        id="Vector_20" />
                    <path d="M72.8755 69.0616L70.5948 77.4606C70.5747 77.5164 70.5381 77.5647 70.4899 77.5991C70.4416 77.6335 70.384 77.6524 70.3248 77.6532C70.2655 77.6541 70.2074 77.6368 70.1582 77.6038C70.109 77.5707 70.0711 77.5235 70.0494 77.4683L68.6698 71.2148L72.8755 69.0616Z" fill="black"
                        id="Vector_21"
                        opacity="0.4" />
                    <path d="M65.3765 69.0767L68.6728 71.2148L70.0491 77.4714C70.067 77.5157 70.0946 77.5554 70.1298 77.5877C69.8193 77.3893 66.9979 75.5572 66.8616 75.4638C66.8134 75.4313 66.7765 75.3846 66.7561 75.3302L65.3765 69.0767Z"
                        fill="#EB6440"
                        id="Vector_22" />
                    <path d="M65.3765 69.0767L68.6728 71.2148L70.0491 77.4714C70.067 77.5157 70.0946 77.5554 70.1298 77.5877C69.8193 77.3893 66.9979 75.5572 66.8616 75.4638C66.8134 75.4313 66.7765 75.3846 66.7561 75.3302L65.3765 69.0767Z" fill="black"
                        id="Vector_23"
                        opacity="0.5" />
                    <path d="M83.5149 25.4498L56.4278 39.3138C56.2854 39.397 56.1645 39.5126 56.0751 39.6512C55.9857 39.7899 55.9302 39.9476 55.913 40.1117L54.139 75.2013C54.1396 75.3658 54.1794 75.5277 54.2551 75.6737C54.3308 75.8197 54.4402 75.9455 54.5742 76.0408L56.2204 77.0857C56.3653 77.1685 56.5276 77.2161 56.6943 77.2245C56.8609 77.2329 57.0272 77.202 57.1797 77.1342L84.2765 63.2674C84.419 63.1851 84.54 63.0702 84.6294 62.932C84.7189 62.7939 84.7743 62.6365 84.7911 62.4728L86.5658 27.3703C86.5648 27.2048 86.5242 27.0419 86.4474 26.8952C86.3706 26.7486 86.2598 26.6225 86.1243 26.5274L84.4749 25.4823C84.3288 25.4016 84.1656 25.3566 83.9988 25.351C83.832 25.3453 83.6661 25.3792 83.5149 25.4498Z"
                        fill="#EB6440"
                        id="Vector_24" />
                    <path d="M56.7097 76.8472L58.485 41.7319C58.5034 41.5675 58.5605 41.4099 58.6516 41.2718C58.7427 41.1338 58.8653 41.0193 59.0092 40.9377L86.109 27.0743C86.379 26.9341 86.5837 27.0695 86.5685 27.37L84.7933 62.4821C84.7765 62.6458 84.7211 62.8032 84.6316 62.9413C84.5422 63.0795 84.4212 63.1944 84.2787 63.2767L57.1787 77.1434C56.9024 77.2833 56.6945 77.1477 56.7097 76.8472Z"
                        fill="#EB6440"
                        id="Vector_25" />
                    <path d="M57.1788 77.1508C57.0287 77.2144 56.8661 77.2432 56.7033 77.2349C56.5405 77.2267 56.3816 77.1817 56.2387 77.1033L54.5935 76.0391C54.4595 75.9446 54.35 75.8194 54.2743 75.6739C54.1985 75.5284 54.1587 75.3669 54.1581 75.2029L55.9321 40.1132C55.9468 39.942 56.0071 39.7779 56.1068 39.638L58.6656 41.274C58.5722 41.4105 58.5156 41.5689 58.5013 41.7337L56.726 76.849C56.7148 76.9061 56.7207 76.9653 56.743 77.0191C56.7654 77.0728 56.8032 77.1188 56.8516 77.1511C56.9001 77.1834 56.957 77.2006 57.0153 77.2005C57.0735 77.2005 57.1304 77.1832 57.1788 77.1508Z" fill="black"
                        id="Vector_26"
                        opacity="0.5" />
                    <path d="M86.5541 27.2831C86.5309 27.0447 86.3401 26.9517 86.0968 27.0709L59.0096 40.9381C58.865 41.0175 58.7432 41.1328 58.6561 41.2729L56.0941 39.6367C56.1782 39.503 56.2939 39.3922 56.431 39.3139L83.5148 25.4497C83.6672 25.3814 83.8336 25.3502 84.0003 25.3586C84.167 25.3671 84.3294 25.4149 84.4741 25.4982L86.1171 26.543C86.2388 26.6278 86.3407 26.7378 86.4162 26.8655C86.4916 26.9932 86.5386 27.1356 86.5541 27.2831Z" fill="black"
                        id="Vector_27"
                        opacity="0.2" />
                </g>
                <path d="M73.39 39.5829C73.9602 38.5728 73.9343 37.4784 73.3323 37.1386C72.7302 36.7987 71.7799 37.3421 71.2097 38.3522C70.6395 39.3623 70.6653 40.4567 71.2674 40.7965C71.8695 41.1364 72.8198 40.593 73.39 39.5829Z" fill="white"
                    id="Vector_28"
                    opacity="0.3" />
                <path d="M68.768 41.3894C69.2135 41.9633 68.9992 43.1578 68.3127 44.0559C67.6261 44.9541 66.6863 45.2175 66.2377 44.6435C65.7891 44.0694 66.0066 42.8751 66.6931 41.9769C67.3796 41.0788 68.313 40.815 68.768 41.3894Z" fill="white"
                    id="Vector_29"
                    opacity="0.5" />
                <path d="M64.8999 47.2535C65.6725 47.1899 66.0514 48.0009 65.7476 49.0659C65.4437 50.1308 64.5737 51.0421 63.8012 51.1057C63.0286 51.1692 62.6496 50.3582 62.9535 49.2933C63.2574 48.2283 64.1369 47.3175 64.8999 47.2535Z" fill="white"
                    id="Vector_30"
                    opacity="0.6" />
                <path d="M63.6748 53.6215C64.4784 52.9441 65.3059 53.0629 65.5047 53.8872C65.7034 54.7115 65.2316 55.9282 64.428 56.6057C63.6243 57.2831 62.7969 57.1643 62.5981 56.34C62.3994 55.5157 62.8712 54.299 63.6748 53.6215Z" fill="white"
                    id="Vector_31"
                    opacity="0.7" />
                <path d="M67.8045 59.1591C68.3747 58.149 68.3489 57.0546 67.7468 56.7147C67.1447 56.3749 66.1944 56.9182 65.6242 57.9283C65.054 58.9385 65.0799 60.0328 65.6819 60.3727C66.284 60.7126 67.2343 60.1692 67.8045 59.1591Z" fill="white"
                    id="Vector_32"
                    opacity="0.75" />
                <path d="M72.4188 58.7807C72.989 57.7706 72.9631 56.6762 72.3611 56.3363C71.759 55.9965 70.8087 56.5398 70.2385 57.5499C69.6683 58.56 69.6941 59.6544 70.2962 59.9943C70.8983 60.3341 71.8486 59.7908 72.4188 58.7807Z" fill="white"
                    id="Vector_33"
                    opacity="0.8" />
                <path d="M74.8599 55.7513C74.4144 55.1774 74.6287 53.9829 75.3152 53.0847C76.0018 52.1866 76.9448 51.9233 77.3902 52.4972C77.8356 53.0711 77.6214 54.2656 76.9348 55.1638C76.2483 56.0619 75.3053 56.3252 74.8599 55.7513Z" fill="white"
                    id="Vector_34"
                    opacity="0.85" />
                <path d="M78.7278 49.8749C77.9552 49.9385 77.5762 49.1275 77.8801 48.0625C78.184 46.9976 79.0541 46.0831 79.8267 46.0195C80.5993 45.956 80.978 46.7702 80.6743 47.8319C80.3706 48.8937 79.4999 49.821 78.7278 49.8749Z" fill="white"
                    id="Vector_35"
                    opacity="0.9" />
                <path d="M79.9531 43.526C79.1495 44.2034 78.322 44.0846 78.1232 43.2604C77.9245 42.4361 78.3963 41.2193 79.1998 40.5451C80.0032 39.8708 80.8309 39.9864 81.0296 40.8107C81.2284 41.635 80.757 42.8421 79.9531 43.526Z"
                    fill="white"
                    id="Vector_36" />
                <path d="M78.0715 39.0815C77.5449 40.1127 76.5968 40.7316 75.9564 40.462C75.3161 40.1924 75.2249 39.1427 75.7549 38.1084C76.2848 37.0741 77.2296 36.4583 77.8701 36.7247C78.5106 36.9911 78.5981 38.0502 78.0715 39.0815Z" fill="white"
                    id="Vector_37"
                    opacity="0.15" />
                <path d="M65.0209 68.945C65.0296 68.9378 65.0406 68.9341 65.0519 68.9346C65.0632 68.9352 65.0738 68.94 65.0817 68.9481C65.091 68.9611 65.0976 68.9758 65.1012 68.9914C65.1049 69.007 65.1054 69.0231 65.1027 69.0389L65.0735 69.6176C65.0725 69.6586 65.0616 69.6987 65.0419 69.7347C65.03 69.7671 65.0071 69.7943 64.9771 69.8115L63.4568 70.5874C63.4527 70.5913 63.4479 70.5944 63.4425 70.5964C63.4372 70.5984 63.4315 70.5993 63.4258 70.599C63.4201 70.5987 63.4145 70.5973 63.4094 70.5948C63.4043 70.5922 63.3998 70.5887 63.3961 70.5843C63.379 70.5573 63.3715 70.5253 63.375 70.4935L63.5537 66.9602C63.5566 66.9196 63.5674 66.8798 63.5852 66.8432C63.5992 66.8129 63.6217 66.7873 63.6499 66.7695L64.081 66.5477C64.0897 66.5405 64.1007 66.5368 64.112 66.5373C64.1233 66.5379 64.1339 66.5427 64.1418 66.5508C64.1591 66.5777 64.1666 66.6098 64.1628 66.6416L64.0209 69.449L65.0209 68.945Z"
                    fill="#FAFAFA"
                    id="Vector_38" />
                <path d="M65.5254 67.2013C65.5427 66.9919 65.5789 66.7845 65.6337 66.5817C65.689 66.3839 65.7642 66.1922 65.8582 66.0096C65.9525 65.8359 66.0684 65.6748 66.203 65.5301C66.3268 65.3933 66.4736 65.2792 66.6368 65.193C66.7648 65.1197 66.9113 65.0848 67.0586 65.0925C67.1794 65.1017 67.2917 65.1581 67.3712 65.2494C67.461 65.3547 67.522 65.4815 67.5482 65.6174C67.5865 65.793 67.6044 65.9725 67.6013 66.1522C67.5934 66.3089 67.5851 66.4719 67.5766 66.6414C67.568 66.8109 67.5604 66.9612 67.552 67.1274C67.5323 67.3356 67.4951 67.5418 67.4407 67.7437C67.3877 67.9444 67.3123 68.1384 67.2159 68.3222C67.1235 68.4961 67.0075 68.6563 66.8712 68.7985C66.7483 68.9353 66.6013 69.0484 66.4376 69.1324C66.3109 69.2093 66.1636 69.2455 66.0156 69.2361C65.9559 69.2326 65.8974 69.2173 65.8437 69.1909C65.79 69.1645 65.7421 69.1276 65.7028 69.0824C65.6168 68.9735 65.5564 68.8466 65.5261 68.7112C65.4874 68.5347 65.4707 68.354 65.4763 68.1733C65.4837 68.0263 65.4925 67.8536 65.5004 67.6969C65.5083 67.5402 65.5142 67.361 65.5254 67.2013ZM66.919 67.4096C66.9224 67.3424 66.9261 67.2689 66.9303 67.1858C66.9345 67.1026 66.9386 67.0227 66.9428 66.9396C66.947 66.8564 66.9512 66.7733 66.9551 66.6965C66.9589 66.6198 66.9625 66.5495 66.9656 66.4887C66.9672 66.4107 66.9593 66.3328 66.942 66.2567C66.9334 66.1981 66.9096 66.1428 66.8732 66.0961C66.8444 66.0583 66.802 66.0331 66.7549 66.0261C66.6937 66.0231 66.6328 66.0378 66.5797 66.0685C66.5116 66.1044 66.4505 66.1524 66.3994 66.21C66.3466 66.2698 66.3022 66.3366 66.2676 66.4085C66.2304 66.4853 66.2006 66.5653 66.1785 66.6477C66.1549 66.7361 66.1396 66.8266 66.1328 66.9178C66.1296 66.9818 66.126 67.0521 66.122 67.1321L66.0973 67.6213C66.0932 67.7012 66.0897 67.7716 66.0864 67.8355C66.0749 67.9734 66.106 68.1115 66.1754 68.2311C66.2352 68.3175 66.3341 68.3257 66.4696 68.246C66.6096 68.175 66.72 68.0568 66.7814 67.9123C66.8549 67.7536 66.9014 67.5837 66.919 67.4096Z"
                    fill="#FAFAFA"
                    id="Vector_39" />
                <path d="M69.3532 63.8496C69.3993 63.8263 69.4311 63.8311 69.4524 63.8546C69.4734 63.8836 69.4871 63.9173 69.4923 63.9528L70.0354 67.0321C70.036 67.0567 70.0347 67.0812 70.0317 67.1056C70.0306 67.14 70.0212 67.1736 70.0043 67.2036C69.9941 67.2289 69.9762 67.2505 69.9531 67.2651L69.5386 67.475C69.4958 67.4985 69.4636 67.5001 69.4491 67.4705C69.4322 67.4497 69.4213 67.4248 69.4175 67.3983L69.3483 66.9909L68.4762 67.4373L68.361 67.9412C68.3528 67.9787 68.3391 68.0147 68.3203 68.0481C68.3003 68.0893 68.267 68.1227 68.2258 68.1427L67.8113 68.3526C67.8081 68.3558 67.8043 68.3584 67.8 68.36C67.7958 68.3617 67.7913 68.3624 67.7867 68.3622C67.7822 68.362 67.7777 68.3608 67.7737 68.3587C67.7697 68.3566 67.7661 68.3537 67.7633 68.3502C67.7552 68.3397 67.7494 68.3276 67.7461 68.3148C67.7429 68.3019 67.7424 68.2885 67.7446 68.2755C67.7446 68.2755 67.747 68.2275 67.7492 68.186L68.6402 64.3842C68.6512 64.3338 68.6687 64.2851 68.6924 64.2393C68.7134 64.1906 68.7505 64.1506 68.7975 64.126L69.3532 63.8496ZM68.7025 66.5127L69.2323 66.2413L69.0354 65.0645L68.7025 66.5127Z"
                    fill="#FAFAFA"
                    id="Vector_40" />
                <path d="M71.6213 62.692C71.7444 62.621 71.885 62.5859 72.0271 62.5907C72.1463 62.601 72.2576 62.6545 72.34 62.7412C72.4331 62.8487 72.4981 62.9775 72.5295 63.1162C72.5726 63.303 72.5909 63.4947 72.584 63.6864C72.5801 63.7631 72.5767 63.8302 72.5735 63.8942L72.555 64.2587C72.552 64.3195 72.5484 64.3898 72.5447 64.4633C72.5272 64.6869 72.4881 64.9082 72.4279 65.1242C72.3721 65.329 72.2944 65.5271 72.1961 65.7152C72.1032 65.8877 71.9873 66.0469 71.8516 66.1882C71.734 66.3204 71.5938 66.4305 71.4377 66.5135L70.5493 66.9655C70.5406 66.9727 70.5296 66.9764 70.5183 66.9758C70.507 66.9753 70.4964 66.9705 70.4885 66.9624C70.4712 66.9355 70.4637 66.9034 70.4675 66.8716L70.6453 63.3543C70.6483 63.3137 70.659 63.2739 70.6769 63.2373C70.6918 63.2068 70.7141 63.1804 70.7416 63.1604L71.6213 62.692ZM71.9755 63.9922C71.9963 63.5797 71.8429 63.4437 71.5598 63.5897L71.2305 63.7622L71.1255 65.8406L71.4775 65.6628C71.6232 65.5747 71.743 65.4493 71.8243 65.2997C71.9057 65.15 71.9458 64.9814 71.9405 64.8111L71.9819 63.9925L71.9755 63.9922Z"
                    fill="#FAFAFA"
                    id="Vector_41" />
                <path d="M73.0955 65.6676C73.0869 65.6749 73.0758 65.6786 73.0645 65.678C73.0533 65.6774 73.0427 65.6726 73.0348 65.6646C73.0255 65.6516 73.0188 65.6368 73.0152 65.6213C73.0116 65.6057 73.0111 65.5895 73.0137 65.5737L73.1928 62.0309C73.1938 61.9899 73.2047 61.9498 73.2244 61.9139C73.2355 61.881 73.2587 61.8535 73.2892 61.837L73.717 61.6182C73.7211 61.6142 73.726 61.6112 73.7313 61.6091C73.7366 61.6071 73.7423 61.6063 73.748 61.6065C73.7537 61.6068 73.7593 61.6083 73.7644 61.6108C73.7695 61.6134 73.7741 61.6169 73.7777 61.6213C73.7962 61.6477 73.8038 61.6802 73.7988 61.7121L73.62 65.2486C73.6184 65.2894 73.6076 65.3294 73.5884 65.3656C73.5764 65.3971 73.5535 65.4232 73.5238 65.4392L73.0955 65.6676Z"
                    fill="#FAFAFA"
                    id="Vector_42" />
                <path d="M75.732 64.3159C75.6925 64.3363 75.6637 64.3349 75.6425 64.3114C75.6259 64.2953 75.6127 64.2761 75.6037 64.2549L74.9447 62.7694L74.8511 64.6208C74.8495 64.6616 74.8387 64.7016 74.8195 64.7378C74.8075 64.7693 74.7845 64.7954 74.7549 64.8114L74.3269 65.0334C74.3182 65.0407 74.3072 65.0444 74.2959 65.0438C74.2847 65.0432 74.274 65.0384 74.2662 65.0304C74.2568 65.0174 74.2502 65.0026 74.2466 64.9871C74.243 64.9715 74.2425 64.9553 74.2451 64.9395L74.424 61.3999C74.4251 61.3589 74.4359 61.3188 74.4556 61.2829C74.4675 61.2504 74.4905 61.2232 74.5204 61.206L74.8498 61.0303C74.8892 61.0131 74.918 61.0145 74.9394 61.0348C74.9565 61.0492 74.9699 61.0675 74.9784 61.0881L75.6374 62.5736L75.7308 60.7254C75.7318 60.6845 75.7426 60.6443 75.7624 60.6084C75.7743 60.576 75.7972 60.5488 75.8272 60.5316L76.255 60.3128C76.2591 60.3088 76.2639 60.3057 76.2693 60.3037C76.2746 60.3017 76.2803 60.3008 76.286 60.3011C76.2917 60.3014 76.2973 60.3028 76.3024 60.3054C76.3075 60.3079 76.312 60.3115 76.3157 60.3158C76.3342 60.3422 76.3417 60.3748 76.3368 60.4066L76.158 63.9431C76.1566 63.984 76.1458 64.0241 76.1264 64.0601C76.1144 64.0916 76.0915 64.1178 76.0618 64.1338L75.732 64.3159Z"
                    fill="#FAFAFA"
                    id="Vector_43" />
                <path d="M77.8776 60.2856C77.8057 60.3227 77.7413 60.3726 77.6874 60.433C77.6368 60.4951 77.5936 60.5628 77.5586 60.6349C77.5223 60.7111 77.4956 60.7916 77.4792 60.8745C77.4595 60.9594 77.4444 61.0453 77.4341 61.1319C77.4267 61.1988 77.4233 61.2661 77.4239 61.3333L77.4107 61.5955C77.4062 61.6851 77.4018 61.7714 77.3976 61.8545C77.3934 61.9377 77.39 62.0048 77.3877 62.0496C77.3862 62.1251 77.392 62.2005 77.4052 62.2749C77.4139 62.3342 77.4351 62.3909 77.4673 62.4415C77.4805 62.4618 77.4978 62.4791 77.5181 62.4923C77.5385 62.5055 77.5613 62.5142 77.5852 62.518C77.6492 62.5233 77.7131 62.5074 77.7671 62.4727C77.8269 62.4435 77.8818 62.4052 77.9299 62.3591C77.9837 62.3086 78.0299 62.2504 78.0668 62.1865C78.108 62.1141 78.1409 62.0372 78.165 61.9575C78.1926 61.8611 78.2084 61.7618 78.212 61.6617L77.9356 61.8016C77.927 61.8088 77.9159 61.8125 77.9046 61.8119C77.8934 61.8114 77.8828 61.8066 77.8749 61.7985C77.8575 61.7716 77.8501 61.7395 77.8538 61.7077L77.8831 61.129C77.886 61.0883 77.8968 61.0486 77.9146 61.0119C77.9288 60.9808 77.9512 60.9542 77.9794 60.9351L78.7757 60.5297C78.7844 60.5225 78.7954 60.5188 78.8067 60.5194C78.8179 60.52 78.8286 60.5247 78.8365 60.5328C78.8537 60.5586 78.8612 60.5896 78.8577 60.6204L78.8223 61.3207C78.8119 61.5479 78.7747 61.773 78.7114 61.9915C78.654 62.1949 78.5731 62.3909 78.4703 62.5756C78.3759 62.7441 78.2603 62.8998 78.1263 63.039C78.007 63.1606 77.8687 63.2619 77.7169 63.3389C77.5917 63.4132 77.4467 63.4473 77.3016 63.4365C77.1808 63.4273 77.0685 63.371 76.9889 63.2797C76.9 63.1721 76.8382 63.0448 76.809 62.9083C76.7703 62.735 76.7535 62.5575 76.7587 62.38C76.7662 62.233 76.7749 62.0603 76.783 61.9004C76.7911 61.7405 76.7992 61.5807 76.808 61.4048C76.8224 61.1972 76.8586 60.9916 76.916 60.7915C76.9713 60.5927 77.0466 60.4 77.1406 60.2163C77.2358 60.0421 77.3516 59.8801 77.4856 59.7336C77.607 59.5976 77.7516 59.4845 77.9128 59.3994C78.0368 59.328 78.1788 59.294 78.3217 59.3014C78.4318 59.3098 78.5364 59.3533 78.62 59.4255C78.7018 59.5013 78.7641 59.5957 78.8016 59.7008C78.841 59.813 78.8611 59.9311 78.8609 60.05C78.859 60.0829 78.8509 60.1151 78.8368 60.1449C78.8253 60.1713 78.8064 60.1938 78.7823 60.2095L78.3447 60.431C78.3118 60.4486 78.2872 60.4281 78.2712 60.4273C78.2524 60.4054 78.2353 60.382 78.2202 60.3574C78.1937 60.3078 78.1535 60.2668 78.1044 60.2393C78.0638 60.218 77.9862 60.2302 77.8776 60.2856Z"
                    fill="#FAFAFA"
                    id="Vector_44" />
            </g>
            <g id="Character">
                <path d="M147.786 103.021L145.212 102.176L146.483 95.9902L149.058 96.8355L147.786 103.021Z"
                    fill="#FFB573"
                    id="Vector_45" />
                <path d="M170.174 103.053H167.462L166.79 96.7812H169.498L170.174 103.053Z"
                    fill="#FFB573"
                    id="Vector_46" />
                <path d="M167.242 102.74H170.543C170.597 102.74 170.649 102.758 170.692 102.792C170.734 102.826 170.764 102.873 170.776 102.925L171.311 105.333C171.324 105.392 171.323 105.453 171.308 105.511C171.294 105.569 171.267 105.624 171.229 105.67C171.191 105.717 171.143 105.754 171.088 105.779C171.034 105.805 170.974 105.817 170.914 105.816C169.851 105.797 169.076 105.736 167.738 105.736C166.912 105.736 164.431 105.82 163.294 105.82C162.158 105.82 162.014 104.696 162.471 104.593C164.559 104.139 166.134 103.508 166.8 102.906C166.922 102.799 167.079 102.74 167.242 102.74Z"
                    fill="#263238"
                    id="Vector_47" />
                <path d="M145.256 101.77L148.109 102.554C148.16 102.569 148.205 102.601 148.237 102.644C148.268 102.688 148.284 102.74 148.282 102.794L148.157 105.259C148.155 105.319 148.139 105.377 148.11 105.43C148.082 105.482 148.042 105.527 147.994 105.562C147.945 105.597 147.89 105.621 147.831 105.631C147.772 105.641 147.712 105.638 147.654 105.621C146.63 105.32 145.16 104.849 143.867 104.491C142.356 104.075 142.074 103.931 140.3 103.444C139.228 103.146 139.228 101.981 139.705 102.006C141.872 102.122 142.506 102.4 144.571 101.798C144.792 101.725 145.03 101.715 145.256 101.77Z"
                    fill="#263238"
                    id="Vector_48" />
                <path d="M158.601 20.7343C158.428 20.9584 158.297 21.1249 158.143 21.3138C157.99 21.5027 157.842 21.6692 157.689 21.8453C157.368 22.1942 157.048 22.5336 156.728 22.8666C156.082 23.5453 155.398 24.1866 154.679 24.7875C153.193 26.0731 151.491 27.0855 149.653 27.7778C149.146 27.9566 148.624 28.0905 148.093 28.178C147.959 28.1973 147.821 28.2229 147.684 28.2389L147.264 28.2773C147.087 28.288 146.91 28.288 146.733 28.2773C146.558 28.2672 146.384 28.248 146.211 28.2197C145.647 28.1178 145.099 27.9457 144.578 27.7074C144.126 27.5098 143.687 27.282 143.265 27.0255C142.47 26.5462 141.709 26.0112 140.989 25.4247C140.277 24.8601 139.602 24.2506 138.969 23.5997L140.195 21.9797C141.7 22.7257 143.24 23.5133 144.712 24.08C145.081 24.2176 145.442 24.3425 145.782 24.4386C146.068 24.524 146.364 24.5745 146.662 24.589C146.704 24.5912 146.745 24.5912 146.787 24.589C146.809 24.589 146.806 24.589 146.906 24.5634L147.13 24.525L147.36 24.4706C147.511 24.4386 147.68 24.3745 147.824 24.3329C147.968 24.2913 148.145 24.2209 148.298 24.1472C148.968 23.8614 149.604 23.5039 150.197 23.0811C150.839 22.6416 151.452 22.1603 152.031 21.6404C152.63 21.1217 153.203 20.555 153.767 19.9787C154.048 19.6906 154.324 19.3928 154.589 19.0919L154.986 18.6404L155.351 18.2114L158.601 20.7343Z"
                    fill="#FFB573"
                    id="Vector_49" />
                <path d="M160.09 19.4014C160.289 21.9819 154.475 27.2517 154.475 27.2517L149.333 22.7951C149.333 22.7951 151.497 20.5027 153.931 18.1944C155.602 16.6096 159.873 16.6064 160.09 19.4014Z"
                    fill="white"
                    id="Vector_50" />
                <path d="M160.09 19.4014C160.289 21.9819 154.475 27.2517 154.475 27.2517L149.333 22.7951C149.333 22.7951 151.497 20.5027 153.931 18.1944C155.602 16.6096 159.873 16.6064 160.09 19.4014Z"
                    fill="#EB6440"
                    id="Vector_51" />
                <path d="M157.461 20.7334C155.073 20.9511 153.546 22.872 152.876 24.9947C152.803 25.2316 152.739 25.475 152.688 25.7151L154.468 27.2583C154.468 27.2583 157.115 24.8602 158.774 22.5071C158.863 21.3897 158.546 20.6309 157.461 20.7334Z" fill="black"
                    id="Vector_52"
                    opacity="0.2" />
                <path d="M140.812 23.1479L139.931 20.9067L136.928 21.8288C137.582 22.5228 138.302 23.1501 139.08 23.7017L140.812 23.1479Z"
                    fill="#FFB573"
                    id="Vector_53" />
                <path d="M138.427 19.168L135.949 20.1605L136.939 21.8349L139.942 20.9128L138.427 19.168Z"
                    fill="#FFB573"
                    id="Vector_54" />
                <path d="M146.482 95.9941L145.717 99.708L148.33 100.374L149.057 96.8394L146.482 95.9941Z" fill="black"
                    id="Vector_55"
                    opacity="0.2" />
                <path d="M169.498 96.7812H166.79L167.139 100.015H169.847L169.498 96.7812Z" fill="black"
                    id="Vector_56"
                    opacity="0.2" />
                <path d="M171.1 18.1494C170.305 21.0735 169.729 24.0528 169.377 27.0627C169.121 29.1597 168.968 31.1639 168.872 32.9824C168.647 37.2406 168.74 40.487 168.612 41.5852L154.157 40.5831C152.191 25.1705 155.95 17.2305 155.95 17.2305C157.093 17.0182 158.247 16.876 159.408 16.8047C159.653 16.7876 159.903 16.778 160.157 16.7759C162.211 16.8035 164.263 16.9489 166.301 17.2113C166.688 17.2593 167.079 17.3137 167.46 17.3746C169.397 17.6787 171.1 18.1494 171.1 18.1494Z"
                    fill="white"
                    id="Vector_57" />
                <path d="M171.1 18.1494C170.305 21.0735 169.729 24.0528 169.377 27.0627C169.121 29.1597 168.968 31.1639 168.872 32.9824C168.647 37.2406 168.74 40.487 168.612 41.5852L154.157 40.5831C152.191 25.1705 155.95 17.2305 155.95 17.2305C157.093 17.0182 158.247 16.876 159.408 16.8047C159.653 16.7876 159.903 16.778 160.157 16.7759C162.211 16.8035 164.263 16.9489 166.301 17.2113C166.688 17.2593 167.079 17.3137 167.46 17.3746C169.397 17.6787 171.1 18.1494 171.1 18.1494Z"
                    fill="#EB6440"
                    id="Vector_58" />
                <path d="M167.447 22.0488C167.423 24.2657 168.045 26.4417 169.237 28.3112C169.278 27.9014 169.326 27.482 169.378 27.0626C169.57 25.4842 169.819 23.8609 170.149 22.2025L167.447 22.0488Z" fill="black"
                    id="Vector_59"
                    opacity="0.2" />
                <path d="M166.176 10.2378C165.648 12.1876 165.01 15.783 166.301 17.1981C165.647 17.7906 164.875 18.2361 164.035 18.5045C163.195 18.7729 162.307 18.858 161.431 18.7541C159.734 18.5972 159.731 17.403 160.15 16.7691C162.392 16.3977 162.449 14.7585 162.171 13.1961L166.176 10.2378Z"
                    fill="#FFB573"
                    id="Vector_60" />
                <path d="M164.546 11.4487L162.18 13.1968C162.25 13.5609 162.288 13.9306 162.292 14.3014C163.144 14.2373 164.364 13.3953 164.517 12.5181C164.591 12.1662 164.601 11.804 164.546 11.4487Z" fill="black"
                    id="Vector_61"
                    opacity="0.2" />
                <path d="M161.879 7.3223C161.239 8.22835 159.558 6.56031 159.622 5.08117C162.055 4.76101 160.903 2.97771 163.112 3.43554C164.949 3.79732 162.583 6.32659 161.879 7.3223Z"
                    fill="#263238"
                    id="Vector_62" />
                <path d="M167.942 7.90836C167.129 10.4697 166.783 12.0128 165.131 13.0309C162.647 14.5421 159.736 12.5411 159.768 9.78771C159.797 7.30966 161.126 3.53496 163.93 3.14116C164.548 3.05141 165.178 3.12071 165.761 3.34249C166.344 3.56428 166.861 3.93121 167.263 4.40856C167.664 4.8859 167.938 5.45787 168.056 6.07031C168.175 6.68275 168.136 7.31539 167.942 7.90836Z"
                    fill="#FFB573"
                    id="Vector_63" />
                <path d="M166.406 10.2388C166.282 9.60651 166.246 8.9599 166.301 8.31779C166.393 7.81563 166.551 7.32792 166.771 6.86746C166.771 6.86746 165.238 5.9614 165.203 4.86965C165.203 4.86965 162.462 5.67646 160.999 4.44384C159.536 3.21122 160.842 1.7865 160.093 1.24223C161.886 1.06934 162.43 2.15789 163.563 1.92097C164.697 1.68405 163.695 0.886847 163.845 0C167.261 2.94228 168.747 1.56239 170.405 3.24643C171.465 4.32218 170.351 6.33919 170.351 6.33919C170.351 6.33919 172.041 9.20784 166.406 10.2388Z"
                    fill="#263238"
                    id="Vector_64" />
                <path d="M169.806 6.27812C169.806 6.27812 171.483 6.6239 171.528 4.86621C172.393 6.64631 171.31 6.92485 169.806 6.27812Z"
                    fill="#263238"
                    id="Vector_65" />
                <path d="M162.238 10.3509C162.543 10.4353 162.863 10.445 163.173 10.3792C163.482 10.3134 163.771 10.1742 164.015 9.97314C164.028 9.95995 164.035 9.94211 164.035 9.92352C164.035 9.90492 164.028 9.88709 164.015 9.87389C164.002 9.86174 163.985 9.85498 163.967 9.85498C163.949 9.85498 163.932 9.86174 163.919 9.87389C163.691 10.057 163.422 10.1837 163.136 10.2438C162.849 10.3038 162.553 10.2956 162.27 10.2197C162.252 10.2164 162.233 10.2198 162.217 10.2292C162.201 10.2386 162.189 10.2534 162.184 10.2709C162.182 10.2886 162.186 10.3064 162.196 10.3211C162.206 10.3358 162.221 10.3464 162.238 10.3509Z"
                    fill="#263238"
                    id="Vector_66" />
                <path d="M168.397 10.738C168.155 10.9694 167.87 11.1507 167.558 11.2715C167.246 11.3924 166.913 11.4505 166.579 11.4424C165.682 11.4168 165.5 10.5523 165.97 9.84159C166.396 9.20127 167.373 8.45529 168.167 8.82668C168.961 9.19806 168.986 10.1682 168.397 10.738Z"
                    fill="#FFB573"
                    id="Vector_67" />
                <path d="M145 98.3731L149.421 99.5897C149.421 99.5897 154.96 82.1313 156.321 72.5425C156.683 69.9972 157.24 66.4242 158.088 62.6175C159.164 57.8151 160.509 52.6252 161.61 48.5592C162.775 44.2754 163.659 41.2467 163.659 41.2467L154.157 40.584C154.157 40.584 150.267 61.8715 149.354 70.09C148.413 78.6319 145 98.3731 145 98.3731Z"
                    fill="#272739"
                    id="Vector_68" />
                <path d="M145 98.3731L149.421 99.5897C149.421 99.5897 154.96 82.1313 156.321 72.5425C156.683 69.9972 157.24 66.4242 158.088 62.6175C159.164 57.8151 160.509 52.6252 161.61 48.5592C162.775 44.2754 163.659 41.2467 163.659 41.2467L154.157 40.584C154.157 40.584 150.267 61.8715 149.354 70.09C148.413 78.6319 145 98.3731 145 98.3731Z" fill="#272739"
                    id="Vector_69"
                    opacity="0.3" />
                <path d="M158.101 62.6143C159.176 57.8119 160.521 52.6221 161.623 48.556L160.636 46.4302C158.267 49.2284 157.633 57.9016 158.101 62.6143Z" fill="black"
                    id="Vector_70"
                    opacity="0.2" />
                <path d="M159.283 40.938C159.283 40.938 160.31 64.1305 161.453 71.9936C162.705 80.5964 165.888 99.3962 165.888 99.3962H170.847C170.847 99.3962 169.208 79.6135 168.481 71.1676C167.655 61.5628 168.612 41.5943 168.612 41.5943L159.283 40.938Z"
                    fill="#272739"
                    id="Vector_71" />
                <path d="M159.283 40.938C159.283 40.938 160.31 64.1305 161.453 71.9936C162.705 80.5964 165.888 99.3962 165.888 99.3962H170.847C170.847 99.3962 169.208 79.6135 168.481 71.1676C167.655 61.5628 168.612 41.5943 168.612 41.5943L159.283 40.938Z" fill="#272739"
                    id="Vector_72"
                    opacity="0.3" />
                <path d="M165.292 99.4966H171.135V97.7517L164.604 97.6396L165.292 99.4966Z"
                    fill="#EB6440"
                    id="Vector_73" />
                <path d="M144.693 98.399L149.687 99.7757L150.405 98.0564L144.715 96.478L144.693 98.399Z"
                    fill="#EB6440"
                    id="Vector_74" />
                <path d="M163.812 7.64222C163.761 7.85352 163.604 7.9976 163.467 7.96238C163.329 7.92716 163.258 7.72866 163.313 7.51736C163.367 7.30605 163.521 7.16198 163.659 7.19719C163.796 7.23241 163.864 7.43091 163.812 7.64222Z"
                    fill="#263238"
                    id="Vector_75" />
                <path d="M161.419 7.04004C161.364 7.25135 161.211 7.39542 161.073 7.3602C160.935 7.32499 160.865 7.12648 160.916 6.91198C160.967 6.69747 161.127 6.5566 161.265 6.59182C161.403 6.62703 161.473 6.82874 161.419 7.04004Z"
                    fill="#263238"
                    id="Vector_76" />
                <path d="M162.155 7.33789C161.739 7.92157 161.245 8.44515 160.686 8.89387C160.974 9.3389 161.691 9.29407 161.691 9.29407L162.155 7.33789Z"
                    fill="#ED893E"
                    id="Vector_77" />
                <path d="M164.751 7.05601C164.727 7.05414 164.704 7.04565 164.685 7.03151C164.666 7.01737 164.651 6.99813 164.642 6.97597C164.583 6.82644 164.489 6.69288 164.369 6.5861C164.249 6.47931 164.106 6.40229 163.95 6.36126C163.916 6.35501 163.886 6.33574 163.867 6.30761C163.847 6.27947 163.839 6.2447 163.845 6.21078C163.848 6.19413 163.854 6.17826 163.863 6.16408C163.872 6.1499 163.884 6.13769 163.898 6.12816C163.912 6.11864 163.928 6.11198 163.945 6.10857C163.961 6.10517 163.978 6.10509 163.995 6.10833C164.193 6.15692 164.376 6.25198 164.53 6.38561C164.683 6.51925 164.803 6.6876 164.879 6.87672C164.892 6.9082 164.892 6.9435 164.879 6.97516C164.867 7.00682 164.842 7.03237 164.811 7.0464C164.792 7.0527 164.771 7.05594 164.751 7.05601Z"
                    fill="#263238"
                    id="Vector_78" />
                <path d="M160.598 5.95805C160.57 5.95493 160.545 5.94378 160.524 5.92603C160.5 5.90209 160.487 5.86991 160.487 5.83639C160.487 5.80287 160.5 5.77068 160.524 5.74674C160.652 5.58748 160.816 5.46108 161.002 5.3781C161.189 5.29512 161.393 5.25795 161.596 5.2697C161.63 5.27449 161.661 5.29219 161.682 5.31908C161.703 5.34596 161.712 5.37992 161.709 5.41377C161.703 5.44715 161.685 5.47722 161.658 5.49799C161.632 5.51876 161.598 5.5287 161.564 5.52583C161.404 5.51826 161.243 5.54918 161.097 5.616C160.95 5.68282 160.822 5.78362 160.722 5.91002C160.707 5.92753 160.688 5.94104 160.666 5.94941C160.644 5.95777 160.621 5.96074 160.598 5.95805Z"
                    fill="#263238"
                    id="Vector_79" />
                <path d="M166.345 103.213C166.161 103.227 165.977 103.178 165.823 103.075C165.775 103.034 165.738 102.981 165.715 102.922C165.692 102.863 165.684 102.799 165.692 102.736C165.692 102.698 165.702 102.662 165.721 102.629C165.74 102.597 165.768 102.571 165.801 102.553C166.102 102.4 166.976 102.938 167.081 102.998C167.093 103.005 167.101 103.015 167.106 103.028C167.112 103.04 167.113 103.053 167.11 103.066C167.109 103.078 167.103 103.09 167.094 103.099C167.086 103.108 167.075 103.114 167.062 103.117C166.828 103.176 166.587 103.208 166.345 103.213ZM165.942 102.653C165.913 102.652 165.885 102.658 165.858 102.669C165.842 102.669 165.823 102.694 165.82 102.745C165.814 102.788 165.819 102.831 165.834 102.872C165.849 102.912 165.874 102.948 165.906 102.976C166.054 103.101 166.409 103.12 166.867 103.027C166.586 102.842 166.272 102.715 165.942 102.653Z"
                    fill="#EB6440"
                    id="Vector_80" />
                <path d="M167.039 103.118C167.029 103.121 167.018 103.121 167.007 103.118C166.729 102.964 166.184 102.372 166.242 102.071C166.252 102.023 166.277 101.98 166.314 101.949C166.352 101.919 166.399 101.901 166.447 101.901C166.496 101.894 166.545 101.899 166.592 101.913C166.639 101.927 166.682 101.952 166.719 101.984C167.039 102.24 167.1 103.021 167.103 103.057C167.104 103.068 167.101 103.079 167.096 103.089C167.091 103.099 167.084 103.108 167.074 103.114C167.063 103.118 167.051 103.119 167.039 103.118ZM166.492 102.019H166.463C166.38 102.019 166.373 102.067 166.37 102.083C166.335 102.263 166.69 102.724 166.959 102.922C166.94 102.614 166.828 102.318 166.639 102.074C166.598 102.038 166.546 102.019 166.492 102.019Z"
                    fill="#EB6440"
                    id="Vector_81" />
                <path d="M144.901 102.054C144.456 102.019 143.678 101.916 143.463 101.583C143.434 101.536 143.415 101.482 143.409 101.427C143.404 101.371 143.411 101.315 143.431 101.263C143.442 101.23 143.461 101.2 143.487 101.176C143.513 101.153 143.545 101.136 143.579 101.128C143.94 101.042 144.859 101.858 144.949 101.954C144.958 101.963 144.964 101.975 144.967 101.987C144.97 102 144.969 102.013 144.965 102.025C144.959 102.036 144.949 102.044 144.938 102.049C144.926 102.055 144.913 102.056 144.901 102.054ZM143.62 101.241H143.601C143.587 101.244 143.575 101.25 143.565 101.26C143.555 101.269 143.547 101.282 143.543 101.295C143.529 101.33 143.523 101.368 143.526 101.406C143.53 101.444 143.542 101.481 143.563 101.513C143.684 101.702 144.107 101.833 144.712 101.906C144.334 101.599 143.828 101.221 143.617 101.244L143.62 101.241Z"
                    fill="#EB6440"
                    id="Vector_82" />
                <path d="M144.853 102.055C144.61 101.683 144.213 101.001 144.351 100.63C144.369 100.575 144.401 100.525 144.444 100.484C144.486 100.444 144.538 100.415 144.594 100.399C144.627 100.388 144.663 100.385 144.698 100.391C144.732 100.398 144.765 100.412 144.792 100.435C145.081 100.672 144.984 101.888 144.972 102.035C144.97 102.048 144.965 102.06 144.956 102.07C144.948 102.08 144.936 102.087 144.924 102.09C144.91 102.093 144.895 102.092 144.882 102.085C144.869 102.079 144.859 102.068 144.853 102.055ZM144.716 100.537C144.704 100.53 144.691 100.526 144.677 100.526C144.664 100.526 144.65 100.53 144.639 100.537C144.601 100.547 144.567 100.566 144.539 100.592C144.51 100.619 144.488 100.651 144.475 100.688C144.402 100.899 144.546 101.328 144.863 101.837C144.879 101.318 144.863 100.678 144.716 100.524V100.537Z"
                    fill="#EB6440"
                    id="Vector_83" />
                <path d="M171.5 19.709C172.125 20.5894 172.656 21.4411 173.2 22.3279C173.745 23.2147 174.241 24.1112 174.728 25.0301C175.735 26.9039 176.554 28.8729 177.174 30.9082C177.247 31.1772 177.318 31.4461 177.382 31.7246C177.414 31.8623 177.443 32.0032 177.471 32.1472L177.513 32.3586L177.532 32.4674L177.558 32.6403C177.639 33.3686 177.573 34.1058 177.362 34.8078C177.045 35.8924 176.597 36.9343 176.027 37.9101C175.513 38.8241 174.945 39.7072 174.327 40.5547C173.724 41.3974 173.076 42.2065 172.384 42.9783L170.719 41.8097C171.587 40.0712 172.47 38.2879 173.149 36.5399C173.319 36.1044 173.469 35.669 173.601 35.2432C173.731 34.8461 173.829 34.4393 173.895 34.0266C173.95 33.7604 173.95 33.4859 173.895 33.2198L173.873 33.1461L173.831 32.9957C173.805 32.8932 173.777 32.7908 173.741 32.6755C173.681 32.4706 173.61 32.2593 173.537 32.0512C172.871 30.2981 172.063 28.602 171.123 26.9798C170.655 26.1378 170.162 25.3118 169.656 24.4794C169.15 23.647 168.619 22.821 168.116 22.0494L171.5 19.709Z"
                    fill="#FFB573"
                    id="Vector_84" />
                <path d="M171.099 18.1502C173.638 18.6624 175.863 24.8735 175.863 24.8735L170.565 29.1893C170.565 29.1893 168.829 26.0325 167.44 22.9878C165.926 19.6709 168.026 17.5323 171.099 18.1502Z"
                    fill="white"
                    id="Vector_85" />
                <path d="M171.099 18.1502C173.638 18.6624 175.863 24.8735 175.863 24.8735L170.565 29.1893C170.565 29.1893 168.829 26.0325 167.44 22.9878C165.926 19.6709 168.026 17.5323 171.099 18.1502Z"
                    fill="#EB6440"
                    id="Vector_86" />
                <path d="M135.658 26.9476L134.378 31.563L134.683 31.6477L135.963 27.0323L135.658 26.9476Z"
                    fill="#EB6440"
                    id="Vector_87" />
                <path d="M133.908 33.2632L133.354 35.2593L133.659 35.344L134.213 33.3479L133.908 33.2632Z"
                    fill="#EB6440"
                    id="Vector_88" />
                <path d="M169.545 24.8792L143.033 17.4226C141.018 16.8559 138.925 18.0299 138.358 20.0448L130.902 46.5572C130.335 48.5721 131.509 50.6649 133.524 51.2316L160.036 58.6882C162.051 59.2549 164.144 58.0809 164.711 56.066L172.167 29.5536C172.734 27.5387 171.56 25.4459 169.545 24.8792Z"
                    fill="#EB6440"
                    id="Vector_89" />
                <path d="M154.115 32.0072C153.972 32.0083 153.83 31.9889 153.693 31.9495C153.291 31.8337 152.95 31.5651 152.744 31.2013C152.537 30.8375 152.481 30.4074 152.588 30.0029L153.869 25.3894C153.986 24.9908 154.256 24.6544 154.619 24.4527C154.983 24.2509 155.411 24.2 155.811 24.3108C156.212 24.4217 156.553 24.6854 156.761 25.0453C156.969 25.4051 157.027 25.8323 156.923 26.2346L155.642 30.8482C155.547 31.1803 155.347 31.4727 155.072 31.6816C154.796 31.8905 154.461 32.0047 154.115 32.0072Z"
                    fill="white"
                    id="Vector_90" />
                <path d="M148.599 51.3025C148.512 51.3033 148.426 51.2915 148.343 51.2672C148.101 51.1977 147.897 51.0365 147.773 50.8181C147.649 50.5997 147.616 50.3414 147.68 50.0986L148.961 45.4883C148.977 45.3512 149.023 45.2193 149.096 45.1017C149.168 44.984 149.265 44.8833 149.38 44.8064C149.494 44.7296 149.624 44.6784 149.761 44.6563C149.897 44.6343 150.037 44.6419 150.17 44.6787C150.303 44.7155 150.426 44.7805 150.532 44.8694C150.638 44.9584 150.723 45.069 150.782 45.1939C150.841 45.3187 150.873 45.4549 150.874 45.593C150.876 45.7311 150.848 45.8679 150.792 45.9942L149.511 50.6045C149.455 50.8036 149.335 50.9792 149.171 51.1049C149.006 51.2307 148.806 51.3 148.599 51.3025Z"
                    fill="white"
                    id="Vector_91" />
                <path d="M158.911 34.6418C158.805 34.6429 158.703 34.6089 158.619 34.5452C158.536 34.4816 158.475 34.3919 158.448 34.2903C158.421 34.1887 158.428 34.0809 158.469 33.984C158.51 33.8871 158.582 33.8065 158.674 33.755L162.836 31.3954C162.945 31.3361 163.073 31.3216 163.192 31.3551C163.312 31.3885 163.414 31.4673 163.476 31.5747C163.537 31.6834 163.553 31.8119 163.519 31.9319C163.485 32.052 163.405 32.1538 163.297 32.215L159.135 34.5746C159.067 34.6148 158.99 34.6378 158.911 34.6418Z"
                    fill="white"
                    id="Vector_92" />
                <path d="M140.918 45.467C140.672 45.4686 140.433 45.3883 140.238 45.239C140.043 45.0896 139.903 44.8796 139.84 44.642C139.777 44.4043 139.795 44.1526 139.891 43.9264C139.987 43.7002 140.156 43.5123 140.37 43.3924L144.533 41.0328C144.784 40.9205 145.069 40.9059 145.331 40.9918C145.593 41.0776 145.814 41.2578 145.95 41.4973C146.087 41.7369 146.129 42.0186 146.07 42.2878C146.01 42.5569 145.852 42.7943 145.627 42.9538L141.465 45.3134C141.299 45.4106 141.111 45.4635 140.918 45.467Z"
                    fill="white"
                    id="Vector_93" />
                <path d="M164.265 42.114C164.207 42.1141 164.15 42.1066 164.095 42.0916L159.485 40.8109C159.343 40.7498 159.228 40.6394 159.161 40.5001C159.094 40.3609 159.08 40.2021 159.121 40.0531C159.162 39.9042 159.255 39.775 159.384 39.6895C159.512 39.604 159.668 39.5679 159.821 39.5879L164.434 40.8685C164.575 40.9164 164.695 41.0117 164.773 41.138C164.851 41.2644 164.882 41.414 164.862 41.5611C164.842 41.7083 164.772 41.844 164.663 41.9448C164.554 42.0457 164.413 42.1055 164.265 42.114Z"
                    fill="white"
                    id="Vector_94" />
                <path d="M144.334 37.229C144.22 37.2297 144.105 37.2146 143.995 37.1842L139.384 35.9035C139.103 35.7796 138.875 35.5585 138.743 35.2806C138.611 35.0026 138.584 34.6865 138.666 34.39C138.748 34.0935 138.934 33.8364 139.19 33.6657C139.446 33.4951 139.755 33.4223 140.06 33.4607L144.67 34.7413C144.95 34.8383 145.187 35.0288 145.341 35.2805C145.496 35.5323 145.559 35.8298 145.519 36.1226C145.48 36.4154 145.34 36.6856 145.124 36.8872C144.908 37.0889 144.629 37.2096 144.334 37.229Z"
                    fill="white"
                    id="Vector_95" />
                <path d="M158.268 49.9516C158.128 49.9515 157.991 49.9143 157.87 49.8441C157.749 49.7738 157.649 49.6729 157.579 49.5514L155.22 45.3862C155.166 45.2956 155.131 45.1954 155.117 45.0912C155.103 44.9871 155.11 44.8812 155.137 44.7797C155.164 44.6781 155.211 44.583 155.275 44.4999C155.34 44.4168 155.42 44.3474 155.512 44.2957C155.603 44.244 155.704 44.211 155.808 44.1988C155.913 44.1865 156.019 44.1952 156.12 44.2243C156.221 44.2534 156.315 44.3023 156.397 44.3682C156.478 44.4341 156.546 44.5157 156.596 44.6082L158.953 48.7703C159.005 48.8605 159.038 48.9602 159.051 49.0634C159.064 49.1667 159.057 49.2715 159.029 49.3718C159.001 49.4721 158.954 49.566 158.89 49.6479C158.826 49.7299 158.746 49.7983 158.655 49.8492C158.537 49.9167 158.403 49.9521 158.268 49.9516Z"
                    fill="white"
                    id="Vector_96" />
                <path d="M148.08 32.5802C147.827 32.5805 147.579 32.5137 147.361 32.3866C147.142 32.2594 146.962 32.0765 146.837 31.8566L144.481 27.6945C144.389 27.5316 144.33 27.3521 144.307 27.1662C144.284 26.9804 144.298 26.7919 144.348 26.6114C144.398 26.431 144.483 26.2621 144.598 26.1145C144.713 25.9669 144.856 25.8434 145.019 25.7511C145.182 25.6588 145.361 25.5995 145.547 25.5766C145.733 25.5537 145.922 25.5676 146.102 25.6176C146.283 25.6675 146.451 25.7525 146.599 25.8677C146.747 25.9829 146.87 26.1261 146.962 26.289L149.319 30.4511C149.411 30.6137 149.47 30.793 149.493 30.9786C149.516 31.1643 149.502 31.3526 149.452 31.5328C149.403 31.7131 149.317 31.8817 149.202 32.029C149.087 32.1763 148.944 32.2994 148.781 32.3913C148.568 32.515 148.326 32.5802 148.08 32.5802Z"
                    fill="white"
                    id="Vector_97" />
                <path d="M171.679 41.1891L168.932 41.0898L170.261 44.2915C170.261 44.2915 172.62 43.856 172.531 42.5818L171.679 41.1891Z"
                    fill="#FFB573"
                    id="Vector_98" />
                <path d="M167.092 42.4089L167.755 44.8517L170.265 44.2851L168.933 41.0898L167.092 42.4089Z"
                    fill="#FFB573"
                    id="Vector_99" />
            </g>
        </g>
    </g>
</svg>
