<svg fill="none" height="97" viewBox="0 0 158 97" width="158" xmlns="http://www.w3.org/2000/svg">
    <path
        d="M150.3 35.3122C150.581 35.624 150.797 35.9892 150.935 36.3863C151.072 36.7833 151.128 37.2039 151.1 37.6231C151.037 38.4623 150.782 39.2758 150.355 40.0007C149.573 41.4217 148.111 42.576 146.708 43.3923C145.903 41.7827 146.4 39.7524 146.708 38.7406C147.207 37.131 149.083 34.5488 150.29 35.3122"
        fill="#EBEBEB" />
    <path
        d="M147.157 46.4505C147.246 45.9895 147.456 45.5603 147.765 45.2065C148.074 44.8528 148.471 44.587 148.916 44.4362C149.362 44.2921 149.833 44.2382 150.3 44.2777C150.768 44.3172 151.222 44.4492 151.638 44.6662C152.025 44.8593 152.406 45.1537 152.501 45.5859C152.531 45.7863 152.508 45.9912 152.434 46.1798C152.359 46.3684 152.236 46.534 152.077 46.6598C151.755 46.9085 151.373 47.0672 150.969 47.1197C149.59 47.3496 148.235 47.3312 147.157 46.4574"
        fill="#EBEBEB" />
    <path
        d="M143.671 50.3573C143.719 50.2568 143.776 50.1606 143.841 50.0699L144.333 49.3065C144.756 48.6718 145.34 47.7544 146.274 47.0071C147.056 46.3593 147.996 45.9322 148.999 45.77C149.303 45.7253 149.612 45.7176 149.918 45.747C150.001 45.7536 150.083 45.7651 150.164 45.7815C150.222 45.7815 150.249 45.7976 150.249 45.8022C149.838 45.7774 149.425 45.7944 149.017 45.8528C148.034 46.0404 147.114 46.4748 146.345 47.1151C145.425 47.8394 144.841 48.7385 144.402 49.3617C144.184 49.6767 144.007 49.9319 143.878 50.1044C143.817 50.1953 143.748 50.28 143.671 50.3573Z"
        fill="#E0E0E0" />
    <path
        d="M149.044 37.4116C149.034 37.4594 149.021 37.5063 149.003 37.5519L148.87 37.9451C148.75 38.2877 148.571 38.7775 148.345 39.3822C147.886 40.5917 147.244 42.2542 146.487 44.073C145.731 45.8918 145.009 47.5221 144.469 48.6994C144.2 49.2858 143.977 49.7571 143.82 50.0791C143.744 50.2308 143.682 50.355 143.636 50.4516C143.616 50.4959 143.593 50.5382 143.565 50.578C143.576 50.5311 143.592 50.4856 143.613 50.4424C143.657 50.3435 143.71 50.2124 143.779 50.0584L144.393 48.6603C144.912 47.4784 145.623 45.8435 146.379 44.0247C147.136 42.2059 147.796 40.5503 148.267 39.3477L148.826 37.9244C148.89 37.768 148.941 37.6393 148.982 37.5404C148.998 37.4953 149.019 37.4521 149.044 37.4116Z"
        fill="#E0E0E0" />
    <path
        d="M144.614 46.4669C144.834 45.5011 144.821 44.4966 144.576 43.5368C144.33 42.577 143.859 41.6896 143.202 40.9483C142.866 40.5735 142.372 40.2194 141.898 40.3896C141.425 40.5597 141.273 41.1507 141.264 41.6542C141.263 42.7052 141.572 43.733 142.154 44.6083C142.736 45.4835 143.564 46.167 144.533 46.5727"
        fill="#EBEBEB" />
    <path
        d="M142.836 42.4497C142.918 42.5178 142.991 42.595 143.055 42.6796C143.138 42.7684 143.215 42.8629 143.285 42.9625C143.37 43.0797 143.476 43.2039 143.57 43.3603C143.679 43.525 143.78 43.6954 143.871 43.8707C143.98 44.0696 144.078 44.2746 144.163 44.4847C144.359 44.9684 144.5 45.4729 144.582 45.9885C144.655 46.5048 144.669 47.028 144.623 47.5475C144.602 47.7739 144.567 47.9989 144.519 48.2212C144.481 48.4157 144.432 48.6077 144.37 48.7961C144.324 48.9522 144.269 49.1057 144.207 49.2559C144.164 49.3712 144.113 49.4834 144.055 49.5917C144.014 49.6884 143.964 49.7808 143.906 49.8676C143.88 49.8676 144.094 49.4606 144.292 48.7708C144.346 48.584 144.39 48.3944 144.423 48.2028C144.466 47.9831 144.496 47.7613 144.515 47.5383C144.555 47.0268 144.539 46.5125 144.467 46.0046C144.385 45.499 144.25 45.0034 144.064 44.5261C143.972 44.3076 143.887 44.1007 143.786 43.9144C143.699 43.7395 143.603 43.5691 143.499 43.404C143.112 42.7923 142.804 42.4658 142.836 42.4497Z"
        fill="#E0E0E0" />
    <path
        d="M7.41465 20.9798C7.41465 20.9798 5.2992 21.6696 7.35027 26.1995C9.40134 30.7293 10.8661 33.0011 10.8661 33.0011C10.8661 33.0011 11.2179 34.0473 10.3441 34.1669C9.47032 34.2865 7.58481 33.8933 7.14332 34.9349C6.68344 36.0133 7.44224 37.0872 9.01734 38.0736C10.5924 39.0601 13.9657 41.3434 14.2692 41.5503C14.5727 41.7573 14.8532 42.2401 14.2692 42.4241C13.6851 42.608 9.37834 42.8472 9.61748 44.8845C9.85662 46.9217 14.6992 48.9544 15.2188 49.1843C15.7385 49.4143 15.8604 49.6442 15.8029 49.9385C15.7454 50.2329 14.2899 50.1685 13.0666 50.2973C11.8433 50.426 10.4476 50.7709 10.6844 51.9344C10.9212 53.0979 13.7242 55.6526 20.7742 56.6781L24.0716 56.9402L25.9985 54.2338C29.7741 48.1933 29.6361 44.4039 28.9026 43.4703C28.1691 42.5368 26.9941 43.3737 26.1134 44.2291C25.2328 45.0845 24.3291 46.2296 24.0716 46.0847C23.814 45.9399 23.7105 45.7007 23.8715 45.1512C24.0325 44.6016 25.6214 39.6004 24.221 38.1012C22.8207 36.602 19.8521 39.7292 19.3371 40.0603C18.822 40.3914 18.6358 39.8533 18.6725 39.4923C18.7093 39.1313 19.1462 35.0775 19.413 33.238C19.6797 31.3984 19.3463 30.1338 18.2311 29.7888C17.1549 29.4485 16.2306 31.1455 15.5752 31.7341C14.9199 32.3228 14.3497 31.3777 14.3497 31.3777C14.3497 31.3777 13.5656 28.7978 11.4317 24.3002C9.29786 19.8025 7.36866 21.0143 7.36866 21.0143"
        fill="#EBEBEB" />
    <path
        d="M24.2099 57.7202C22.6555 54.409 19.9927 48.4812 17.6795 43.4041C15.3663 38.327 13.2693 33.7328 11.731 30.417L9.90755 26.4896L9.41318 25.4227L9.28671 25.1422C9.26936 25.1094 9.254 25.0756 9.24072 25.041C9.24072 25.041 9.25912 25.0709 9.29131 25.133L9.42697 25.4089C9.54424 25.655 9.7167 26.0114 9.93974 26.4689C10.3835 27.3887 11.0159 28.7247 11.7931 30.3779C13.3475 33.6868 15.456 38.2764 17.7715 43.3535C20.087 48.4306 22.7382 54.3722 24.2765 57.6926"
        fill="#E0E0E0" />
    <path
        d="M9.76953 35.5903C9.84842 35.6082 9.92542 35.6336 9.99947 35.6662C10.142 35.7191 10.349 35.8042 10.6019 35.9099C11.1078 36.1238 11.7999 36.4365 12.5587 36.7952L14.4948 37.715L15.0835 37.9909C15.1574 38.0208 15.2282 38.0578 15.295 38.1013C15.2156 38.0865 15.1383 38.0618 15.0651 38.0277C14.9202 37.9748 14.7156 37.8897 14.4626 37.7817C13.9567 37.5517 13.2692 37.2413 12.5127 36.8826L10.5697 35.9628L9.98108 35.6892C9.90706 35.6643 9.8361 35.6311 9.76953 35.5903Z"
        fill="#E0E0E0" />
    <path
        d="M15.5272 37.9175C15.5019 37.9175 16.0836 36.4504 16.8263 34.6684C17.569 32.8863 18.206 31.4492 18.2198 31.4492C18.2336 31.4492 17.6656 32.9162 16.9206 34.7006C16.1756 36.4849 15.5548 37.9175 15.5272 37.9175Z"
        fill="#E0E0E0" />
    <path
        d="M18.728 45.8617C18.7693 45.7916 18.8178 45.7261 18.8729 45.6662C18.9833 45.5259 19.1235 45.3535 19.2891 45.1488C19.6386 44.712 20.1215 44.1049 20.6296 43.4174C21.1378 42.7299 21.577 42.0952 21.892 41.6307L22.2645 41.0812C22.3067 41.0117 22.3552 40.9463 22.4094 40.8857C22.3817 40.9625 22.3438 41.0352 22.2967 41.1019C22.2185 41.2399 22.1013 41.433 21.9518 41.6698C21.6529 42.1458 21.2229 42.792 20.7101 43.4795C20.1973 44.167 19.7099 44.7694 19.3443 45.1948C19.1603 45.4064 19.0109 45.5765 18.9028 45.6915C18.8517 45.7551 18.793 45.8123 18.728 45.8617Z"
        fill="#E0E0E0" />
    <path
        d="M13.0576 44.917C13.1345 44.912 13.2118 44.9166 13.2876 44.9308L13.8969 45.0067C14.4097 45.078 15.1179 45.1815 15.8997 45.301C16.6815 45.4206 17.3874 45.531 17.8979 45.6229L18.5026 45.7333C18.5773 45.7419 18.6507 45.7597 18.7211 45.7862C18.6441 45.7912 18.5669 45.7866 18.4911 45.7724L17.8841 45.6965C17.369 45.6252 16.6608 45.5218 15.879 45.4022C15.0972 45.2826 14.3913 45.1723 13.8808 45.0803L13.2784 44.9699C13.203 44.9605 13.129 44.9428 13.0576 44.917Z"
        fill="#E0E0E0" />
    <path
        d="M14.9893 52.3003C15.0855 52.2979 15.1818 52.3048 15.2767 52.321L16.0585 52.4175C16.7161 52.5026 17.6244 52.6268 18.6269 52.7717C19.6295 52.9165 20.5377 53.0522 21.1931 53.158L21.9703 53.2844C22.066 53.2975 22.1606 53.3183 22.2531 53.3465C22.1561 53.3489 22.059 53.342 21.9634 53.3258L21.1839 53.2292C20.5262 53.1442 19.6157 53.0177 18.6131 52.8728C17.6106 52.728 16.7023 52.5923 16.047 52.4888L15.2721 52.3601C15.1762 52.349 15.0815 52.329 14.9893 52.3003Z"
        fill="#E0E0E0" />
    <path
        d="M22.0874 53.273C22.1388 53.1828 22.198 53.0974 22.2645 53.0177C22.3932 52.843 22.5634 52.6176 22.768 52.344C23.1934 51.7737 23.7775 50.985 24.3983 50.0952C25.0191 49.2053 25.5618 48.3867 25.9481 47.7958L26.408 47.0899C26.4601 47.0009 26.5193 46.9163 26.585 46.8369C26.5448 46.9322 26.4964 47.0237 26.4402 47.1105C26.3413 47.283 26.1941 47.5313 26.0079 47.8326C25.6354 48.4396 25.1019 49.2674 24.4788 50.1573C23.8556 51.0471 23.2647 51.8335 22.8232 52.3923C22.5933 52.6705 22.4208 52.8959 22.292 53.0476C22.2313 53.1292 22.1627 53.2046 22.0874 53.273Z"
        fill="#E0E0E0" />
    <path
        d="M75.8017 48.1844C69.9106 45.2205 67.694 38.4556 67.0041 32.1874C66.8892 31.1412 66.6156 30.0605 66.9789 29.0763C67.3422 28.0922 68.4068 27.2989 69.4024 27.6047C70.2279 27.8553 70.6947 28.7061 71.242 29.3867C71.963 30.2961 72.9268 30.9825 74.0219 31.3665C74.7348 31.6149 75.5855 31.7068 76.188 31.2516C77.0135 30.6261 76.9399 29.3706 76.7835 28.3359C76.4923 26.4059 76.201 24.4775 75.9098 22.5506C75.7534 21.5159 75.5993 20.4604 75.7787 19.4303C75.958 18.4002 76.5375 17.3861 77.4825 16.9677C78.4276 16.5492 79.7291 16.9401 80.0832 17.9242C80.2303 18.3335 80.2073 18.7842 80.2993 19.2096C80.3913 19.635 80.658 20.081 81.0834 20.1431C81.5088 20.2052 81.8882 19.8511 82.1526 19.5016C83.0724 18.3036 83.6013 16.8504 84.0864 15.4133C84.5716 13.9761 85.0292 12.5091 85.834 11.2283C86.6388 9.94756 87.8506 8.85074 89.3199 8.55182C90.7892 8.2529 92.5046 8.94042 93.0886 10.3431C93.6727 11.7457 93.038 13.353 92.2815 14.6682C91.1646 16.6218 89.7705 18.4032 88.1426 19.9569C87.8483 20.2351 87.531 20.5363 87.4528 20.9387C87.3286 21.6607 88.0805 22.2517 88.7956 22.3805C89.605 22.5253 90.4305 22.3253 91.2514 22.3023C92.0723 22.2793 92.9989 22.5115 93.4151 23.222C93.9923 24.22 93.268 25.4571 92.4954 26.3101C90.9618 28.0176 89.1455 29.448 87.1263 30.5387C86.4042 30.9273 85.6385 31.2884 85.1005 31.9184C84.5624 32.5484 84.3279 33.528 84.8039 34.2017C85.2798 34.8754 86.2663 34.9743 87.0435 34.7099C87.8207 34.4454 88.4714 33.9097 89.1911 33.5142C90.5363 32.7715 92.3873 32.5944 93.4772 33.7004C94.1923 34.4224 94.4085 35.54 94.2452 36.5494C94.082 37.5588 93.5876 38.474 93.0449 39.334C91.1502 42.3393 88.5427 44.9169 85.4063 46.538C82.2699 48.1591 79.2577 48.911 75.804 48.1867"
        fill="#F5F5F5" />
    <path
        d="M76.8433 44.0409C77.3886 40.4937 78.1364 36.9806 79.0829 33.5188L79.8141 30.7894C80.0555 29.8949 80.2947 29.0074 80.5821 28.1543C81.1371 26.5162 81.7827 24.9103 82.5159 23.3439C83.2057 21.8447 83.9116 20.4467 84.5854 19.1429C85.2591 17.8391 85.9144 16.6388 86.5537 15.5696C87.5565 13.8773 88.6922 12.2673 89.9499 10.7547C90.3937 10.2189 90.7524 9.81421 90.9984 9.54518L91.2789 9.23936C91.3096 9.20266 91.3434 9.1688 91.3801 9.13818C91.356 9.17879 91.3275 9.21658 91.295 9.25086L91.026 9.57047C90.7961 9.8487 90.442 10.2603 90.0074 10.803C88.7757 12.3271 87.6597 13.9412 86.6686 15.6317C86.0363 16.7032 85.3925 17.9058 84.7256 19.2096C84.0588 20.5134 83.3575 21.9137 82.6746 23.4106C81.9464 24.9762 81.3047 26.5805 80.7523 28.2164C80.4671 29.0671 80.2303 29.9455 79.9888 30.8423C79.7474 31.7391 79.5083 32.6496 79.2622 33.5694C78.3163 37.0243 77.5648 40.5295 77.0111 44.0685"
        fill="#E0E0E0" />
    <path
        d="M80.635 28.1401C80.5643 28.004 80.5088 27.8606 80.4694 27.7124C80.3751 27.4342 80.2395 27.0226 80.1015 26.5236C79.8072 25.5119 79.4462 24.1046 79.0553 22.5502C78.6644 20.9958 78.2827 19.5955 77.9746 18.593C77.8205 18.0917 77.6917 17.687 77.5998 17.4088C77.5429 17.2664 77.5013 17.1184 77.4756 16.9673C77.5557 17.0974 77.6205 17.2362 77.6687 17.3812C77.7837 17.6525 77.9309 18.0526 78.1033 18.5516C78.4459 19.5449 78.8483 20.9453 79.2415 22.502L80.2326 26.4868C80.3537 26.9651 80.4571 27.3667 80.543 27.6917C80.5907 27.8372 80.6215 27.9876 80.635 28.1401Z"
        fill="#E0E0E0" />
    <path
        d="M93.5873 23.728C93.4181 23.7911 93.2434 23.838 93.0654 23.8683C92.7296 23.9488 92.2399 24.0614 91.642 24.2201C90.4417 24.5282 88.7977 25.0111 87.0087 25.6227C85.2198 26.2344 83.624 26.8667 82.4835 27.3519C81.9109 27.5818 81.4534 27.798 81.136 27.9382C80.9758 28.0216 80.8079 28.0893 80.6348 28.1406C80.7792 28.036 80.9332 27.9451 81.0946 27.8693C81.4028 27.7083 81.8535 27.483 82.4191 27.2254C83.5504 26.7058 85.1439 26.0573 86.9374 25.4388C88.4675 24.9081 90.024 24.4568 91.6006 24.0867C92.2054 23.9442 92.6998 23.8568 93.0424 23.7947C93.2214 23.7549 93.4039 23.7326 93.5873 23.728Z"
        fill="#E0E0E0" />
    <path
        d="M76.9743 43.7719C76.9295 43.7282 76.8908 43.6787 76.8593 43.6247C76.7789 43.5028 76.6823 43.3534 76.5627 43.1648C76.3052 42.7739 75.9488 42.1991 75.5188 41.4839C74.6565 40.0514 73.5275 38.0348 72.3111 35.7929C71.0947 33.551 69.9841 31.5367 69.1517 30.0996L68.163 28.3888L67.8963 27.9289C67.8614 27.876 67.8336 27.8189 67.8135 27.7588C67.8587 27.8029 67.8974 27.8532 67.9284 27.9082L68.2251 28.3681C68.4826 28.759 68.839 29.3339 69.269 30.0513C70.1313 31.4838 71.2626 33.5004 72.4882 35.7423C73.7138 37.9842 74.8129 40.0054 75.6453 41.4541L76.634 43.1671C76.7421 43.3534 76.8294 43.5097 76.9007 43.627C76.9307 43.6723 76.9554 43.7209 76.9743 43.7719Z"
        fill="#E0E0E0" />
    <path
        d="M93.8403 35.5146C93.7894 35.5537 93.7338 35.5861 93.6748 35.6112L93.1873 35.8481L91.3823 36.7356C89.8578 37.4875 87.763 38.5476 85.4521 39.7249C83.1412 40.9022 81.0326 41.9415 79.492 42.6612C78.7217 43.0199 78.0963 43.305 77.6525 43.4936L77.1489 43.7051C77.092 43.7351 77.0307 43.7561 76.9673 43.7672C77.0186 43.7289 77.0742 43.6965 77.1328 43.6706L77.6203 43.4246L79.4276 42.537C80.9522 41.7874 83.0446 40.7274 85.3578 39.5478C87.671 38.3682 89.775 37.3312 91.3156 36.6115C92.0859 36.2528 92.7113 35.9676 93.1551 35.7791L93.6587 35.5675C93.7162 35.5407 93.7774 35.5229 93.8403 35.5146Z"
        fill="#E0E0E0" />
    <path
        d="M123.112 19.9017C123.112 16.1491 119.17 13.7738 115.151 15.6524C114.243 16.0784 113.5 16.7909 113.036 17.6805C112.026 19.6396 112.472 21.8746 113.39 23.7325L116.517 31.6586C116.615 31.9114 116.788 32.1286 117.012 32.2817C117.236 32.4348 117.501 32.5167 117.772 32.5167C118.044 32.5167 118.309 32.4348 118.533 32.2817C118.757 32.1286 118.929 31.9114 119.028 31.6586L122.095 23.6888C123.155 21.2538 123.112 19.9017 123.112 19.9017ZM119.336 23.1669C116.634 24.7374 113.896 21.8332 115.376 18.9682C115.57 18.5859 115.868 18.2668 116.236 18.0484C118.938 16.4779 121.675 19.3821 120.194 22.2471C120.001 22.6292 119.704 22.9483 119.336 23.1669Z"
        fill="#F5F5F5" />
    <path
        d="M155.713 96.3405C155.713 96.375 121.222 96.4003 78.6966 96.4003C36.1714 96.4003 1.6665 96.375 1.6665 96.3405C1.6665 96.3061 36.1438 96.2808 78.6966 96.2808C121.249 96.2808 155.713 96.3083 155.713 96.3405Z"
        fill="#263238" />
    <path
        d="M66.9924 96.3405L36.4287 96.2003C34.6641 96.1893 32.9759 95.4794 31.7337 94.2261C30.4916 92.9727 29.7969 91.2782 29.8018 89.5136L30.126 12.8905C30.1363 11.1251 30.8463 9.4359 32.1002 8.19321C33.3541 6.95051 35.0496 6.25575 36.815 6.26126L67.3787 6.40153C69.1424 6.41247 70.83 7.12174 72.072 8.37408C73.314 9.62643 74.0093 11.3198 74.0056 13.0836L73.6814 89.7067C73.6722 91.4729 72.9628 93.1633 71.7088 94.407C70.4548 95.6506 68.7585 96.346 66.9924 96.3405Z"
        fill="#455A64" />
    <path
        d="M67.3354 9.04559L61.4098 9.018C61.0197 9.02526 60.6484 9.18691 60.3773 9.46751C60.1062 9.74812 59.9574 10.1248 59.9635 10.5149V11.591C59.9666 11.7842 59.9315 11.976 59.8603 12.1556C59.7891 12.3352 59.6832 12.499 59.5487 12.6376C59.4141 12.7762 59.2535 12.8869 59.0762 12.9634C58.8988 13.0399 58.708 13.0807 58.5149 13.0834L46.9627 13.0305C46.5727 13.019 46.2032 12.8537 45.9347 12.5706C45.6663 12.2876 45.5209 11.9098 45.5301 11.5198V10.4436C45.537 10.0562 45.391 9.68168 45.1237 9.40109C44.8565 9.12051 44.4895 8.95645 44.1022 8.94442H42.0189L36.8338 8.90533C35.5974 8.89922 34.4092 9.38435 33.5305 10.2541C32.6517 11.1238 32.1543 12.3069 32.1476 13.5432L31.8326 88.3337C31.8271 89.5701 32.3128 90.7581 33.1829 91.6364C34.0531 92.5147 35.2364 93.0116 36.4728 93.0176L66.9767 93.1579C67.5891 93.1606 68.196 93.0427 68.7628 92.8109C69.3296 92.579 69.8452 92.2378 70.2802 91.8067C70.7151 91.3756 71.0609 90.8631 71.2977 90.2984C71.5346 89.7336 71.6579 89.1278 71.6606 88.5154L71.9756 13.7272C71.9783 13.1151 71.8605 12.5085 71.6288 11.942C71.397 11.3754 71.056 10.8601 70.6251 10.4254C70.1942 9.99063 69.6819 9.64503 69.1175 9.40829C68.553 9.17155 67.9475 9.04831 67.3354 9.04559Z"
        fill="#FAFAFA" />
    <path
        d="M32.1104 22.5225H37.1093L41.5701 26.9856L36.9322 31.6235L32.1632 26.8522L32.1104 22.5225Z"
        fill="#EBEBEB" />
    <path d="M42.5889 25.0265L40.0825 22.5225H45.7207L42.5889 25.0265Z" fill="#EBEBEB" />
    <path
        d="M44.7803 27.0732L49.1698 22.6836H64.5069C64.5069 22.6836 66.8546 33.1689 57.6087 39.9016L44.7803 27.0732Z"
        fill="#EBEBEB" />
    <path d="M42.9019 28.4712L38.2065 33.1689L51.2005 46.1628L55.8959 41.3088L42.9019 28.4712Z"
        fill="#EBEBEB" />
    <path d="M32.0532 35.8315L34.9965 32.7778L32.1107 29.8921L32.0532 35.8315Z" fill="#EBEBEB" />
    <path
        d="M36.7579 34.5781L32.2373 39.0988V45.3807L41.5706 54.9302L49.4783 47.5721L36.7579 34.5781Z"
        fill="#EBEBEB" />
    <path
        d="M59.3677 41.2191C59.3677 41.2191 69.0528 34.1185 65.921 22.6836H71.9431L71.8695 54.9581L59.3677 41.2191Z"
        fill="#EBEBEB" />
    <path d="M57.5463 43.0815L52.8647 47.9701L67.2222 62.3299L71.6141 57.6759L57.5463 43.0815Z"
        fill="#EBEBEB" />
    <path d="M50.9078 49.3081L43.5474 56.6156L58.2682 71.233L65.6148 64.1301L50.9078 49.3081Z"
        fill="#EBEBEB" />
    <path d="M47.0498 85.9219L58.3031 74.2593L69.0068 85.17L47.0498 85.9219Z" fill="#EBEBEB" />
    <path
        d="M60.0576 72.7531L71.7846 61.1411C71.7846 61.6562 71.6834 85.2182 71.6834 85.2182L60.0576 72.7531Z"
        fill="#EBEBEB" />
    <path d="M50.0253 66.2319L56.6729 72.8795L43.5479 86.423L37.4844 79.15L50.0253 66.2319Z"
        fill="#EBEBEB" />
    <path
        d="M32.0645 80.0929C32.6922 80.0308 48.7673 64.9766 48.7673 64.9766L32.0645 47.6689V80.0929Z"
        fill="#EBEBEB" />
    <path d="M31.8325 83.5235L35.7024 80.0928L41.0623 86.423H31.8325V84.0018" fill="#EBEBEB" />
    <path
        d="M36.8338 17.9651C36.4248 17.6633 36.0404 17.3296 35.6841 16.9672C35.6841 16.7924 35.6841 16.9189 35.6841 16.8798L35.7002 16.866L35.7278 16.8407L35.7853 16.7878L35.8956 16.6843L36.1049 16.4912L36.4659 16.1693C36.5752 16.0576 36.6989 15.9609 36.8338 15.8818C36.7517 16.0069 36.6527 16.1199 36.5395 16.2175L36.1946 16.5579L35.9899 16.7556L35.8795 16.8614L35.8243 16.9143L35.7945 16.9396L35.7807 16.9534V16.866C36.1598 17.2044 36.5119 17.5719 36.8338 17.9651Z"
        fill="#263238" />
    <path
        d="M68.6233 16.2107C68.6238 16.2605 68.6094 16.3093 68.582 16.3509C68.5547 16.3924 68.5156 16.4249 68.4697 16.4442C68.4238 16.4634 68.3732 16.4686 68.3244 16.459C68.2755 16.4494 68.2307 16.4255 68.1955 16.3903C68.1603 16.3551 68.1364 16.3102 68.1268 16.2614C68.1172 16.2125 68.1223 16.162 68.1416 16.1161C68.1608 16.0702 68.1933 16.0311 68.2349 16.0037C68.2765 15.9763 68.3252 15.962 68.375 15.9624C68.4409 15.9624 68.504 15.9886 68.5506 16.0351C68.5972 16.0817 68.6233 16.1449 68.6233 16.2107Z"
        fill="#263238" />
    <path
        d="M68.5517 16.8936C68.5868 16.9286 68.6107 16.9733 68.6204 17.0219C68.6301 17.0705 68.6252 17.121 68.6063 17.1668C68.5873 17.2126 68.5552 17.2518 68.514 17.2794C68.4727 17.3069 68.4243 17.3216 68.3747 17.3216C68.3251 17.3216 68.2766 17.3069 68.2354 17.2794C68.1941 17.2518 68.162 17.2126 68.1431 17.1668C68.1241 17.121 68.1192 17.0705 68.1289 17.0219C68.1386 16.9733 68.1625 16.9286 68.1976 16.8936C68.2449 16.8472 68.3085 16.8213 68.3747 16.8213C68.4409 16.8213 68.5044 16.8472 68.5517 16.8936Z"
        fill="#263238" />
    <path
        d="M68.6227 17.9284C68.6167 17.9905 68.5879 18.048 68.5417 18.09C68.4956 18.1319 68.4355 18.1551 68.3732 18.1551C68.3109 18.1551 68.2508 18.1319 68.2047 18.09C68.1585 18.048 68.1297 17.9905 68.1237 17.9284C68.1204 17.8936 68.1243 17.8586 68.1353 17.8254C68.1464 17.7923 68.1642 17.7618 68.1877 17.7359C68.2112 17.7101 68.2398 17.6894 68.2718 17.6753C68.3037 17.6611 68.3383 17.6538 68.3732 17.6538C68.4081 17.6538 68.4427 17.6611 68.4746 17.6753C68.5066 17.6894 68.5352 17.7101 68.5587 17.7359C68.5822 17.7618 68.6 17.7923 68.611 17.8254C68.6221 17.8586 68.626 17.8936 68.6227 17.9284Z"
        fill="#263238" />
    <path d="M57.8479 17.2295H47.0913V18.1263H57.8479V17.2295Z" fill="#263238" />
    <path
        d="M56.6776 33.3182C56.6776 29.1287 52.2765 26.4752 47.7881 28.5746C46.7725 29.049 45.9416 29.8451 45.4243 30.8395C44.2953 33.0262 44.7943 35.5234 45.8175 37.5974L49.3126 46.4524C49.423 46.7346 49.6159 46.9769 49.8661 47.1477C50.1163 47.3186 50.4123 47.4099 50.7152 47.4099C51.0182 47.4099 51.3141 47.3186 51.5644 47.1477C51.8146 46.9769 52.0075 46.7346 52.1179 46.4524L55.5417 37.5514C56.7282 34.8381 56.6776 33.3182 56.6776 33.3182ZM52.4697 36.9743C49.4529 38.7287 46.3946 35.4866 48.0479 32.2858C48.2658 31.8637 48.5981 31.5115 49.0068 31.2695C52.0259 29.515 55.0841 32.7572 53.4285 35.958C53.2116 36.3807 52.8791 36.7332 52.4697 36.9743Z"
        fill="#EB6440" />
    <path d="M148.141 65.3076H20.5649V84.0271H148.141V65.3076Z" fill="#EB6440" />
    <g opacity="0.5">
        <path d="M148.141 65.3076H20.5649V84.0271H148.141V65.3076Z" fill="black" />
    </g>
    <path
        d="M38.5354 96.1738C45.3142 95.7176 50.4397 89.8525 49.9835 83.0737C49.5273 76.2949 43.6622 71.1695 36.8834 71.6257C30.1047 72.0818 24.9792 77.9469 25.4354 84.7257C25.8916 91.5045 31.7567 96.63 38.5354 96.1738Z"
        fill="#263238" />
    <path
        d="M25.41 83.6914C25.41 83.7029 25.41 83.7144 25.41 83.7236C25.3866 85.3391 25.6816 86.9434 26.2782 88.4449C26.8748 89.9463 27.7613 91.3156 28.8871 92.4745C30.0129 93.6334 31.3559 94.5592 32.8395 95.199C34.323 95.8389 35.9181 96.1802 37.5336 96.2036C39.1491 96.227 40.7534 95.932 42.2549 95.3354C43.7564 94.7388 45.1256 93.8523 46.2845 92.7265C47.4434 91.6007 48.3692 90.2577 49.009 88.7741C49.6489 87.2906 49.9902 85.6955 50.0136 84.08C50.0136 84.0685 50.0136 84.057 50.0136 84.0478L25.41 83.6914Z"
        fill="#263238" />
    <path
        d="M29.0732 83.7767C29.0479 85.4849 29.5298 87.1622 30.4579 88.5965C31.386 90.0308 32.7186 91.1576 34.2871 91.8345C35.8557 92.5113 37.5898 92.7077 39.27 92.3989C40.9502 92.0901 42.5011 91.29 43.7265 90.0996C44.9519 88.9093 45.7968 87.3823 46.1542 85.7117C46.5117 84.0411 46.3657 82.3021 45.7347 80.7145C45.1036 79.127 44.016 77.7622 42.6092 76.7929C41.2025 75.8236 39.5398 75.2932 37.8317 75.2689C35.5422 75.2364 33.3335 76.1143 31.6911 77.7097C30.0488 79.305 29.1071 81.4873 29.0732 83.7767Z"
        fill="#FAFAFA" />
    <path
        d="M37.8312 75.2665C35.5416 75.2334 33.3325 76.1111 31.69 77.7066C30.0475 79.3021 29.1061 81.4847 29.0728 83.7743L46.3436 84.025C46.3762 81.7347 45.4976 79.5254 43.9012 77.8829C42.3049 76.2403 40.1214 75.2992 37.8312 75.2665Z"
        fill="#E0E0E0" />
    <path
        d="M32.4483 83.825C32.433 84.8656 32.7266 85.8873 33.292 86.761C33.8574 87.6347 34.6692 88.3211 35.6248 88.7334C36.5803 89.1456 37.6367 89.2652 38.6602 89.077C39.6837 88.8888 40.6284 88.4013 41.3749 87.6761C42.1213 86.9509 42.6358 86.0206 42.8535 85.003C43.0711 83.9853 42.9821 82.9259 42.5976 81.9589C42.2131 80.9918 41.5504 80.1605 40.6934 79.5702C39.8364 78.9798 38.8235 78.6568 37.783 78.6422C37.0923 78.6321 36.4065 78.7582 35.7647 79.0133C35.1228 79.2683 34.5375 79.6473 34.0421 80.1286C33.5467 80.6099 33.151 81.184 32.8775 81.8183C32.6041 82.4525 32.4582 83.1344 32.4483 83.825Z"
        fill="#263238" />
    <path
        d="M132.495 96.1698C139.277 95.7763 144.457 89.9589 144.063 83.1761C143.67 76.3934 137.852 71.2139 131.07 71.6074C124.287 72.0009 119.108 77.8183 119.501 84.601C119.894 91.3837 125.712 96.5632 132.495 96.1698Z"
        fill="#263238" />
    <path
        d="M119.479 83.6914C119.479 83.7029 119.479 83.7144 119.479 83.7236C119.455 85.3391 119.75 86.9434 120.347 88.4449C120.944 89.9463 121.83 91.3156 122.956 92.4745C124.082 93.6334 125.425 94.5592 126.908 95.199C128.392 95.8389 129.987 96.1802 131.602 96.2036C133.218 96.227 134.822 95.932 136.324 95.3354C137.825 94.7388 139.194 93.8523 140.353 92.7265C141.512 91.6007 142.438 90.2577 143.078 88.7741C143.718 87.2906 144.059 85.6955 144.082 84.08C144.082 84.0685 144.082 84.057 144.082 84.0478L119.479 83.6914Z"
        fill="#263238" />
    <path
        d="M123.142 83.7767C123.117 85.4849 123.599 87.1622 124.527 88.5965C125.455 90.0308 126.787 91.1576 128.356 91.8345C129.925 92.5113 131.659 92.7077 133.339 92.3989C135.019 92.0901 136.57 91.29 137.795 90.0996C139.021 88.9093 139.866 87.3823 140.223 85.7117C140.581 84.0411 140.435 82.3021 139.804 80.7145C139.172 79.127 138.085 77.7622 136.678 76.7929C135.271 75.8236 133.609 75.2932 131.901 75.2689C129.611 75.2364 127.402 76.1143 125.76 77.7097C124.118 79.305 123.176 81.4873 123.142 83.7767Z"
        fill="#FAFAFA" />
    <path
        d="M131.901 75.2665C129.611 75.2334 127.402 76.1111 125.759 77.7066C124.117 79.3021 123.175 81.4847 123.142 83.7743L140.413 84.025C140.445 81.7347 139.567 79.5254 137.971 77.8829C136.374 76.2403 134.191 75.2992 131.901 75.2665Z"
        fill="#E0E0E0" />
    <path
        d="M126.51 83.825C126.495 84.8656 126.789 85.8873 127.354 86.761C127.919 87.6347 128.731 88.3211 129.687 88.7334C130.642 89.1456 131.699 89.2652 132.722 89.077C133.746 88.8888 134.69 88.4013 135.437 87.6761C136.183 86.9509 136.698 86.0206 136.916 85.003C137.133 83.9853 137.044 82.9259 136.66 81.9589C136.275 80.9918 135.612 80.1605 134.755 79.5702C133.898 78.9798 132.886 78.6568 131.845 78.6422C131.154 78.6321 130.469 78.7582 129.827 79.0133C129.185 79.2683 128.599 79.6473 128.104 80.1286C127.609 80.6099 127.213 81.184 126.94 81.8183C126.666 82.4525 126.52 83.1344 126.51 83.825Z"
        fill="#263238" />
    <path
        d="M53.833 54.7764C53.833 54.7764 35.7183 56.1123 28.9994 57.6185C24.2672 58.6785 15.1432 60.5111 15.2536 66.2504L15.9779 70.3664C15.9779 70.3664 12.5955 71.9116 12.5955 75.8574C12.5955 79.8031 11.77 85.9196 19.6707 86.1656C20.9722 86.2047 23.4441 86.1656 23.4441 86.1656C23.4441 86.1656 21.9288 69.3385 37.3854 68.8465C53.111 68.3452 52.0671 86.0115 52.0671 86.0115H117.699C117.699 86.0115 115.004 68.8005 131.932 68.766C148.861 68.7315 146.285 86.1242 146.285 86.1242C146.285 86.1242 152.512 86.6623 155.409 81.4288C158.307 76.1954 157.555 72.4611 157.555 72.4611L157.458 69.1523C157.44 68.6093 157.216 68.0935 156.832 67.7093C156.447 67.3251 155.932 67.1012 155.389 67.0828C155.389 67.0828 156.52 58.7544 154.784 57.3126C153.048 55.8709 143.535 47.1723 143.535 47.1723L143.995 46.8894C144.166 46.7817 144.302 46.6278 144.389 46.4456C144.475 46.2635 144.508 46.0605 144.484 45.8603C144.46 45.66 144.38 45.4707 144.253 45.3142C144.125 45.1578 143.956 45.0406 143.765 44.9763C140.153 43.7346 133.011 41.2766 131.332 40.6902C131.081 40.6009 130.819 40.5452 130.553 40.5247C129.55 40.4488 126.713 40.2694 121.505 40.2143C115.16 40.1453 89.9728 40.2143 89.9728 40.2143C89.9728 40.2143 81.304 40.9271 76.4753 43.0517C71.412 45.2867 53.833 54.7764 53.833 54.7764Z"
        fill="#EB6440" />
    <g opacity="0.4">
        <path
            d="M17.1894 75.3975C16.5318 75.2642 15.5247 75.2527 15.0234 75.6964C14.6509 76.0276 14.552 76.5633 14.4968 77.0577C14.3912 77.7349 14.4068 78.4255 14.5428 79.0973C14.6122 79.4328 14.7501 79.7504 14.9479 80.0301C15.1458 80.3099 15.3993 80.5457 15.6925 80.7229C16.295 81.0495 17.1181 80.9966 17.5849 80.493C18.0126 80.0331 18.0609 79.3433 18.0448 78.7294C18.0287 77.8418 18.1 77.0899 17.9367 76.2184C17.9007 76.0334 17.822 75.8594 17.7068 75.7102C17.6495 75.621 17.5724 75.5461 17.4815 75.4915C17.3906 75.4368 17.2883 75.4039 17.1825 75.3952"
            fill="black" />
    </g>
    <path
        d="M15.9821 70.3666C17.9044 70.3666 19.7692 70.2609 21.6893 70.1367C21.8984 70.1459 22.1044 70.0834 22.2733 69.9596C22.3505 69.8636 22.408 69.7531 22.4423 69.6347C22.4767 69.5163 22.4872 69.3923 22.4734 69.2698C22.4734 68.2397 22.432 67.067 21.6502 66.3956C21.1719 65.9863 20.5166 65.8575 19.8888 65.8C18.33 65.6316 16.7531 65.7882 15.2578 66.2599L15.9821 70.3666Z"
        fill="#FAFAFA" />
    <path
        d="M55.9185 85.4849C55.9185 85.4849 55.9185 85.4297 55.9047 85.3193C55.8909 85.209 55.8863 85.0457 55.8725 84.8365C55.8495 84.4088 55.815 83.7856 55.7713 82.9809C55.7276 82.1761 55.6724 81.1896 55.5575 80.0491C55.4387 78.7577 55.2118 77.4786 54.8791 76.2252C54.4594 74.7112 53.8367 73.2609 53.0281 71.9138C52.1122 70.3583 50.895 69.0012 49.4479 67.922C46.346 65.7146 42.1542 64.4729 37.7692 64.4131C33.3843 64.3534 29.1902 65.7399 26.1641 68.0646C24.7136 69.1377 23.4431 70.4347 22.4 71.9069C21.4893 73.1851 20.7488 74.5765 20.1972 76.0458C19.7422 77.2603 19.4297 78.5235 19.2659 79.81C19.1377 80.7801 19.1 81.76 19.1532 82.7371C19.191 83.3545 19.2678 83.9689 19.3832 84.5766C19.42 84.7813 19.4499 84.94 19.4683 85.0503C19.4867 85.1607 19.4936 85.2136 19.4936 85.2136C19.4936 85.2136 19.4798 85.1607 19.4568 85.0549L19.3579 84.595C19.2327 83.9883 19.1498 83.3737 19.1096 82.7555C19.047 81.7753 19.0778 80.7913 19.2015 79.8169C19.36 78.5238 19.6687 77.2536 20.1213 76.032C20.671 74.551 21.4115 73.1481 22.3241 71.8586C23.3696 70.3745 24.6458 69.0672 26.1044 67.9864C29.1442 65.6502 33.3475 64.2499 37.7669 64.3074C42.1864 64.3649 46.3851 65.618 49.5123 67.8462C50.9681 68.9361 52.1915 70.3057 53.1109 71.8747C53.9188 73.2322 54.5377 74.6935 54.9504 76.2183C55.2812 77.477 55.5035 78.7617 55.6149 80.0583C55.723 81.208 55.7713 82.1876 55.8081 82.9923C55.8449 83.7971 55.8702 84.4226 55.8886 84.8503C55.8886 85.0595 55.9024 85.2205 55.907 85.3331C55.9116 85.4458 55.9185 85.4849 55.9185 85.4849Z"
        fill="white" />
    <path
        d="M56.6083 85.7701V85.6322L56.5945 85.2252C56.583 84.8619 56.5669 84.3307 56.5439 83.6363C56.5048 82.2405 56.4473 80.201 56.3738 77.6049C56.3002 75.0089 56.2151 71.8564 56.1162 68.2463C56.0909 67.3427 56.0679 66.4068 56.0403 65.4526C56.0242 64.9649 56.0457 64.4768 56.1047 63.9924L56.2082 63.252L56.36 62.5093C56.5981 61.4947 56.941 60.5075 57.3832 59.5638C57.8386 58.5745 58.4015 57.6384 59.0618 56.7723L70.4277 49.6119L73.4974 47.6804C74.5321 46.9929 75.6184 46.3864 76.7465 45.8662C77.9002 45.3229 79.084 44.8462 80.2922 44.4383C80.8946 44.2267 81.5132 44.0543 82.1317 43.8703C82.7503 43.6864 83.3803 43.5346 84.0195 43.4104C86.4299 42.8948 88.8801 42.5871 91.3431 42.4907C93.7065 42.3774 96.0742 42.3851 98.4368 42.5137H98.5035L98.4874 42.5804L95.4338 56.2411C94.8697 57.1675 94.4071 58.1519 94.0541 59.1775C93.7067 60.1501 93.5506 61.1808 93.5943 62.2127C93.6724 63.2221 93.7 64.2109 93.7253 65.1697C93.7506 66.1286 93.7621 67.0575 93.7805 67.9612C93.8334 71.5713 93.8472 74.7192 93.8564 77.3129C93.8656 79.9066 93.8564 81.9462 93.8564 83.3396C93.8564 84.0295 93.8564 84.5652 93.8564 84.9285C93.8564 85.1056 93.8564 85.2413 93.8564 85.3355C93.8564 85.4298 93.8564 85.4735 93.8564 85.4735C93.8564 85.4735 93.8564 85.4252 93.8564 85.3355C93.8564 85.2459 93.8564 85.1056 93.8564 84.9285C93.8564 84.5652 93.8564 84.0341 93.8564 83.3396C93.8564 81.9462 93.8357 79.9066 93.8196 77.3152C93.8035 74.7238 93.7805 71.5667 93.7184 67.9612C93.7 67.0598 93.6801 66.1301 93.6586 65.172C93.631 64.2132 93.6035 63.229 93.523 62.2196C93.4763 61.1747 93.6325 60.1307 93.9829 59.1453C94.3334 58.1115 94.7961 57.1191 95.3625 56.186V56.202C96.2984 51.9964 97.3216 47.4068 98.4046 42.539L98.4575 42.608C96.1002 42.4809 93.7379 42.4748 91.3799 42.5896C88.9229 42.6847 86.4787 42.9924 84.0747 43.5093C83.4378 43.6358 82.8169 43.8128 82.1938 43.9692C81.5707 44.1256 80.9613 44.3256 80.3543 44.5349C79.146 44.9434 77.9622 45.4209 76.8086 45.9651C75.6861 46.4818 74.6052 47.0845 73.5756 47.7678L70.5036 49.6993L59.1376 56.8436V56.8321C58.4786 57.6924 57.9172 58.6232 57.4637 59.6075C57.022 60.544 56.6798 61.5243 56.4427 62.5323C55.9254 64.5029 56.1852 66.4413 56.1898 68.2463L56.4197 77.6049C56.4818 80.1987 56.5301 82.2405 56.5623 83.634C56.5784 84.3238 56.5876 84.8619 56.5968 85.2252C56.5968 85.4014 56.5968 85.5371 56.5968 85.6322C56.6083 85.7241 56.6083 85.7701 56.6083 85.7701Z"
        fill="#263238" />
    <path
        d="M98.354 42.8933H98.4621L98.7771 42.8818L99.9981 42.852L104.526 42.7646L119.789 42.5024H119.819L119.837 42.5254L121.976 45.1445C124.142 47.8049 126.207 50.3342 128.083 52.6336L128.773 53.4844C128.996 53.7695 129.188 54.0779 129.345 54.4042C129.63 55.0092 129.785 55.6673 129.8 56.3358C129.814 57.0044 129.689 57.6686 129.43 58.2856L128.741 59.8952L126.63 64.7791L126.05 66.1035L125.896 66.4485C125.862 66.5243 125.841 66.5634 125.841 66.5634C125.841 66.5634 125.855 66.522 125.885 66.4439C125.915 66.3657 125.968 66.2438 126.027 66.0944C126.158 65.7862 126.345 65.3355 126.586 64.7607L128.656 59.863C129.051 58.8236 129.748 57.7291 129.7 56.3955C129.689 55.7176 129.532 55.0501 129.24 54.4387C129.085 54.1211 128.897 53.8212 128.679 53.5442L127.989 52.6934L121.875 45.2111L119.738 42.5921L119.784 42.6151L104.519 42.8451L99.9912 42.8979H98.7702H98.4575L98.354 42.8933Z"
        fill="#263238" />
    <path
        d="M90.6394 63.1922C90.6394 63.1922 90.7038 63.1922 90.8211 63.1646C90.9936 63.134 91.1579 63.0683 91.3039 62.9715C91.5356 62.8203 91.7091 62.5949 91.796 62.3323C91.8487 62.1691 91.8706 61.9976 91.8604 61.8264C91.8549 61.6355 91.8062 61.4484 91.7178 61.2791C91.6151 61.0865 91.4625 60.9249 91.2761 60.8113C91.0896 60.6977 90.8761 60.6361 90.6578 60.633H89.108H85.5554C85.2554 60.6335 84.9665 60.7467 84.746 60.9503C84.5308 61.1462 84.3937 61.4132 84.3597 61.7022C84.3249 61.9815 84.3762 62.2647 84.5069 62.5139C84.6403 62.748 84.8472 62.9315 85.0955 63.0359C85.3414 63.1202 85.6022 63.1523 85.8612 63.1302H86.6131H87.9652L89.922 63.1486L90.4532 63.1601C90.5155 63.1587 90.5779 63.1634 90.6394 63.1738C90.5776 63.1811 90.5154 63.1849 90.4532 63.1853H89.922L87.9652 63.2037H86.6131H85.8612C85.7302 63.2037 85.6037 63.2037 85.4634 63.2037C85.3227 63.1951 85.1844 63.1633 85.0541 63.1095C84.7815 62.9975 84.5541 62.7976 84.408 62.5415C84.2621 62.2725 84.2049 61.9643 84.2448 61.6608C84.2809 61.3382 84.4344 61.0402 84.6761 60.8235C84.9178 60.6068 85.2308 60.4866 85.5554 60.4858H89.108H90.6601C90.8948 60.4908 91.1237 60.559 91.3228 60.6832C91.522 60.8075 91.6838 60.9832 91.7914 61.1918C91.8835 61.3729 91.933 61.5726 91.9363 61.7758C91.9437 61.9553 91.918 62.1346 91.8604 62.3047C91.7632 62.5779 91.5759 62.8098 91.3292 62.9623C91.1771 63.059 91.0048 63.1196 90.8257 63.1394C90.7659 63.1643 90.7034 63.1821 90.6394 63.1922Z"
        fill="#263238" />
    <path
        d="M124.671 63.1922C124.671 63.1922 124.735 63.1922 124.852 63.1646C125.025 63.134 125.189 63.0683 125.335 62.9715C125.567 62.8203 125.74 62.5949 125.827 62.3323C125.88 62.1691 125.902 61.9976 125.892 61.8264C125.886 61.6355 125.837 61.4484 125.749 61.2791C125.646 61.0865 125.494 60.9249 125.307 60.8113C125.121 60.6977 124.907 60.6361 124.689 60.633H123.139H119.587C119.287 60.6335 118.998 60.7467 118.777 60.9503C118.562 61.1462 118.425 61.4132 118.391 61.7022C118.356 61.9815 118.407 62.2647 118.538 62.5139C118.672 62.748 118.878 62.9315 119.127 63.0359C119.373 63.1202 119.633 63.1523 119.892 63.1302H120.644H121.996L123.953 63.1486L124.484 63.1601C124.547 63.1587 124.609 63.1634 124.671 63.1738C124.609 63.1811 124.547 63.1849 124.484 63.1853H123.953L121.996 63.2037H120.644H119.892C119.761 63.2037 119.635 63.2037 119.495 63.2037C119.354 63.1951 119.216 63.1633 119.085 63.1095C118.813 62.9975 118.585 62.7976 118.439 62.5415C118.293 62.2725 118.236 61.9643 118.276 61.6608C118.312 61.3382 118.466 61.0402 118.707 60.8235C118.949 60.6068 119.262 60.4866 119.587 60.4858H123.139H124.691C124.926 60.4908 125.155 60.559 125.354 60.6832C125.553 60.8075 125.715 60.9832 125.823 61.1918C125.915 61.3729 125.964 61.5726 125.968 61.7758C125.975 61.9553 125.949 62.1346 125.892 62.3047C125.794 62.5779 125.607 62.8098 125.36 62.9623C125.208 63.059 125.036 63.1196 124.857 63.1394C124.797 63.1643 124.735 63.1821 124.671 63.1922Z"
        fill="#263238" />
    <path
        d="M154.492 57.6416H147.686C147.228 57.6415 146.779 57.7663 146.387 58.0025C145.996 58.2388 145.676 58.5775 145.462 58.9822C145.287 59.317 145.189 59.687 145.176 60.0648C145.163 60.4426 145.236 60.8184 145.389 61.1643L148.056 67.2278L154.871 67.1611C154.871 67.1611 156.322 59.4742 154.492 57.6416Z"
        fill="#FAFAFA" />
    <path
        d="M59.9653 56.7838L95.0842 56.1354L117.94 55.7169L125.478 51.3641C125.621 51.2807 125.745 51.1677 125.841 51.0328C125.938 50.8978 126.004 50.7439 126.037 50.5813C126.069 50.4187 126.066 50.2511 126.029 50.0895C125.992 49.9279 125.921 49.7761 125.82 49.6441L121.127 43.4794C120.886 43.162 120.575 42.9041 120.219 42.7255C119.863 42.547 119.47 42.4525 119.072 42.4493L93.5068 42.2423C93.5068 42.2423 83.8815 41.6813 76.2957 45.9214C68.3191 50.3983 59.9653 56.7838 59.9653 56.7838Z"
        fill="#263238" />
    <path
        d="M76.0593 42.8794C76.0593 42.8794 77.8206 43.6819 76.6755 44.4246C75.5304 45.1673 57.7376 56.3815 57.7376 56.3815L53.647 54.5305C60.8924 50.4996 68.2091 46.5791 76.0593 42.8794Z"
        fill="#455A64" />
    <path
        d="M58.3121 56.6665L58.2018 56.6941L57.8775 56.7654L56.629 57.0229C55.5436 57.2391 53.9708 57.5426 52.0301 57.8783C48.1212 58.5497 42.713 59.3315 36.6954 59.8512C35.1893 59.9822 33.7062 60.0811 32.2989 60.1823C30.8917 60.2835 29.5075 60.3639 28.206 60.4812C25.6008 60.7112 23.2692 61.0883 21.3745 61.6516C19.8685 62.0704 18.4191 62.6711 17.0585 63.4406C16.5687 63.6981 16.2192 63.951 15.9732 64.1028L15.6926 64.2798L15.5938 64.3373C15.6233 64.3135 15.654 64.2913 15.6857 64.2706L15.9594 64.0821C16.2031 63.9234 16.548 63.6636 17.0355 63.3923C18.3879 62.6018 19.834 61.9838 21.34 61.5527C23.2393 60.9756 25.5778 60.587 28.1853 60.3547C29.4891 60.2306 30.8595 60.1432 32.2805 60.0489C33.7016 59.9547 35.1709 59.8443 36.6747 59.7132C42.69 59.1936 48.1051 58.4255 52.0072 57.7748C53.9594 57.4506 55.5321 57.1609 56.6198 56.9585L57.8729 56.7286L58.1995 56.6688L58.3121 56.6665Z"
        fill="#263238" />
    <path
        d="M157.212 72.3923C157.212 72.4268 154.871 72.4521 151.986 72.4521C149.1 72.4521 146.757 72.4268 146.757 72.3923C146.757 72.3578 149.098 72.3325 151.986 72.3325C154.874 72.3325 157.212 72.3601 157.212 72.3923Z"
        fill="#263238" />
    <path
        d="M114.39 78.3659C114.39 78.4004 101.178 78.4257 84.8822 78.4257C68.5863 78.4257 55.3716 78.4004 55.3716 78.3659C55.3716 78.3314 68.5817 78.3062 84.8822 78.3062C101.183 78.3062 114.39 78.3337 114.39 78.3659Z"
        fill="#263238" />
    <path
        d="M21.8874 72.5901C21.8874 72.6246 20.018 72.6498 17.714 72.6498C15.4099 72.6498 13.5405 72.6246 13.5405 72.5901C13.5405 72.5556 15.4099 72.5303 17.714 72.5303C20.018 72.5303 21.8874 72.5579 21.8874 72.5901Z"
        fill="#263238" />
    <path
        d="M143.358 46.9331C143.358 46.9331 141.789 48.6876 142.406 49.9752C143.022 51.2629 149.394 55.7743 149.394 55.7743L154.018 56.6412L143.358 46.9331Z"
        fill="#455A64" />
    <path d="M99.3933 43.79L98.354 55.0203L116.961 54.4892L124.459 50.1295L119.605 43.79H99.3933Z"
        fill="#455A64" />
    <path
        d="M64.3711 55.5949C64.3711 55.5949 75.5968 47.4872 80.0255 45.8754C84.3 44.321 86.5282 43.9301 90.5429 43.8059C94.3806 43.6955 96.7191 43.8059 96.7191 43.8059L93.7529 55.2224L64.3711 55.5949Z"
        fill="#455A64" />
    <path
        d="M62.7295 55.6226C62.7297 55.2735 62.8226 54.9308 62.9988 54.6294C63.1749 54.328 63.428 54.0788 63.732 53.9073L66.312 52.4587C67.0469 52.045 67.8761 51.828 68.7195 51.8286C69.2388 51.8293 69.7548 51.9116 70.2486 52.0724C70.7861 52.2583 71.2542 52.6038 71.5902 53.0627C71.9263 53.5217 72.1144 54.0722 72.1295 54.6408C72.144 55.0227 72.0813 55.4036 71.9451 55.7607C71.8089 56.1179 71.6021 56.4438 71.3369 56.719C71.0718 56.9943 70.7538 57.2132 70.402 57.3626C70.0502 57.512 69.6719 57.5889 69.2897 57.5886H64.6909C64.1703 57.5874 63.6714 57.3797 63.3037 57.0112C62.936 56.6426 62.7295 56.1433 62.7295 55.6226Z"
        fill="#EB6440" />
    <path
        d="M62.7296 55.6228C62.7296 55.6228 62.7296 55.7101 62.7595 55.8711C62.7942 56.1079 62.8722 56.3363 62.9894 56.5448C63.1753 56.8734 63.4492 57.1434 63.7804 57.3243C63.987 57.4324 64.2113 57.5025 64.4427 57.5313C64.7066 57.5508 64.9714 57.5562 65.236 57.5474L69.1703 57.5336C69.5432 57.5435 69.9146 57.4827 70.2648 57.3542C70.6343 57.216 70.9705 57.0011 71.251 56.7237C71.5316 56.4463 71.7503 56.1126 71.8928 55.7446C72.0376 55.3564 72.0964 54.9414 72.0652 54.5282C72.0344 54.1211 71.9144 53.7256 71.7137 53.37C71.5131 53.0143 71.2366 52.7072 70.904 52.4703C70.5829 52.2483 70.2211 52.092 69.8394 52.0104C68.7908 51.7624 67.6897 51.8683 66.7076 52.3116C66.411 52.445 66.1396 52.6128 65.8706 52.7577L65.1026 53.1854L63.7804 53.9166C63.4478 54.0957 63.1733 54.3661 62.9894 54.6961C62.8735 54.9053 62.7956 55.1334 62.7595 55.3698C62.7365 55.5308 62.7388 55.6182 62.7319 55.6182C62.7233 55.5341 62.7233 55.4493 62.7319 55.3652C62.7578 55.1239 62.8296 54.8897 62.9435 54.6754C63.1242 54.332 63.4016 54.049 63.7414 53.8614L65.0543 53.1141L65.8177 52.6795C66.0844 52.5324 66.3558 52.3622 66.6593 52.2196C67.6598 51.759 68.7855 51.6457 69.8578 51.8977C70.2532 51.9763 70.6292 52.1326 70.9638 52.3576C71.3115 52.6039 71.6005 52.9239 71.8104 53.2947C72.0202 53.6655 72.1457 54.0781 72.1779 54.503C72.2115 54.9341 72.1503 55.3673 71.9985 55.7722C71.8501 56.1567 71.6216 56.5051 71.3283 56.7945C71.0349 57.0839 70.6834 57.3076 70.297 57.4508C69.9338 57.5816 69.5493 57.6432 69.1634 57.6324L65.2291 57.621C64.9613 57.6267 64.6934 57.6182 64.4266 57.5957C64.1845 57.5621 63.9506 57.4841 63.7368 57.3657C63.3979 57.1762 63.1203 56.8938 62.9366 56.5517C62.8242 56.3369 62.7532 56.1029 62.7273 55.8619C62.7217 55.7823 62.7225 55.7023 62.7296 55.6228Z"
        fill="#263238" />
    <path
        d="M149.215 85.5885C149.215 85.5885 149.215 85.5356 149.215 85.4298C149.215 85.324 149.233 85.1654 149.247 84.9699C149.261 84.7745 149.284 84.5101 149.298 84.2111C149.311 83.9122 149.321 83.5627 149.332 83.1741C149.344 82.7855 149.332 82.3486 149.332 81.8749C149.332 81.4013 149.298 80.8839 149.233 80.332C149.129 79.0814 148.906 77.8434 148.569 76.6346C148.37 75.9294 148.125 75.2381 147.835 74.5651C147.528 73.838 147.157 73.1394 146.727 72.4773C145.769 71.0175 144.549 69.747 143.131 68.7292C141.569 67.5953 139.826 66.7353 137.975 66.1861C136.058 65.5997 133.97 65.3859 131.845 65.3698C129.773 65.3508 127.71 65.651 125.729 66.2597C124.791 66.556 123.88 66.9322 123.006 67.3841C122.173 67.8267 121.382 68.3439 120.642 68.9293C119.267 70.0062 118.042 71.2621 117 72.6635C116.542 73.3067 116.137 73.9866 115.791 74.6962C115.475 75.3539 115.195 76.0287 114.954 76.7174C114.219 78.7928 113.772 80.959 113.625 83.1557C113.588 83.9352 113.592 84.5354 113.613 84.9538C113.625 85.1562 113.634 85.3103 113.638 85.4137C113.643 85.5172 113.638 85.5724 113.638 85.5724C113.638 85.5724 113.638 85.5195 113.62 85.4137C113.602 85.308 113.597 85.1493 113.581 84.9538C113.55 84.3541 113.55 83.7532 113.581 83.1534C113.708 80.9444 114.144 78.7641 114.875 76.676C115.117 75.9843 115.395 75.3058 115.708 74.6433C116.057 73.9285 116.463 73.2426 116.922 72.5922C117.968 71.1818 119.196 69.9167 120.576 68.8304C121.32 68.2405 122.116 67.7187 122.953 67.2714C123.833 66.8159 124.75 66.4366 125.694 66.1378C127.686 65.5219 129.762 65.2186 131.847 65.2387C133.981 65.2548 136.078 65.4687 138.012 66.0619C139.875 66.6163 141.629 67.4841 143.2 68.6281C143.927 69.1635 144.607 69.7605 145.232 70.4124C145.826 71.0241 146.355 71.6952 146.812 72.4152C147.243 73.0834 147.615 73.7882 147.923 74.5214C148.212 75.1942 148.455 75.8855 148.651 76.5909C148.987 77.8058 149.205 79.0501 149.302 80.3067C149.364 80.8586 149.364 81.376 149.39 81.8519C149.415 82.3279 149.39 82.7717 149.39 83.1534C149.39 83.5351 149.355 83.8915 149.341 84.1927C149.327 84.494 149.298 84.7446 149.279 84.9515C149.261 85.1585 149.247 85.3079 149.238 85.4114C149.229 85.5149 149.215 85.5885 149.215 85.5885Z"
        fill="white" />
    <path
        d="M93.2082 56.7837H93.0518L92.4517 56.7975L90.2465 56.8366C88.384 56.8711 85.8133 56.9401 82.9712 57.0182C80.1291 57.0964 77.5561 57.1493 75.6936 57.1631C74.7623 57.1631 74.0081 57.1631 73.4861 57.1631H72.886H72.7319C72.7137 57.1666 72.695 57.1666 72.6768 57.1631C72.695 57.1601 72.7137 57.1601 72.7319 57.1631H72.886L73.4861 57.1493L75.6913 57.1102C77.5538 57.0757 80.1268 57.0067 82.9689 56.9309C85.811 56.855 88.384 56.7975 90.2465 56.7837C91.1663 56.7837 91.932 56.7837 92.4517 56.7837H93.0518H93.2082Z"
        fill="white" />
    <path
        d="M90.2117 60.2398C89.5421 60.3004 88.8694 60.3204 88.1974 60.2996C87.5254 60.3204 86.8527 60.3004 86.1831 60.2398C86.8528 60.1806 87.5254 60.1606 88.1974 60.18C88.8694 60.1606 89.542 60.1806 90.2117 60.2398Z"
        fill="white" />
    <path
        d="M90.9524 47.9357C90.9639 47.9656 88.4644 49.0072 85.3671 50.2604C82.2698 51.5136 79.7497 52.5069 79.7359 52.4747C79.7221 52.4426 82.2239 51.4032 85.3212 50.15C88.4185 48.8969 90.9386 47.9058 90.9524 47.9357Z"
        fill="white" />
    <path
        d="M85.8843 48.7245C85.8981 48.7567 83.5159 49.8052 80.5658 51.0676C77.6156 52.33 75.215 53.3302 75.2012 53.3003C75.1874 53.2704 77.5696 52.2219 80.5198 50.9572C83.4699 49.6925 85.8705 48.69 85.8843 48.7245Z"
        fill="white" />
    <path
        d="M118.021 47.5012C118.035 47.5311 115.533 48.5728 112.436 49.8259C109.339 51.0791 106.819 52.0702 106.805 52.0403C106.791 52.0104 109.293 50.9688 112.392 49.7156C115.492 48.4624 118.003 47.4691 118.021 47.5012Z"
        fill="white" />
    <path
        d="M112.944 48.2855C112.958 48.3177 110.575 49.3662 107.628 50.6286C104.68 51.8909 102.275 52.8912 102.261 52.8613C102.247 52.8314 104.629 51.7829 107.579 50.5182C110.529 49.2535 112.944 48.2648 112.944 48.2855Z"
        fill="white" />
    <path
        d="M118.511 56.7723C118.511 56.8045 113.537 56.862 107.402 56.8987C101.268 56.9355 96.2939 56.9378 96.2939 56.8987C96.2939 56.8597 101.265 56.8091 107.402 56.7746C113.539 56.7401 118.511 56.747 118.511 56.7723Z"
        fill="white" />
    <path
        d="M124.018 60.0491C124.018 60.0813 122.625 60.1204 120.902 60.1365C119.18 60.1526 117.787 60.1365 117.787 60.1066C117.787 60.0767 119.18 60.033 120.902 60.0169C122.625 60.0008 124.018 60.0146 124.018 60.0491Z"
        fill="white" />
    <path
        d="M28.7853 58.3477C28.7415 58.3625 28.6959 58.3718 28.6497 58.3752L28.2611 58.4258C28.0909 58.4442 27.884 58.4695 27.6448 58.5109C27.4057 58.5523 27.1321 58.5822 26.8331 58.642C26.233 58.7478 25.5225 58.9041 24.7453 59.1019C23.9034 59.3342 23.0738 59.6089 22.2596 59.925C21.395 60.2677 20.5926 60.6425 19.8751 61.0127C19.1577 61.3829 18.5369 61.7554 18.0356 62.0888C17.7758 62.2474 17.5504 62.4084 17.3458 62.5487C17.1411 62.6889 16.9733 62.8039 16.8353 62.9051L16.5157 63.135C16.4791 63.1633 16.4398 63.1879 16.3984 63.2086C16.4289 63.1745 16.4628 63.1437 16.4996 63.1166L16.8077 62.8706C16.9411 62.7648 17.1067 62.6407 17.3067 62.4958C17.5068 62.3509 17.7252 62.19 17.9965 62.0359C18.5024 61.6933 19.1278 61.3185 19.8361 60.9345C21.3865 60.1056 23.0288 59.4612 24.7292 59.0145C25.511 58.8121 26.2261 58.6627 26.8308 58.5684C27.1321 58.5132 27.4057 58.4856 27.6471 58.4534C27.8886 58.4212 28.107 58.4005 28.2657 58.389L28.6589 58.3592C28.7007 58.3523 28.743 58.3485 28.7853 58.3477Z"
        fill="white" />
    <path
        d="M69.8482 52.9234C69.8482 52.9234 69.7815 52.8337 69.6182 52.7096C69.3977 52.5407 69.1354 52.435 68.8594 52.4037C68.4455 52.3692 68.0288 52.4137 67.6315 52.5348C66.2314 52.8874 64.931 53.5569 63.8306 54.4916C63.2834 54.9515 62.9936 55.2895 62.9775 55.2734C63.0332 55.1856 63.0979 55.1039 63.1707 55.0297C63.3608 54.8184 63.5619 54.6173 63.7731 54.4272C64.4756 53.8015 65.2736 53.2923 66.1369 52.9188C66.6108 52.7113 67.1026 52.5474 67.6062 52.429C68.0165 52.3097 68.4462 52.2722 68.8709 52.3187C69.1595 52.3582 69.4299 52.4822 69.6481 52.6751C69.7061 52.7271 69.7578 52.7857 69.8022 52.8498C69.839 52.8958 69.8528 52.9211 69.8482 52.9234Z"
        fill="white" />
    <path
        d="M143.88 46.8502C143.559 46.9277 143.23 46.9617 142.9 46.9514C142.514 46.9398 142.129 46.8921 141.751 46.8089C141.252 46.6915 140.762 46.5378 140.286 46.349C139.755 46.1489 139.189 45.8891 138.578 45.6339L137.623 45.2499C137.294 45.1188 136.947 45.0061 136.598 44.8774C135.063 44.3576 133.498 43.9314 131.912 43.6012C129.027 43.0008 126.099 42.6378 123.155 42.5159C122.59 42.486 122.079 42.486 121.629 42.4745H120.479L119.752 42.4906H119.497C119.518 42.4865 119.54 42.4865 119.561 42.4906L119.75 42.4768L120.479 42.4377L121.629 42.417C122.089 42.417 122.59 42.417 123.155 42.4446C126.107 42.5409 129.045 42.8948 131.935 43.5023C133.524 43.8289 135.092 44.2559 136.628 44.7808C136.977 44.9095 137.317 45.0245 137.655 45.1579L138.61 45.5511C139.221 45.8155 139.785 46.073 140.311 46.2777C140.781 46.4671 141.265 46.6209 141.758 46.7376C142.13 46.8269 142.511 46.8808 142.894 46.8985C143.135 46.9068 143.377 46.8984 143.618 46.8732L143.804 46.8502H143.88Z"
        fill="#263238" />
    <path
        d="M33.2486 47.1679C32.3288 42.1368 31.7103 41.3642 31.1906 39.6328C30.6709 37.9013 29.8454 36.7769 28.8176 36.3791C28.1278 36.1124 24.6626 34.8638 23.4577 35.2777C22.2789 35.6968 21.1566 36.2606 20.1167 36.9562C19.3096 37.4915 18.698 38.2742 18.3737 39.1867L16.5342 44.3764L19.7717 47.5956L21.3951 44.1465L23.1565 48.2854L22.8966 52.4588L32.9979 55.1767C33.9085 53.7051 33.7705 50.0215 33.2486 47.1679Z"
        fill="#EB6440" />
    <g opacity="0.2">
        <path
            d="M30.6254 41.6792C30.1793 44.2982 30.108 44.6684 29.6619 47.2783C29.5079 48.1773 29.0595 49.5777 28.4202 50.2307C27.9466 50.7113 27.4821 51.1735 26.8222 51.3298C26.2105 51.4747 25.2793 51.4908 24.7044 51.2378C24.1295 50.9849 23.6375 49.8582 23.8743 49.281C24.732 49.465 24.9964 49.7409 25.7345 49.281C26.3784 48.8717 27.2935 47.9658 27.643 47.2875C29.117 44.4362 29.524 44.335 30.6323 41.6792"
            fill="black" />
    </g>
    <path
        d="M23.3061 46.7537C23.1427 46.5336 22.9937 46.3031 22.86 46.0638L21.8206 44.3554L20.7537 42.6745C20.5947 42.4484 20.451 42.2118 20.3237 41.9663C20.3791 42.0166 20.4277 42.0738 20.4686 42.1365C20.556 42.2491 20.6778 42.417 20.8227 42.6262C21.117 43.0447 21.5125 43.6311 21.9218 44.291C22.3311 44.9509 22.6875 45.5626 22.9336 46.011C23.0577 46.2409 23.1635 46.4157 23.2187 46.5444C23.2585 46.6092 23.288 46.6798 23.3061 46.7537Z"
        fill="#263238" />
    <path
        d="M30.3559 51.4515C30.2827 51.4896 30.2056 51.5196 30.126 51.5412C30.0318 51.5727 29.9358 51.5988 29.8386 51.6194C29.7115 51.6538 29.5825 51.6807 29.4523 51.6999C29.1152 51.7598 28.7737 51.7914 28.4313 51.7941C28.0113 51.7949 27.5919 51.7587 27.1782 51.6861C26.7648 51.6082 26.3593 51.4936 25.9664 51.3434C25.6485 51.2193 25.3409 51.0701 25.0466 50.8974C24.9178 50.8261 24.8167 50.7479 24.7155 50.6858C24.6318 50.6314 24.5512 50.5723 24.4741 50.5088C24.4039 50.4606 24.3399 50.4043 24.2832 50.3409C24.297 50.3225 24.5821 50.5456 25.088 50.8238C25.3846 50.9837 25.6919 51.1227 26.0078 51.24C26.784 51.5293 27.6052 51.6796 28.4336 51.6838C28.7712 51.6841 29.1085 51.6619 29.4431 51.6171C30.0041 51.5366 30.349 51.4285 30.3559 51.4515Z"
        fill="#263238" />
    <path
        d="M26.3023 43.613C26.2839 43.7027 25.1986 45.8641 25.1986 45.8641L20.0755 43.1646L19.5535 40.9572C19.4674 40.6027 19.2443 40.2968 18.9332 40.1063C18.6221 39.9158 18.2482 39.8563 17.8933 39.9408L16.3826 40.5594C16.3203 40.5837 16.265 40.6232 16.2217 40.6741C16.1784 40.7251 16.1483 40.786 16.1343 40.8514C16.1136 40.9618 16.1343 41.0813 16.3343 41.0561C16.7091 41.0262 17.484 40.9434 17.484 40.9434L17.1276 42.2012C17.0336 42.5308 17.0698 42.8839 17.2288 43.1876L17.4588 43.6222L17.9577 44.4293H17.9462C17.9462 44.4293 22.9267 49.5455 25.7228 49.8789C27.4037 50.0789 29.3076 45.3674 29.3076 45.3674L26.3023 43.613Z"
        fill="#FFBE9D" />
    <path
        d="M17.4473 41.0283C17.4473 41.0283 17.4864 40.9754 17.5714 40.918C17.6854 40.8386 17.8212 40.7968 17.96 40.7984C18.0325 40.8025 18.1026 40.826 18.1628 40.8664C18.2231 40.9069 18.2714 40.9628 18.3026 41.0283C18.3509 41.1318 18.3187 41.2008 18.3026 41.1962C18.2865 41.1916 18.3026 41.1318 18.2475 41.0536C18.2135 41.004 18.1688 40.9627 18.1166 40.9328C18.0645 40.9029 18.0062 40.8853 17.9462 40.8812C17.8218 40.8829 17.6996 40.9145 17.5898 40.9731C17.5185 41.0076 17.4542 41.0375 17.4473 41.0283Z"
        fill="#FFBE9D" />
    <path
        d="M18.0935 41.8125C18.0935 41.8125 18.059 41.7711 18.0107 41.709C17.949 41.6298 17.8672 41.5686 17.7737 41.5318C17.6803 41.495 17.5787 41.484 17.4796 41.4998C17.4014 41.4998 17.3531 41.5274 17.3485 41.5182C17.3439 41.509 17.3853 41.4745 17.4681 41.4469C17.5775 41.415 17.6944 41.4202 17.8005 41.4618C17.9066 41.5034 17.9959 41.5791 18.0544 41.6769C18.0958 41.755 18.1004 41.8102 18.0935 41.8125Z"
        fill="#FFBE9D" />
    <path
        d="M27.3645 36.7906L25.9849 43.3646L29.6639 45.5743L31.0757 41.5343C31.0757 41.5343 30.4825 36.6273 27.3645 36.7906Z"
        fill="#EB6440" />
    <path
        d="M29.3467 36.9058C29.3467 36.9058 29.3168 36.9311 29.2524 36.9655C29.188 37 29.096 37.0506 28.9742 37.1127C28.7304 37.2369 28.3717 37.4116 27.9234 37.6117C26.7577 38.1445 25.5304 38.5307 24.2696 38.7614C23.0009 38.9881 21.6986 38.9442 20.448 38.6326C20.0737 38.5343 19.7089 38.4027 19.3581 38.2394C19.2316 38.1865 19.1281 38.129 19.0752 38.0969C19.0422 38.0804 19.0107 38.0612 18.981 38.0394C19.1156 38.0849 19.2476 38.1379 19.3765 38.198C19.7338 38.3424 20.1011 38.4607 20.4756 38.5521C21.7167 38.8363 23.0023 38.8675 24.2558 38.6441C25.5082 38.4136 26.7301 38.041 27.8981 37.5335C28.3579 37.3449 28.7097 37.1817 28.9604 37.0736C29.0853 37.0092 29.2143 36.9531 29.3467 36.9058Z"
        fill="#EBEBEB" />
    <path
        d="M30.3143 37.6323C30.2828 37.6608 30.2481 37.6855 30.2108 37.7059L29.9073 37.9014C29.7469 38.0064 29.5811 38.1031 29.4106 38.1911C29.2129 38.2946 28.9921 38.421 28.7323 38.536L28.3322 38.7199C28.1919 38.7843 28.0402 38.8372 27.8861 38.8993C27.5803 39.0258 27.24 39.1292 26.8859 39.2442C25.3333 39.7125 23.7106 39.9047 22.0916 39.8122C21.7191 39.7823 21.365 39.7616 21.0385 39.7087C20.8729 39.6834 20.7143 39.6673 20.5625 39.6397L20.1279 39.5523C19.852 39.504 19.606 39.4305 19.3898 39.3753C19.2039 39.3304 19.0205 39.2759 18.8403 39.212L18.4976 39.0924C18.4566 39.0815 18.4172 39.0653 18.3804 39.0442C18.4228 39.0465 18.4646 39.055 18.5045 39.0695L18.854 39.166C19.0035 39.212 19.1875 39.2649 19.4059 39.3109C19.6244 39.3569 19.8658 39.4282 20.1463 39.4696L20.5786 39.5477C20.7281 39.5753 20.8867 39.5891 21.0385 39.6098C21.365 39.6581 21.7283 39.6765 22.0847 39.7018C23.6917 39.7835 25.301 39.593 26.8445 39.1384C27.1963 39.0281 27.5343 38.9292 27.8401 38.805C27.9919 38.7452 28.1437 38.6947 28.2839 38.6349L28.6863 38.4578C28.9461 38.352 29.1669 38.2279 29.3761 38.1313C29.5854 38.0347 29.7463 37.9404 29.8797 37.8623L30.197 37.6875C30.2335 37.664 30.2729 37.6454 30.3143 37.6323Z"
        fill="#EBEBEB" />
    <path
        d="M29.6545 45.5741C29.5515 45.5306 29.4516 45.4799 29.3556 45.4224L28.5462 44.9625L25.7869 43.369L25.7524 43.3483V43.3092C25.8513 42.8195 25.9571 42.2906 26.0675 41.7479C26.233 40.9293 26.394 40.1521 26.5273 39.4485C26.6032 39.0944 26.6653 38.7587 26.7343 38.4391C26.7967 38.1436 26.8955 37.8571 27.0286 37.586C27.2214 37.1834 27.5625 36.8711 27.9806 36.7145C28.0937 36.6756 28.2127 36.6561 28.3324 36.657C28.3735 36.6542 28.4148 36.6589 28.4542 36.6708C28.2974 36.6761 28.1422 36.7056 27.9944 36.7582C27.5994 36.9248 27.2811 37.2333 27.1022 37.6228C26.9779 37.8907 26.886 38.1724 26.8286 38.4621C26.7665 38.7771 26.7021 39.1151 26.6331 39.4669C26.4906 40.1797 26.3342 40.9569 26.1732 41.7663C26.0629 42.3113 25.9548 42.8379 25.8559 43.3276L25.8283 43.2678L28.5715 44.8981L29.3648 45.381C29.4666 45.4372 29.5635 45.5018 29.6545 45.5741Z"
        fill="#263238" />
    <path
        d="M30.7791 41.3389C30.7993 41.5435 30.7931 41.7498 30.7607 41.9528C30.7125 42.4442 30.6248 42.931 30.4985 43.4083C30.3723 43.8862 30.2093 44.3536 30.0111 44.8064C29.9391 44.9989 29.8425 45.1813 29.7236 45.349C29.7799 45.1528 29.8498 44.9607 29.9329 44.7742C30.2819 43.8593 30.5317 42.9095 30.6779 41.9413C30.6988 41.7386 30.7326 41.5373 30.7791 41.3389Z"
        fill="#263238" />
    <path
        d="M10.8315 77.9062L10.7901 81.4151C10.7901 81.4151 7.20765 82.5534 7.13867 83.2018L13.9403 83.5237L14.23 78.058L10.8315 77.9062Z"
        fill="#455A64" />
    <path
        d="M12.9198 81.2196C12.9843 81.2427 13.0381 81.2888 13.0708 81.349C13.1034 81.4093 13.1127 81.4795 13.0968 81.5462C13.0765 81.6117 13.0318 81.667 12.9718 81.7004C12.9119 81.7338 12.8413 81.7428 12.7749 81.7255C12.7067 81.7005 12.6501 81.6513 12.6158 81.5873C12.5815 81.5233 12.5718 81.4489 12.5887 81.3783C12.6175 81.3125 12.6708 81.2604 12.7372 81.233C12.8037 81.2055 12.8781 81.2049 12.9451 81.2311"
        fill="#E0E0E0" />
    <path
        d="M13.9407 83.524V82.9721L7.41501 82.8687C7.41501 82.8687 7.10459 82.9859 7.12988 83.2021L13.9407 83.524Z"
        fill="#E0E0E0" />
    <path
        d="M10.6823 81.376C10.6823 81.4082 10.8479 81.4312 11.0042 81.5461C11.1606 81.6611 11.2342 81.8037 11.2756 81.7922C11.3169 81.7807 11.2756 81.5875 11.0709 81.4519C10.8663 81.3162 10.6754 81.3438 10.6823 81.376Z"
        fill="#263238" />
    <path
        d="M9.95312 81.636C9.95312 81.6682 10.0865 81.7325 10.1831 81.8774C10.2796 82.0223 10.3141 82.174 10.3486 82.174C10.3831 82.174 10.4107 81.9878 10.275 81.8084C10.1394 81.6291 9.95542 81.6061 9.95312 81.636Z"
        fill="#263238" />
    <path
        d="M9.50737 82.4708C9.53726 82.4708 9.59245 82.3167 9.50737 82.1305C9.42229 81.9442 9.27743 81.866 9.26363 81.9005C9.24983 81.935 9.33951 82.0293 9.39929 82.1833C9.45908 82.3374 9.47058 82.4662 9.50737 82.4708Z"
        fill="#263238" />
    <path
        d="M10.7791 80.5758C10.7929 80.608 10.947 80.5758 11.1356 80.5896C11.3241 80.6034 11.4644 80.6793 11.4828 80.6517C11.5012 80.6241 11.3678 80.4976 11.147 80.4746C10.9263 80.4516 10.7653 80.5505 10.7791 80.5758Z"
        fill="#263238" />
    <g opacity="0.3">
        <path d="M10.8251 78.6006L10.8159 79.226L14.1616 79.3548L14.1914 78.7914L10.8251 78.6006Z"
            fill="black" />
    </g>
    <path
        d="M10.8018 79.8678C10.9116 79.9043 11.0293 79.9099 11.1421 79.8839C11.2659 79.8679 11.3872 79.8362 11.5031 79.7896C11.5723 79.7639 11.6392 79.7324 11.7031 79.6954C11.7429 79.6768 11.7793 79.6519 11.8112 79.6218C11.8343 79.5991 11.849 79.5693 11.8532 79.5372C11.8574 79.5051 11.8507 79.4726 11.8342 79.4447C11.8184 79.4209 11.7973 79.4011 11.7726 79.3867C11.7478 79.3724 11.7202 79.3639 11.6916 79.3619C11.6484 79.3597 11.605 79.3636 11.5629 79.3735C11.4898 79.3876 11.4182 79.4083 11.349 79.4355C11.232 79.4825 11.1227 79.5469 11.0248 79.6264C10.8592 79.7666 10.7949 79.8885 10.811 79.8954C10.8271 79.9023 10.9075 79.8057 11.0731 79.6931C11.1705 79.6282 11.2755 79.5757 11.3858 79.5367C11.4503 79.5147 11.5164 79.4978 11.5836 79.4861C11.6571 79.47 11.7192 79.4723 11.7353 79.5045C11.7514 79.5367 11.7353 79.5229 11.7353 79.5436C11.7115 79.565 11.6853 79.5835 11.6571 79.5988C11.5951 79.6333 11.533 79.6655 11.4732 79.6931C11.3648 79.7399 11.2525 79.7768 11.1375 79.8034C11.0243 79.8176 10.9122 79.8391 10.8018 79.8678Z"
        fill="#263238" />
    <path
        d="M10.8503 79.9185C10.9186 79.8243 10.9549 79.7107 10.9537 79.5943C10.9665 79.4687 10.9572 79.3418 10.9262 79.2195C10.9076 79.1464 10.8814 79.0755 10.848 79.0079C10.8318 78.9621 10.804 78.9213 10.7673 78.8895C10.7307 78.8576 10.6863 78.8359 10.6387 78.8263C10.6087 78.8251 10.579 78.8328 10.5532 78.8483C10.5275 78.8638 10.5069 78.8866 10.4939 78.9137C10.4736 78.9526 10.4596 78.9945 10.4525 79.0378C10.441 79.114 10.441 79.1916 10.4525 79.2678C10.4651 79.3961 10.5093 79.5194 10.5812 79.6265C10.7054 79.8104 10.8434 79.8564 10.8457 79.8449C10.848 79.8334 10.7445 79.7598 10.6502 79.5851C10.5963 79.485 10.5649 79.3744 10.5583 79.2609C10.5545 79.1945 10.56 79.128 10.5743 79.0631C10.5881 78.9918 10.618 78.9344 10.6456 78.9436C10.6732 78.9528 10.733 79.001 10.7583 79.0608C10.7895 79.1211 10.8149 79.1843 10.8342 79.2494C10.8672 79.3606 10.8842 79.476 10.8848 79.592C10.8664 79.7897 10.825 79.9116 10.8503 79.9185Z"
        fill="#263238" />
    <path
        d="M24.6969 52.4954C24.6969 52.4954 14.0691 48.0345 10.7809 47.8483C8.71144 47.7287 7.15704 49.0532 7.43757 51.187C7.57783 52.2563 10.5142 64.7535 10.5142 64.7535L14.9888 62.7117L12.8366 54.0682L21.5743 58.3129L24.6969 52.4954Z"
        fill="#263238" />
    <path
        d="M11.5009 51.8817C11.4664 51.9116 11.8182 52.3645 12.1907 52.9647C12.5632 53.5648 12.8115 54.0822 12.8529 54.0661C12.8943 54.05 12.7035 53.4958 12.3241 52.8842C11.9447 52.2726 11.54 51.8541 11.5009 51.8817Z"
        fill="#455A64" />
    <path
        d="M10.6321 52.3781C10.6091 52.4172 11.1448 52.7575 11.7818 53.222C12.4187 53.6865 12.897 54.0935 12.9315 54.0613C12.966 54.0291 12.5061 53.5531 11.8668 53.0932C11.2276 52.6334 10.6505 52.3413 10.6321 52.3781Z"
        fill="#455A64" />
    <path
        d="M32.9863 55.1767C32.9863 55.1767 31.6504 56.899 30.3765 57.3704C28.7669 57.9613 16.9342 63.5466 16.9342 63.5466C16.9342 63.5466 14.7865 79.5021 14.9567 78.8353L10.0015 78.7157L10.5395 64.0202C10.6039 62.1393 12.1123 59.9779 13.7334 59.0167L24.697 52.4956L32.9863 55.1767Z"
        fill="#263238" />
    <path
        d="M10.4454 66.7105C10.4611 66.6443 10.4681 66.5763 10.4661 66.5082C10.4661 66.361 10.4845 66.1702 10.496 65.931C10.5241 65.2236 10.5901 64.5182 10.6937 63.8179C10.8389 62.7829 11.206 61.7914 11.7698 60.9114C12.1188 60.4056 12.5492 59.9611 13.0437 59.5962C13.5803 59.2052 14.1418 58.8496 14.7246 58.5316C17.1091 57.1657 19.167 55.7723 20.6892 54.818C21.448 54.3351 22.0689 53.9511 22.492 53.689L22.9841 53.3855C23.0436 53.3526 23.0998 53.3141 23.1519 53.2705C23.0886 53.2935 23.0277 53.3227 22.9703 53.3579C22.853 53.42 22.6805 53.5119 22.4621 53.6361C22.0229 53.8821 21.3975 54.2547 20.6226 54.7237C19.0843 55.6573 17.0148 57.0346 14.6441 58.4028C14.0553 58.7245 13.4884 59.0848 12.9471 59.4812C12.4403 59.8572 12.0003 60.3158 11.6457 60.8379C11.0785 61.7408 10.7166 62.7573 10.5857 63.8156C10.491 64.5207 10.4418 65.2311 10.4385 65.9425C10.4385 66.1725 10.4385 66.3725 10.4385 66.522C10.4352 66.5849 10.4375 66.648 10.4454 66.7105Z"
        fill="#455A64" />
    <path
        d="M28.6133 56.8575C28.5215 56.7151 28.4201 56.5791 28.3098 56.4505C28.0814 56.1184 27.9228 55.7433 27.8438 55.348C27.7647 54.9528 27.7668 54.5455 27.8499 54.1511C27.901 53.9892 27.9409 53.8241 27.9695 53.6567C27.8578 53.7899 27.7791 53.9474 27.7395 54.1166C27.6218 54.5249 27.6044 54.9556 27.6889 55.3721C27.7715 55.7886 27.9546 56.1785 28.2224 56.508C28.4316 56.7724 28.6041 56.8713 28.6133 56.8575Z"
        fill="#455A64" />
    <path
        d="M11.8232 78.7155C11.8313 78.6894 11.8359 78.6623 11.837 78.635C11.837 78.5706 11.8554 78.4924 11.8669 78.3935C11.8921 78.1636 11.9243 77.8601 11.9657 77.4738C12.0462 76.6552 12.1612 75.4894 12.3037 74.0546C12.3704 73.3325 12.4463 72.5415 12.5337 71.6931C12.6211 70.8446 12.7015 69.9363 12.7636 68.9798C12.8257 68.0232 12.9269 67.023 13.1016 65.9905C13.2723 64.9314 13.5815 63.8993 14.0214 62.9208C14.4807 61.954 15.0873 61.0642 15.8195 60.2834C16.5056 59.5571 17.2568 58.8951 18.0638 58.3059C19.4467 57.332 20.883 56.4361 22.3659 55.6225C23.6237 54.9005 24.6263 54.2843 25.2908 53.8198C25.6265 53.5898 25.8794 53.4036 26.0496 53.2725L26.2404 53.1231C26.2834 53.0893 26.3041 53.0709 26.3025 53.0679C26.2769 53.0782 26.2529 53.0922 26.2312 53.1093L26.0312 53.2472C25.8564 53.3691 25.5966 53.5485 25.2586 53.7715C24.5826 54.2176 23.5754 54.8177 22.3108 55.5282C20.8157 56.33 19.3692 57.2191 17.9787 58.191C17.161 58.7816 16.4004 59.4475 15.7069 60.1799C14.9616 60.9713 14.3448 61.8744 13.8788 62.8564C13.4371 63.847 13.1279 64.8915 12.9591 65.9629C12.7866 66.9977 12.6992 68.0025 12.628 68.9522C12.5567 69.9018 12.4854 70.817 12.398 71.6655C12.3106 72.514 12.2555 73.3049 12.1934 74.0293C12.0715 75.4664 11.9634 76.6322 11.9059 77.4531C11.8753 77.8486 11.8523 78.1552 11.837 78.3728C11.837 78.4717 11.8255 78.5522 11.8209 78.6143C11.8163 78.6764 11.8186 78.7155 11.8232 78.7155Z"
        fill="#455A64" />
    <path
        d="M23.4971 27.1883C23.3302 26.7586 23.0156 26.4024 22.6098 26.1837C22.204 25.9649 21.7335 25.898 21.2828 25.9949C21.0844 26.0675 20.8771 26.1123 20.6665 26.1283C20.4113 26.0846 20.1605 26.0184 19.9169 25.9305C19.6409 25.8858 19.3581 25.9453 19.1236 26.0974C18.889 26.2496 18.7194 26.4835 18.6476 26.7537C18.4316 26.7012 18.2068 26.6965 17.9888 26.7398C17.7708 26.783 17.5648 26.8733 17.3853 27.0044C17.2092 27.1407 17.0842 27.3324 17.0303 27.5485C16.9765 27.7645 16.9971 27.9925 17.0886 28.1954C17.1783 28.3633 17.3186 28.4967 17.4083 28.6691C17.5439 28.952 17.4818 29.2923 17.5761 29.5889C17.6646 29.8046 17.812 29.991 18.0015 30.1268C18.191 30.2627 18.4149 30.3424 18.6476 30.3569C19.1158 30.381 19.5842 30.3146 20.0273 30.1614"
        fill="#263238" />
    <path
        d="M21.3564 36.2826C21.2989 35.8365 21.2621 35.5238 21.2621 35.5238C21.2621 35.5238 19.779 35.5238 19.1926 33.6843C18.896 32.7645 18.6982 31.2285 18.5787 29.9592C18.5525 29.6889 18.5814 29.416 18.6636 29.1571C18.7457 28.8981 18.8795 28.6585 19.0567 28.4527C19.234 28.2469 19.4511 28.079 19.695 27.9594C19.9388 27.8397 20.2044 27.7707 20.4757 27.7564L24.4123 27.5518L24.4973 28.1611L25.5344 35.7307C25.5719 36.0052 25.5547 36.2843 25.484 36.5522C25.4132 36.82 25.2902 37.0711 25.122 37.2912C24.9539 37.5113 24.7438 37.696 24.504 37.8347C24.2642 37.9733 23.9994 38.0632 23.7247 38.0991C23.4499 38.136 23.1704 38.1181 22.9025 38.0467C22.6345 37.9752 22.3833 37.8516 22.1632 37.6828C21.9432 37.514 21.7586 37.3035 21.6202 37.0632C21.4817 36.8229 21.3921 36.5576 21.3564 36.2826Z"
        fill="#FFBE9D" />
    <path
        d="M19.1282 31.0419C19.1379 31.1048 19.1715 31.1615 19.2221 31.2001C19.2727 31.2386 19.3363 31.2561 19.3995 31.2488C19.4308 31.2469 19.4614 31.2385 19.4893 31.2243C19.5173 31.2101 19.542 31.1904 19.562 31.1663C19.5821 31.1421 19.5969 31.1142 19.6058 31.0841C19.6146 31.054 19.6172 31.0224 19.6134 30.9913C19.6048 30.9279 19.5714 30.8705 19.5205 30.8317C19.4696 30.7929 19.4054 30.7759 19.342 30.7844C19.3107 30.7863 19.2802 30.7947 19.2522 30.8089C19.2243 30.8231 19.1995 30.8428 19.1795 30.867C19.1595 30.8911 19.1446 30.919 19.1358 30.9491C19.1269 30.9792 19.1244 31.0108 19.1282 31.0419Z"
        fill="#263238" />
    <path
        d="M19.0271 30.7018C19.0616 30.7271 19.2226 30.5639 19.487 30.5225C19.7514 30.4811 19.9469 30.5823 19.9814 30.5455C20.0159 30.5087 19.9538 30.4765 19.8618 30.4305C19.7371 30.3693 19.5962 30.3492 19.4594 30.373C19.324 30.3932 19.1989 30.457 19.103 30.5547C19.0271 30.6283 19.0087 30.6903 19.0271 30.7018Z"
        fill="#263238" />
    <path
        d="M21.593 30.6234C21.6027 30.6861 21.6365 30.7426 21.6871 30.7808C21.7378 30.819 21.8014 30.836 21.8643 30.8281C21.8956 30.8264 21.9262 30.8183 21.9543 30.8044C21.9823 30.7905 22.0072 30.7709 22.0274 30.747C22.0477 30.7231 22.0628 30.6954 22.0719 30.6654C22.0811 30.6355 22.084 30.6039 22.0805 30.5728C22.0708 30.5099 22.0371 30.4533 21.9865 30.4147C21.9359 30.3761 21.8724 30.3586 21.8092 30.3659C21.7777 30.3675 21.7469 30.3757 21.7186 30.3897C21.6904 30.4038 21.6654 30.4235 21.6451 30.4477C21.6248 30.4718 21.6098 30.4999 21.6008 30.5301C21.5918 30.5604 21.5892 30.5921 21.593 30.6234Z"
        fill="#263238" />
    <path
        d="M21.5882 30.3432C21.6227 30.3708 21.7836 30.2052 22.0481 30.1661C22.3125 30.127 22.5079 30.2236 22.5424 30.1868C22.5769 30.15 22.5148 30.1201 22.4229 30.0718C22.2976 30.0127 22.1573 29.9927 22.0205 30.0144C21.8856 30.0361 21.7609 30.0997 21.6641 30.196C21.5882 30.2696 21.5721 30.3294 21.5882 30.3432Z"
        fill="#263238" />
    <path
        d="M20.9515 32.4218C20.8073 32.4024 20.6611 32.4024 20.5169 32.4218C20.4502 32.4218 20.3859 32.4218 20.3675 32.3781C20.3463 32.3116 20.3463 32.2401 20.3675 32.1735C20.4042 32.0033 20.4433 31.824 20.4847 31.6377C20.597 31.1806 20.6739 30.7155 20.7147 30.2466C20.564 30.6966 20.4494 31.158 20.3721 31.6262C20.3353 31.8148 20.2985 31.9941 20.2663 32.1666C20.2342 32.2518 20.2342 32.3458 20.2663 32.431C20.2797 32.4528 20.2978 32.4713 20.3193 32.4853C20.3408 32.4992 20.3651 32.5081 20.3905 32.5115C20.4286 32.5163 20.4672 32.5163 20.5054 32.5115C20.6573 32.5006 20.8072 32.4705 20.9515 32.4218Z"
        fill="#263238" />
    <path
        d="M21.2622 35.5235C22.1509 35.396 22.9867 35.0242 23.6766 34.4497C23.6766 34.4497 23.2673 35.8477 21.3565 35.965L21.2622 35.5235Z"
        fill="#FFBE9D" />
    <path
        d="M21.7446 32.4792C21.7009 32.4792 21.7446 32.7644 21.5377 33.0035C21.3307 33.2426 21.0226 33.2587 21.0249 33.2978C21.0272 33.3369 21.1008 33.3438 21.2296 33.3254C21.3953 33.3031 21.5473 33.2214 21.6573 33.0955C21.765 32.9762 21.8212 32.8191 21.8136 32.6586C21.8067 32.539 21.763 32.4746 21.7446 32.4792Z"
        fill="#263238" />
    <path
        d="M21.3585 29.336C21.3953 29.4026 21.6505 29.336 21.961 29.3153C22.2714 29.2946 22.5312 29.3475 22.5611 29.2785C22.591 29.2095 22.522 29.1865 22.4116 29.1336C22.2653 29.0698 22.1062 29.0405 21.9467 29.048C21.7871 29.0556 21.6315 29.0999 21.4919 29.1773C21.3907 29.2394 21.3424 29.3038 21.3585 29.336Z"
        fill="#263238" />
    <path
        d="M19.0016 29.9337C19.0568 29.9843 19.2315 29.8946 19.4408 29.8578C19.65 29.821 19.8455 29.8348 19.8777 29.7659C19.8914 29.7337 19.8524 29.6785 19.765 29.6371C19.6474 29.5848 19.5164 29.5703 19.3902 29.5957C19.2643 29.6179 19.1485 29.679 19.0591 29.7705C18.9924 29.844 18.9763 29.9084 19.0016 29.9337Z"
        fill="#263238" />
    <path
        d="M18.3717 29.129C18.3717 29.129 19.4134 29.4809 20.6091 28.6807C21.3932 28.1564 22.3451 27.8276 22.582 27.9701C22.8188 28.1127 22.9728 28.9681 23.8351 29.1199C23.8351 29.1199 23.9869 30.7754 24.6376 30.6329C25.0975 30.5317 24.8308 28.706 24.6376 27.6643C24.5973 27.4629 24.4907 27.2809 24.3348 27.1471C24.179 27.0133 23.9828 26.9356 23.7776 26.9262L22.5659 26.8779L21.0528 27.301L19.4295 27.7425L18.1924 28.2599L18.3717 29.129Z"
        fill="#263238" />
    <path
        d="M24.4927 29.9588C24.5157 29.9427 25.5205 29.4139 25.7068 30.5107C25.893 31.6075 24.7548 31.5661 24.7456 31.5362C24.7364 31.5063 24.4927 29.9588 24.4927 29.9588Z"
        fill="#FFBE9D" />
    <path
        d="M25.0096 31.063C25.0096 31.063 25.0326 31.0745 25.0671 31.0837C25.1155 31.0952 25.1665 31.0878 25.2096 31.063C25.2722 31.0059 25.3187 30.9333 25.3445 30.8527C25.3703 30.772 25.3745 30.6859 25.3568 30.6031C25.3435 30.5088 25.3098 30.4186 25.2579 30.3387C25.2412 30.3063 25.2171 30.2784 25.1875 30.2573C25.1579 30.2361 25.1237 30.2222 25.0878 30.2168C25.0649 30.2149 25.0421 30.2209 25.0232 30.2339C25.0044 30.2469 24.9906 30.2661 24.9843 30.2881C24.9843 30.3203 24.9843 30.341 24.9843 30.3456C24.9843 30.3502 24.959 30.3295 24.959 30.2835C24.9609 30.2553 24.9723 30.2286 24.9912 30.2076C25.0177 30.1798 25.054 30.1634 25.0924 30.1616C25.1391 30.1625 25.1849 30.1754 25.2252 30.1992C25.2655 30.223 25.2989 30.2568 25.3223 30.2973C25.3852 30.3841 25.4255 30.4853 25.4396 30.5916C25.4624 30.6884 25.4557 30.7898 25.4205 30.8828C25.3853 30.9758 25.323 31.0562 25.2418 31.1136C25.2138 31.1269 25.1832 31.1338 25.1521 31.1338C25.1211 31.1338 25.0905 31.1269 25.0625 31.1136C25.0165 31.0906 25.0073 31.0676 25.0096 31.063Z"
        fill="#FFBE9D" />
    <path
        d="M18.8984 26.349C18.8984 26.349 18.9352 26.4088 19.0134 26.4962C19.1254 26.6201 19.2682 26.7121 19.4273 26.7629C19.6637 26.8393 19.9163 26.8504 20.1585 26.7951C20.4597 26.7219 20.7554 26.6282 21.0438 26.5146C21.3423 26.397 21.6612 26.34 21.9819 26.3467C22.2532 26.3565 22.5099 26.4721 22.6971 26.6686C22.8245 26.7969 22.902 26.9666 22.9155 27.1469C22.9251 27.2123 22.9138 27.2791 22.8833 27.3378C22.8718 27.3378 22.8833 27.2688 22.8695 27.1515C22.8408 26.9886 22.7602 26.8394 22.6396 26.7261C22.4624 26.5563 22.2273 26.4602 21.9819 26.4571C21.6758 26.4574 21.3724 26.5151 21.0875 26.6273C20.7943 26.7439 20.4921 26.8362 20.1838 26.9032C19.9235 26.957 19.6533 26.9363 19.4043 26.8434C19.2353 26.7813 19.0881 26.671 18.9812 26.5261C18.8984 26.4203 18.8984 26.3513 18.8984 26.349Z"
        fill="#455A64" />
    <path
        d="M22.6027 27.3997C22.6027 27.3997 22.5475 27.3422 22.4325 27.2618C22.2686 27.1614 22.0798 27.1089 21.8876 27.11C21.5961 27.1089 21.3087 27.1792 21.0506 27.3146C20.728 27.4889 20.3947 27.6425 20.0527 27.7745C19.7281 27.8753 19.3864 27.9082 19.0486 27.8715C18.7108 27.8347 18.3842 27.7289 18.089 27.5607C17.9104 27.4602 17.747 27.3348 17.6038 27.1882C17.548 27.1384 17.5013 27.0792 17.4658 27.0134C17.6694 27.1934 17.8914 27.3514 18.1281 27.4848C18.7095 27.79 19.3878 27.8536 20.0159 27.6619C20.353 27.5255 20.6831 27.372 21.0046 27.202C21.2791 27.0631 21.585 26.9981 21.8922 27.0134C22.1009 27.0214 22.302 27.0946 22.467 27.2227C22.5274 27.2684 22.5742 27.3296 22.6027 27.3997Z"
        fill="#455A64" />
    <path
        d="M19.1972 46.0847L13.858 41.5342L12.0967 41.932C12.0967 41.932 13.9523 45.7904 15.2952 47.2045C15.2952 47.2045 16.6219 48.9797 18.8109 48.2117C21 47.4437 19.1972 46.0847 19.1972 46.0847Z"
        fill="#FFBE9D" />
    <path
        d="M13.4531 36.5215H11.1836C11.0979 36.5261 11.0144 36.5498 10.9391 36.5908C10.8637 36.6318 10.7985 36.689 10.748 36.7584C10.6976 36.8278 10.6632 36.9075 10.6475 36.9918C10.6318 37.0761 10.635 37.1629 10.657 37.2458L12.9403 41.6906C12.9836 41.7752 13.0495 41.8462 13.1307 41.8957C13.2118 41.9452 13.3051 41.9713 13.4002 41.9711H16.1595C16.2243 41.9638 16.2864 41.9407 16.3402 41.9036C16.3939 41.8666 16.4376 41.8168 16.4674 41.7587C16.4973 41.7007 16.5123 41.6361 16.5111 41.5709C16.5099 41.5056 16.4926 41.4417 16.4607 41.3847L14.2602 37.032C14.1853 36.8811 14.0704 36.7538 13.9281 36.6638C13.7857 36.5738 13.6214 36.5245 13.4531 36.5215Z"
        fill="#455A64" />
    <path
        d="M13.3012 36.7905H11.0317C10.9665 36.7901 10.9024 36.8065 10.8454 36.8381C10.7884 36.8696 10.7406 36.9153 10.7064 36.9708C10.6722 37.0262 10.6528 37.0895 10.6502 37.1546C10.6476 37.2197 10.6618 37.2844 10.6914 37.3424L12.9195 41.6906C12.9632 41.7749 13.0292 41.8456 13.1102 41.8951C13.1913 41.9445 13.2844 41.9708 13.3794 41.9711H16.1157C16.1532 41.9695 16.1898 41.9588 16.2223 41.9398C16.2547 41.9208 16.282 41.8941 16.3018 41.8621C16.3215 41.8301 16.3331 41.7937 16.3355 41.7562C16.338 41.7187 16.3312 41.6812 16.3157 41.6469L14.1129 37.2964C14.0385 37.1446 13.9229 37.0167 13.7794 36.9273C13.636 36.8379 13.4703 36.7905 13.3012 36.7905Z"
        fill="#263238" />
    <path
        d="M13.108 38.6069L11.7284 39.1588L11.4341 40.2717L12.0986 41.9273L14.5291 42.286L13.8163 41.5571L13.9059 40.9201C13.9059 40.9201 14.5958 40.7063 14.5958 40.6028C14.5958 40.4993 14.5107 40.1429 14.4072 40.1314C14.135 40.1936 13.8682 40.2774 13.6093 40.3821C13.6093 40.3821 14.4532 39.7129 14.4302 39.6049C14.4072 39.4968 14.3152 39.2232 14.1474 39.191C13.9795 39.1588 12.6137 39.8049 12.6137 39.8049L12.3837 40.3085L12.1906 39.5014C12.1906 39.5014 13.407 39.1611 13.108 38.6069Z"
        fill="#FFBE9D" />
    <path
        d="M13.283 41.2192C13.283 41.2192 13.2485 41.1732 13.2347 41.0813C13.2202 40.9642 13.2334 40.8453 13.2734 40.7342C13.3133 40.6232 13.3789 40.5231 13.4647 40.442C13.5336 40.3823 13.5865 40.3616 13.5911 40.3685C13.4862 40.4847 13.4001 40.6165 13.3359 40.7594C13.295 40.9091 13.2771 41.0641 13.283 41.2192Z"
        fill="#FFBE9D" />
    <path
        d="M12.6255 40.9779C12.6524 40.8591 12.6709 40.7384 12.6807 40.6169C12.6863 40.4811 12.7094 40.3466 12.7497 40.2168C12.7759 40.1335 12.8218 40.0576 12.8834 39.9956C12.945 39.9336 13.0206 39.8872 13.1038 39.8604C13.4326 39.7409 13.7315 39.6443 13.9476 39.573C14.0632 39.5293 14.1825 39.4962 14.3041 39.4741C14.197 39.5352 14.0837 39.5845 13.966 39.6213C13.7522 39.7041 13.4533 39.8098 13.1291 39.9271C13.0533 39.9532 12.9843 39.9956 12.9267 40.0513C12.8757 40.1054 12.8365 40.1696 12.8117 40.2398C12.7696 40.3641 12.7426 40.4931 12.7313 40.6238C12.7268 40.749 12.6904 40.8709 12.6255 40.9779Z"
        fill="#FFBE9D" />
    <path
        d="M12.3078 40.7293C12.2861 40.6394 12.2861 40.5456 12.3078 40.4557C12.3331 40.3085 12.3676 40.1935 12.3883 40.1958C12.4099 40.2858 12.4099 40.3795 12.3883 40.4695C12.363 40.6166 12.3285 40.7316 12.3078 40.7293Z"
        fill="#FFBE9D" />
    <path
        d="M12.271 37.6301C12.271 37.6874 12.288 37.7434 12.3198 37.791C12.3517 37.8387 12.3969 37.8758 12.4499 37.8977C12.5028 37.9197 12.5611 37.9254 12.6173 37.9142C12.6735 37.903 12.7251 37.8755 12.7656 37.8349C12.8061 37.7944 12.8337 37.7428 12.8449 37.6866C12.8561 37.6304 12.8503 37.5721 12.8284 37.5192C12.8065 37.4663 12.7693 37.421 12.7217 37.3892C12.674 37.3573 12.618 37.3403 12.5607 37.3403C12.5226 37.34 12.4848 37.3473 12.4495 37.3618C12.4142 37.3762 12.3821 37.3976 12.3552 37.4245C12.3282 37.4515 12.3069 37.4835 12.2924 37.5188C12.278 37.5541 12.2707 37.5919 12.271 37.6301Z"
        fill="#FAFAFA" />
    <path
        d="M4.31986 81.4587C4.68001 81.5704 5.01392 81.7536 5.30157 81.9973C5.58921 82.2411 5.82467 82.5405 5.99382 82.8775C6.32904 83.5546 6.50446 84.2995 6.50659 85.055C6.55258 86.5082 5.95013 88.0718 5.23962 89.3434C3.88067 88.4696 3.33801 86.6646 3.11727 85.7448C2.77236 84.2778 3.03679 81.4174 4.31986 81.4565"
        fill="#EB6440" />
    <path
        d="M6.98478 91.5048C6.84313 91.1076 6.80893 90.68 6.88565 90.2653C6.96236 89.8506 7.14728 89.4635 7.42167 89.1433C7.70169 88.8282 8.04178 88.5721 8.422 88.3901C8.80223 88.2081 9.21495 88.1038 9.636 88.0833C10.0223 88.0557 10.4546 88.1063 10.719 88.3914C10.8352 88.5318 10.9118 88.7006 10.941 88.8805C10.9701 89.0604 10.9506 89.2448 10.8846 89.4146C10.7471 89.7529 10.5226 90.0488 10.2338 90.2723C9.28419 91.0817 8.21727 91.6887 6.98478 91.5048Z"
        fill="#EB6440" />
    <path
        d="M6.07912 96.1199C6.06868 96.0205 6.06868 95.9204 6.07912 95.821C6.07912 95.6071 6.09752 95.3335 6.10901 95.0047C6.11801 94.0989 6.27331 93.2005 6.56889 92.3443C6.87799 91.4864 7.4097 90.7261 8.1095 90.1415C8.32186 89.9698 8.55333 89.8232 8.79932 89.7046C8.8867 89.6609 8.96028 89.6402 9.00627 89.6195C9.05225 89.5988 9.07985 89.5942 9.08214 89.5988C8.51484 89.8793 8.00889 90.2697 7.59365 90.7474C7.1784 91.225 6.86213 91.7803 6.66317 92.3811C6.37543 93.2288 6.21503 94.1145 6.18719 95.0093C6.1642 95.3519 6.1435 95.6301 6.12511 95.8233C6.11798 95.9233 6.1026 96.0225 6.07912 96.1199Z"
        fill="#263238" />
    <path
        d="M4.31066 83.6548C4.32442 83.6961 4.33518 83.7384 4.34285 83.7812C4.36278 83.8763 4.38807 83.9982 4.41873 84.1469C4.48311 84.4642 4.57049 84.9264 4.67167 85.4966C4.87631 86.6463 5.13155 88.2214 5.38218 89.9736C5.63282 91.7257 5.81907 93.3169 5.93864 94.4712C5.99842 95.0483 6.04211 95.5151 6.0697 95.8393C6.08044 95.9926 6.08963 96.1168 6.0973 96.2118C6.1039 96.2545 6.1039 96.2979 6.0973 96.3406C6.08583 96.2985 6.07813 96.2554 6.0743 96.2118C6.06281 96.1176 6.04671 95.9957 6.02602 95.8416C5.98463 95.5082 5.92944 95.046 5.86046 94.4804C5.72249 93.3307 5.52245 91.7395 5.27641 89.9874C5.03037 88.2352 4.78204 86.6647 4.59808 85.515C4.50611 84.9516 4.43253 84.4918 4.36814 84.1584C4.34515 84.0066 4.32675 83.8847 4.31066 83.7904C4.30465 83.7454 4.30465 83.6998 4.31066 83.6548Z"
        fill="#263238" />
    <path
        d="M5.02578 92.6801C4.75527 91.8349 4.28738 91.0661 3.66082 90.4376C3.03425 89.809 2.26702 89.3387 1.42261 89.0655C0.990322 88.9298 0.447662 88.8815 0.157936 89.2287C-0.131789 89.5759 0.0245707 90.1048 0.247613 90.498C0.727366 91.3103 1.43705 91.9622 2.28707 92.3715C3.13708 92.7807 4.0893 92.929 5.02348 92.7974"
        fill="#EB6440" />
    <path
        d="M1.8068 90.3945C1.89929 90.4108 1.99011 90.4354 2.07813 90.4681C2.18384 90.4992 2.28751 90.5368 2.38855 90.5808C2.50812 90.6337 2.64838 90.6797 2.79095 90.7578C2.94853 90.8349 3.10203 90.9201 3.25083 91.0131C3.42596 91.1185 3.59558 91.2329 3.759 91.3557C4.51148 91.9208 5.11453 92.6613 5.51574 93.5125C5.60292 93.6974 5.67969 93.887 5.74568 94.0805C5.80614 94.2473 5.85606 94.4178 5.89515 94.5909C5.93086 94.7334 5.9585 94.8777 5.97793 95.0232C5.99791 95.1319 6.01096 95.2417 6.01701 95.3521C6.02653 95.4453 6.02807 95.5391 6.02161 95.6326C5.99632 95.6326 5.98022 95.2302 5.81697 94.607C5.77346 94.4381 5.72127 94.2716 5.66061 94.1081C5.59463 93.9184 5.51786 93.7326 5.43067 93.5516C5.22675 93.1429 4.97928 92.7575 4.69256 92.4019C4.39769 92.0477 4.06628 91.7255 3.70381 91.4408C3.54501 91.3181 3.38 91.2038 3.20944 91.0981C3.06105 91.0017 2.90753 90.9135 2.74956 90.8337C2.1862 90.5279 1.7976 90.4152 1.8068 90.3945Z"
        fill="#263238" />
</svg>
