<svg fill="none" height="23" viewBox="0 0 21 23" width="21" xmlns="http://www.w3.org/2000/svg">
    <path clip-rule="evenodd" d="M18.9809 6.93488C18.6159 7.33543 18.1911 7.69293 17.7138 7.98305C17.6557 8.0261 17.5753 8.03172 17.5097 7.98867C16.806 7.54132 16.2126 7.00226 15.7484 6.41641C15.1064 5.61156 14.7021 4.71874 14.5636 3.85961C14.4232 2.98738 14.5543 2.14884 14.9885 1.46566C15.1607 1.198 15.3797 0.950932 15.6455 0.739426C16.2575 0.252774 16.9557 -0.00552557 17.6539 8.96473e-05C18.3239 0.00570486 18.9865 0.254646 19.5593 0.776861C19.7614 0.960291 19.9299 1.16805 20.0684 1.39641C20.5345 2.16569 20.6355 3.14461 20.4297 4.1385C20.2275 5.12116 19.7259 6.1188 18.9809 6.93488ZM1.83769 12.1102H3.46984C3.74124 12.1102 3.95088 12.1776 4.09687 12.3124C4.24287 12.4471 4.31587 12.6137 4.31587 12.8121C4.31587 12.9787 4.26346 13.1228 4.16051 13.2408C4.09126 13.3212 3.99018 13.383 3.85729 13.4298C4.05944 13.4785 4.20918 13.5608 4.30464 13.6806C4.40009 13.7985 4.44689 13.9483 4.44689 14.128C4.44689 14.274 4.4132 14.405 4.34581 14.5229C4.27843 14.6389 4.18484 14.7325 4.06692 14.7999C3.99393 14.8411 3.88349 14.8729 3.73563 14.8916C3.53909 14.9178 3.40994 14.9309 3.34443 14.9309H1.83769V12.1102ZM2.71553 13.2183H3.09549C3.23213 13.2183 3.32572 13.194 3.38 13.1472C3.43241 13.1004 3.46048 13.033 3.46048 12.9432C3.46048 12.8608 3.43428 12.7972 3.38 12.7504C3.32759 12.7036 3.234 12.6811 3.10111 12.6811H2.71553V13.2183ZM2.71553 14.3245H3.15913C3.30887 14.3245 3.41556 14.2983 3.47733 14.244C3.53909 14.1916 3.56904 14.1205 3.56904 14.0306C3.56904 13.9464 3.53909 13.8809 3.47733 13.8304C3.41556 13.7798 3.30887 13.7536 3.15726 13.7536H2.71553V14.3245ZM18.0844 4.08422H17.098L16.9557 4.54841H16.0666L17.1279 1.7277H18.0825L19.14 4.54841H18.2285L18.0844 4.08422ZM17.9009 3.47403L17.594 2.46142L17.2851 3.47403H17.9009ZM4.46935 17.2313C4.10436 17.6319 3.67947 17.9894 3.20218 18.2795C3.14416 18.3225 3.06367 18.3281 2.99816 18.2851C2.29439 17.8359 1.70105 17.2987 1.23686 16.7128C0.596723 15.9099 0.192428 15.017 0.0539196 14.156C-0.0864607 13.2838 0.0445609 12.4453 0.478804 11.764C0.649132 11.4944 0.868125 11.2492 1.13578 11.0377C1.74784 10.5511 2.446 10.2928 3.14229 10.2984C3.81237 10.304 4.47496 10.5529 5.04771 11.0752C5.24986 11.2586 5.41832 11.4664 5.55683 11.6947C6.02289 12.464 6.12396 13.4429 5.91807 14.4368C5.71593 15.4176 5.2143 16.4152 4.46935 17.2313ZM3.19469 19.2865C4.03885 19.2865 4.75198 19.8517 4.97659 20.6229H16.2014C16.7554 20.6229 17.2608 20.3964 17.6277 20.0296C17.9945 19.6627 18.221 19.1592 18.221 18.6033C18.221 18.0493 17.9945 17.5439 17.6277 17.177C17.2608 16.8102 16.7573 16.5837 16.2014 16.5837H12.2745C11.3929 16.5837 10.5918 16.2243 10.0116 15.6441C9.43132 15.0638 9.07195 14.2627 9.07195 13.3811C9.07195 12.4996 9.43132 11.6985 10.0116 11.1182C10.5918 10.538 11.3929 10.1786 12.2745 10.1786H15.8252C16.0685 9.43739 16.7667 8.90207 17.5884 8.90207C18.6141 8.90207 19.4451 9.73312 19.4451 10.7588C19.4451 11.7845 18.6141 12.6156 17.5884 12.6156C16.7741 12.6156 16.0835 12.0915 15.8327 11.3634H12.2745C11.7205 11.3634 11.2151 11.5899 10.8482 11.9567C10.4814 12.3236 10.2549 12.8271 10.2549 13.383C10.2549 13.937 10.4814 14.4424 10.8482 14.8093C11.2113 15.1724 11.7111 15.3989 12.2614 15.4026H16.2033C17.0849 15.4026 17.886 15.762 18.4662 16.3422C19.0464 16.9225 19.4058 17.7236 19.4058 18.6052C19.4058 19.4867 19.0464 20.2879 18.4662 20.8681C17.886 21.4483 17.0849 21.8077 16.2033 21.8077H4.9298C4.66214 22.5059 3.98644 23 3.19469 23C2.16898 23 1.33793 22.1689 1.33793 21.1432C1.33793 20.1175 2.16898 19.2865 3.19469 19.2865Z" fill="#EB6440"
        fill-rule="evenodd"
        id="Vector" />
</svg>
