<svg width="24" height="23" viewBox="0 0 24 23" fill="none" xmlns="http://www.w3.org/2000/svg">
<g clip-path="url(#clip0_94_810)">
<path d="M14.1687 11.8105C14.214 11.7755 14.2575 11.7379 14.3013 11.7009C15.3594 10.8094 15.9874 9.35244 15.9874 7.76194C15.9874 5.89865 15.4461 5.80371 14.697 5.67096C14.1725 5.57871 13.5654 5.47175 13.0879 4.74469C12.8377 4.364 12.6231 3.81289 12.4747 3.00419C12.3698 2.99833 12.2216 2.99121 12.1266 2.99121C8.93565 2.99121 8.26587 5.5852 8.26587 7.76131C8.26587 9.40577 8.94245 10.8585 9.96951 11.717C10.1217 11.8446 10.2838 11.9599 10.4543 12.0618C10.5662 12.1288 10.6818 12.1895 10.8005 12.2436C11.2167 12.434 11.6689 12.5329 12.1266 12.5336C12.8688 12.527 13.5875 12.2726 14.1686 11.8107L14.1687 11.8105Z" fill="black"/>
<path d="M11.2857 12.7466C10.8801 12.6434 10.4949 12.4722 10.1465 12.2402V13.158C10.1475 13.2672 10.1565 13.3763 10.1734 13.4842C10.2508 13.9478 10.4905 14.3687 10.8497 14.6718C11.2089 14.9749 11.6641 15.1404 12.1341 15.1388C12.604 15.1371 13.0581 14.9684 13.4152 14.6629C13.7722 14.3573 14.009 13.9347 14.0832 13.4706C14.0832 13.4671 14.0859 13.4643 14.0865 13.461C14.0994 13.3605 14.1063 13.2593 14.1072 13.158V12.2437C13.5208 12.6359 12.832 12.8468 12.1265 12.8502C11.8431 12.8502 11.5607 12.8154 11.2857 12.7466Z" fill="black"/>
<path d="M7.11539 14.5687C7.99826 14.1191 8.90941 13.7274 9.84308 13.396C9.83464 13.3172 9.83015 13.238 9.82963 13.1587V12.009C8.69783 11.0978 7.94925 9.5348 7.94925 7.76217C7.94925 5.40458 8.71555 3.80853 10.1469 3.09714C10.7651 2.80492 11.4428 2.66061 12.1265 2.67562C12.2967 2.67562 12.6059 2.69572 12.619 2.69667C12.6545 2.69901 12.6882 2.71324 12.7146 2.73707C12.741 2.7609 12.7586 2.79293 12.7646 2.828C12.7765 2.89841 12.789 2.9666 12.8016 3.03274C13.172 4.95347 13.8871 5.19904 14.6035 5.3329C14.6529 5.34224 14.7024 5.35094 14.7518 5.35948C14.8515 5.37705 14.9505 5.39461 15.0475 5.41581C15.7266 5.56439 16.3037 5.89888 16.3037 7.76201C16.3037 9.48575 15.6015 11.0661 14.4233 12.0104V13.1585C14.4233 13.2274 14.4192 13.3079 14.4124 13.3864C15.3484 13.7195 16.2612 14.1143 17.145 14.5682L17.1633 14.5775V6.41043C17.1642 5.74877 17.0342 5.09346 16.7808 4.48227C16.5273 3.87107 16.1555 3.31606 15.6866 2.8492C15.2206 2.37955 14.6659 2.00724 14.0547 1.75391C13.4435 1.50058 12.7881 1.3713 12.1265 1.37356C10.7911 1.37507 9.5108 1.90622 8.56653 2.85049C7.62226 3.79476 7.09111 5.07503 7.0896 6.41043V14.5818C7.09814 14.5772 7.10685 14.5731 7.11539 14.5687Z" fill="black"/>
<path d="M17.2623 14.9906C17.2585 14.989 17.2553 14.9864 17.2517 14.9846L17.2454 14.9808C16.3162 14.484 15.3514 14.057 14.359 13.7031C14.2367 14.2019 13.9509 14.6453 13.5472 14.9627C13.1434 15.28 12.6451 15.453 12.1315 15.4541C11.618 15.4552 11.1189 15.2842 10.7139 14.9685C10.3089 14.6528 10.0213 14.2105 9.89693 13.7123C8.90405 14.0652 7.93834 14.4904 7.00754 14.9843C6.20326 15.4261 5.61418 15.8593 5.25675 16.2718C4.37906 17.2887 4.16956 19.9943 4.12573 21.6262H20.1273C20.0835 19.9944 19.8742 17.2887 18.9961 16.2715C18.6411 15.8617 18.0572 15.4307 17.2623 14.9906Z" fill="black"/>
</g>
<defs>
<clipPath id="clip0_94_810">
<rect width="24" height="23" fill="white"/>
</clipPath>
</defs>
</svg>
