<svg fill="none" height="20" viewBox="0 0 17 20" width="17" xmlns="http://www.w3.org/2000/svg">
    <path
        d="M2.62928 19.7116C2.02456 19.7116 1.53418 19.2214 1.53418 18.6165V12.1361C1.53418 11.5312 2.02456 11.041 2.62928 11.041C3.23399 11.041 3.72438 11.5312 3.72438 12.1361V18.6165C3.72438 19.2214 3.23399 19.7116 2.62928 19.7116Z"
        fill="#272739" />
    <path
        d="M14.3715 13.6736C13.7665 13.6736 13.2764 13.1834 13.2764 12.5785V1.66981C13.2764 1.06509 13.7665 0.574707 14.3715 0.574707C14.9764 0.574707 15.4666 1.06509 15.4666 1.66981V12.5785C15.4666 13.1832 14.9764 13.6736 14.3715 13.6736Z"
        fill="#272739" />
    <path
        d="M8.4994 19.7119C7.89468 19.7119 7.4043 19.2218 7.4043 18.6168V6.77772C7.4043 6.173 7.89468 5.68262 8.4994 5.68262C9.10411 5.68262 9.59449 6.173 9.59449 6.77772V18.6168C9.59427 19.2218 9.10411 19.7119 8.4994 19.7119Z"
        fill="#272739" />
    <path
        d="M8.50226 7.26428C9.95379 7.26428 11.1305 6.08758 11.1305 4.63605C11.1305 3.18451 9.95379 2.00781 8.50226 2.00781C7.05072 2.00781 5.87402 3.18451 5.87402 4.63605C5.87402 6.08758 7.05072 7.26428 8.50226 7.26428Z"
        fill="#272739" />
    <path
        d="M2.62824 12.944C4.07977 12.944 5.25647 11.7673 5.25647 10.3157C5.25647 8.8642 4.07977 7.6875 2.62824 7.6875C1.1767 7.6875 0 8.8642 0 10.3157C0 11.7673 1.1767 12.944 2.62824 12.944Z"
        fill="#272739" />
    <path
        d="M14.3724 16.7155C15.8239 16.7155 17.0006 15.5388 17.0006 14.0872C17.0006 12.6357 15.8239 11.459 14.3724 11.459C12.9208 11.459 11.7441 12.6357 11.7441 14.0872C11.7441 15.5388 12.9208 16.7155 14.3724 16.7155Z"
        fill="#272739" />
    <path
        d="M2.42908 9.78864C1.82437 9.78864 1.33398 9.29826 1.33398 8.69355V1.0951C1.33398 0.490385 1.82437 0 2.42908 0C3.0338 0 3.52418 0.490385 3.52418 1.0951V8.69355C3.52418 9.29848 3.03401 9.78864 2.42908 9.78864Z"
        fill="#272739" />
    <path
        d="M8.4994 4.24832C7.89468 4.24832 7.4043 3.75794 7.4043 3.15323V1.0951C7.4043 0.490385 7.89468 0 8.4994 0C9.10411 0 9.59449 0.490385 9.59449 1.0951V3.15323C9.59427 3.75816 9.10411 4.24832 8.4994 4.24832Z"
        fill="#272739" />
    <path
        d="M14.3715 19.7116C13.7665 19.7116 13.2764 19.2214 13.2764 18.6165V15.6952C13.2764 15.0903 13.7665 14.6001 14.3715 14.6001C14.9764 14.6001 15.4666 15.0903 15.4666 15.6952V18.6165C15.4666 19.2214 14.9764 19.7116 14.3715 19.7116Z"
        fill="#272739" />
</svg>
