<svg fill="none" height="147" viewBox="0 0 133 147" width="133" xmlns="http://www.w3.org/2000/svg">
    <g id="Group 430">
        <path d="M63.3408 122.5C96.4779 122.5 123.341 95.6371 123.341 62.5C123.341 29.3629 96.4779 2.5 63.3408 2.5C30.2037 2.5 3.34082 29.3629 3.34082 62.5C3.34082 95.6371 30.2037 122.5 63.3408 122.5ZM102.4 62.5C102.4 84.0719 84.9127 101.559 63.3408 101.559C41.7689 101.559 24.2814 84.0719 24.2814 62.5C24.2814 40.9281 41.7689 23.4406 63.3408 23.4406C84.9127 23.4406 102.4 40.9281 102.4 62.5Z"
            fill="#EB6440"
            id="Ellipse 40 (Stroke)" stroke="#FFBE9D" stroke-width="5" />
        <g filter="url(#filter0_d_282_38)" id="Ellipse 40">
            <path
                d="M99.8408 62.5C99.8408 82.6584 83.4992 99 63.3408 99C43.1824 99 26.8408 82.6584 26.8408 62.5C26.8408 42.3416 43.1824 26 63.3408 26C83.4992 26 99.8408 42.3416 99.8408 62.5Z"
                fill="white" />
        </g>
        <path d="M75.466 61.9534H75.2373C74.7331 61.9534 74.2544 62.0644 73.8245 62.2636C73.498 60.7408 72.1417 59.5958 70.5237 59.5958H70.2945C69.7164 59.5958 69.172 59.742 68.6958 59.9992C68.1854 58.7809 66.9809 57.9233 65.5798 57.9233H65.3516C64.876 57.9233 64.4237 58.0221 64.0132 58.1998V53.3532C64.0132 51.4917 62.4985 49.9775 60.637 49.9775H60.4083C58.5468 49.9775 57.0326 51.4922 57.0326 53.3532V65.7681L55.4935 66.9365C54.2696 67.8655 53.4934 69.2177 53.3085 70.7436C53.1237 72.2684 53.554 73.7663 54.5202 74.9601L59.3194 80.8931V83.2527C59.3194 84.6782 60.4791 85.8379 61.9046 85.8379H73.8826C75.3081 85.8379 76.4678 84.6782 76.4678 83.2527L76.4683 81.0127C78.0013 79.0865 78.8412 76.6959 78.8412 74.2389V65.3296C78.8417 63.4676 77.3275 61.9534 75.466 61.9534ZM76.8045 74.2395C76.8045 76.3393 76.0486 78.3796 74.6756 79.985C74.5172 80.1693 74.4311 80.4041 74.4311 80.6471V83.2532C74.4311 83.5557 74.1856 83.8012 73.8831 83.8012H61.9052C61.6031 83.8012 61.3571 83.5557 61.3571 83.2532V80.533C61.3571 80.2997 61.2772 80.0741 61.1305 79.8923L56.1046 73.6792C55.4884 72.9173 55.2134 71.9618 55.3315 70.9885C55.4497 70.0153 55.9447 69.153 56.7255 68.5591L57.0331 68.3259V71.1469C57.0331 71.7092 57.4895 72.1656 58.0517 72.1656C58.614 72.1656 59.0703 71.7092 59.0703 71.1469V66.2846C59.0703 66.2769 59.0703 66.2698 59.0703 66.2622V53.3537C59.0703 52.6158 59.6708 52.0153 60.4088 52.0153H60.6375C61.3755 52.0153 61.976 52.6158 61.976 53.3537V61.2995C61.976 61.3 61.976 61.3 61.976 61.3005L61.9805 67.9093C61.981 68.4715 62.4369 68.9274 62.9992 68.9274C63.5619 68.9269 64.0183 68.471 64.0178 67.9082L64.0127 61.3046C64.0127 61.303 64.0132 61.3015 64.0132 61.2995C64.0132 60.5615 64.6137 59.961 65.3516 59.961H65.5798C66.3178 59.961 66.9188 60.5615 66.9188 61.2995V62.9725V62.9736L66.9234 67.9098C66.9239 68.4721 67.3797 68.9274 67.942 68.9274C67.9425 68.9274 67.9425 68.9274 67.943 68.9274C68.5053 68.9269 68.9611 68.4705 68.9606 67.9077L68.956 62.9725C68.956 62.2346 69.5565 61.6341 70.2945 61.6341H70.5232C71.2611 61.6341 71.8616 62.2346 71.8616 62.9725V65.0643C71.8586 65.0979 71.8514 65.1305 71.8514 65.1646L71.8565 67.9108C71.8575 68.4731 72.3134 68.9274 72.8751 68.9274C72.8757 68.9274 72.8762 68.9274 72.8772 68.9274C73.4395 68.9264 73.8948 68.4695 73.8938 67.9067L73.8892 65.4238C73.8922 65.3923 73.8989 65.3622 73.8989 65.3301C73.8989 64.5921 74.4993 63.9917 75.2373 63.9917H75.466C76.204 63.9917 76.8045 64.5921 76.8045 65.3301V74.2395Z"
            fill="#EB6440"
            id="Vector" />
        <path d="M54.5723 57.1524C54.2321 57.1524 53.8995 56.9823 53.7065 56.6722C52.9339 55.431 52.5254 53.9988 52.5254 52.531C52.5254 48.2044 56.0452 44.6846 60.3718 44.6846C64.6984 44.6846 68.2182 48.2044 68.2182 52.531C68.2182 53.2863 68.1107 54.0334 67.8994 54.7521C67.74 55.2924 67.1726 55.6016 66.6342 55.4417C66.0944 55.2828 65.7862 54.7164 65.9446 54.1771C66.1015 53.6453 66.181 53.0917 66.181 52.5315C66.181 49.3279 63.5753 46.7223 60.3718 46.7223C57.1682 46.7223 54.5626 49.3284 54.5626 52.5315C54.5626 53.6189 54.8646 54.6787 55.4356 55.596C55.733 56.0737 55.5868 56.7017 55.1091 56.9991C54.9421 57.1025 54.7557 57.1524 54.5723 57.1524Z"
            fill="#EB6440"
            id="Vector_2" />
        <path d="M53.9342 63.0951C53.7381 63.0951 53.54 63.0386 53.3648 62.9204C49.9061 60.5837 47.8408 56.6997 47.8408 52.5305C47.8408 45.6212 53.4621 40 60.3713 40C67.2806 40 72.9018 45.6212 72.9018 52.5305C72.9018 54.1109 72.611 55.6526 72.0375 57.1122C71.8318 57.6358 71.2415 57.8951 70.7169 57.6878C70.1933 57.482 69.9356 56.8912 70.1414 56.3671C70.6212 55.1458 70.8646 53.8547 70.8646 52.5305C70.8646 46.7448 66.1576 42.0372 60.3713 42.0372C54.5856 42.0372 49.8781 46.7448 49.8781 52.5305C49.8781 56.0218 51.6077 59.2748 54.5051 61.232C54.9716 61.5468 55.0939 62.1804 54.7791 62.6464C54.5825 62.9377 54.2612 63.0951 53.9342 63.0951Z"
            fill="#EB6440"
            id="Vector_3" />
    </g>
    <defs>
        <filter color-interpolation-filters="sRGB" filterUnits="userSpaceOnUse" height="121" id="filter0_d_282_38" width="121"
            x="11.8408" y="26">
            <feFlood flood-opacity="0" result="BackgroundImageFix" />
            <feColorMatrix in="SourceAlpha" result="hardAlpha"
                type="matrix" values="0 0 0 0 0 0 0 0 0 0 0 0 0 0 0 0 0 0 127 0" />
            <feOffset dx="9" dy="24" />
            <feGaussianBlur stdDeviation="12" />
            <feComposite in2="hardAlpha" operator="out" />
            <feColorMatrix type="matrix" values="0 0 0 0 0 0 0 0 0 0 0 0 0 0 0 0 0 0 0.25 0" />
            <feBlend in2="BackgroundImageFix" mode="normal" result="effect1_dropShadow_282_38" />
            <feBlend in="SourceGraphic" in2="effect1_dropShadow_282_38" mode="normal"
                result="shape" />
        </filter>
    </defs>
</svg>
