<?xml version="1.0" encoding="UTF-8"?>
<svg height="250" version="1.1" width="250" xmlns="http://www.w3.org/2000/svg">
    <path
        d="M0 0 C4.60693254 0.58213962 8.76896066 1.12204486 12.0625 4.625 C14.33358271 8.58107956 14.93481283 11.58938312 14 16 C12.40351934 19.96020204 10.61248195 22.5916787 7 25 C8.89018581 27.25495851 10.78680514 29.50392683 12.6875 31.75 C13.21794922 32.38421875 13.74839844 33.0184375 14.29492188 33.671875 C14.82021484 34.290625 15.34550781 34.909375 15.88671875 35.546875 C16.60154419 36.39523926 16.60154419 36.39523926 17.33081055 37.26074219 C20.77934996 40.85404258 23.17190471 43.20314278 28.2837677 43.51898193 C30.01292932 43.54821176 31.74254286 43.55568356 33.47192383 43.54589844 C34.41875031 43.55623611 35.36557678 43.56657379 36.34109497 43.57722473 C39.46324705 43.60666632 42.58475122 43.60815222 45.70703125 43.609375 C47.87466164 43.62435569 50.0422806 43.6410826 52.20988464 43.65948486 C57.90954104 43.70318279 63.60904346 43.72316303 69.30883789 43.73822021 C75.1272086 43.75778236 80.9454128 43.79975344 86.76367188 43.83984375 C98.17572992 43.91517246 109.58775075 43.96544794 121 44 C120.67 42.68 120.34 41.36 120 40 C124 40 124 40 126.75 41.6875 C129 44 129 44 129.6875 46.4375 C128.63766843 50.35050856 126.25844635 51.76381133 123 54 C122.01 54 121.02 54 120 54 C120 52.68 120 51.36 120 50 C118.74576736 50.01110306 117.49153473 50.02220612 116.19929504 50.03364563 C104.38386813 50.13496954 92.56852928 50.20994064 80.75276661 50.25906086 C74.67801124 50.28516306 68.60360637 50.32057353 62.52905273 50.37719727 C56.66758971 50.43149324 50.80646399 50.46141584 44.94476891 50.47438622 C42.70760474 50.48363031 40.4704592 50.50168183 38.23343849 50.52865028 C35.10158918 50.5649074 31.97113649 50.56994659 28.83911133 50.56762695 C27.91266312 50.58560333 26.9862149 50.60357971 26.0316925 50.62210083 C21.51037482 50.58582633 19.63782197 50.51208141 16.00637817 47.59654236 C15.34427338 46.73968338 14.68216858 45.8828244 14 45 C13.03912476 43.95440918 13.03912476 43.95440918 12.05883789 42.88769531 C11.45289795 42.20803711 10.84695801 41.52837891 10.22265625 40.828125 C9.54396484 40.08175781 8.86527344 39.33539063 8.16601562 38.56640625 C6.75763216 37.01548444 5.35922355 35.45544864 3.97070312 33.88671875 C-0.07535904 29.39015523 -0.07535904 29.39015523 -5.50390625 26.984375 C-6.32761719 26.98953125 -7.15132813 26.9946875 -8 27 C-8 25.35 -8 23.7 -8 22 C-7.15695313 21.82984375 -6.31390625 21.6596875 -5.4453125 21.484375 C-3.80175781 21.12085938 -3.80175781 21.12085938 -2.125 20.75 C-1.03445312 20.51796875 0.05609375 20.2859375 1.1796875 20.046875 C4.07711094 19.26966912 4.07711094 19.26966912 5.3828125 17.078125 C6.3113762 13.95156874 6.03027132 12.09081396 5 9 C2.06057006 6.59478763 2.06057006 6.59478763 -1 5 C-0.67 3.35 -0.34 1.7 0 0 Z "
        fill="#EA6440" transform="translate(84,98)" />
    <path
        d="M0 0 C2.4375 0.75 2.4375 0.75 5 2 C5.81811523 3.88964844 5.81811523 3.88964844 6 6 C4.08065216 8.29016466 2.23652142 10.23281698 0.0625 12.25 C-0.8027832 13.08144531 -0.8027832 13.08144531 -1.68554688 13.9296875 C-3.11277729 15.29794145 -4.55502058 16.6505038 -6 18 C-2.78942401 24.90349204 2.85941515 30.56926323 9 35 C9.99 35.33 10.98 35.66 12 36 C11.3125 38.4375 11.3125 38.4375 10 41 C7.75 42.125 7.75 42.125 5 42 C0.51026467 38.9743088 -2.81148788 35.0873207 -6.2890625 30.96484375 C-8.10568807 28.87862762 -10.02515239 26.93604056 -12 25 C-11.96519531 26.05960938 -11.93039063 27.11921875 -11.89453125 28.2109375 C-11.86639601 29.59894252 -11.83909557 30.98696463 -11.8125 32.375 C-11.77479492 33.42300781 -11.77479492 33.42300781 -11.73632812 34.4921875 C-11.70703125 36.5234375 -11.70703125 36.5234375 -12 40 C-15 42 -15 42 -17.625 41.75 C-18.40875 41.5025 -19.1925 41.255 -20 41 C-21.40421372 38.19157255 -21.09405748 35.8799654 -21.0625 32.7421875 C-21.05476562 31.47632813 -21.04703125 30.21046875 -21.0390625 28.90625 C-21.02664452 27.56249429 -21.01361903 26.21874407 -21 24.875 C-20.84136482 13.39564404 -20.84136482 13.39564404 -22 2 C-19.26752652 0.63376326 -17.01801098 0.871574 -14 1 C-12.12175109 2.87824891 -12.60897603 6.03935276 -12.4375 8.5625 C-12.35371094 9.76003906 -12.26992187 10.95757812 -12.18359375 12.19140625 C-12.12300781 13.11824219 -12.06242188 14.04507813 -12 15 C-10.55726615 13.44233138 -9.12103292 11.87864043 -7.6875 10.3125 C-6.88699219 9.44238281 -6.08648437 8.57226562 -5.26171875 7.67578125 C-3.18451663 5.21829688 -1.56168424 2.80496684 0 0 Z "
        fill="#EA6440" transform="translate(185,98)" />
    <path
        d="M0 0 C0.78375 0.04125 1.5675 0.0825 2.375 0.125 C6.57216329 8.09007124 10.17544542 16.20299805 13.5703125 24.53637695 C14.93817484 27.86367462 16.27406025 30.9572157 18.1328125 34.046875 C19.375 36.125 19.375 36.125 19.0625 38.4375 C18.835625 38.994375 18.60875 39.55125 18.375 40.125 C15.9 40.62 15.9 40.62 13.375 41.125 C9.85112355 37.01381081 7.375 33.65991888 7.375 28.125 C2.755 28.125 -1.865 28.125 -6.625 28.125 C-7.099375 29.89875 -7.57375 31.6725 -8.0625 33.5 C-9.5 38.875 -9.5 38.875 -10.625 41.125 C-12.275 41.125 -13.925 41.125 -15.625 41.125 C-16.80639648 39.05688477 -16.80639648 39.05688477 -17.625 36.125 C-16.79255907 33.59967055 -15.93006657 31.54836403 -14.72265625 29.21484375 C-14.40671005 28.56552383 -14.09076385 27.91620392 -13.76524353 27.24720764 C-12.75596249 25.17694541 -11.72394775 23.11927993 -10.6875 21.0625 C-9.65677322 19.00128688 -8.63159119 16.93798564 -7.62046814 14.86708069 C-6.99143349 13.58011588 -6.35082487 12.29872907 -5.69752502 11.02391052 C-4.00639978 7.57952058 -3.41458802 5.7719352 -4.625 2.125 C-2.625 0.125 -2.625 0.125 0 0 Z M0.375 13.125 C-0.29654933 14.41413487 -0.96208859 15.70640204 -1.625 17 C-1.99625 17.71929687 -2.3675 18.43859375 -2.75 19.1796875 C-3.76173746 21.07348977 -3.76173746 21.07348977 -3.625 23.125 C-0.985 23.125 1.655 23.125 4.375 23.125 C3.385 19.825 2.395 16.525 1.375 13.125 C1.045 13.125 0.715 13.125 0.375 13.125 Z "
        fill="#EA6440" transform="translate(140.625,98.875)" />
    <path
        d="M0 0 C1.43352212 0.00015908 2.86704998 0.00585132 4.30053711 0.01586914 C5.43041298 0.01799156 5.43041298 0.01799156 6.58311462 0.02015686 C8.99807646 0.02577163 11.41294687 0.03832656 13.82788086 0.05102539 C15.46134307 0.05603849 17.09480672 0.06060173 18.72827148 0.06469727 C22.74067671 0.07574585 26.75301326 0.09302033 30.76538086 0.11352539 C31.32788086 2.05102539 31.32788086 2.05102539 31.76538086 4.11352539 C31.43538086 4.44352539 31.10538086 4.77352539 30.76538086 5.11352539 C28.12538086 5.11352539 25.48538086 5.11352539 22.76538086 5.11352539 C23.09538086 19.96352539 23.42538086 34.81352539 23.76538086 50.11352539 C20.79538086 50.60852539 20.79538086 50.60852539 17.76538086 51.11352539 C15.76538086 49.11352539 15.76538086 49.11352539 15.55249023 46.41381836 C15.57118164 45.28089355 15.58987305 44.14796875 15.60913086 42.98071289 C15.62717773 41.7196875 15.64522461 40.45866211 15.66381836 39.15942383 C15.69585772 37.81074668 15.72972755 36.46211184 15.76538086 35.11352539 C15.79889648 33.80673828 15.83241211 32.49995117 15.86694336 31.15356445 C15.984209 27.1811909 16.12117594 23.21000689 16.26538086 19.23852539 C16.31378055 17.85702275 16.36195859 16.47551234 16.40991211 15.09399414 C16.52623748 11.76708858 16.64475803 8.44027743 16.76538086 5.11352539 C14.36923511 5.25518432 11.97355189 5.4017138 9.57788086 5.55102539 C8.9043457 5.5903418 8.23081055 5.6296582 7.53686523 5.67016602 C4.58202463 5.85754615 1.74300533 6.11809609 -1.16040039 6.71118164 C-1.84489258 6.84395508 -2.52938477 6.97672852 -3.23461914 7.11352539 C-4.23461914 6.11352539 -4.23461914 6.11352539 -4.35961914 3.61352539 C-4.17078804 -0.1630967 -3.87554657 0.13602001 0 0 Z "
        fill="#262638" transform="translate(48.234619140625,97.886474609375)" />
    <path
        d="M0 0 C3.63467079 1.62400184 4.77408696 2.66113044 7 6 C7.47925039 10.3132535 7.47260063 12.30586782 5 15.9375 C4.01 16.9584375 4.01 16.9584375 3 18 C3.639375 18.515625 4.27875 19.03125 4.9375 19.5625 C7.66845273 22.78998959 8 24.79294691 8 29 C6.27423123 32.58959904 4.64327184 34.52931328 1.4375 36.875 C-3.33313793 38.43629968 -8.01829612 38.626783 -13 38 C-13.66 37.34 -14.32 36.68 -15 36 C-14.75 33.4375 -14.75 33.4375 -14 31 C-13.34 30.67 -12.68 30.34 -12 30 C-11.34 30.33 -10.68 30.66 -10 31 C-4.67032792 31.34092041 -4.67032792 31.34092041 0 29 C0 27.35 0 25.7 0 24 C-3.63 23.01 -7.26 22.02 -11 21 C-10.67 19.35 -10.34 17.7 -10 16 C-9.36191406 15.82984375 -8.72382812 15.6596875 -8.06640625 15.484375 C-6.82697266 15.12085937 -6.82697266 15.12085937 -5.5625 14.75 C-4.73878906 14.51796875 -3.91507813 14.2859375 -3.06640625 14.046875 C-0.80004532 13.19229321 -0.80004532 13.19229321 -0.21484375 10.890625 C-0.14394531 10.26671875 -0.07304688 9.6428125 0 9 C-2.81457626 6.65012778 -2.81457626 6.65012778 -5.9375 7.375 C-7.4534375 7.684375 -7.4534375 7.684375 -9 8 C-10.32 8 -11.64 8 -13 8 C-13 6.02 -13 4.04 -13 2 C-8.67085493 -0.46398053 -4.88525695 -0.57576243 0 0 Z "
        fill="#EA6440" transform="translate(52,108)" />
    <path
        d="M0 0 C2.10669459 2.10669459 1.25892489 6.71256289 1.31640625 9.62890625 C1.33718735 10.49313705 1.35796844 11.35736786 1.37937927 12.24778748 C1.44497114 15.01927445 1.50380418 17.79085921 1.5625 20.5625 C1.60567608 22.43685923 1.64929006 24.31120843 1.69335938 26.18554688 C1.80066227 30.79026336 1.90190215 35.39507858 2 40 C-1.375 40.625 -1.375 40.625 -5 41 C-7 39 -7 39 -7.21118164 36.36132812 C-7.19434326 35.26240234 -7.17750488 34.16347656 -7.16015625 33.03125 C-7.14919922 31.81953125 -7.13824219 30.6078125 -7.12695312 29.359375 C-7.10568359 28.08578125 -7.08441406 26.8121875 -7.0625 25.5 C-6.94705034 17.25603912 -6.92199321 9.1857046 -8 1 C-5.26752652 -0.36623674 -3.01801098 -0.128426 0 0 Z "
        fill="#EA6440" transform="translate(118,99)" />
</svg>
