<svg fill="none" height="91" viewBox="0 0 24 91" width="24" xmlns="http://www.w3.org/2000/svg">
    <g id="Group 57">
        <g id="Group 54">
            <path d="M24 12C24 14.3734 23.2962 16.6934 21.9777 18.6668C20.6591 20.6402 18.7849 22.1783 16.5922 23.0865C14.3995 23.9948 11.9867 24.2324 9.65893 23.7694C7.33116 23.3064 5.19296 22.1635 3.51473 20.4853C1.8365 18.807 0.693607 16.6688 0.230584 14.3411C-0.232438 12.0133 0.00519291 9.6005 0.913444 7.40778C1.8217 5.21507 3.35976 3.34095 5.33315 2.02237C7.30654 0.703792 9.62662 0 12 0C15.1826 0 18.2349 1.26429 20.4853 3.51472C22.7357 5.76516 24 8.81739 24 12Z" fill="#0487E2"
                id="Vector"
                opacity="0.3" />
            <path d="M12.0004 18.783C15.7463 18.783 18.783 15.7463 18.783 12.0004C18.783 8.25445 15.7463 5.21777 12.0004 5.21777C8.25448 5.21777 5.21777 8.25445 5.21777 12.0004C5.21777 15.7463 8.25448 18.783 12.0004 18.783Z"
                fill="#0487E2"
                id="Vector_2" />
            <path d="M12.2987 9L15 15H13.5887L13.1472 13.8889H10.8528L10.4113 15H9L11.7013 9H12.2987ZM12.0043 11.0178L11.2771 12.84H12.7316L12.0043 11.0178Z"
                fill="white"
                id="A" />
        </g>
        <g id="Group 56">
            <path d="M12.7826 82.5652C16.5286 82.5652 19.5652 79.5285 19.5652 75.7826C19.5652 72.0367 16.5286 69 12.7826 69C9.0367 69 6 72.0367 6 75.7826C6 79.5285 9.0367 82.5652 12.7826 82.5652Z"
                fill="white"
                id="Vector_3" />
            <path d="M19.9433 75.3948C19.9433 73.4336 19.1591 71.5527 17.7632 70.1659C16.3673 68.7791 14.4741 68 12.5 68C10.5259 68 8.63267 68.7791 7.23678 70.1659C5.84089 71.5527 5.05671 73.4336 5.05671 75.3948C4.48204 81.104 8.36789 86.2695 12.5 91C16.6322 86.2695 20.518 81.104 19.9433 75.3948ZM12.5 79.5C11.6936 79.5 10.9053 79.2624 10.2347 78.8173C9.5642 78.3722 9.04159 77.7395 8.73298 76.9994C8.42437 76.2592 8.34361 75.4447 8.50094 74.6589C8.65827 73.8731 9.04663 73.1513 9.61686 72.5848C10.1871 72.0183 10.9136 71.6325 11.7045 71.4762C12.4955 71.3199 13.3153 71.4001 14.0604 71.7067C14.8054 72.0133 15.4422 72.5325 15.8902 73.1987C16.3382 73.8648 16.5774 74.648 16.5774 75.4492C16.5774 76.5235 16.1478 77.5539 15.3832 78.3135C14.6185 79.0732 13.5814 79.5 12.5 79.5Z"
                fill="#EB6440"
                id="Vector_4" />
            <path d="M12.403 73C12.6913 73 12.9427 73.0597 13.1571 73.1791C13.3715 73.2937 13.5379 73.4537 13.6562 73.659C13.7782 73.8644 13.8392 74.1008 13.8392 74.3682C13.8392 74.607 13.7893 74.8195 13.6895 75.0057C13.5933 75.192 13.4713 75.3352 13.3235 75.4355C13.4344 75.4737 13.5416 75.5382 13.6451 75.6289C13.7486 75.7149 13.8336 75.8319 13.9002 75.9799C13.9667 76.1232 14 76.3071 14 76.5315C14 76.7989 13.9372 77.0449 13.8115 77.2693C13.6858 77.489 13.5102 77.6657 13.2847 77.7994C13.0591 77.9331 12.7967 78 12.4972 78C12.3346 78 12.159 77.9904 11.9704 77.9713C11.7819 77.957 11.6026 77.9355 11.4325 77.9069C11.2625 77.8734 11.1183 77.84 11 77.8066V73.1791C11.207 73.1218 11.4307 73.0788 11.671 73.0501C11.9113 73.0167 12.1553 73 12.403 73ZM12.403 73.9097C12.1664 73.9097 11.9556 73.9336 11.7708 73.9814V75.1418H12.464C12.6525 75.1418 12.8004 75.0821 12.9076 74.9628C13.0185 74.8434 13.0739 74.6905 13.0739 74.5043C13.0739 74.3133 13.0074 74.1676 12.8743 74.0673C12.7449 73.9623 12.5878 73.9097 12.403 73.9097ZM11.7708 77.0186C11.8743 77.0521 11.9926 77.0759 12.1257 77.0903C12.2625 77.0998 12.3715 77.1046 12.4529 77.1046C12.6673 77.1046 12.8429 77.0497 12.9797 76.9398C13.1201 76.83 13.1904 76.6748 13.1904 76.4742C13.1904 76.2736 13.1183 76.1256 12.9741 76.0301C12.8299 75.9298 12.6562 75.8797 12.4529 75.8797H11.7708V77.0186Z"
                fill="#EB6440"
                id="B" />
        </g>
    </g>
</svg>
