<svg width="661" height="356" viewBox="0 0 661 356" fill="none" xmlns="http://www.w3.org/2000/svg">
<g clip-path="url(#clip0_7_12617)">
<path d="M229.19 175.09H249.48C253.238 175.034 256.967 175.744 260.442 177.176C263.916 178.608 267.063 180.733 269.69 183.42C272.399 186.018 274.543 189.146 275.988 192.61C277.433 196.073 278.149 199.797 278.09 203.55V282.88H255.38V242.88L223.29 251.66V282.85H200.58V203.55C200.575 199.798 201.312 196.083 202.75 192.618C204.188 189.153 206.297 186.006 208.957 183.361C211.617 180.715 214.774 178.622 218.247 177.202C221.719 175.783 225.439 175.065 229.19 175.09ZM249.48 197.65H229.19C227.629 197.66 226.134 198.285 225.03 199.39C223.926 200.494 223.301 201.988 223.29 203.55V228.55L255.38 219.92V203.55C255.37 201.988 254.745 200.494 253.64 199.39C252.536 198.285 251.042 197.66 249.48 197.65Z" fill="#FF6600"/>
<path d="M498.84 175.09H519.13C522.888 175.034 526.618 175.744 530.092 177.176C533.567 178.608 536.713 180.733 539.34 183.42C542.049 186.018 544.193 189.146 545.638 192.61C547.083 196.073 547.799 199.797 547.74 203.55V282.88H525V242.88L492.9 251.66V282.85H470.2V203.55C470.195 199.798 470.932 196.083 472.37 192.618C473.808 189.153 475.917 186.006 478.577 183.361C481.237 180.715 484.394 178.622 487.867 177.202C491.339 175.783 495.059 175.065 498.81 175.09H498.84ZM519.13 197.65H498.84C497.282 197.673 495.793 198.302 494.69 199.403C493.587 200.504 492.956 201.992 492.93 203.55V228.55L525 219.9V203.55C524.99 201.988 524.365 200.494 523.261 199.39C522.156 198.285 520.662 197.66 519.1 197.65H519.13Z" fill="#FF6600"/>
<path d="M293.53 175.09H344.1C351.64 175.116 358.863 178.123 364.195 183.455C369.526 188.786 372.533 196.01 372.56 203.55V213.85C372.594 219.19 371.068 224.424 368.17 228.91C365.316 233.434 361.214 237.035 356.36 239.28L368.17 282.88H344.86L334.86 245.34L315.94 250.34V282.89H293.53V175.09ZM315.94 197.65V227L346.94 219C347.85 218.485 348.607 217.738 349.134 216.835C349.661 215.932 349.939 214.906 349.94 213.86V203.56C349.929 201.998 349.304 200.504 348.2 199.4C347.096 198.295 345.601 197.67 344.04 197.66L315.94 197.65Z" fill="#FF6600"/>
<path d="M85.55 247.07L84.23 248.51L85.55 250C87.0162 251.588 88.3538 253.29 89.55 255.09C93.8371 261.549 96.0843 269.148 96 276.9V279.13C96.0204 284.531 94.9555 289.881 92.8683 294.863C90.7812 299.845 87.7144 304.356 83.85 308.13C80.2549 311.703 75.979 314.518 71.2757 316.407C66.5725 318.297 61.5378 319.223 56.47 319.13H0V296.56H56.47C60.9001 296.608 65.1699 294.905 68.35 291.82C69.9829 290.282 71.2777 288.42 72.1523 286.354C73.0269 284.288 73.462 282.063 73.43 279.82V276.9C73.4626 274.657 73.0278 272.431 72.1532 270.365C71.2786 268.299 69.9833 266.438 68.35 264.9C65.1675 261.819 60.8993 260.116 56.47 260.16H15V236.84H56.5C60.9293 236.884 65.1975 235.181 68.38 232.1C70.0129 230.562 71.3077 228.7 72.1823 226.634C73.0569 224.568 73.492 222.343 73.46 220.1V217.16C73.4903 214.919 73.0564 212.696 72.1856 210.631C71.3147 208.565 70.0258 206.703 68.4 205.16C65.2062 202.085 60.9332 200.387 56.5 200.43H0V177.89H56.47C61.5375 177.799 66.5718 178.726 71.2748 180.615C75.9778 182.505 80.2539 185.318 83.85 188.89C87.7135 192.664 90.7797 197.176 92.8667 202.158C94.9538 207.139 96.0193 212.489 96 217.89V220.12C96.0972 227.897 93.8458 235.523 89.54 242C88.3458 243.793 87.0116 245.488 85.55 247.07Z" fill="#665FE3"/>
<path d="M185.42 298.74C182.182 298.74 178.975 298.102 175.983 296.863C172.991 295.624 170.273 293.807 167.983 291.517C165.693 289.227 163.877 286.509 162.637 283.517C161.398 280.525 160.76 277.318 160.76 274.08V197.5H186.19V175.09H112.47V197.5H138.2V283.06C138.195 293.359 142.278 303.24 149.554 310.53C156.829 317.82 166.701 321.924 177 321.94H641.1V298.74H185.42Z" fill="#FF6600"/>
<path d="M660.98 309.9H635.34L615.95 356H641.36L660.98 309.9Z" fill="#665FE3"/>
<path d="M627.64 232.01L643.53 175.09H619.76L607.2 222.02L590.39 226.56V175.09H567.84V282.88H590.39V249.73L607.8 244.88L616.13 264.68H641.54L627.64 232.01Z" fill="#FF6600"/>
<path d="M616.13 264.68L635.34 310.34H660.98L641.54 264.68H616.13Z" fill="#665FE3"/>
<path d="M70.8699 113.28H32.1099V91H70.8699V113.28Z" fill="#FF6600"/>
<path d="M131.39 27.75H100.39C96.3501 27.75 94.3301 29.75 94.3301 33.75V47.28C94.3301 50.9067 96.3501 52.7233 100.39 52.73H167.15V85C167.089 87.0389 166.838 89.0677 166.4 91.06H205.1V113.31H64.8101V91H136.81C141.75 90.6 144.22 88.58 144.22 84.94V75H100.32C92.5623 75.0803 85.075 72.152 79.4301 66.83C76.8342 64.293 74.7853 61.2515 73.4094 57.8927C72.0336 54.5339 71.36 50.929 71.4301 47.3V33.8C71.3251 30.0048 72.0584 26.2331 73.5777 22.7537C75.0971 19.2742 77.365 16.1727 80.2201 13.67C85.4601 8.22332 92.1701 5.49666 100.35 5.48999H131.35L131.39 27.75Z" fill="#FF6600"/>
<path d="M250.58 39.86V85.58C251.087 89.2067 253.107 91.0234 256.64 91.03H267.74V113.28H256.64C250.348 113.431 244.18 111.517 239.08 107.83C233.979 111.516 227.812 113.43 221.52 113.28H183.31V91H221.52C225.047 91 227.047 89.1834 227.52 85.55V39.86H250.58ZM248.46 12.15H240.46C239.55 12.15 239.1 12.86 239.1 14.27V20.93C239.074 21.1152 239.091 21.304 239.149 21.4816C239.208 21.6591 239.307 21.8206 239.439 21.9534C239.571 22.0861 239.732 22.1865 239.909 22.2467C240.086 22.3068 240.275 22.3251 240.46 22.3H250.46V29.71H227.57V22.3H231.66V14.3C231.66 8.45335 234.587 5.52669 240.44 5.52002H248.44L248.46 12.15Z" fill="#FF6600"/>
<path d="M338.44 39.86V85C338.438 92.4876 335.577 99.6919 330.44 105.14C327.795 107.815 324.631 109.921 321.141 111.326C317.651 112.731 313.911 113.406 310.15 113.31H261.68V91H310.12C314.16 91 316.18 88.98 316.18 84.94V39.86H338.44ZM286.51 129.63C294.677 129.63 298.764 133.72 298.77 141.9C298.77 149.967 294.684 154.003 286.51 154.01C278.337 154.017 274.3 149.98 274.4 141.9C274.4 133.72 278.437 129.63 286.51 129.63ZM317.24 129.63C325.42 129.63 329.507 133.72 329.5 141.9C329.5 149.967 325.414 154.003 317.24 154.01C309.067 154.017 305.03 149.98 305.13 141.9C305.13 133.72 309.167 129.63 317.24 129.63Z" fill="#FF6600"/>
<path d="M394.3 91H430.82V113.25H394.3V118.55C394.3 126.223 391.373 132.987 385.52 138.84C380.093 144.009 372.875 146.876 365.38 146.84H350.54V124.64H365.38C369.42 124.64 371.44 122.62 371.44 118.58V39.86H394.3V91Z" fill="#FF6600"/>
<path d="M395 113.28H424.73V91H395V113.28Z" fill="#FF6600"/>
<path d="M448.36 5.48999V49.24C454.62 43.4933 461.13 40.62 467.89 40.62H497.56C501.304 40.5367 505.027 41.2014 508.511 42.5751C511.995 43.9488 515.17 46.0039 517.85 48.62C523.085 54.307 525.947 61.7808 525.85 69.51V113.26H389V91H426.1V5.48999H448.36ZM497.56 62.72H467.89C466.07 62.72 464.31 63.88 462.59 66.2L454.42 91H503.62V68.77C503.62 64.7367 501.6 62.72 497.56 62.72Z" fill="#FF6600"/>
<path d="M8.50977 98.26H34.1498L53.5498 144.37H28.1398L8.50977 98.26Z" fill="#665FE3"/>
<path d="M53.3598 53.04L34.1498 98.7H8.50977L27.9498 53.04H53.3598Z" fill="#665FE3"/>
<path d="M448.76 197.14H412.11C411.336 197.134 410.568 197.283 409.851 197.579C409.135 197.874 408.485 198.31 407.94 198.86C407.358 199.4 406.898 200.057 406.589 200.788C406.281 201.519 406.131 202.307 406.15 203.1V225.9L438.63 217.26V240.05L406.15 248.54V253.16C406.176 254.743 406.816 256.254 407.936 257.374C409.056 258.494 410.567 259.134 412.15 259.16H448.95V281.36H412.15C408.444 281.38 404.77 280.664 401.343 279.253C397.915 277.842 394.802 275.765 392.183 273.142C389.564 270.519 387.493 267.401 386.088 263.971C384.683 260.541 383.974 256.866 384 253.16V203.1C383.936 199.424 384.63 195.773 386.039 192.377C387.448 188.981 389.542 185.911 392.19 183.36C394.797 180.719 397.915 178.636 401.354 177.24C404.793 175.844 408.48 175.164 412.19 175.24H448.84L448.76 197.14Z" fill="#FF6600"/>
<path d="M561.58 69.18L562.9 70.62L561.58 72.06C560.116 73.6534 558.779 75.3585 557.58 77.16C553.278 83.6241 551.026 91.2358 551.12 99V101.23C551.096 106.64 552.16 112 554.249 116.99C556.338 121.981 559.409 126.5 563.28 130.28C566.875 133.852 571.151 136.667 575.855 138.556C580.558 140.446 585.592 141.372 590.66 141.28H647.13V118.67H590.66C586.229 118.715 581.959 117.016 578.77 113.94C577.141 112.399 575.849 110.537 574.976 108.472C574.104 106.406 573.669 104.182 573.7 101.94V99C573.669 96.7578 574.103 94.5335 574.976 92.4679C575.848 90.4023 577.14 88.5404 578.77 87C581.957 83.9203 586.228 82.2178 590.66 82.26H632.16V59H590.66C586.23 59.0417 581.961 57.3433 578.77 54.27C577.141 52.7289 575.85 50.8668 574.977 48.8014C574.105 46.7359 573.67 44.512 573.7 42.27V39.29C573.669 37.0488 574.103 34.8255 574.974 32.7602C575.844 30.6949 577.134 28.8324 578.76 27.29C581.95 24.2088 586.225 22.5062 590.66 22.55H647.13V4.19095e-06H590.66C585.592 -0.09375 580.557 0.831639 575.854 2.72124C571.15 4.61084 566.874 7.42613 563.28 11C559.414 14.7731 556.346 19.2844 554.257 24.266C552.168 29.2477 551.101 34.5982 551.12 40V42.23C551.027 50.0018 553.282 57.6207 557.59 64.09C558.783 65.8897 560.117 67.5917 561.58 69.18Z" fill="#665FE3"/>
</g>
<defs>
<clipPath id="clip0_7_12617">
<rect width="660.98" height="356" fill="white"/>
</clipPath>
</defs>
</svg>
