<svg width="24" height="24" viewBox="0 0 24 24" fill="none" xmlns="http://www.w3.org/2000/svg">
<g clip-path="url(#clip0_94_817)">
<path fill-rule="evenodd" clip-rule="evenodd" d="M12 13.784C14.9931 13.784 17.4342 11.355 17.4342 8.37684C17.4342 5.39871 14.9931 2.96973 12 2.96973C9.00703 2.96973 6.56592 5.39871 6.56592 8.37684C6.56591 11.355 9.00703 13.784 12 13.784Z" fill="black"/>
<path fill-rule="evenodd" clip-rule="evenodd" d="M17.7635 14.5784C17.0593 14.2158 16.2299 13.9189 15.3129 13.707C14.3504 14.3005 13.2156 14.6436 12 14.6436C10.7844 14.6436 9.64951 14.3005 8.68704 13.707C7.77005 13.9189 6.94057 14.2158 6.23647 14.5784C4.998 15.2162 3.69629 16.3155 3.69629 17.8261V20.481C3.69629 20.7184 3.88975 20.9108 4.1283 20.9108H19.8717C20.1102 20.9108 20.3037 20.7184 20.3037 20.481V17.8261C20.3037 16.3155 19.002 15.2162 17.7635 14.5784Z" fill="black"/>
</g>
<defs>
<clipPath id="clip0_94_817">
<rect width="24" height="24" fill="white"/>
</clipPath>
</defs>
</svg>
