<svg fill="none" height="14" viewBox="0 0 26 14" width="26" xmlns="http://www.w3.org/2000/svg">
    <path clip-rule="evenodd" d="M0.234311 0.284534L25.1301 0.218619L25.1633 13.1636L0.267524 13.2295L0.234311 0.284534ZM12.6944 2.91897C14.8003 2.91402 16.5087 4.61107 16.5136 6.71698C16.5186 8.82288 14.8215 10.5313 12.7156 10.5363C10.6097 10.5412 8.90129 8.84415 8.89634 6.73825C8.88815 4.63322 10.5852 2.92479 12.6944 2.91897ZM4.40022 2.2443L20.9533 2.20067C20.9558 3.25362 21.8163 4.11264 22.8716 4.10604L22.886 9.22371C21.8331 9.22619 20.974 10.0867 20.9807 11.1421L4.42434 11.1866C4.42187 10.1336 3.5622 9.27784 2.506 9.2812L2.49159 4.16352C3.54455 4.16105 4.40357 3.3005 4.40022 2.2443Z"
        fill="#0487E2"
        fill-rule="evenodd" />
</svg>
