<svg fill="none" height="18" viewBox="0 0 18 18" width="18" xmlns="http://www.w3.org/2000/svg">
    <circle cx="9" cy="9" fill="#EB6440" r="9" />
    <path
        d="M4.09869 6.19818H11.0308C11.3061 6.19818 11.5293 5.975 11.5293 5.69967C11.5293 5.42434 11.3061 5.20117 11.0308 5.20117H4.09869C3.82336 5.20117 3.60019 5.42434 3.60019 5.69967C3.60019 5.975 3.82336 6.19818 4.09869 6.19818Z"
        fill="white" />
    <path
        d="M4.09869 9.49896H11.0308C11.3061 9.49896 11.5293 9.27579 11.5293 9.00045C11.5293 8.72512 11.3061 8.50195 11.0308 8.50195H4.09869C3.82336 8.50195 3.60019 8.72512 3.60019 9.00045C3.60019 9.27579 3.82336 9.49896 4.09869 9.49896Z"
        fill="white" />
    <path
        d="M4.09869 12.7988H11.0308C11.3061 12.7988 11.5293 12.5756 11.5293 12.3003C11.5293 12.0249 11.3061 11.8018 11.0308 11.8018H4.09869C3.82336 11.8018 3.60019 12.0249 3.60019 12.3003C3.60019 12.5756 3.82336 12.7988 4.09869 12.7988Z"
        fill="white" />
    <path
        d="M13.4183 6.59994C12.9212 6.59994 12.5182 6.19696 12.5182 5.69987C12.5182 5.20278 12.9212 4.7998 13.4183 4.7998C13.9154 4.7998 14.3184 5.20278 14.3184 5.69987C14.3184 6.19696 13.9154 6.59994 13.4183 6.59994Z"
        fill="white" />
    <path
        d="M13.4183 9.89974C12.9212 9.89974 12.5182 9.49677 12.5182 8.99968C12.5182 8.50258 12.9212 8.09961 13.4183 8.09961C13.9154 8.09961 14.3184 8.50258 14.3184 8.99968C14.3184 9.49677 13.9154 9.89974 13.4183 9.89974Z"
        fill="white" />
    <path
        d="M13.4183 13.1995C12.9212 13.1995 12.5182 12.7966 12.5182 12.2995C12.5182 11.8024 12.9212 11.3994 13.4183 11.3994C13.9154 11.3994 14.3184 11.8024 14.3184 12.2995C14.3184 12.7966 13.9154 13.1995 13.4183 13.1995Z"
        fill="white" />
</svg>
