<svg fill="none" height="18" viewBox="0 0 18 18" width="18" xmlns="http://www.w3.org/2000/svg">
    <circle cx="9" cy="9" fill="#EB6440" r="9" />
    <path
        d="M3.83372 6.2961H9.24795C9.44919 6.2961 9.6123 6.13299 9.6123 5.93174C9.6123 5.73049 9.44919 5.56738 9.24795 5.56738H3.83372C3.63247 5.56738 3.46936 5.73049 3.46936 5.93174C3.46936 6.13299 3.63247 6.2961 3.83372 6.2961Z"
        fill="white" />
    <path
        d="M5.25908 7.7668H9.24795C9.44919 7.7668 9.6123 7.60369 9.6123 7.40244C9.6123 7.2012 9.44919 7.03809 9.24795 7.03809H5.25908C5.05784 7.03809 4.89473 7.2012 4.89473 7.40244C4.89473 7.60369 5.05784 7.7668 5.25908 7.7668Z"
        fill="white" />
    <path d="M10.7729 9.7832H14.0352V12.8353H10.7729V9.7832Z" fill="white" />
    <path
        d="M10.7745 13.2001H14.036C14.2373 13.2001 14.4004 13.037 14.4004 12.8358V9.78428C14.4004 9.58303 14.2373 9.41992 14.036 9.41992H10.7745C10.5733 9.41992 10.4102 9.58303 10.4102 9.78428V12.8358C10.4102 13.0371 10.5733 13.2001 10.7745 13.2001ZM13.6717 12.4714H11.1389V10.1486H13.6717V12.4714Z"
        fill="white" />
    <path
        d="M3.83372 10.9162H9.24795C9.44919 10.9162 9.6123 10.7531 9.6123 10.5519C9.6123 10.3506 9.44919 10.1875 9.24795 10.1875H3.83372C3.63247 10.1875 3.46936 10.3506 3.46936 10.5519C3.46936 10.7531 3.63247 10.9162 3.83372 10.9162Z"
        fill="white" />
    <path
        d="M5.25908 12.3859H9.24795C9.44919 12.3859 9.6123 12.2228 9.6123 12.0216C9.6123 11.8203 9.44919 11.6572 9.24795 11.6572H5.25908C5.05784 11.6572 4.89473 11.8203 4.89473 12.0216C4.89473 12.2228 5.05784 12.3859 5.25908 12.3859Z"
        fill="white" />
    <path d="M10.7729 5.16309H14.0352V8.21519H10.7729V5.16309Z" fill="white" />
    <path
        d="M10.7745 8.58013H14.036C14.2373 8.58013 14.4004 8.41702 14.4004 8.21578V5.16416C14.4004 4.96292 14.2373 4.7998 14.036 4.7998H10.7745C10.5733 4.7998 10.4102 4.96292 10.4102 5.16416V8.21578C10.4102 8.4169 10.5733 8.58013 10.7745 8.58013ZM13.6717 7.85142H11.1389V5.52852H13.6717V7.85142Z"
        fill="white" />
</svg>
