<svg fill="none" height="210" viewBox="0 0 222 210" width="222" xmlns="http://www.w3.org/2000/svg">
    <path d="M222 35.6313H186.582V52.4604H200.982L206.369 57.8472L211.755 52.4604H222V35.6313Z"
        fill="#F5F5F5" />
    <path
        d="M195.071 43.1969C195.065 42.572 194.827 41.9715 194.404 41.5123C193.98 41.0531 193.4 40.7682 192.778 40.713C192.155 40.6577 191.534 40.8362 191.036 41.2136C190.538 41.591 190.198 42.1402 190.083 42.7544C189.981 43.3436 190.09 43.9498 190.391 44.4667C190.487 44.6302 190.607 44.7456 190.728 44.9188L192.17 46.8427C192.216 46.8946 192.271 46.9363 192.334 46.9649C192.397 46.9935 192.465 47.0082 192.534 47.0082C192.602 47.0082 192.67 46.9935 192.733 46.9649C192.796 46.9363 192.852 46.8946 192.897 46.8427L194.34 44.9428C194.471 44.7898 194.593 44.6292 194.705 44.4619C194.937 44.0802 195.064 43.6436 195.071 43.1969ZM192.56 44.2935C192.341 44.2945 192.127 44.2304 191.944 44.1094C191.762 43.9885 191.619 43.816 191.535 43.614C191.45 43.4119 191.428 43.1894 191.47 42.9745C191.512 42.7596 191.617 42.562 191.771 42.4068C191.926 42.2516 192.123 42.1458 192.338 42.1027C192.552 42.0596 192.775 42.0812 192.977 42.1648C193.18 42.2484 193.353 42.3902 193.475 42.5722C193.596 42.7542 193.661 42.9683 193.661 43.1873C193.661 43.4799 193.546 43.7605 193.339 43.9678C193.133 44.1751 192.853 44.2923 192.56 44.2935Z"
        fill="#E0E0E0" />
    <path
        d="M218.47 44.9908C218.47 45.0581 213.752 45.1158 207.927 45.1158C202.103 45.1158 197.384 45.0581 197.384 44.9908C197.384 44.9234 202.103 44.8657 207.927 44.8657C213.752 44.8657 218.47 44.9234 218.47 44.9908Z"
        fill="#E0E0E0" />
    <path
        d="M211.756 47.261C211.756 47.3283 208.538 47.386 204.57 47.386C200.602 47.386 197.384 47.3283 197.384 47.261C197.384 47.1936 200.602 47.1311 204.57 47.1311C208.538 47.1311 211.756 47.1888 211.756 47.261Z"
        fill="#E0E0E0" />
    <path
        d="M198.673 39.7627L199.154 40.7391L200.231 40.8978L199.452 41.6577L199.635 42.7303L198.673 42.2204L197.706 42.7303L197.894 41.6577L197.11 40.8978L198.187 40.7391L198.673 39.7627Z"
        fill="#E0E0E0" />
    <path
        d="M203.233 39.7627L203.714 40.7391L204.791 40.8978L204.012 41.6577L204.195 42.7303L203.233 42.2204L202.266 42.7303L202.453 41.6577L201.674 40.8978L202.752 40.7391L203.233 39.7627Z"
        fill="#E0E0E0" />
    <path
        d="M207.792 39.7629L208.273 40.7393L209.351 40.898L208.571 41.658L208.754 42.7305L207.792 42.2207L206.825 42.7305L207.013 41.658L206.234 40.898L207.311 40.7393L207.792 39.7629Z"
        fill="#E0E0E0" />
    <path
        d="M212.352 39.7627L212.833 40.7391L213.911 40.8978L213.131 41.6577L213.314 42.7303L212.352 42.2204L211.39 42.7303L211.573 41.6577L210.794 40.8978L211.871 40.7391L212.352 39.7627Z"
        fill="#EBEBEB" />
    <path
        d="M216.911 39.7627L217.392 40.7391L218.47 40.8978L217.691 41.6577L217.873 42.7303L216.911 42.2204L215.949 42.7303L216.132 41.6577L215.353 40.8978L216.43 40.7391L216.911 39.7627Z"
        fill="#EBEBEB" />
    <path
        d="M67.2826 0.174316H12.2119V26.3437H34.6009L42.9794 34.7174L51.353 26.3437H67.2826V0.174316Z"
        fill="#F5F5F5" />
    <path
        d="M25.4095 11.9437C25.4107 11.3431 25.2732 10.7503 25.0079 10.2114C24.7426 9.67251 24.3566 9.20209 23.8798 8.83671C23.4031 8.47132 22.8485 8.22083 22.2592 8.1047C21.6699 7.98857 21.0617 8.00993 20.482 8.16713C19.9023 8.32433 19.3666 8.61312 18.9167 9.01106C18.4668 9.40899 18.1147 9.90534 17.8879 10.4615C17.661 11.0177 17.5655 11.6187 17.6088 12.2178C17.652 12.8169 17.8329 13.3979 18.1373 13.9157C18.2864 14.1706 18.474 14.3486 18.6664 14.6131L20.9317 17.6191C20.9971 17.7067 21.082 17.7778 21.1797 17.8268C21.2774 17.8758 21.3852 17.9013 21.4945 17.9013C21.6037 17.9013 21.7115 17.8758 21.8092 17.8268C21.9069 17.7778 21.9918 17.7067 22.0572 17.6191L24.2985 14.6901C24.5003 14.4481 24.6897 14.1961 24.866 13.9349C25.2252 13.3331 25.4131 12.6446 25.4095 11.9437ZM21.5041 13.6415C21.1645 13.6415 20.8325 13.5408 20.5501 13.3522C20.2678 13.1635 20.0477 12.8953 19.9177 12.5816C19.7878 12.2678 19.7538 11.9226 19.82 11.5895C19.8863 11.2564 20.0498 10.9505 20.2899 10.7104C20.5301 10.4702 20.836 10.3067 21.1691 10.2404C21.5022 10.1742 21.8474 10.2082 22.1612 10.3381C22.4749 10.4681 22.7431 10.6882 22.9318 10.9705C23.1204 11.2529 23.2211 11.5849 23.2211 11.9245C23.2211 12.3799 23.0402 12.8166 22.7182 13.1386C22.3962 13.4606 21.9595 13.6415 21.5041 13.6415Z"
        fill="#E0E0E0" />
    <path
        d="M61.7944 14.7332C61.7944 14.8005 54.4548 14.8583 45.403 14.8583C36.3512 14.8583 29.0068 14.8005 29.0068 14.7332C29.0068 14.6659 36.3464 14.6082 45.403 14.6082C54.4596 14.6082 61.7944 14.6899 61.7944 14.7332Z"
        fill="#E0E0E0" />
    <path
        d="M51.3574 18.254C51.3574 18.3261 46.3553 18.379 40.1845 18.379C34.0137 18.379 29.0068 18.3261 29.0068 18.254C29.0068 18.1818 34.0089 18.1289 40.1845 18.1289C46.3601 18.1289 51.3574 18.1866 51.3574 18.254Z"
        fill="#E0E0E0" />
    <path
        d="M31.0129 6.6001L31.7584 8.11995L33.4322 8.36044L32.2202 9.54362L32.5087 11.2126L31.0129 10.4238L29.5123 11.2126L29.8009 9.54362L28.5889 8.36044L30.2626 8.11995L31.0129 6.6001Z"
        fill="#E0E0E0" />
    <path
        d="M38.1023 6.6001L38.8478 8.11995L40.5264 8.36044L39.3143 9.54362L39.5981 11.2126L38.1023 10.4238L36.6017 11.2126L36.8903 9.54362L35.6782 8.36044L37.352 8.11995L38.1023 6.6001Z"
        fill="#E0E0E0" />
    <path
        d="M45.1917 6.6001L45.942 8.11995L47.6157 8.36044L46.4037 9.54362L46.6875 11.2126L45.1917 10.4238L43.6958 11.2126L43.9796 9.54362L42.7676 8.36044L44.4413 8.11995L45.1917 6.6001Z"
        fill="#E0E0E0" />
    <path
        d="M52.281 6.6001L53.0313 8.11995L54.7051 8.36044L53.493 9.54362L53.7816 11.2126L52.281 10.4238L50.7852 11.2126L51.069 9.54362L49.8569 8.36044L51.5355 8.11995L52.281 6.6001Z"
        fill="#EBEBEB" />
    <path
        d="M59.3753 6.6001L60.1207 8.11995L61.7945 8.36044L60.5873 9.54362L60.8711 11.2126L59.3753 10.4238L57.8746 11.2126L58.1632 9.54362L56.9512 8.36044L58.6249 8.11995L59.3753 6.6001Z"
        fill="#EBEBEB" />
    <path
        d="M194.152 64.1959C194.441 62.0893 191.473 60.3482 189.246 60.1799C188.183 60.0981 187.077 60.2568 186.067 59.9057C183.888 59.1458 183.013 56.3273 180.882 55.4279C179.29 54.7545 177.458 55.3558 175.914 56.1301C174.37 56.9045 172.845 57.8856 171.104 57.9963C169.603 58.0925 167.978 57.5153 166.665 58.2704C165.703 58.8139 165.174 59.9442 164.26 60.6079C163.346 61.2717 162.23 61.3967 161.134 61.4544C160.037 61.5121 158.907 61.5266 157.911 61.9835C156.916 62.4404 156.088 63.4937 156.295 64.5663L194.152 64.1959Z"
        fill="#F5F5F5" />
    <path
        d="M43.0511 85.0026C43.3445 82.9008 40.3769 81.1549 38.1453 80.9913C37.0823 80.9048 35.9761 81.0683 34.9709 80.7172C32.7873 79.9573 31.9119 77.134 29.7861 76.2394C28.1892 75.566 26.3568 76.1624 24.8128 76.9416C23.2689 77.7208 21.7443 78.6971 20.0032 78.8077C18.5074 78.9039 16.8769 78.3268 15.5639 79.0771C14.6019 79.6254 14.0729 80.7509 13.159 81.4146C12.2452 82.0783 11.1245 82.2034 10.0279 82.2659C8.93132 82.3284 7.80105 82.3332 6.80545 82.7902C5.80984 83.2471 4.98739 84.3004 5.1942 85.3778L43.0511 85.0026Z"
        fill="#F5F5F5" />
    <path
        d="M27.8288 62.8445C28.0404 61.3006 25.8568 60.026 24.2215 59.8961C23.4376 59.8336 22.6247 59.9539 21.884 59.6941C20.2824 59.1362 19.6427 57.0632 18.0748 56.3995C16.906 55.9185 15.5593 56.3466 14.4242 56.919C13.2892 57.4913 12.1685 58.2079 10.8987 58.2897C9.79733 58.3619 8.59972 57.953 7.63298 58.4917C6.91634 58.8909 6.54118 59.7182 5.87745 60.2088C5.18671 60.6323 4.38848 60.8478 3.57843 60.8292C2.77217 60.8093 1.96939 60.9415 1.21207 61.2188C0.476188 61.5555 -0.129831 62.3298 0.024078 63.1186L27.8288 62.8445Z"
        fill="#EBEBEB" />
    <path
        d="M207.518 6.65306C207.734 5.10916 205.551 3.83459 203.911 3.70473C203.132 3.64221 202.319 3.76245 201.578 3.50273C199.976 2.94481 199.332 0.871836 197.769 0.208102C196.595 -0.272865 195.249 0.155196 194.113 0.727547C192.978 1.2999 191.858 2.01654 190.593 2.0983C189.491 2.17045 188.294 1.76163 187.327 2.30031C186.61 2.69951 186.23 3.52678 185.571 4.01736C184.883 4.43916 184.089 4.65451 183.282 4.63781C182.474 4.61833 181.67 4.75047 180.911 5.02739C180.18 5.36407 179.574 6.13843 179.728 6.95126L207.518 6.65306Z"
        fill="#EBEBEB" />
    <path d="M203.617 82.6602H163.591V209.515H203.617V82.6602Z" fill="#F5F5F5" />
    <path d="M203.622 82.6602H183.609V209.169H203.622V82.6602Z" fill="#EBEBEB" />
    <path d="M182.301 70.208H168.166V82.6603H182.301V70.208Z" fill="#F5F5F5" />
    <path d="M182.296 70.208H178.93V82.6603H182.296V70.208Z" fill="#EBEBEB" />
    <path d="M160.258 82.6601V81.9338H204.791V82.6601" fill="#E0E0E0" />
    <path d="M174.88 88.0903H171.494V95.2327H174.88V88.0903Z" fill="#FAFAFA" />
    <path
        d="M183.609 98.0416C183.609 98.1137 179.127 98.1763 173.6 98.1763C168.074 98.1763 163.591 98.1137 163.591 98.0416C163.591 97.9694 168.074 97.9021 173.6 97.9021C179.127 97.9021 183.609 97.9646 183.609 98.0416Z"
        fill="#E0E0E0" />
    <path d="M195.066 88.0903H191.68V95.2327H195.066V88.0903Z" fill="#E0E0E0" />
    <path
        d="M203.795 98.0416C203.795 98.1137 199.313 98.1763 193.786 98.1763C188.26 98.1763 183.782 98.1137 183.782 98.0416C183.782 97.9694 188.26 97.9021 193.786 97.9021C199.313 97.9021 203.795 97.9646 203.795 98.0416Z"
        fill="#E0E0E0" />
    <path d="M195.066 102.274H191.68V109.417H195.066V102.274Z" fill="#E0E0E0" />
    <path
        d="M203.795 112.225C203.795 112.298 199.313 112.36 193.786 112.36C188.26 112.36 183.782 112.298 183.782 112.225C183.782 112.153 188.26 112.086 193.786 112.086C199.313 112.086 203.795 112.148 203.795 112.225Z"
        fill="#E0E0E0" />
    <path d="M195.066 116.886H191.68V124.028H195.066V116.886Z" fill="#E0E0E0" />
    <path
        d="M203.795 126.837C203.795 126.909 199.313 126.972 193.786 126.972C188.26 126.972 183.782 126.909 183.782 126.837C183.782 126.765 188.26 126.698 193.786 126.698C199.313 126.698 203.795 126.755 203.795 126.837Z"
        fill="#E0E0E0" />
    <path d="M195.066 131.502H191.68V138.645H195.066V131.502Z" fill="#E0E0E0" />
    <path
        d="M203.795 141.449C203.795 141.526 199.313 141.584 193.786 141.584C188.26 141.584 183.782 141.526 183.782 141.449C183.782 141.372 188.26 141.314 193.786 141.314C199.313 141.314 203.795 141.372 203.795 141.449Z"
        fill="#E0E0E0" />
    <path d="M195.066 145.696H191.68V152.838H195.066V145.696Z" fill="#E0E0E0" />
    <path
        d="M203.795 155.642C203.795 155.719 199.313 155.777 193.786 155.777C188.26 155.777 183.782 155.719 183.782 155.642C183.782 155.565 188.26 155.508 193.786 155.508C199.313 155.508 203.795 155.565 203.795 155.642Z"
        fill="#E0E0E0" />
    <path d="M195.066 159.947H191.68V167.089H195.066V159.947Z" fill="#E0E0E0" />
    <path d="M195.066 174.385H191.68V181.528H195.066V174.385Z" fill="#E0E0E0" />
    <path
        d="M203.795 169.893C203.795 169.97 199.313 170.033 193.786 170.033C188.26 170.033 183.782 169.97 183.782 169.893C183.782 169.816 188.26 169.759 193.786 169.759C199.313 169.759 203.795 169.816 203.795 169.893Z"
        fill="#E0E0E0" />
    <path d="M174.88 102.49H171.494V109.633H174.88V102.49Z" fill="#FAFAFA" />
    <path
        d="M183.609 112.442C183.609 112.514 179.127 112.576 173.6 112.576C168.074 112.576 163.591 112.514 163.591 112.442C163.591 112.37 168.074 112.302 173.6 112.302C179.127 112.302 183.609 112.365 183.609 112.442Z"
        fill="#E0E0E0" />
    <path d="M174.88 116.891H171.494V124.033H174.88V116.891Z" fill="#FAFAFA" />
    <path
        d="M183.609 126.842C183.609 126.919 179.127 126.977 173.6 126.977C168.074 126.977 163.591 126.919 163.591 126.842C163.591 126.765 168.074 126.702 173.6 126.702C179.127 126.702 183.609 126.755 183.609 126.842Z"
        fill="#E0E0E0" />
    <path d="M174.88 131.296H171.494V138.438H174.88V131.296Z" fill="#FAFAFA" />
    <path
        d="M183.609 141.242C183.609 141.319 179.127 141.377 173.6 141.377C168.074 141.377 163.591 141.319 163.591 141.242C163.591 141.165 168.074 141.107 173.6 141.107C179.127 141.107 183.609 141.184 183.609 141.242Z"
        fill="#E0E0E0" />
    <path d="M174.88 145.696H171.494V152.838H174.88V145.696Z" fill="#FAFAFA" />
    <path
        d="M183.609 155.642C183.609 155.719 179.127 155.777 173.6 155.777C168.074 155.777 163.591 155.719 163.591 155.642C163.591 155.565 168.074 155.508 173.6 155.508C179.127 155.508 183.609 155.565 183.609 155.642Z"
        fill="#E0E0E0" />
    <path d="M174.88 160.096H171.494V167.238H174.88V160.096Z" fill="#FAFAFA" />
    <path
        d="M183.609 170.042C183.609 170.119 179.127 170.182 173.6 170.182C168.074 170.182 163.591 170.119 163.591 170.042C163.591 169.965 168.074 169.908 173.6 169.908C179.127 169.908 183.609 169.965 183.609 170.042Z"
        fill="#E0E0E0" />
    <path d="M174.88 174.496H171.494V181.638H174.88V174.496Z" fill="#FAFAFA" />
    <path d="M78.5803 209.621H19.6811L19.4214 116.535H78.3254L78.5803 209.621Z" fill="#EBEBEB" />
    <path d="M78.3256 116.53H48.876V209.621H78.3256V116.53Z" fill="#E0E0E0" />
    <path d="M46.9517 98.2051H26.1499V116.53H46.9517V98.2051Z" fill="#EBEBEB" />
    <path d="M46.9519 98.2051H41.9932V116.53H46.9519V98.2051Z" fill="#E0E0E0" />
    <path d="M80.0474 115.462H14.5156V116.53H80.0474V115.462Z" fill="#E0E0E0" />
    <path d="M36.0389 124.524H31.0513V135.038H36.0389V124.524Z" fill="white" />
    <path
        d="M48.8759 139.164C48.8759 139.275 42.2818 139.366 34.1487 139.366C26.0155 139.366 19.4263 139.275 19.4263 139.164C19.4263 139.054 26.0155 138.962 34.1487 138.962C42.2818 138.962 48.8759 139.054 48.8759 139.164Z"
        fill="#E0E0E0" />
    <path d="M65.7435 124.524H60.7559V135.038H65.7435V124.524Z" fill="#F5F5F5" />
    <path
        d="M78.5805 139.164C78.5805 139.275 71.9864 139.366 63.8581 139.366C55.7297 139.366 49.1309 139.275 49.1309 139.164C49.1309 139.054 55.7249 138.962 63.8581 138.962C71.9912 138.962 78.5805 139.054 78.5805 139.164Z"
        fill="#EBEBEB" />
    <path d="M65.7435 145.398H60.7559V155.912H65.7435V145.398Z" fill="#F5F5F5" />
    <path
        d="M78.5805 160.038C78.5805 160.149 71.9864 160.235 63.8581 160.235C55.7297 160.235 49.1309 160.149 49.1309 160.038C49.1309 159.928 55.7249 159.836 63.8581 159.836C71.9912 159.836 78.5805 159.942 78.5805 160.038Z"
        fill="#EBEBEB" />
    <path d="M65.7435 166.902H60.7559V177.416H65.7435V166.902Z" fill="#F5F5F5" />
    <path
        d="M78.5805 181.537C78.5805 181.648 71.9864 181.739 63.8581 181.739C55.7297 181.739 49.1309 181.648 49.1309 181.537C49.1309 181.427 55.7249 181.335 63.8581 181.335C71.9912 181.335 78.5805 181.427 78.5805 181.537Z"
        fill="#EBEBEB" />
    <path d="M65.7435 188.401H60.7559V198.915H65.7435V188.401Z" fill="#F5F5F5" />
    <path
        d="M78.5805 203.042C78.5805 203.152 71.9864 203.239 63.8581 203.239C55.7297 203.239 49.1309 203.152 49.1309 203.042C49.1309 202.931 55.7249 202.84 63.8581 202.84C71.9912 202.84 78.5805 202.931 78.5805 203.042Z"
        fill="#EBEBEB" />
    <path d="M36.0389 145.715H31.0513V156.229H36.0389V145.715Z" fill="white" />
    <path
        d="M48.8759 160.356C48.8759 160.466 42.2818 160.558 34.1487 160.558C26.0155 160.558 19.4263 160.466 19.4263 160.356C19.4263 160.245 26.0155 160.154 34.1487 160.154C42.2818 160.154 48.8759 160.245 48.8759 160.356Z"
        fill="#E0E0E0" />
    <path d="M36.0389 166.906H31.0513V177.42H36.0389V166.906Z" fill="white" />
    <path
        d="M48.8759 181.547C48.8759 181.658 42.2818 181.744 34.1487 181.744C26.0155 181.744 19.4263 181.658 19.4263 181.547C19.4263 181.436 26.0155 181.345 34.1487 181.345C42.2818 181.345 48.8759 181.436 48.8759 181.547Z"
        fill="#E0E0E0" />
    <path d="M36.0389 188.098H31.0513V198.612H36.0389V188.098Z" fill="white" />
    <path
        d="M48.8759 202.748C48.8759 202.859 42.2818 202.945 34.1487 202.945C26.0155 202.945 19.4263 202.859 19.4263 202.748C19.4263 202.638 26.0155 202.546 34.1487 202.546C42.2818 202.546 48.8759 202.628 48.8759 202.748Z"
        fill="#E0E0E0" />
    <path
        d="M189.203 199.66C189.569 198.217 188.641 196.808 187.592 195.779C186.544 194.75 185.298 193.821 184.754 192.46C183.874 190.248 185.057 187.386 183.557 185.544C182.672 184.457 181.085 184.101 180.301 182.937C179.941 182.297 179.701 181.596 179.594 180.869C178.76 177.195 176.955 173.813 174.366 171.076C174.19 174.349 174.898 177.608 176.414 180.513C177.025 181.672 177.771 182.802 177.973 184.096C178.3 186.198 177.131 188.358 177.646 190.421C178.237 192.782 180.887 194.36 181.013 196.789C181.118 198.843 179.329 200.637 179.459 202.695C179.572 203.577 179.893 204.42 180.397 205.153C181.984 207.793 184.317 209.612 187.852 209.549L192.181 209.703L189.203 199.66Z"
        fill="#EB6440" />
    <g opacity="0.3">
        <path
            d="M189.203 199.66C189.569 198.217 188.641 196.808 187.592 195.779C186.544 194.75 185.298 193.821 184.754 192.46C183.874 190.248 185.057 187.386 183.557 185.544C182.672 184.457 181.085 184.101 180.301 182.937C179.941 182.297 179.701 181.596 179.594 180.869C178.76 177.195 176.955 173.813 174.366 171.076C174.19 174.349 174.898 177.608 176.414 180.513C177.025 181.672 177.771 182.802 177.973 184.096C178.3 186.198 177.131 188.358 177.646 190.421C178.237 192.782 180.887 194.36 181.013 196.789C181.118 198.843 179.329 200.637 179.459 202.695C179.572 203.577 179.893 204.42 180.397 205.153C181.984 207.793 184.317 209.612 187.852 209.549L192.181 209.703L189.203 199.66Z"
            fill="black" />
    </g>
    <path
        d="M192.95 209.703C193.346 209.763 193.75 209.753 194.143 209.674C194.621 209.603 195.091 209.485 195.547 209.323C196.175 209.1 196.762 208.775 197.283 208.361C197.598 208.105 197.844 207.774 198 207.399C198.127 206.983 198.192 206.55 198.192 206.115C198.2 205.647 198.234 205.18 198.293 204.715C198.379 204.221 198.559 203.747 198.822 203.321C199.332 202.426 200.183 201.575 200.458 200.358C200.732 199.141 200.539 197.866 200.337 196.563C200.135 195.26 199.943 193.85 200.438 192.499C200.934 191.147 201.852 189.921 202.329 188.396C202.805 186.871 202.579 185.193 202.68 183.558C202.707 182.727 202.899 181.91 203.242 181.153C203.594 180.383 204.079 179.662 204.459 178.854C205.229 177.223 205.364 175.376 205.575 173.563C205.676 172.649 205.777 171.731 205.883 170.798C205.949 169.86 206.11 168.932 206.364 168.027C206.658 167.115 207.005 166.22 207.403 165.348C207.601 164.896 207.762 164.427 207.884 163.949C207.958 163.456 208.005 162.96 208.023 162.462C208.071 161.462 208.033 160.46 207.908 159.466C207.792 158.466 207.61 157.475 207.504 156.474C207.504 156.417 207.504 156.354 207.504 156.301L207.48 156.104L207.302 156.191C206.386 156.66 205.589 157.333 204.974 158.158C204.369 158.964 203.883 159.853 203.531 160.798C202.81 162.655 202.569 164.608 202.184 166.464C201.911 168.303 201.308 170.077 200.405 171.702C199.924 172.471 199.356 173.178 198.851 173.929C198.316 174.662 197.95 175.505 197.779 176.396C197.524 178.228 198.534 179.835 198.322 181.456C198.222 182.252 197.953 183.018 197.533 183.702C197.139 184.394 196.677 185.039 196.24 185.683C195.792 186.312 195.403 186.981 195.076 187.68C194.771 188.365 194.591 189.1 194.547 189.849C194.441 191.292 194.648 192.696 194.547 193.999C194.426 195.245 194.062 196.454 193.474 197.559C192.955 198.626 192.368 199.588 191.882 200.521C191.64 200.97 191.422 201.431 191.228 201.902C191.051 202.343 190.924 202.803 190.848 203.272C190.717 204.089 190.706 204.92 190.814 205.74C190.926 206.884 191.354 207.975 192.05 208.89C192.157 209.026 192.274 209.153 192.401 209.27C192.488 209.361 192.583 209.443 192.685 209.515L192.935 209.689C192.627 209.441 192.345 209.162 192.094 208.856C191.425 207.939 191.02 206.856 190.92 205.725C190.823 204.916 190.842 204.096 190.978 203.292C191.059 202.834 191.186 202.386 191.358 201.955C191.545 201.507 191.771 201.055 192.021 200.593C192.502 199.67 193.099 198.708 193.633 197.636C194.237 196.515 194.613 195.286 194.739 194.019C194.854 192.682 194.652 191.292 194.739 189.868C194.785 189.143 194.963 188.432 195.263 187.771C195.584 187.084 195.967 186.429 196.408 185.813C196.846 185.169 197.317 184.529 197.721 183.822C198.159 183.111 198.439 182.314 198.543 181.485C198.755 179.753 197.755 178.118 198.014 176.434C198.182 175.58 198.536 174.774 199.053 174.073C199.534 173.337 200.121 172.63 200.612 171.841C201.534 170.191 202.15 168.387 202.43 166.517C202.8 164.646 203.06 162.717 203.772 160.894C204.111 159.976 204.581 159.111 205.166 158.326C205.754 157.533 206.518 156.888 207.398 156.441L207.196 156.33C207.196 156.383 207.196 156.445 207.196 156.503C207.307 157.518 207.489 158.509 207.605 159.5C207.725 160.478 207.763 161.464 207.72 162.448C207.701 162.931 207.656 163.413 207.586 163.891C207.463 164.354 207.302 164.806 207.105 165.242C206.702 166.123 206.354 167.027 206.061 167.95C205.801 168.868 205.639 169.812 205.58 170.764C205.474 171.697 205.372 172.62 205.272 173.534C205.065 175.352 204.931 177.17 204.19 178.748C203.824 179.532 203.339 180.253 202.978 181.047C202.625 181.832 202.428 182.678 202.396 183.538C202.305 185.207 202.521 186.843 202.069 188.348C201.617 189.853 200.674 191.046 200.198 192.446C199.722 193.845 199.9 195.332 200.107 196.611C200.313 197.89 200.525 199.184 200.246 200.339C199.967 201.493 199.173 202.339 198.649 203.263C198.38 203.705 198.199 204.195 198.115 204.706C198.057 205.177 198.027 205.65 198.024 206.125C198.023 206.55 197.96 206.973 197.836 207.38C197.692 207.735 197.462 208.049 197.168 208.294C196.658 208.705 196.085 209.03 195.47 209.256C195.021 209.425 194.557 209.553 194.085 209.636C193.794 209.686 193.5 209.713 193.205 209.717L192.95 209.703Z"
        fill="#263238" />
    <path
        d="M206.628 158.701C206.628 158.701 206.628 158.744 206.585 158.831L206.489 159.221C206.407 159.562 206.301 160.077 206.138 160.721C205.974 161.366 205.575 162.087 205.243 162.982C204.847 163.986 204.503 165.01 204.214 166.05C203.882 167.205 203.589 168.489 203.286 169.86C203.022 171.327 202.554 172.75 201.896 174.087C201.545 174.794 201.145 175.506 200.828 176.281C200.516 177.08 200.306 177.915 200.203 178.767C199.984 180.523 199.672 182.267 199.27 183.99C198.404 187.54 197.577 190.916 196.822 193.995C196.066 197.073 195.379 199.824 194.773 202.171C194.167 204.518 193.739 206.355 193.412 207.678C193.258 208.313 193.142 208.813 193.056 209.179C193.024 209.339 192.995 209.469 192.969 209.568C192.961 209.614 192.961 209.662 192.969 209.708C192.99 209.666 193.006 209.623 193.017 209.578C193.046 209.472 193.084 209.347 193.128 209.193C193.229 208.832 193.363 208.332 193.537 207.702L194.979 202.219L197.072 194.091L199.539 184.087C199.946 182.351 200.258 180.595 200.472 178.825C200.572 178.001 200.774 177.194 201.073 176.42C201.376 175.66 201.771 174.953 202.127 174.241C202.785 172.883 203.25 171.439 203.507 169.951C203.805 168.571 204.084 167.296 204.402 166.142C204.719 164.987 205.051 163.963 205.364 163.073C205.676 162.183 206.061 161.447 206.22 160.784C206.378 160.12 206.455 159.62 206.523 159.269C206.547 159.11 206.571 158.98 206.59 158.874C206.613 158.819 206.627 158.761 206.628 158.701Z"
        fill="#263238" />
    <path
        d="M191.396 209.424C194.441 208.173 195.966 203.369 195.244 200.161C194.523 196.952 192.887 193.874 193.046 190.589C193.171 188.064 194.364 185.626 194.138 183.105C193.84 179.71 191.007 176.694 191.541 173.323C191.839 171.432 193.176 169.807 193.368 167.902C193.604 165.565 192.094 163.463 191.291 161.255C190.059 157.888 190.492 154.161 190.43 150.563C190.367 146.966 189.583 143.017 186.726 140.833C185.827 143.748 184.745 145.672 184.398 149.746C184.273 151.188 185.548 154.228 185.312 157.441C185.173 159.365 184.985 161.289 184.831 163.213C184.677 165.137 184.519 166.979 184.927 168.806C185.24 170.206 185.889 171.529 186.058 172.952C186.39 175.631 185.048 178.286 185.235 180.98C185.399 183.259 186.649 185.385 186.63 187.675C186.606 190.888 184.09 193.86 184.706 197.02C185.004 198.583 186.053 199.963 186.178 201.551C186.269 202.787 185.793 204.008 185.86 205.244C185.971 207.231 189.434 209.275 191.42 209.443"
        fill="#EB6440" />
    <path
        d="M187.063 143.906C187.057 143.962 187.057 144.019 187.063 144.075C187.063 144.2 187.063 144.368 187.063 144.556C187.063 144.993 187.063 145.638 187.063 146.48C187.063 147.321 187.39 148.312 187.544 149.476C187.698 150.64 187.904 151.977 188.025 153.458C188.145 154.94 188.169 156.57 188.198 158.321C188.227 160.072 188.26 161.976 188.847 163.881C189.107 164.843 189.415 165.805 189.607 166.796C189.786 167.823 189.835 168.868 189.751 169.908C189.587 172.116 189.542 174.332 189.617 176.545C189.823 181.085 190.025 185.409 190.203 189.348C190.381 193.287 190.632 196.813 190.8 199.79L191.223 206.831C191.281 207.649 191.324 208.274 191.353 208.755C191.353 208.962 191.382 209.126 191.396 209.236C191.391 209.292 191.391 209.349 191.396 209.405C191.404 209.349 191.404 209.292 191.396 209.236C191.396 209.106 191.396 208.943 191.396 208.755C191.396 208.298 191.353 207.659 191.319 206.831C191.238 205.148 191.122 202.748 190.983 199.785C190.843 196.822 190.646 193.268 190.449 189.339C190.252 185.409 190.083 181.08 189.881 176.54C189.805 174.335 189.849 172.127 190.011 169.927C190.092 168.866 190.038 167.8 189.852 166.752C189.655 165.728 189.343 164.766 189.078 163.819C188.491 161.943 188.467 160.067 188.414 158.321C188.361 156.575 188.328 154.954 188.207 153.449C188.087 151.943 187.909 150.621 187.702 149.457C187.496 148.293 187.221 147.302 187.159 146.475C187.096 145.648 187.12 144.998 187.101 144.551C187.101 144.344 187.101 144.176 187.101 144.07C187.094 144.014 187.081 143.959 187.063 143.906Z"
        fill="#263238" />
    <path
        d="M161.211 209.424L91.3694 209.385C87.3355 209.383 83.4677 207.778 80.6167 204.924C77.7657 202.071 76.1647 198.201 76.166 194.167L76.1997 19.0954C76.1978 17.0962 76.5901 15.1163 77.3541 13.2688C78.1182 11.4214 79.2389 9.74274 80.6524 8.32888C82.0658 6.91501 83.7441 5.79369 85.5913 5.02908C87.4385 4.26446 89.4183 3.87154 91.4175 3.87281L161.259 3.91128C165.293 3.91383 169.16 5.51841 172.011 8.37217C174.862 11.2259 176.463 15.0952 176.462 19.1291L176.428 194.201C176.429 196.2 176.036 198.179 175.271 200.026C174.507 201.873 173.386 203.551 171.973 204.965C170.56 206.378 168.882 207.5 167.035 208.265C165.189 209.03 163.209 209.424 161.211 209.424Z"
        fill="#455A64" />
    <path
        d="M161.696 9.1152L148.109 9.05268C147.667 9.06081 147.23 9.15613 146.824 9.33318C146.419 9.51024 146.052 9.76556 145.745 10.0845C145.438 10.4035 145.197 10.7798 145.036 11.1921C144.874 11.6043 144.796 12.0442 144.805 12.4868V14.9541C144.814 15.3975 144.735 15.8382 144.573 16.2511C144.411 16.6639 144.169 17.0407 143.861 17.3598C143.554 17.6789 143.186 17.934 142.779 18.1105C142.372 18.287 141.934 18.3814 141.491 18.3882L114.985 18.2632C114.542 18.2526 114.105 18.1545 113.699 17.9745C113.294 17.7946 112.928 17.5363 112.623 17.2145C112.317 16.8927 112.079 16.5137 111.92 16.0994C111.762 15.6851 111.687 15.2436 111.7 14.8002V12.3329C111.713 11.8895 111.638 11.448 111.479 11.0337C111.321 10.6194 111.082 10.2404 110.777 9.91864C110.472 9.59685 110.106 9.33855 109.701 9.15857C109.295 8.97859 108.858 8.8805 108.415 8.86991H103.639L91.7446 8.817C90.3401 8.81067 88.9481 9.08112 87.6482 9.6129C86.3483 10.1447 85.1658 10.9274 84.1685 11.9162C83.1711 12.9051 82.3783 14.0808 81.8355 15.3762C81.2926 16.6715 81.0103 18.0611 81.0046 19.4656L80.2783 190.959C80.2732 193.792 81.3928 196.512 83.3912 198.52C85.3896 200.528 88.1034 201.661 90.9366 201.67L160.879 201.993C162.283 202 163.675 201.73 164.975 201.198C166.275 200.667 167.457 199.885 168.455 198.896C169.452 197.908 170.245 196.733 170.788 195.438C171.331 194.142 171.613 192.753 171.619 191.349L172.345 19.8504C172.351 18.4463 172.08 17.0548 171.548 15.7555C171.016 14.4561 170.233 13.2742 169.244 12.2774C168.255 11.2805 167.08 10.4882 165.785 9.94562C164.49 9.40305 163.101 9.12088 161.696 9.1152Z"
        fill="#F5F5F5" />
    <path
        d="M132.016 169.585C131.934 171.658 131.857 173.601 131.795 175.213H141.842L140.611 169.042L132.016 169.585Z"
        fill="#F5F5F5" />
    <path
        d="M91.1821 172.168L91.2687 175.213H130.79C130.857 173.505 130.934 171.605 131.006 169.653L91.1821 172.168Z"
        fill="#F5F5F5" />
    <path d="M141.116 169.013L142.352 175.213H160.874L160.653 167.777L141.116 169.013Z"
        fill="#F5F5F5" />
    <path d="M133.016 82.2944L136.518 61.988L127.346 61.3098V82.2944H133.016Z" fill="#EBEBEB" />
    <path d="M90.355 160.899L80.399 164.8L80.3701 171.851L90.6532 171.196L90.355 160.899Z"
        fill="#F5F5F5" />
    <path
        d="M90.3113 159.312L89.7678 140.4H89.7582V133.729L80.5284 134.705L80.4082 163.179L90.3065 159.302L90.3113 159.312Z"
        fill="#EBEBEB" />
    <path d="M89.7586 118.838L80.601 117.631L80.5337 133.195L89.7586 132.219V118.838Z"
        fill="#F5F5F5" />
    <path
        d="M158.022 134.008L157.637 139.429L146.82 140.597L147.657 144.883L159.936 143.959L159.754 137.808L160.735 133.734L158.022 134.008Z"
        fill="#F5F5F5" />
    <path d="M138.529 145.575L147.152 144.921L145.277 135.297L137.745 136.057L138.529 145.575Z"
        fill="#F5F5F5" />
    <path
        d="M138.61 146.571L139.269 154.598L140.438 165.607L140.919 168.017L160.624 166.771L159.965 144.964L138.61 146.571Z"
        fill="#EBEBEB" />
    <path
        d="M104.697 108.675L105.457 109.974L90.2585 118.838V139.861L106.299 138.726L137.206 135.605L136.075 121.825L106.544 117.977L106.741 116.486L135.95 120.3L134.026 96.9784L105.12 99.7584L105.024 98.7628L133.95 95.9732L132.954 83.8047H105.144L80.7257 88.2488L80.6055 116.116L89.8545 117.338L104.697 108.675ZM91.8168 137.856C91.8168 137.856 91.9322 120.517 91.8168 119.872L104.216 113.288L105.847 136.971L91.8168 137.856Z"
        fill="#F5F5F5" />
    <path d="M157.012 134.114L145.776 135.244L146.628 139.611L156.699 138.524L157.012 134.114Z"
        fill="#F5F5F5" />
    <path
        d="M132.156 165.872C132.122 166.781 132.088 167.69 132.055 168.58L140.414 168.051L139.986 165.896L132.156 165.872Z"
        fill="#F5F5F5" />
    <path
        d="M114.148 82.2944L115.62 75.6185H126.846V61.2713L91.7446 58.6741V72.1412L80.7786 74.6229L80.7305 86.7145L105.01 82.2944H114.148Z"
        fill="#EBEBEB" />
    <path
        d="M137.591 42.3838L137.292 41.1525L150.697 35.8618L141.953 18.3498C141.794 18.3724 141.633 18.3852 141.472 18.3883L126.658 18.3162L127.062 42.8118L137.591 42.3838Z"
        fill="#F5F5F5" />
    <path
        d="M157.883 32.9953V9.09602L148.129 9.05273C147.684 9.05836 147.246 9.15183 146.838 9.32777C146.43 9.50371 146.061 9.75863 145.752 10.0779C145.443 10.3971 145.2 10.7743 145.038 11.1877C144.875 11.6012 144.796 12.0427 144.805 12.4868V14.9542C144.805 15.5061 144.675 16.0501 144.424 16.5417C144.173 17.0333 143.809 17.4585 143.362 17.7823L152.087 35.2943L157.883 32.9953Z"
        fill="#EBEBEB" />
    <path
        d="M107.491 34.0197L106.361 8.86035H103.649L93.0673 8.81226L88.5317 31.2975L107.491 34.0197ZM105.087 11.4143L105.447 31.9035L91.355 29.8449L94.4428 11.4143H105.087Z"
        fill="#F5F5F5" />
    <path
        d="M108.006 34.0968V34.3085C108.006 36.2708 108.074 39.8059 108.103 43.5863L126.562 42.8312L126.158 18.3019L114.985 18.2634C114.542 18.2528 114.105 18.1547 113.7 17.9747C113.294 17.7948 112.928 17.5365 112.623 17.2147C112.318 16.8929 112.079 16.5139 111.921 16.0996C111.762 15.6853 111.687 15.2438 111.7 14.8004V12.3331C111.713 11.8897 111.638 11.4482 111.48 11.0339C111.321 10.6196 111.083 10.2406 110.778 9.91885C110.472 9.59706 110.106 9.33875 109.701 9.15878C109.296 8.9788 108.859 8.8807 108.415 8.87012H106.857L107.987 34.1016L108.006 34.0968Z"
        fill="#F5F5F5" />
    <path
        d="M87.0409 31.0859L91.5139 8.80273C88.7209 8.85297 86.0584 9.99434 84.0961 11.9826C82.1339 13.9709 81.0278 16.6482 81.0144 19.4417L80.9663 30.5473L81.0144 30.2202L87.0409 31.0859Z"
        fill="#F5F5F5" />
    <path d="M90.2391 58.5636L80.8506 57.8662L80.7881 73.0792L90.2391 70.9437V58.5636Z"
        fill="#F5F5F5" />
    <path d="M86.9399 31.5763L80.9662 30.7202L80.8652 55.3553L82.1494 55.4515L86.9399 31.5763Z"
        fill="#F5F5F5" />
    <path d="M105.904 159.023L106.063 139.246L90.2681 140.362L90.826 159.74L105.904 159.023Z"
        fill="#F5F5F5" />
    <path
        d="M108.809 154.459L131.179 165.175C131.448 158.172 131.684 151.626 131.66 151.227L132.141 151.198L132.377 150.717C132.699 150.876 132.699 150.876 132.531 155.652C132.439 158.316 132.305 161.861 132.17 165.406H139.909L138.769 154.651L137.249 136.11L108.021 139.063L108.809 154.459Z"
        fill="#F5F5F5" />
    <path
        d="M163.645 121.633L163.39 119.026L136.576 121.815L137.706 135.557L160.855 133.219L163.645 121.633Z"
        fill="#F5F5F5" />
    <path d="M126.845 77.124H116.827L115.687 82.2944H126.845V77.124Z" fill="#F5F5F5" />
    <path
        d="M159.503 78.8701L134.416 77.1338L133.396 83.0593L134.45 95.9204L160.903 93.3761L159.503 78.8701ZM135.34 83.0497L136.686 79.3078L158.474 80.6881L159.715 91.3848L136.056 94.1937L135.34 83.0497Z"
        fill="#F5F5F5" />
    <path d="M162.106 105.751L161.004 94.3762L134.532 96.9205L135.527 109.026L162.106 105.751Z"
        fill="#F5F5F5" />
    <path
        d="M90.6818 172.202L80.4132 172.851L80.3699 172.182L80.3555 175.212H90.7684L90.6818 172.202Z"
        fill="#F5F5F5" />
    <path
        d="M172.157 27.3487L172.307 27.7287L172.34 19.8504C172.352 17.0156 171.237 14.2922 169.241 12.2791C167.245 10.266 164.531 9.12796 161.696 9.11523H158.368V32.8125L172.157 27.3487Z"
        fill="#EBEBEB" />
    <path
        d="M131.16 165.713L108.324 154.771L107.521 139.097L106.559 139.193L106.395 159.49L90.8359 160.23V160.682L91.1389 171.148L131.035 168.623C131.083 167.676 131.122 166.675 131.16 165.713ZM91.8171 161.519L113.6 159.99L127.774 166.565L91.8171 168.489V161.519Z"
        fill="#F5F5F5" />
    <path
        d="M165.664 53.6481L166.598 48.1074C158.421 45.1831 157.844 36.646 157.868 34.0583L152.524 36.1746L160.571 52.3303L165.664 53.6481Z"
        fill="#F5F5F5" />
    <path d="M136.455 120.32L147.585 119.16L145.392 109.325L135.647 110.527L136.455 120.32Z"
        fill="#F5F5F5" />
    <path
        d="M160.47 63.3059L139.678 63.3011L137.951 63.176L135.604 76.7922L160.282 78.4996L159.71 72.5789L162.139 63.8349L160.47 63.3059Z"
        fill="#F5F5F5" />
    <path
        d="M159.032 59.6505L159.292 53.1526L151.115 36.7468L138.447 41.7633L142.775 59.6505H159.032ZM150.63 38.738L158.114 52.9843L157.036 57.4236L144.218 56.9426L141.015 43.4756L150.63 38.738Z"
        fill="#F5F5F5" />
    <path
        d="M162.269 138.067L162.649 150.837L171.658 150.327L171.686 150.828L162.668 151.337L163.125 166.613L171.643 166.074L171.706 167.075L163.154 167.618L163.385 175.213H171.682L171.864 132.613L163.375 133.469L162.269 138.067Z"
        fill="#F5F5F5" />
    <path
        d="M107.511 34.5297L88.4309 31.793L83.6597 55.572L107.593 57.3468C107.689 53.677 107.607 42.4512 107.511 34.5297Z"
        fill="#EBEBEB" />
    <path
        d="M138.884 59.6553H141.775L137.687 42.8792L127.072 43.312L127.327 58.7943L138.884 59.6553Z"
        fill="#F5F5F5" />
    <path
        d="M108.083 57.3707L126.841 58.7607L126.591 43.3313L108.126 44.0864C108.146 49.3193 108.16 54.8697 108.083 57.3707Z"
        fill="#F5F5F5" />
    <path d="M162.25 107.247L145.892 109.267L148.09 119.108L163.245 117.53L162.25 107.247Z"
        fill="#F5F5F5" />
    <path
        d="M166.684 47.6214L167.733 41.4025L172.249 41.7536L172.307 28.3635L158.359 33.8802C158.094 43.2976 164.01 46.6114 166.684 47.6214Z"
        fill="#EBEBEB" />
    <path
        d="M161.322 71.6553L161.889 77.528L172.095 78.235L172.144 66.1387L163.602 63.4404L161.322 71.6553Z"
        fill="#F5F5F5" />
    <path
        d="M166.179 121.811L163.5 132.955L171.865 132.108L171.917 120.426C169.349 119.747 167.108 119.199 165.901 118.983L166.179 121.811Z"
        fill="#F5F5F5" />
    <path d="M160.528 59.843L172.158 63.5128L172.186 56.9043L160.768 53.9512L160.528 59.843Z"
        fill="#F5F5F5" />
    <path
        d="M165.756 117.434C166.694 117.578 168.469 117.953 171.922 118.877L172.028 93.3328L163.5 94.1504L165.756 117.434Z"
        fill="#F5F5F5" />
    <path d="M163.404 93.1404L172.033 92.3083L172.085 79.7406L162.038 79.0432L163.404 93.1404Z"
        fill="#F5F5F5" />
    <path
        d="M167.646 47.9391C169.286 48.4201 170.806 48.8193 172.215 49.1031L172.244 42.7591L168.569 42.4753L167.646 47.9391Z"
        fill="#F5F5F5" />
    <path
        d="M166.641 53.9175L172.191 55.3604L172.216 49.6273C170.776 49.3451 169.226 48.9507 167.565 48.4441L166.641 53.9175Z"
        fill="#F5F5F5" />
    <path
        d="M171.706 167.074L171.643 166.074L163.125 166.613L162.668 151.337L171.686 150.827L171.662 150.346L162.649 150.856L162.269 138.091L163.375 133.489L171.864 132.632V132.127L163.5 132.974L166.179 121.83L165.9 118.987C167.107 119.218 169.349 119.767 171.917 120.43V118.867C168.464 117.958 166.689 117.583 165.751 117.424L163.495 94.1262L172.023 93.3086V92.2985L163.394 93.1306L162.028 79.0335L172.076 79.7309V78.2206L161.87 77.5184L161.302 71.6458L163.582 63.4309L172.143 66.1532V63.5271L160.513 59.8573L160.749 53.9655L172.167 56.9186V55.3651L166.617 53.9222L167.54 48.4392C169.205 48.9458 170.755 49.3402 172.191 49.6223V49.1077C170.782 48.8239 169.262 48.4392 167.622 47.9438L168.546 42.48L172.22 42.7637V41.7585L167.704 41.4074L166.655 47.6263C163.981 46.6163 158.065 43.2976 158.349 33.8851L172.297 28.3684V27.7287L172.148 27.3488L158.373 32.7981V9.10086H157.868V33.0001L152.063 35.2991L143.362 17.7823C142.947 18.0802 142.468 18.2748 141.963 18.3499L150.673 35.8522L137.268 41.1429L137.567 42.3742L127.062 42.8022L126.658 18.3066H126.177L126.581 42.8359L108.122 43.591C108.093 39.8106 108.05 36.2755 108.026 34.3132V34.1015L106.895 8.87H106.39L107.52 34.0294L88.5319 31.2975L93.0482 8.79785H91.7544H91.5139L87.0409 31.0811L81.0144 30.2153L80.9663 30.5424V30.7155L86.9399 31.5716L82.1302 55.4468L80.8412 55.3507V57.8613L90.2297 58.5587V70.9628L80.7883 73.0791V74.623L91.7496 72.1412V58.6741L126.86 61.2762V75.6186H115.62L114.148 82.2992H105.01L80.7306 86.7145V88.244L105.149 83.7999H132.959L133.954 95.9683L105.034 98.7531L105.13 99.7487L134.036 96.9687L135.96 120.291L106.751 116.477L106.554 117.968L136.085 121.815L137.215 135.595L106.308 138.717L90.2682 139.852V118.838L105.467 109.974L104.707 108.675L89.8642 117.333L80.6152 116.111V117.617L89.7536 118.824V132.204L80.5286 133.166V134.677L89.7584 133.715V140.386L90.3019 159.297L80.4036 163.174V164.79L90.3596 160.894L90.6578 171.196L80.3555 171.851V172.182L80.3988 172.851L90.6674 172.202L90.754 175.212H91.2349L91.1484 172.168L130.972 169.652C130.9 171.605 130.823 173.5 130.756 175.212H131.819C131.881 173.601 131.958 171.658 132.04 169.585L140.635 169.042L141.866 175.212H142.376L141.14 169.013L160.677 167.777L160.898 175.212H163.409M132.055 168.599C132.088 167.709 132.122 166.8 132.156 165.891L139.986 165.915L140.414 168.07L132.055 168.599ZM140.919 168.036L140.438 165.632L139.269 154.622L138.61 146.595L159.965 144.988L160.624 166.796L140.919 168.036ZM145.767 135.244L157.002 134.114L156.69 138.524L146.618 139.611L145.767 135.244ZM145.286 135.297L147.162 144.916L138.552 145.575L137.769 136.057L145.286 135.297ZM159.946 143.954L147.667 144.878L146.83 140.592L157.647 139.424L158.032 134.003L160.74 133.734L159.778 137.803L159.946 143.954ZM145.401 109.325L147.595 119.161L136.465 120.315L135.667 110.527L145.401 109.325ZM148.1 119.108L145.902 109.267L162.255 107.252L163.25 117.53L148.1 119.108ZM159.364 77.3501L134.686 75.6427L137.033 62.0265L138.759 62.1563H159.552L161.22 62.6806L158.782 71.4438L159.364 77.3501ZM157.878 34.0631C157.854 36.6507 158.421 45.1878 166.607 48.1121L165.665 53.648L160.571 52.3302L152.525 36.1745L157.878 34.0631ZM151.144 36.7324L159.321 53.1382L159.061 59.6361H142.804L138.476 41.7489L151.144 36.7324ZM137.687 42.8792L141.775 59.6505H138.889L127.346 58.7944L127.091 43.312L137.687 42.8792ZM126.572 43.3313L126.822 58.7607L108.064 57.3707C108.141 54.8697 108.127 49.3049 108.064 44.0864L126.572 43.3313ZM88.4309 31.7881L107.511 34.5248C107.607 42.4463 107.689 53.6721 107.593 57.3322L83.6597 55.5719L88.4309 31.7881ZM136.528 61.988L133.026 82.2944H127.346V61.3098L136.528 61.988ZM116.837 77.1192H126.855V82.2944H115.697L116.837 77.1192ZM133.406 83.0544L134.426 77.1288L159.513 78.8651L160.917 93.3711L134.464 95.9154L133.406 83.0544ZM161.014 94.3715L162.12 105.751L135.542 109.027L134.532 96.9351L161.014 94.3715ZM136.585 121.811L163.399 119.021L163.654 121.628L160.865 133.214L137.716 135.552L136.585 121.811ZM138.769 154.651L139.914 165.401H132.175C132.31 161.856 132.444 158.311 132.536 155.647C132.704 150.871 132.704 150.871 132.382 150.712L132.146 151.193L131.665 151.222C131.689 151.64 131.453 158.186 131.184 165.17L108.809 154.459L108.021 139.068L137.249 136.115L138.769 154.651ZM106.063 139.26L105.904 159.038L90.8261 159.754L90.2682 140.376L106.063 139.26ZM90.8502 160.716V160.264L106.409 159.523L106.573 139.227L107.535 139.13L108.338 154.805L131.16 165.713C131.122 166.675 131.083 167.666 131.049 168.633L91.1532 171.158L90.8502 160.716Z"
        fill="white" />
    <path d="M113.6 160L91.8169 161.529V168.522L127.769 166.574L113.6 160Z" fill="#E0E0E0" />
    <path
        d="M158.474 80.688L136.686 79.3076L135.339 83.0495L136.075 94.1935L159.734 91.3847L158.474 80.688Z"
        fill="#E0E0E0" />
    <path
        d="M80.3552 151.539L80.3022 187.419V191.267C80.3747 194.043 81.5256 196.682 83.5107 198.624C85.4959 200.566 88.1593 201.659 90.9364 201.671L160.879 201.993C162.283 202 163.675 201.73 164.975 201.199C166.275 200.667 167.457 199.885 168.454 198.897C169.452 197.908 170.245 196.733 170.788 195.438C171.331 194.143 171.613 192.753 171.619 191.349L171.686 151.539H80.3552Z"
        fill="white" />
    <path d="M105.866 33.2118L105.505 12.7178H94.8612L91.7734 31.1484L105.866 33.2118Z"
        fill="#E0E0E0" />
    <path
        d="M157.036 57.4333L158.118 52.9892L150.63 38.7429L141.015 43.4708L144.223 56.9475L157.036 57.4333Z"
        fill="#EBEBEB" />
    <path
        d="M91.8169 119.873C91.9323 120.517 91.8169 137.856 91.8169 137.856L105.847 136.971L104.216 113.288L91.8169 119.873Z"
        fill="#E0E0E0" />
    <path
        d="M138.528 133.95L137.788 123.205L161.812 120.118V121.969L158.907 131.848L138.528 133.95Z"
        fill="#E0E0E0" />
    <path
        d="M160.927 161.322L160.624 154.315L139.514 155.339C138.964 155.364 138.416 155.248 137.922 155.002L107.968 139.871C107.627 139.698 107.338 139.439 107.129 139.119C106.921 138.799 106.8 138.43 106.78 138.048L102.706 58.9821C102.694 58.7944 102.723 58.6064 102.791 58.4311C102.859 58.2559 102.965 58.0976 103.1 57.9672C103.234 57.8368 103.394 57.736 103.57 57.6714C103.746 57.6068 103.933 57.5798 104.12 57.5921L116.957 58.554V44.5098H118.462V58.7416C118.461 58.9231 118.423 59.1024 118.35 59.2686C118.277 59.4348 118.171 59.5843 118.038 59.7078C117.905 59.8313 117.748 59.9262 117.577 59.9867C117.406 60.0472 117.224 60.0719 117.043 60.0594L104.216 59.0975L108.28 137.976C108.287 138.093 108.325 138.206 108.389 138.304C108.453 138.401 108.542 138.481 108.646 138.534L138.6 153.665C138.861 153.796 139.151 153.857 139.442 153.843L160.734 152.809C160.909 152.801 161.084 152.827 161.249 152.886C161.414 152.946 161.566 153.037 161.695 153.155C161.825 153.273 161.93 153.415 162.004 153.574C162.079 153.732 162.121 153.904 162.129 154.079L162.437 161.26L160.927 161.322Z"
        fill="white" />
    <path
        d="M159.114 71.6217C159.125 69.8419 158.724 68.0835 157.944 66.484C157.163 64.8846 156.023 63.4873 154.612 62.4016C153.202 61.3158 151.56 60.5708 149.814 60.2249C148.068 59.8791 146.265 59.9416 144.548 60.4077C142.83 60.8738 141.243 61.7308 139.912 62.9118C138.58 64.0928 137.539 65.5657 136.871 67.2154C136.203 68.8652 135.926 70.6471 136.06 72.4219C136.195 74.1966 136.739 75.9162 137.648 77.4462L137.682 77.4895C138.124 78.2302 138.677 78.7641 139.235 79.5481L145.93 88.4123C146.124 88.6701 146.375 88.8794 146.663 89.0236C146.952 89.1677 147.27 89.2427 147.592 89.2427C147.914 89.2427 148.232 89.1677 148.521 89.0236C148.809 88.8794 149.06 88.6701 149.254 88.4123L155.833 79.6923C156.432 78.9851 156.991 78.2448 157.507 77.4751L157.531 77.4462C158.569 75.6809 159.116 73.6697 159.114 71.6217ZM147.57 76.6382C146.567 76.6382 145.586 76.3406 144.751 75.783C143.917 75.2255 143.266 74.433 142.882 73.5058C142.498 72.5786 142.398 71.5584 142.594 70.5741C142.789 69.5898 143.273 68.6856 143.982 67.976C144.692 67.2664 145.596 66.7831 146.58 66.5873C147.565 66.3915 148.585 66.492 149.512 66.876C150.439 67.2601 151.232 67.9105 151.789 68.7449C152.347 69.5794 152.645 70.5604 152.645 71.564C152.646 72.9077 152.114 74.1969 151.165 75.1483C150.216 76.0998 148.928 76.6357 147.585 76.6382H147.57Z"
        fill="#EB6440" />
    <path
        d="M97.0451 166.762C97.0453 165.959 96.8604 165.166 96.5047 164.446C96.149 163.725 95.6321 163.097 94.9941 162.609C94.3561 162.12 93.6142 161.786 92.8259 161.631C92.0377 161.476 91.2243 161.504 90.449 161.715C89.6736 161.925 88.9571 162.311 88.3551 162.843C87.7531 163.375 87.2818 164.038 86.9778 164.782C86.6737 165.525 86.5451 166.329 86.602 167.13C86.6588 167.932 86.8995 168.709 87.3055 169.403C87.5075 169.744 87.7576 169.984 88.0125 170.364L91.0474 174.385C91.1375 174.499 91.2522 174.592 91.383 174.655C91.5138 174.718 91.6572 174.751 91.8026 174.751C91.9479 174.751 92.0913 174.718 92.2221 174.655C92.3529 174.592 92.4676 174.499 92.5577 174.385L95.5397 170.427C95.8117 170.106 96.0654 169.771 96.2996 169.422C96.784 168.619 97.0417 167.7 97.0451 166.762ZM91.817 169.037C91.3609 169.038 90.9148 168.904 90.5352 168.651C90.1556 168.398 89.8596 168.038 89.6846 167.617C89.5097 167.196 89.4636 166.732 89.5524 166.285C89.6411 165.838 89.8606 165.427 90.1831 165.104C90.5056 164.782 90.9165 164.562 91.3639 164.473C91.8112 164.385 92.2749 164.431 92.696 164.606C93.1172 164.781 93.477 165.077 93.7297 165.456C93.9825 165.836 94.117 166.282 94.116 166.738C94.116 167.348 93.8738 167.932 93.4426 168.364C93.0115 168.795 92.4267 169.037 91.817 169.037Z"
        fill="#EB6440" />
    <path
        d="M160.153 170.523C160.153 170.59 147.104 170.648 131.011 170.648C114.918 170.648 101.864 170.59 101.864 170.523C101.864 170.456 114.913 170.398 131.011 170.398C147.109 170.398 160.153 170.427 160.153 170.523Z"
        fill="#263238" />
    <path
        d="M131.819 175.212C131.819 175.285 125.119 175.338 116.856 175.338C108.593 175.338 101.888 175.285 101.888 175.212C101.888 175.14 108.588 175.087 116.856 175.087C125.124 175.087 131.819 175.145 131.819 175.212Z"
        fill="#263238" />
    <path
        d="M104.548 159.605L105.549 161.639L107.79 161.967L106.169 163.544L106.554 165.781L104.548 164.727L102.543 165.781L102.923 163.544L101.302 161.967L103.543 161.639L104.548 159.605Z"
        fill="#EB6440" />
    <path
        d="M114.042 159.605L115.048 161.64L117.289 161.967L115.663 163.544L116.048 165.781L114.042 164.728L112.037 165.781L112.422 163.544L110.796 161.967L113.042 161.64L114.042 159.605Z"
        fill="#EB6440" />
    <path
        d="M123.537 159.605L124.542 161.64L126.783 161.967L125.162 163.544L125.542 165.781L123.537 164.728L121.531 165.781L121.916 163.544L120.295 161.967L122.536 161.64L123.537 159.605Z"
        fill="#EB6440" />
    <path
        d="M133.036 159.605L134.036 161.639L136.277 161.967L134.656 163.544L135.041 165.781L133.036 164.727L131.03 165.781L131.41 163.544L129.789 161.967L132.03 161.639L133.036 159.605Z"
        fill="#EB6440" />
    <path
        d="M142.53 159.605L143.535 161.639L145.776 161.967L144.155 163.544L144.535 165.781L142.53 164.727L140.524 165.781L140.909 163.544L139.283 161.967L141.529 161.639L142.53 159.605Z"
        fill="#E0E0E0" />
    <path
        d="M121.064 184.322C121.064 184.394 117.419 184.447 112.922 184.447C108.425 184.447 104.779 184.394 104.779 184.322C104.779 184.25 108.425 184.197 112.922 184.197C117.419 184.197 121.064 184.255 121.064 184.322Z"
        fill="#E0E0E0" />
    <path
        d="M162.908 188.425C162.908 188.492 149.894 188.55 133.844 188.55C117.794 188.55 104.779 188.492 104.779 188.425C104.779 188.357 117.765 188.295 133.844 188.295C149.922 188.295 162.908 188.352 162.908 188.425Z"
        fill="#E0E0E0" />
    <path
        d="M94.2697 191.257C97.011 191.257 99.2333 189.035 99.2333 186.294C99.2333 183.553 97.011 181.33 94.2697 181.33C91.5284 181.33 89.3062 183.553 89.3062 186.294C89.3062 189.035 91.5284 191.257 94.2697 191.257Z"
        fill="#F5F5F5" />
    <path
        d="M94.8515 186.155C95.1371 186.037 95.3812 185.837 95.5525 185.58C95.7239 185.323 95.8147 185.02 95.8134 184.712C95.8166 184.521 95.7821 184.331 95.7119 184.153C95.6417 183.975 95.5372 183.813 95.4043 183.676C95.2714 183.538 95.1128 183.429 94.9375 183.353C94.7622 183.277 94.5736 183.236 94.3826 183.233C94.1915 183.229 94.0017 183.264 93.824 183.334C93.6462 183.404 93.4841 183.509 93.3467 183.642C93.2094 183.775 93.0996 183.933 93.0235 184.109C92.9475 184.284 92.9067 184.472 92.9036 184.664C92.8983 184.967 92.982 185.265 93.1444 185.522C93.3068 185.778 93.5408 185.981 93.8174 186.106C91.5713 186.419 91.6483 188.853 91.6483 188.853L96.9389 188.934C96.9389 188.934 97.064 186.515 94.8515 186.155Z"
        fill="#E0E0E0" />
    <path
        d="M126.336 196.846C126.271 196.844 126.208 196.817 126.163 196.769L123.758 194.259C123.736 194.236 123.718 194.21 123.706 194.18C123.693 194.151 123.687 194.12 123.687 194.088C123.687 194.056 123.693 194.025 123.706 193.995C123.718 193.966 123.736 193.94 123.758 193.917C123.78 193.895 123.806 193.877 123.835 193.865C123.864 193.853 123.895 193.846 123.926 193.846C123.958 193.846 123.989 193.853 124.018 193.865C124.047 193.877 124.073 193.895 124.095 193.917L126.331 196.245L128.525 193.96C128.57 193.916 128.632 193.891 128.695 193.891C128.759 193.891 128.82 193.916 128.866 193.96C128.889 193.983 128.906 194.009 128.919 194.039C128.931 194.068 128.937 194.099 128.937 194.131C128.937 194.163 128.931 194.194 128.919 194.224C128.906 194.253 128.889 194.28 128.866 194.302L126.529 196.769C126.505 196.796 126.475 196.817 126.441 196.831C126.408 196.844 126.372 196.849 126.336 196.846Z"
        fill="#263238" />
    <path
        d="M48.9434 53.3282C48.1908 51.5533 47.5969 49.7153 47.1686 47.8356C46.7372 45.9497 46.7818 43.986 47.2985 42.1217C47.3851 41.8427 48.145 39.9573 48.4384 39.9718C48.6452 39.9718 48.2075 41.7177 48.323 41.8956C49.3723 43.6045 49.8757 45.5927 49.7659 47.5951C49.7047 49.531 49.4273 51.454 48.9386 53.3282"
        fill="#263238" />
    <path
        d="M55.8261 72.341C52.8393 72.4469 49.5302 66.9061 49.3571 63.9289L48.323 45.984C47.8901 41.1744 50.3334 36.913 55.1527 36.6148H55.6C57.7726 36.6067 59.8688 37.4158 61.4726 38.8815C63.0763 40.3471 64.0704 42.3622 64.2574 44.5267C64.6085 48.6967 64.9404 53.314 64.9212 55.5505C64.8827 60.187 60.2462 60.9229 60.2462 60.9229C60.2462 60.9229 60.2846 62.0002 60.3472 63.3566C60.4867 66.4107 60.275 73.4569 57.2209 73.5531L55.8261 72.341Z"
        fill="#FFBE9D" />
    <path
        d="M60.2363 60.9264C58.0957 60.9291 55.9993 60.3182 54.1953 59.166C54.1953 59.166 55.6815 62.5328 60.3036 62.0999L60.2363 60.9264Z"
        fill="#EB996E" />
    <path
        d="M62.7566 48.3694C62.7592 48.5417 62.6943 48.7082 62.5756 48.8332C62.4569 48.9581 62.294 49.0316 62.1217 49.0379C62.0376 49.0444 61.9529 49.0341 61.8728 49.0075C61.7926 48.981 61.7186 48.9387 61.655 48.8831C61.5914 48.8276 61.5395 48.7599 61.5024 48.6841C61.4653 48.6083 61.4436 48.5258 61.4388 48.4415C61.4362 48.355 61.4507 48.2688 61.4815 48.1878C61.5123 48.1069 61.5587 48.0328 61.6181 47.9699C61.6775 47.9069 61.7487 47.8562 61.8277 47.8208C61.9067 47.7854 61.9919 47.7658 62.0785 47.7633C62.1632 47.7568 62.2483 47.7675 62.3288 47.7947C62.4093 47.8219 62.4834 47.8651 62.5468 47.9217C62.6101 47.9783 62.6614 48.0472 62.6974 48.1241C62.7335 48.201 62.7536 48.2845 62.7566 48.3694Z"
        fill="#263238" />
    <path
        d="M63.2614 46.4744C63.1797 46.561 62.6795 46.1906 61.9676 46.1954C61.2558 46.2002 60.7315 46.5561 60.6546 46.4696C60.5776 46.383 60.7027 46.2772 60.9287 46.1088C61.2366 45.8952 61.6025 45.781 61.9772 45.7818C62.3463 45.779 62.7068 45.8935 63.0065 46.1088C63.2277 46.2772 63.3047 46.4359 63.2614 46.4744Z"
        fill="#263238" />
    <path
        d="M56.3067 48.6134C56.3069 48.7863 56.2406 48.9527 56.1215 49.0781C56.0025 49.2034 55.8397 49.2781 55.667 49.2868C55.5828 49.2933 55.4982 49.283 55.4181 49.2564C55.3379 49.2299 55.2639 49.1876 55.2003 49.132C55.1367 49.0765 55.0848 49.0088 55.0477 48.933C55.0105 48.8572 54.9889 48.7747 54.9841 48.6904C54.9802 48.5177 55.0447 48.3505 55.1637 48.2253C55.2826 48.1 55.4463 48.0269 55.6189 48.0219C55.7031 48.0146 55.7879 48.0243 55.8683 48.0503C55.9487 48.0762 56.0231 48.118 56.0872 48.1731C56.1512 48.2282 56.2036 48.2955 56.2413 48.3711C56.279 48.4467 56.3013 48.5291 56.3067 48.6134Z"
        fill="#263238" />
    <path
        d="M56.3069 46.8186C56.2251 46.9052 55.7201 46.5349 55.0082 46.5397C54.2964 46.5445 53.777 46.9004 53.7 46.8138C53.6231 46.7272 53.7433 46.6214 53.9694 46.4531C54.2765 46.238 54.6429 46.1237 55.0179 46.126C55.3884 46.1232 55.7504 46.2377 56.0519 46.4531C56.2539 46.5974 56.3069 46.7561 56.3069 46.8186Z"
        fill="#263238" />
    <path
        d="M58.8607 52.2336C59.2343 52.1119 59.6226 52.0407 60.015 52.022C60.1978 52.022 60.371 51.9643 60.3998 51.8392C60.415 51.6516 60.3731 51.4639 60.2796 51.3005C60.1064 50.8629 59.9237 50.4011 59.7361 49.9154C58.981 47.9482 58.4327 46.3273 58.5144 46.2985C58.5962 46.2696 59.2695 47.8424 60.0247 49.8095C60.2026 50.2905 60.3806 50.7715 60.5441 51.2043C60.6578 51.4233 60.6918 51.6749 60.6403 51.9162C60.6141 51.9801 60.5736 52.0372 60.5219 52.0831C60.4702 52.1289 60.4087 52.1623 60.3421 52.1807C60.2418 52.209 60.1384 52.2251 60.0343 52.2288C59.6447 52.2772 59.2507 52.2788 58.8607 52.2336Z"
        fill="#263238" />
    <path
        d="M56.7876 52.7538C56.903 52.7538 56.903 53.5185 57.5668 54.0668C58.2305 54.6151 59.0578 54.5478 59.0626 54.6295C59.0674 54.7113 58.8798 54.7834 58.5287 54.793C58.076 54.8014 57.6349 54.6498 57.283 54.365C56.9467 54.0896 56.7297 53.695 56.677 53.2636C56.6289 52.9413 56.7155 52.7489 56.7876 52.7538Z"
        fill="#263238" />
    <path
        d="M56.2397 43.903C56.1675 44.0954 55.4557 44.004 54.6236 44.1098C53.7915 44.2156 53.1086 44.4417 52.9979 44.2685C52.9498 44.1867 53.0653 44.004 53.3394 43.8164C53.7008 43.5816 54.1131 43.4365 54.5418 43.3932C54.969 43.3385 55.4029 43.388 55.8068 43.5374C56.1146 43.6577 56.2685 43.8116 56.2397 43.903Z"
        fill="#263238" />
    <path
        d="M62.9586 44.0986C62.8335 44.2573 62.3429 44.0986 61.7562 44.0986C61.1694 44.0986 60.6644 44.2092 60.5489 44.0409C60.5008 43.9591 60.5778 43.7956 60.7942 43.6417C61.08 43.4561 61.4156 43.3621 61.7562 43.3723C62.1021 43.3795 62.4376 43.4919 62.7181 43.6946C62.9441 43.8533 63.0403 44.0168 62.9586 44.0986Z"
        fill="#263238" />
    <path
        d="M48.722 49.4091C48.6451 49.3754 45.5332 48.4808 45.6486 51.6504C45.7641 54.82 48.9192 54.0552 48.9192 53.959C48.9192 53.8628 48.722 49.4091 48.722 49.4091Z"
        fill="#FFBE9D" />
    <path
        d="M47.9092 52.813C47.9092 52.813 47.8563 52.8515 47.7649 52.8996C47.6317 52.9507 47.4844 52.9507 47.3513 52.8996C47.1425 52.7757 46.9702 52.5987 46.8519 52.3867C46.7337 52.1747 46.6736 51.9351 46.6779 51.6923C46.6586 51.4217 46.7013 51.1503 46.803 50.8987C46.8281 50.7985 46.8778 50.706 46.9474 50.6296C47.0171 50.5533 47.1046 50.4953 47.2022 50.4611C47.2651 50.4424 47.3325 50.446 47.393 50.4715C47.4536 50.4969 47.5034 50.5425 47.534 50.6006C47.5821 50.6871 47.5629 50.7497 47.5773 50.7545C47.5917 50.7593 47.6446 50.7016 47.6158 50.5717C47.5949 50.4924 47.5474 50.4228 47.4811 50.3745C47.4368 50.3435 47.3868 50.3215 47.334 50.31C47.2811 50.2984 47.2265 50.2975 47.1733 50.3072C47.0449 50.3382 46.9264 50.4013 46.8288 50.4904C46.7313 50.5795 46.6579 50.6919 46.6154 50.817C46.4926 51.0968 46.4382 51.4018 46.4567 51.7068C46.4516 51.9892 46.5296 52.2669 46.6809 52.5055C46.8323 52.744 47.0503 52.9329 47.308 53.0487C47.3908 53.0661 47.4763 53.0661 47.5591 53.0487C47.6419 53.0313 47.7201 52.9969 47.7889 52.9477C47.9044 52.89 47.9188 52.8178 47.9092 52.813Z"
        fill="#EB996E" />
    <path
        d="M61.9678 39.3819C62.4487 39.0741 60.8519 37.4821 59.5629 36.977C57.6391 36.1979 54.6907 35.7939 52.9592 36.371C50.8718 37.0636 49.1596 38.1939 48.1832 40.161C47.2495 42.1665 46.8644 44.3839 47.0674 46.5868C47.0693 47.2644 47.2537 47.929 47.6013 48.5106C48.0822 49.1936 48.9432 49.5928 48.948 50.5644C48.9422 50.7413 48.972 50.9177 49.0356 51.0829C49.0992 51.2481 49.1954 51.3989 49.3183 51.5263C49.9243 52.1131 50.6073 51.5263 50.9103 50.9107C51.55 49.6361 51.5644 48.1547 51.5596 46.7311C51.6144 45.7176 51.5023 44.7021 51.2278 43.725C51.0498 43.2056 50.7805 42.715 50.6314 42.1859C50.5394 41.9254 50.5055 41.6479 50.5321 41.3729C50.5587 41.0979 50.6451 40.832 50.7853 40.5939C50.858 40.4963 50.9401 40.4061 51.0306 40.3246C51.4548 39.9198 51.979 39.6352 52.5496 39.4999C53.1201 39.3647 53.7163 39.3837 54.2771 39.555C56.0903 40.1081 59.1782 40.9162 59.9477 40.2765C60.4994 39.8756 60.9599 39.3626 61.2992 38.7711L61.9678 39.3819Z"
        fill="#263238" />
    <path
        d="M53.1082 35.9192C53.9614 35.5734 54.8748 35.4004 55.7954 35.4103C56.716 35.4202 57.6254 35.6128 58.471 35.9769C58.9235 36.1609 59.3343 36.4341 59.6789 36.7804C60.0235 37.1266 60.2948 37.5387 60.4766 37.9921C60.7796 38.9204 60.4333 40.094 59.5435 40.498L59.4858 40.5413C58.1535 41.0559 57.2686 40.9116 55.8978 40.5076C54.7483 40.1661 53.7094 39.512 52.531 39.1753C51.2972 38.8148 49.9835 38.8333 48.7603 39.2282C49.8938 37.7625 51.3934 36.6211 53.1082 35.9192Z"
        fill="#263238" />
    <path
        d="M49.126 38.7726C49.6004 38.5388 50.1176 38.4046 50.6458 38.3782C51.2186 38.3666 51.7884 38.4645 52.3244 38.6668C52.9822 38.927 53.6176 39.2407 54.2242 39.6047C54.8416 39.971 55.4846 40.2924 56.1481 40.5666C56.7018 40.789 57.2925 40.9049 57.8892 40.9081C58.2922 40.9115 58.6921 40.838 59.0676 40.6916C59.2078 40.6442 59.337 40.5689 59.4475 40.4704C58.9511 40.6562 58.4239 40.7459 57.894 40.7349C57.3213 40.707 56.758 40.5784 56.2299 40.355C55.5796 40.0756 54.9482 39.7542 54.3397 39.393C53.7291 39.0237 53.0849 38.7129 52.4158 38.4648C51.8514 38.2654 51.253 38.1804 50.6555 38.2147C50.2533 38.2386 49.8604 38.3451 49.5011 38.5273C49.3591 38.5796 49.2309 38.6635 49.126 38.7726Z"
        fill="#455A64" />
    <path
        d="M50.415 37.671C50.8675 37.5002 51.3456 37.4075 51.8291 37.3969C52.3499 37.4069 52.8653 37.5045 53.3537 37.6854C53.9546 37.9162 54.5287 38.2113 55.066 38.5656C55.648 38.9311 56.1963 39.3063 56.7253 39.6045C57.1808 39.8773 57.6646 40.0999 58.1682 40.2682C58.5156 40.3797 58.8763 40.4443 59.2408 40.4606C59.3745 40.4757 59.5098 40.4659 59.64 40.4318C59.1606 40.3612 58.6877 40.2519 58.2259 40.1047C57.7336 39.9195 57.26 39.6876 56.8119 39.4121C56.3021 39.1043 55.7634 38.7291 55.1718 38.3588C54.6249 37.9949 54.0374 37.6963 53.4211 37.469C52.9052 37.289 52.3609 37.2043 51.8147 37.2189C51.4475 37.2328 51.0858 37.3126 50.7469 37.4546C50.6225 37.5029 50.5094 37.5766 50.415 37.671Z"
        fill="#455A64" />
    <path
        d="M57.7832 36.3162C57.7832 36.3162 57.9467 36.5422 58.2353 36.8597C58.6226 37.2607 58.9543 37.7121 59.2213 38.2016C59.4796 38.6877 59.6041 39.2338 59.582 39.7839C59.558 40.2072 59.4473 40.4573 59.481 40.4717C59.5147 40.4862 59.6782 40.2553 59.7552 39.8032C59.8317 39.2133 59.7207 38.6142 59.4377 38.0909C59.1612 37.5804 58.7964 37.1228 58.3604 36.7394C58.0333 36.446 57.8073 36.2921 57.7832 36.3162Z"
        fill="#455A64" />
    <path
        d="M60.0538 37.7349C60.1254 38.2125 60.1384 38.697 60.0922 39.1778C59.9689 39.6517 59.7846 40.1076 59.5439 40.5341C59.5439 40.5341 59.7123 40.462 59.8902 40.2359C60.1137 39.9361 60.2652 39.5888 60.3327 39.2211C60.4014 38.8527 60.38 38.4731 60.2702 38.1148C60.1836 37.8647 60.0778 37.7204 60.0538 37.7349Z"
        fill="#455A64" />
    <path
        d="M43.7197 193.159L44.2007 203.572C44.2007 203.572 33.7733 207.53 33.6675 209.459L53.8681 209.3L53.8248 193.053L43.7197 193.159Z"
        fill="#455A64" />
    <path
        d="M50.4199 202.65C50.6229 202.705 50.7975 202.835 50.9083 203.013C51.0191 203.192 51.0577 203.406 51.0163 203.612C50.9671 203.81 50.8435 203.98 50.6715 204.089C50.4994 204.197 50.2921 204.235 50.0928 204.194C49.8866 204.133 49.7105 203.997 49.5986 203.813C49.4867 203.629 49.4469 203.41 49.4868 203.199C49.5636 203.002 49.7134 202.842 49.905 202.752C50.0967 202.662 50.3156 202.65 50.5161 202.718"
        fill="#E0E0E0" />
    <path
        d="M53.8585 209.278L53.7911 207.643L34.437 208.393C34.437 208.393 33.5376 208.792 33.6434 209.422L53.8585 209.278Z"
        fill="white" />
    <path
        d="M43.8498 203.461C43.8498 203.557 44.3308 203.601 44.8358 203.913C45.3408 204.226 45.5861 204.639 45.6727 204.601C45.7593 204.562 45.615 203.99 45.0138 203.639C44.4126 203.288 43.8258 203.37 43.8498 203.461Z"
        fill="#263238" />
    <path
        d="M41.7334 204.367C41.7334 204.463 42.1422 204.632 42.4789 205.045C42.8156 205.459 42.9166 205.901 43.0176 205.897C43.1186 205.892 43.1715 205.329 42.7434 204.824C42.3154 204.319 41.7382 204.276 41.7334 204.367Z"
        fill="#263238" />
    <path
        d="M40.5503 206.885C40.6416 206.885 40.7715 206.404 40.5166 205.87C40.2617 205.337 39.7951 205.125 39.7519 205.207C39.7086 205.288 40.002 205.572 40.204 206.02C40.406 206.467 40.4348 206.876 40.5503 206.885Z"
        fill="#263238" />
    <path
        d="M44.0084 201.079C44.0516 201.171 44.4893 201.031 45.0617 201.079C45.634 201.127 46.0525 201.286 46.1054 201.2C46.1583 201.113 45.735 200.767 45.0761 200.719C44.4172 200.671 43.9603 201.002 44.0084 201.079Z"
        fill="#263238" />
    <path
        d="M74.2518 193.159L73.7997 203.572C73.7997 203.572 84.2271 207.53 84.3281 209.459L64.1274 209.3L64.1755 193.053L74.2518 193.159Z"
        fill="#455A64" />
    <path
        d="M67.5565 202.65C67.3611 202.708 67.1936 202.835 67.0863 203.008C66.9789 203.181 66.9391 203.388 66.9745 203.588C67.0259 203.785 67.1506 203.955 67.3231 204.064C67.4957 204.172 67.7031 204.21 67.9028 204.17C68.109 204.109 68.2851 203.973 68.397 203.789C68.5089 203.605 68.5488 203.386 68.5088 203.175C68.4321 202.977 68.2823 202.817 68.0906 202.728C67.8989 202.638 67.6801 202.626 67.4796 202.694"
        fill="#E0E0E0" />
    <path
        d="M64.1128 209.278L64.1849 207.643L83.5391 208.393C83.5391 208.393 84.4337 208.792 84.3278 209.422L64.1128 209.278Z"
        fill="white" />
    <path
        d="M74.1265 203.461C74.1265 203.557 73.6455 203.601 73.1405 203.913C72.6355 204.226 72.3902 204.639 72.2988 204.601C72.2074 204.562 72.3613 203.99 72.9577 203.639C73.5541 203.288 74.1505 203.37 74.1265 203.461Z"
        fill="#263238" />
    <path
        d="M76.2431 204.367C76.2431 204.463 75.8343 204.632 75.4976 205.045C75.161 205.459 75.0551 205.901 74.959 205.897C74.8628 205.892 74.8002 205.329 75.2331 204.824C75.666 204.319 76.2383 204.276 76.2431 204.367Z"
        fill="#263238" />
    <path
        d="M77.426 206.885C77.3346 206.885 77.1999 206.404 77.4597 205.87C77.7194 205.337 78.1811 205.125 78.2196 205.207C78.2581 205.288 77.9743 205.572 77.7675 206.02C77.5607 206.467 77.5222 206.876 77.426 206.885Z"
        fill="#263238" />
    <path
        d="M39.4058 114.684C39.4058 115.319 43.4988 200.979 43.4988 200.979L54.1282 201.08L57.5815 128.228C57.5815 128.228 62.0256 166.508 62.0256 167.355C62.0256 168.201 63.2858 201.503 63.2858 201.503H74.5019V122.096L67.2874 110.466L39.4058 114.684Z"
        fill="#263238" />
    <path
        d="M68.7782 201.511C68.7707 201.447 68.7707 201.382 68.7782 201.318C68.7782 201.179 68.7782 200.991 68.7782 200.751C68.7782 200.236 68.7782 199.505 68.7782 198.567C68.7493 196.667 68.6916 193.921 68.5954 190.53C68.3886 183.744 68.0038 174.379 67.5277 164.034C67.0515 153.688 66.5657 144.314 66.2387 137.537C66.0751 134.17 65.9405 131.419 65.8491 129.51C65.8106 128.572 65.7818 127.836 65.7577 127.326C65.7577 127.086 65.7577 126.898 65.7577 126.759C65.7513 126.693 65.7513 126.627 65.7577 126.562C65.7726 126.625 65.7807 126.689 65.7818 126.754C65.7818 126.893 65.7818 127.081 65.825 127.321C65.8539 127.836 65.902 128.567 65.9597 129.505C66.0703 131.429 66.2291 134.151 66.4407 137.528C66.8207 144.304 67.316 153.669 67.8018 164.019C68.2876 174.37 68.6387 183.739 68.7974 190.525C68.8744 193.921 68.9032 196.667 68.9032 198.562C68.9032 199.524 68.9032 200.236 68.9032 200.751C68.9032 200.991 68.9032 201.179 68.9032 201.318C68.8694 201.387 68.8274 201.452 68.7782 201.511Z"
        fill="#455A64" />
    <path
        d="M49.1932 126.562C49.2605 126.562 49.2557 143.232 49.1932 163.798C49.1307 184.364 49.0008 201.039 48.9335 201.039C48.8661 201.039 48.871 184.369 48.9335 163.798C48.996 143.227 49.1259 126.557 49.1932 126.562Z"
        fill="#455A64" />
    <path
        d="M58.4329 124.139C58.2825 124.234 58.121 124.31 57.952 124.365C57.6201 124.49 57.1343 124.668 56.5379 124.88L56.4273 124.918V124.798C56.36 123.745 56.2782 122.335 56.2061 120.792C56.1243 119.118 56.0666 117.603 56.0377 116.506C56.0377 115.958 56.0377 115.511 56.0377 115.208C56.0154 115.048 56.0154 114.886 56.0377 114.727C56.0794 114.884 56.1036 115.045 56.1099 115.208C56.1387 115.511 56.1724 115.953 56.2109 116.501C56.283 117.598 56.3696 119.113 56.4465 120.787C56.5235 122.331 56.5764 123.74 56.6053 124.793L56.485 124.711C57.091 124.519 57.5816 124.37 57.9279 124.269C58.0904 124.206 58.26 124.162 58.4329 124.139Z"
        fill="#455A64" />
    <path
        d="M57.4854 115.047C57.4854 115.047 57.5238 114.98 57.6489 114.932C57.8332 114.878 58.0312 114.897 58.202 114.985C58.3379 115.047 58.4511 115.149 58.526 115.279C58.601 115.408 58.634 115.557 58.6204 115.706C58.6053 115.888 58.533 116.062 58.4138 116.201C58.2947 116.34 58.1347 116.437 57.9567 116.48C57.776 116.509 57.5909 116.482 57.4259 116.403C57.2609 116.324 57.1239 116.197 57.0332 116.038C56.9756 115.933 56.9407 115.817 56.931 115.698C56.9213 115.579 56.937 115.459 56.977 115.346C57.0169 115.234 57.0804 115.131 57.163 115.044C57.2457 114.958 57.3457 114.89 57.4565 114.845C57.5816 114.797 57.6537 114.807 57.6585 114.845C57.6633 114.884 57.3747 114.946 57.2016 115.326C57.1507 115.425 57.1265 115.536 57.1316 115.647C57.1367 115.759 57.1707 115.867 57.2304 115.961C57.3014 116.073 57.4031 116.162 57.5234 116.217C57.6437 116.273 57.7775 116.292 57.9086 116.274C58.0348 116.24 58.1481 116.169 58.2338 116.071C58.3196 115.972 58.3738 115.85 58.3896 115.72C58.402 115.613 58.3827 115.504 58.334 115.408C58.2853 115.311 58.2093 115.231 58.1154 115.177C57.9265 115.063 57.7041 115.017 57.4854 115.047Z"
        fill="#455A64" />
    <path
        d="M63.2185 115.932C63.1512 115.932 63.0598 115.557 63.0117 115.085C62.9636 114.614 62.978 114.22 63.0454 114.21C63.1127 114.201 63.2041 114.585 63.257 115.057C63.3099 115.528 63.2907 115.922 63.2185 115.932Z"
        fill="#455A64" />
    <path
        d="M64.0891 115.846C64.017 115.846 63.9641 115.442 63.9593 114.942C63.9545 114.442 64.0122 114.038 64.0795 114.038C64.1468 114.038 64.2046 114.442 64.2046 114.942C64.2046 115.442 64.1565 115.846 64.0891 115.846Z"
        fill="#455A64" />
    <path
        d="M49.0248 116.441C48.7868 115.782 48.7093 115.076 48.7988 114.382C49.0368 115.041 49.1143 115.746 49.0248 116.441Z"
        fill="#455A64" />
    <path
        d="M50.0544 116.537C49.8349 116.226 49.728 115.849 49.7514 115.469C49.6952 115.093 49.7717 114.708 49.9678 114.382C50.0146 114.739 50.0243 115.1 49.9967 115.459C50.0548 115.815 50.0742 116.177 50.0544 116.537Z"
        fill="#455A64" />
    <path
        d="M36.8853 134.264C36.8853 134.264 36.5583 129.027 32.2632 129.57C27.9682 130.114 27.8528 133.976 27.8528 133.976L26.0059 133.649C26.0059 133.649 26.6888 128.175 32.7394 128.329C38.79 128.483 38.6697 134.635 38.6697 134.635L36.8853 134.264Z"
        fill="#455A64" />
    <g opacity="0.3">
        <path
            d="M36.8853 134.264C36.8853 134.264 36.5583 129.027 32.2632 129.57C27.9682 130.114 27.8528 133.976 27.8528 133.976L26.0059 133.649C26.0059 133.649 26.6888 128.175 32.7394 128.329C38.79 128.483 38.6697 134.635 38.6697 134.635L36.8853 134.264Z"
            fill="black" />
    </g>
    <path d="M16.7039 132.716L15.7612 157.447L48.4718 158.048L49.0297 133.61L16.7039 132.716Z"
        fill="#455A64" />
    <path
        d="M49.03 133.61C49.03 133.61 49.03 133.648 48.9722 133.711L48.775 133.985C48.5827 134.245 48.3229 134.591 48.0007 135.033C47.3177 135.938 46.3462 137.255 45.0764 138.838C43.6208 140.721 41.9663 142.441 40.1417 143.97C39.0525 144.856 37.8588 145.605 36.5873 146.201C35.1999 146.855 33.6987 147.232 32.1672 147.312C30.6416 147.359 29.1239 147.075 27.7183 146.48C26.4147 145.93 25.2018 145.186 24.1207 144.273C22.3174 142.706 20.802 140.835 19.6429 138.746C18.8501 137.355 18.1277 135.925 17.4785 134.461L16.9543 133.268L16.8244 132.956C16.7955 132.883 16.7859 132.845 16.7907 132.845C16.8123 132.877 16.8316 132.911 16.8484 132.946L17.0024 133.249L17.5699 134.423C18.0509 135.437 18.7675 136.919 19.7968 138.655C20.9668 140.709 22.4796 142.547 24.2698 144.09C25.337 144.983 26.5318 145.71 27.8145 146.25C29.1833 146.824 30.6592 147.1 32.1432 147.058C33.6322 146.984 35.0926 146.621 36.443 145.99C37.708 145.41 38.8968 144.676 39.983 143.806C41.8001 142.295 43.454 140.597 44.9177 138.742C46.2067 137.178 47.2023 135.88 47.9045 134.99L48.7173 133.975L48.9386 133.711C48.9657 133.674 48.9963 133.64 49.03 133.61Z"
        fill="#263238" />
    <path
        d="M43.9939 157.963C43.9218 157.963 44.9174 152.624 46.2112 146.068C47.505 139.513 48.616 134.208 48.6785 134.222C48.7411 134.237 47.7551 139.561 46.4613 146.117C45.1675 152.672 44.0613 157.977 43.9939 157.963Z"
        fill="#263238" />
    <path
        d="M48.8901 133.792C48.8984 133.873 48.8984 133.955 48.8901 134.037C48.8901 134.229 48.8901 134.465 48.8901 134.749C48.8661 135.365 48.8084 136.249 48.7314 137.351C48.5727 139.544 48.2937 142.574 47.9523 145.912C47.6108 149.25 47.3222 152.242 47.1009 154.469C46.9999 155.536 46.9182 156.392 46.8605 157.061L46.7883 157.768C46.7855 157.851 46.7709 157.934 46.745 158.013C46.7315 157.93 46.7315 157.846 46.745 157.763C46.745 157.571 46.745 157.34 46.745 157.056C46.745 156.44 46.8268 155.551 46.9037 154.454C47.0625 152.256 47.3414 149.231 47.6829 145.888C48.0244 142.545 48.313 139.559 48.5342 137.336C48.6352 136.269 48.717 135.413 48.7747 134.739C48.8084 134.46 48.8324 134.225 48.8517 134.037C48.8522 133.954 48.8652 133.871 48.8901 133.792Z"
        fill="#263238" />
    <path d="M31.7555 146.385L30.7793 146.401L30.8104 148.219L31.7866 148.202L31.7555 146.385Z"
        fill="#263238" />
    <path
        d="M49.0297 133.638C48.921 133.65 48.8114 133.65 48.7027 133.638H47.7407L44.2826 133.59L32.8885 133.325L21.4944 132.984L18.041 132.849L17.0791 132.801C16.9708 132.802 16.8627 132.79 16.7568 132.767C16.8655 132.756 16.9752 132.756 17.0839 132.767H18.0458L21.4992 132.82L32.8981 133.085L44.2922 133.426L47.7455 133.561L48.7075 133.609C48.8156 133.607 48.9237 133.617 49.0297 133.638Z"
        fill="#263238" />
    <path
        d="M31.1043 119.891C31.1043 119.891 28.9592 125.831 28.8919 126.774C28.8245 127.716 27.8722 129.222 28.9544 129.573C28.9544 129.573 28.7716 130.304 29.9163 130.568C29.9163 130.568 29.9163 131.814 31.4266 131.679C31.4266 131.679 32.4606 132.694 33.312 132.16C33.312 132.16 34.6298 132.814 35.1685 131.853C35.5856 131.05 35.9487 130.221 36.2555 129.371L37.1116 130.044C37.4182 129.356 37.5071 128.591 37.3665 127.851C37.1164 126.697 35.6543 125.234 35.9813 123.792C36.0657 123.271 36.2127 122.762 36.419 122.276L31.1043 119.891Z"
        fill="#FFBE9D" />
    <g opacity="0.3">
        <path
            d="M42.4022 141.747C41.1883 144.605 39.2665 147.106 36.8182 149.015C35.0915 150.41 32.9416 151.521 30.7339 151.29C28.8101 151.088 27.117 149.895 25.7126 148.553C22.867 145.843 20.7894 142.428 19.6909 138.655C19.6909 138.655 24.9816 147.389 31.2774 147.269C36.9528 147.134 42.4022 141.747 42.4022 141.747Z"
            fill="black" />
    </g>
    <path
        d="M64.647 64.1152C64.647 64.1152 73.2611 65.8948 74.324 67.1982C75.1753 68.2371 79.6964 78.7751 79.6964 78.7751L83.3422 85.2393C84.1091 85.8614 84.672 86.699 84.9582 87.6441C85.4126 89.7635 85.632 91.9265 85.6123 94.0939C85.6123 94.0939 84.963 98.3457 82.3033 98.5236C81.0504 98.5743 79.8 98.3759 78.6244 97.94C77.4487 97.5041 76.3712 96.8393 75.4543 95.9841C73.9008 94.5941 70.1011 85.172 70.2358 84.691L64.647 64.1152Z"
        fill="#EB6440" />
    <path
        d="M48.8666 62.2077L49.2417 61.7748L53.1664 66.2189L56.3168 69.6675L60.2655 61.3179L61.4102 62.1596C61.4102 62.1596 65.662 94.3411 65.5898 94.7162C65.5177 95.0914 67.2347 112.656 67.2347 112.656C67.2347 112.656 58.1877 114.455 55.5665 113.618C52.9452 112.781 47.1159 114.099 47.1544 113.83C47.1928 113.561 44.6533 102.806 44.6533 102.806L45.3988 73.3132L48.8666 62.2077Z"
        fill="#FAFAFA" />
    <path
        d="M65.7 108.694C65.4781 108.663 65.2592 108.613 65.0459 108.544C64.6323 108.434 64.0359 108.256 63.3048 108.006C61.4052 107.361 59.5563 106.574 57.7737 105.654C55.9916 104.732 54.2795 103.681 52.6514 102.508C52.0262 102.056 51.5308 101.676 51.2085 101.402C51.0342 101.269 50.8731 101.119 50.7275 100.955C50.9231 101.063 51.1097 101.187 51.2855 101.325C51.6318 101.575 52.1416 101.936 52.7716 102.369C54.4241 103.49 56.1409 104.513 57.9132 105.433C59.6885 106.345 61.518 107.148 63.3914 107.837C64.108 108.102 64.6948 108.318 65.0988 108.448C65.3062 108.512 65.5074 108.594 65.7 108.694Z"
        fill="#263238" />
    <path
        d="M56.3068 69.667C56.3194 69.7885 56.3194 69.911 56.3068 70.0325C56.3068 70.2923 56.3068 70.6434 56.3068 71.0762C56.3068 72.0141 56.3068 73.3223 56.2779 74.924C56.2779 78.1753 56.2539 82.6675 56.3164 87.6263C56.3789 92.5851 56.4992 97.0821 56.5954 100.329C56.6435 101.935 56.6819 103.243 56.7108 104.176C56.7108 104.609 56.7108 104.96 56.7108 105.22C56.7244 105.342 56.7244 105.464 56.7108 105.586C56.6879 105.467 56.6751 105.346 56.6723 105.225C56.6723 104.96 56.629 104.614 56.605 104.176C56.5473 103.272 56.4847 101.954 56.4126 100.329C56.2731 97.0773 56.124 92.5851 56.0567 87.6215C55.9893 82.6579 56.0278 78.1657 56.0951 74.9143C56.1288 73.2887 56.1625 71.9708 56.201 71.0666C56.201 70.6289 56.2346 70.2826 56.2442 70.0181C56.2544 69.8994 56.2753 69.7819 56.3068 69.667Z"
        fill="#263238" />
    <path
        d="M58.3126 112.465C58.1569 111.35 58.0814 110.225 58.0866 109.098C58.0056 107.978 58.0056 106.852 58.0866 105.732C58.2423 106.847 58.3178 107.972 58.3126 109.098C58.3936 110.219 58.3936 111.344 58.3126 112.465Z"
        fill="#263238" />
    <path
        d="M48.6355 62.6091L45.7257 65.7931C45.7257 65.7931 42.0559 66.6877 37.91 68.0681C37.0769 68.4131 36.3329 68.9424 35.734 69.6164C35.135 70.2903 34.6966 71.0913 34.4518 71.9591C34.1392 73.0124 39.425 98.5326 39.425 98.5326L38.5112 105.882L35.6927 127.078C35.6927 127.078 40.5793 128.819 43.7152 128.944C45.4804 129.016 45.7738 122.105 46.5193 117.314C47.2359 112.687 49.0925 97.8736 49.0925 93.7469C49.0925 89.6202 48.2315 69.7323 48.2315 69.3042C48.2315 68.8761 48.6355 62.6091 48.6355 62.6091Z"
        fill="#EB6440" />
    <path
        d="M48.5248 99.8822C48.4755 99.7591 48.4369 99.632 48.4094 99.5023C48.3373 99.2281 48.2459 98.8674 48.1256 98.4105C47.8852 97.4485 47.5437 96.0585 47.13 94.3751C46.3076 90.941 45.2062 86.2372 43.9364 81.0427C43.5901 79.5662 43.2486 78.1329 42.9264 76.7573V76.7188V76.6852L45.3312 70.7404L45.4226 70.8799H43.0611H42.9023L42.9841 70.7452C43.946 69.1051 44.7396 67.7729 45.3024 66.8253L45.9421 65.7672C46.0112 65.64 46.0917 65.5193 46.1825 65.4065C46.1248 65.5403 46.059 65.6704 45.9853 65.7961L45.3841 66.8783C44.8455 67.8402 44.0807 69.1821 43.1428 70.8366L43.0611 70.7019H45.4226H45.5765L45.5188 70.8462C44.8214 72.6258 44.0278 74.6363 43.1765 76.8054V76.7333C43.5036 78.104 43.8402 79.5373 44.1913 81.0139L47.3128 94.3607C47.6976 96.0537 48.0102 97.4341 48.2315 98.4153C48.3325 98.8962 48.4142 99.2473 48.4719 99.5215C48.4978 99.6404 48.5155 99.7609 48.5248 99.8822Z"
        fill="#263238" />
    <path
        d="M61.3906 62.0066L63.2568 63.7044L73.9583 66.7345L74.1026 83.8281L72.5058 100.965L75.7812 126.548C72.0681 128.592 66.5273 128.154 66.5273 128.154L63.983 113.206C63.5838 110.416 62.1938 91.6149 62.1938 91.6149L61.3906 62.0066Z"
        fill="#EB6440" />
    <path
        d="M65.2384 96.7176C65.2391 96.59 65.252 96.4628 65.2769 96.3377C65.3202 96.0731 65.3731 95.7124 65.4404 95.2651C65.5895 94.3032 65.7963 92.9709 66.0513 91.326C66.5322 87.9977 67.2008 83.39 67.7731 78.287C68.0569 75.733 68.2974 73.2993 68.4994 71.0725C68.5956 69.9662 68.6821 68.9129 68.7687 67.9221C68.8072 67.4412 68.8842 66.9313 68.6148 66.6139C68.4584 66.4813 68.2706 66.391 68.0694 66.3514C67.8683 66.3118 67.6603 66.3244 67.4653 66.3878C67.0701 66.4837 66.6647 66.5306 66.2581 66.5273C65.8897 66.4973 65.5345 66.3767 65.224 66.1762C64.7446 65.8456 64.3331 65.4259 64.012 64.9401C63.7426 64.5506 63.531 64.2379 63.4348 64.0215C63.3639 63.9158 63.3042 63.8029 63.2568 63.6848C63.3363 63.7838 63.4086 63.8882 63.4733 63.9974C63.6128 64.1994 63.8099 64.5073 64.0889 64.8824C64.4147 65.3454 64.8242 65.7434 65.2961 66.056C65.5867 66.2366 65.9168 66.3439 66.2581 66.3686C66.6525 66.3662 67.0452 66.3145 67.4268 66.2147C67.6468 66.1708 67.8716 66.1563 68.0954 66.1714C68.3465 66.1876 68.5814 66.3015 68.7495 66.4889C68.912 66.6902 68.9988 66.942 68.9948 67.2007C68.9996 67.4479 68.9899 67.6953 68.9659 67.9414C68.8842 68.9274 68.8024 69.9855 68.7158 71.0917C68.5282 73.3138 68.2926 75.7523 68.0088 78.3062C67.4364 83.4141 66.7583 88.0217 66.2148 91.3452C65.9358 93.0046 65.7001 94.3465 65.527 95.2747C65.4404 95.7172 65.3683 96.0731 65.3154 96.3377C65.3021 96.4665 65.2763 96.5938 65.2384 96.7176Z"
        fill="#263238" />
    <path
        d="M72.4815 78.7344C71.9054 78.8712 71.3123 78.923 70.7212 78.8883C70.1312 78.9396 69.537 78.9073 68.9561 78.7922C69.5348 78.6619 70.1288 78.6118 70.7212 78.6431C71.3094 78.5913 71.9019 78.622 72.4815 78.7344Z"
        fill="#263238" />
    <g opacity="0.3">
        <path
            d="M74.3909 87.6672C75.1103 86.7104 76.15 86.0445 77.32 85.7914C77.6038 85.7337 77.9789 85.7433 78.0895 86.0078C78.1172 86.1179 78.1133 86.2335 78.0785 86.3415C78.0436 86.4495 77.9791 86.5455 77.8923 86.6187L77.5316 87.0563C76.409 88.1209 75.7001 89.549 75.5308 91.0868C75.3115 90.3784 75.3192 89.6192 75.553 88.9154C75.7867 88.2116 76.2347 87.5986 76.8342 87.1621C75.6895 87.393 74.819 88.2924 74.0254 89.1485C73.956 88.8909 73.9532 88.6198 74.0171 88.3607C74.0811 88.1016 74.2097 87.863 74.3909 87.6672Z"
            fill="black" />
    </g>
    <path
        d="M73.5833 89.5735C73.5833 89.5735 73.718 89.3618 73.9633 89.0492C74.279 88.6366 74.6514 88.2707 75.0695 87.9622C75.4891 87.6558 75.9487 87.4082 76.4354 87.2263C76.8106 87.0917 77.0511 87.0388 77.0511 87.0195C77.0511 87.0003 76.9837 87.0195 76.8731 87.0195C76.7107 87.0486 76.5501 87.0872 76.3921 87.135C75.3787 87.4651 74.4984 88.1126 73.8815 88.9819C73.7903 89.1132 73.7068 89.2497 73.6314 89.3907C73.6218 89.5109 73.5737 89.5687 73.5833 89.5735Z"
        fill="#263238" />
    <path
        d="M75.6753 92.1251C75.6753 92.1251 75.6753 91.7884 75.6753 91.2497C75.6941 90.9363 75.7343 90.6246 75.7955 90.3167C75.878 89.939 75.9873 89.5677 76.1226 89.2056C76.2695 88.8484 76.4432 88.5027 76.642 88.1715C76.8077 87.9033 76.9909 87.6462 77.1903 87.402C77.5318 86.9884 77.7867 86.7719 77.7771 86.7527C77.7092 86.7951 77.6462 86.8451 77.5895 86.9018C77.5318 86.9499 77.4597 87.0124 77.3827 87.0894C77.3058 87.1663 77.2192 87.2481 77.1326 87.3539C76.9207 87.5935 76.7278 87.8492 76.5555 88.1186C76.3505 88.4529 76.1735 88.8036 76.0264 89.1671C75.8843 89.5335 75.7749 89.9118 75.6993 90.2974C75.6406 90.6149 75.6069 90.9366 75.5983 91.2594C75.5909 91.3811 75.5909 91.5032 75.5983 91.6249C75.5924 91.7178 75.5924 91.811 75.5983 91.9038C75.6149 91.9805 75.6407 92.0548 75.6753 92.1251Z"
        fill="#263238" />
    <path
        d="M73.9488 73.6694C73.9624 73.7571 73.9624 73.8463 73.9488 73.934C73.9488 74.1408 73.9488 74.3909 73.9488 74.6987C73.92 75.4009 73.8815 76.3532 73.8334 77.5124C73.7084 79.9172 73.54 83.1781 73.3525 86.7854C73.1649 90.3927 72.9388 93.6488 72.7945 96.0536C72.7128 97.208 72.6502 98.1603 72.5973 98.8577C72.5973 99.1655 72.5492 99.4204 72.5348 99.6224C72.5323 99.7121 72.5177 99.8011 72.4915 99.8869C72.4846 99.7973 72.4846 99.7073 72.4915 99.6176C72.4915 99.4156 72.4915 99.1366 72.4915 98.8529C72.5204 98.1507 72.5637 97.1983 72.6118 96.0392C72.7368 93.6344 72.9051 90.3734 73.0927 86.7662C73.2803 83.1589 73.5016 79.9076 73.6458 77.5027C73.7276 76.3436 73.7949 75.3961 73.843 74.6939C73.8719 74.3861 73.8911 74.136 73.9104 73.934C73.9132 73.8446 73.9261 73.7559 73.9488 73.6694Z"
        fill="#263238" />
    <path
        d="M37.2508 68.6772C37.2508 68.6772 34.8172 69.5767 34.1534 73.2849C33.4897 76.9932 29.3438 122.372 29.3438 122.372L36.3562 122.776L39.8048 98.0788L37.2508 68.6772Z"
        fill="#EB6440" />
    <path
        d="M39.8047 98.6306C39.8768 98.6306 39.1073 104.402 38.0876 111.516C37.068 118.629 36.1637 124.372 36.1204 124.358C36.0772 124.343 36.8227 118.586 37.8375 111.477C38.8523 104.369 39.7373 98.621 39.8047 98.6306Z"
        fill="#263238" />
    <path
        d="M37.9001 76.9832C37.9722 76.9832 38.4532 81.7928 38.9774 87.7809C39.5017 93.7689 39.8769 98.5978 39.8047 98.6074C39.7326 98.617 39.2564 93.7978 38.7273 87.8049C38.1983 81.8121 37.8327 76.988 37.9001 76.9832Z"
        fill="#263238" />
    <path
        d="M56.307 69.9086C56.1208 69.7844 55.9468 69.6427 55.7875 69.4854L54.436 68.2637L54.5851 68.2253C54.1522 69.4613 53.551 71.1111 52.8825 72.9243L52.8055 73.1359L52.666 72.9628L52.5699 72.8377C51.437 71.4279 50.4688 69.8933 49.6841 68.2637C49.381 67.6385 49.1646 67.119 49.0299 66.7583C48.9478 66.5733 48.8865 66.3797 48.8472 66.1812C48.9548 66.3519 49.0466 66.5323 49.1213 66.7198C49.2848 67.0709 49.5205 67.5711 49.8428 68.1627C50.6707 69.7559 51.6534 71.2638 52.7767 72.6646L52.8729 72.7848L52.6564 72.8185C53.3298 71.0053 53.9502 69.3652 54.4216 68.1435L54.4745 68.0136L54.5707 68.1098L55.8645 69.3892C56.0311 69.5451 56.1795 69.7194 56.307 69.9086Z"
        fill="#263238" />
    <path
        d="M61.4677 64.9761C61.4909 65.1645 61.4909 65.3552 61.4677 65.5436C61.4292 65.9573 61.3811 66.4719 61.3234 67.0779C61.1887 68.3765 60.9819 70.1657 60.7462 72.1425V72.2964L60.7029 72.6186L60.5153 72.3493C59.3899 70.7333 58.3895 69.2663 57.6824 68.213H57.8171L56.7638 69.2663C56.6407 69.4022 56.5037 69.5247 56.355 69.6318C56.4503 69.4753 56.565 69.3315 56.6965 69.2038L57.6921 68.0927L57.7642 68.0158L57.8267 68.1024C58.5722 69.1316 59.5967 70.5793 60.7125 72.2002L60.4865 72.2531V72.104C60.727 70.1272 60.9674 68.3428 61.1358 67.049C61.2272 66.443 61.2993 65.9332 61.3618 65.5196C61.3771 65.3351 61.4126 65.1528 61.4677 64.9761Z"
        fill="#263238" />
    <path
        d="M35.0289 118.93C35.0289 118.93 35.1203 118.901 35.279 118.93C35.506 118.997 35.6986 119.149 35.8177 119.353C35.9 119.492 35.9554 119.646 35.9812 119.805C36.0108 119.999 35.9806 120.197 35.8946 120.373C35.798 120.573 35.6471 120.742 35.4592 120.86C35.2712 120.978 35.0538 121.041 34.8317 121.041C34.6104 121.008 34.4051 120.906 34.2447 120.75C34.0843 120.594 33.9767 120.391 33.9371 120.171C33.9004 119.999 33.9076 119.821 33.9581 119.653C34.0085 119.485 34.1006 119.332 34.2257 119.209C34.3861 119.039 34.6002 118.931 34.8317 118.901C34.9952 118.901 35.0818 118.901 35.077 118.935C34.7998 118.984 34.5463 119.122 34.3555 119.329C34.2604 119.438 34.1928 119.569 34.1585 119.709C34.1242 119.85 34.1241 119.997 34.1583 120.137C34.1956 120.305 34.2817 120.458 34.4058 120.577C34.5299 120.696 34.6865 120.776 34.8557 120.806C35.0288 120.801 35.1974 120.75 35.3438 120.658C35.4903 120.566 35.6091 120.436 35.6878 120.281C35.7536 120.154 35.788 120.012 35.788 119.868C35.788 119.724 35.7536 119.582 35.6878 119.454C35.4185 118.978 35.0097 118.968 35.0289 118.93Z"
        fill="#263238" />
    <path
        d="M73.4438 109.992C73.4438 109.992 67.0228 110.473 67.3018 110.372L69.1487 113.855L75.1319 113.431L73.4438 109.992Z"
        fill="#EB6440" />
    <path
        d="M73.4436 109.992C73.4958 110.062 73.5409 110.136 73.5783 110.214L73.9342 110.882C74.2612 111.517 74.6989 112.364 75.2232 113.388L75.2857 113.518H75.1414L69.1582 113.97H69.0764L69.0379 113.898L68.9706 113.773C68.3454 112.58 67.7441 111.45 67.1958 110.406L67.3353 110.464C67.3353 110.464 67.3834 110.464 67.369 110.339C67.3546 110.214 67.292 110.276 67.3017 110.271H67.5806H67.9077L68.5474 110.238L69.7305 110.175L71.6833 110.069L72.953 110.012C73.1051 110 73.2578 110 73.4099 110.012C73.2625 110.053 73.1108 110.077 72.9578 110.084L71.6929 110.204L69.745 110.363L68.557 110.449L67.9173 110.493H67.5902H67.4171H67.2199C67.2199 110.493 67.2199 110.517 67.1477 110.416C67.0756 110.315 67.1958 110.291 67.1814 110.291H67.2151L67.3065 110.262L67.3546 110.348L69.1438 113.715L69.2111 113.845L69.0909 113.778L75.0789 113.378L74.9971 113.523L73.8188 111.017L73.4965 110.31C73.4662 110.207 73.4484 110.1 73.4436 109.992Z"
        fill="#263238" />
    <path d="M43.989 110.815L38.1693 109.992L36.938 113.855L42.8827 114.716L43.989 110.815Z"
        fill="#EB6440" />
    <path
        d="M43.9892 110.811C43.9822 110.899 43.9644 110.986 43.9363 111.07L43.7439 111.85C43.5708 112.528 43.3159 113.523 42.9792 114.735V114.817H42.8878L37.0056 113.99H36.9382H36.7939L36.8372 113.846C37.2797 112.47 37.703 111.167 38.0829 109.998L38.1118 109.906H38.2032C39.9491 110.161 41.416 110.387 42.4357 110.561L43.6141 110.758C43.7479 110.772 43.8799 110.8 44.0085 110.84C44.0085 110.84 43.8401 110.84 43.5275 110.801L42.3154 110.662C41.2862 110.537 39.8433 110.363 38.1503 110.133L38.2753 110.056C37.9002 111.229 37.4865 112.537 37.0537 113.903L36.9527 113.74H37.02L42.8974 114.601L42.7868 114.673C43.1283 113.514 43.4265 112.557 43.6381 111.878C43.7343 111.566 43.8161 111.306 43.8882 111.09C43.9144 110.994 43.9482 110.901 43.9892 110.811Z"
        fill="#263238" />
    <path
        d="M84.4868 71.8004C84.5955 71.8579 84.6913 71.937 84.7682 72.033C84.8452 72.129 84.9016 72.2397 84.9341 72.3583C84.9762 72.5429 84.9541 72.7363 84.8715 72.9066L82.2214 78.8081L80.4947 82.2807L75.3965 81.0494L78.6911 72.8249C78.6911 72.8249 78.9604 71.6898 79.9993 71.6898H84.0491C84.2022 71.6875 84.3531 71.7257 84.4868 71.8004Z"
        fill="#455A64" />
    <path
        d="M83.3321 58.0202H83.9959C84.0444 58.0192 84.0918 58.0053 84.1332 57.9799C84.1746 57.9546 84.2086 57.9187 84.2315 57.8759C84.2533 57.8354 84.2641 57.79 84.2629 57.744C84.2617 57.6981 84.2486 57.6533 84.2248 57.6139C84.201 57.5746 84.1674 57.5422 84.1272 57.5198C84.0871 57.4974 84.0418 57.4859 83.9959 57.4863H83.3321C83.2815 57.4863 83.232 57.5008 83.1894 57.5281C83.1467 57.5554 83.1128 57.5943 83.0917 57.6403C83.0733 57.6809 83.0654 57.7254 83.0685 57.7699C83.0717 57.8143 83.0858 57.8573 83.1096 57.895C83.1335 57.9326 83.1663 57.9638 83.2051 57.9856C83.2439 58.0075 83.2876 58.0194 83.3321 58.0202Z"
        fill="white" />
    <path
        d="M84.2029 88.2821C84.3857 87.8974 83.722 87.3202 83.722 87.3202C83.722 87.3202 82.9139 83.4196 83.241 82.7558C83.568 82.0921 83.4045 81.2744 83.4622 79.8989C83.52 78.5233 84.0202 78.0327 84.0202 78.0327C84.0202 78.0327 84.0634 77.1526 84.1741 76.4407C84.2309 75.9928 84.1138 75.5401 83.847 75.1758L82.231 78.86L81.9664 78.5281C81.2591 77.467 80.3701 76.539 79.3403 75.7866C78.8209 75.5077 78.4265 76.0271 78.2774 76.4311C78.1283 76.8351 78.7247 77.5373 79.0951 77.7922C79.4654 78.0472 80.057 79.6824 80.2734 80.2788C80.4899 80.8752 80.2734 81.0051 79.8983 81.2408C79.5231 81.4765 78.0946 80.2788 77.4021 79.9951C76.7845 79.6496 76.2246 79.2098 75.7427 78.6916C75.6118 78.5917 75.4559 78.5299 75.2921 78.5129C75.1283 78.496 74.963 78.5245 74.8144 78.5955C74.271 78.8408 74.5162 79.8989 74.5162 79.8989C73.6553 80.553 74.1026 81.8228 74.1026 81.8228C74.1026 81.8228 73.2417 81.8901 73.184 82.1787C73.1263 82.4672 73.4196 84.016 73.9006 84.3911C74.3816 84.7663 76.4401 86.2092 76.4401 86.2092C76.8997 86.9074 77.5418 87.4663 78.2966 87.8252L78.7007 89.8501C79.5831 90.1085 80.5212 90.1085 81.4037 89.8501C82.4495 89.5606 83.4098 89.0227 84.2029 88.2821Z"
        fill="#FFBE9D" />
    <path
        d="M74.5209 79.7375C74.5209 79.7375 74.5209 79.7375 74.5209 79.7905C74.5145 79.8399 74.5145 79.8901 74.5209 79.9396C74.5516 80.1234 74.624 80.2978 74.7325 80.4494C74.8917 80.6708 75.0848 80.8656 75.3049 81.0265C75.5502 81.2093 75.8291 81.3873 76.1322 81.57C76.6474 81.8737 77.1843 82.1389 77.7386 82.3636C77.9502 82.4454 78.1282 82.5079 78.2484 82.5464L78.4408 82.5993C78.4408 82.5993 78.1811 82.4839 77.7674 82.2963C77.2226 82.0555 76.6926 81.7825 76.1803 81.4786C75.6528 81.2129 75.181 80.8489 74.7902 80.4061C74.642 80.2115 74.549 79.9806 74.5209 79.7375Z"
        fill="#EB996E" />
    <path
        d="M74.1362 81.8039C74.235 81.9649 74.3547 82.1121 74.4921 82.2416C74.8093 82.5706 75.1626 82.8626 75.5455 83.1121C75.9291 83.3616 76.3407 83.565 76.7719 83.7181C76.9473 83.7918 77.1317 83.842 77.3202 83.8672C77.3202 83.8672 77.1182 83.7855 76.8008 83.6508C76.3826 83.4809 75.9816 83.2716 75.6032 83.0255C75.2259 82.781 74.8717 82.5024 74.545 82.1935C74.2901 81.953 74.1458 81.7943 74.1362 81.8039Z"
        fill="#EB996E" />
    <path
        d="M82.462 66.548C82.5878 66.4483 82.6732 66.3065 82.7025 66.1488C82.7688 65.7755 82.759 65.3927 82.6736 65.0233C82.6173 64.6529 82.5369 64.2866 82.4331 63.9267C82.3994 63.7746 82.346 63.6274 82.2744 63.489C82.2914 63.6437 82.3219 63.7966 82.3658 63.9459C82.4283 64.2249 82.5101 64.6097 82.5774 65.0377C82.6567 65.3977 82.6746 65.7684 82.6303 66.1343C82.5937 66.2794 82.5371 66.4186 82.462 66.548Z"
        fill="#EB996E" />
    <path
        d="M80.4226 68.2697C80.4226 68.2697 80.4852 68.2697 80.5862 68.2697C80.7157 68.2265 80.8251 68.1376 80.894 68.0196C80.9616 67.9017 80.9854 67.7638 80.9613 67.63C80.9613 67.529 80.8988 67.4761 80.8844 67.4857C80.9037 67.6501 80.8771 67.8166 80.8074 67.9667C80.6631 68.2024 80.413 68.2408 80.4226 68.2697Z"
        fill="#EB996E" />
    <path
        d="M78.7153 85.1034C78.7153 85.1034 78.7923 85.1419 78.9222 85.1034C79.0917 85.0792 79.2478 84.9977 79.3646 84.8725C79.4814 84.7477 79.5512 84.5862 79.5618 84.4156C79.5618 84.2857 79.5618 84.2088 79.5282 84.2136C79.4945 84.2184 79.5282 84.2905 79.4945 84.406C79.4621 84.554 79.3926 84.6914 79.2925 84.8052C79.1853 84.9128 79.0531 84.9921 78.9077 85.036C78.8414 85.0516 78.7769 85.0742 78.7153 85.1034Z"
        fill="#EB996E" />
    <path
        d="M77.2339 86.0162C77.2339 86.0162 77.2964 86.045 77.3974 86.0162C77.5276 85.9747 77.6418 85.8941 77.7245 85.7853C77.808 85.6762 77.8536 85.5428 77.8543 85.4053C77.8543 85.2995 77.8207 85.2418 77.8111 85.2466C77.7926 85.4177 77.735 85.5823 77.6427 85.7276C77.5307 85.8543 77.3907 85.9531 77.2339 86.0162Z"
        fill="#EB996E" />
    <path
        d="M78.3062 87.8744C78.4132 87.9459 78.5321 87.998 78.6573 88.0283C78.9515 88.1255 79.252 88.2026 79.5567 88.2591C79.8604 88.3126 80.1672 88.3463 80.4753 88.3601C80.6028 88.38 80.7326 88.38 80.8601 88.3601C80.8601 88.3313 80.2781 88.3072 79.5759 88.1774C78.8737 88.0475 78.3158 87.8455 78.3062 87.8744Z"
        fill="#EB996E" />
    <path
        d="M76.7192 79.5954L76.7722 79.4752L76.9068 79.1193L77.3878 77.8014C77.7966 76.6759 78.3497 75.1368 78.9557 73.4438C79.0715 73.0269 79.3197 72.659 79.6628 72.3953C80.0259 72.2203 80.4303 72.1487 80.8315 72.1885L82.9141 72.2126H84.3185H84.6841C84.7287 72.2196 84.7741 72.2196 84.8187 72.2126H84.6841H84.3041L82.8997 72.1741L80.8171 72.1308C80.6153 72.1166 80.4128 72.1166 80.2111 72.1308C79.9948 72.1513 79.786 72.2204 79.6002 72.3328C79.2346 72.6031 78.969 72.9871 78.8451 73.4246C78.2391 75.132 77.6956 76.6759 77.306 77.7966L76.8539 79.1241C76.801 79.2732 76.7625 79.3934 76.7337 79.4848C76.7238 79.5208 76.719 79.5581 76.7192 79.5954Z"
        fill="#263238" />
</svg>
