<svg fill="none" height="17" viewBox="0 0 17 17" width="17" xmlns="http://www.w3.org/2000/svg">
    <path clip-rule="evenodd" d="M11.6046 0.0623663L16.9374 5.39605C17.0209 5.47921 17.0209 5.61536 16.9374 5.69879L15.1212 7.51478C15.0379 7.59835 14.9018 7.59835 14.8186 7.51478L14.3023 6.99869L11.9085 9.39234C12.4456 11.4153 11.9217 13.6618 10.3355 15.2478C10.2987 15.2849 10.2615 15.321 10.2237 15.3567C10.0848 15.4888 10.1071 15.488 9.9729 15.3538L6.58491 11.9654L0 17L5.0357 10.4162L1.64273 7.02318C1.50743 6.88759 1.51878 6.9089 1.65187 6.76901C1.68507 6.73429 1.71896 6.69942 1.75341 6.66483C3.33929 5.07879 5.58591 4.5544 7.60854 5.09166L10.0021 2.69801L9.48564 2.18165C9.40249 2.09849 9.40249 1.96234 9.48564 1.87891L11.3017 0.0623663C11.3853 -0.0207888 11.5214 -0.0207888 11.6046 0.0623663Z"
        fill="#EB6440"
        fill-rule="evenodd" />
</svg>
