<svg fill="none" height="18" viewBox="0 0 15 18" width="15" xmlns="http://www.w3.org/2000/svg">
    <path
        d="M14.5714 14.4V17.28C14.5714 17.712 14.28 18 13.8429 18H0.728571C0.291429 18 0 17.712 0 17.28V7.92C0 7.488 0.291429 7.2 0.728571 7.2H13.8429C14.28 7.2 14.5714 7.488 14.5714 7.92V10.8H11.2929C10.2729 10.8 9.47143 11.592 9.47143 12.6C9.47143 13.608 10.2729 14.4 11.2929 14.4H14.5714ZM11.2929 11.88C10.8557 11.88 10.5643 12.168 10.5643 12.6C10.5643 13.032 10.8557 13.32 11.2929 13.32C11.73 13.32 12.0214 13.032 12.0214 12.6C12.0214 12.168 11.73 11.88 11.2929 11.88ZM9.83571 0C8.81571 0 8.01429 0.792 8.01429 1.8C8.01429 2.808 8.81571 3.6 9.83571 3.6C10.8557 3.6 11.6571 2.808 11.6571 1.8C11.6571 0.792 10.8557 0 9.83571 0ZM7.06714 5.76C7.21286 5.472 7.28571 5.184 7.28571 4.824C7.28571 3.6 6.33857 2.664 5.1 2.664C3.86143 2.664 2.91429 3.6 2.91429 4.824C2.91429 5.184 2.98714 5.472 3.13286 5.76H7.06714Z"
        fill="#EB6440" />
</svg>
