<svg fill="none" height="15" viewBox="0 0 16 15" width="16" xmlns="http://www.w3.org/2000/svg">
    <path
        d="M7.57121 0.352491C7.80703 -0.117497 8.19293 -0.117497 8.42885 0.352491L10.1887 3.85996C10.4245 4.32995 11.0489 4.77602 11.5763 4.85139L15.5115 5.41382C16.0389 5.48919 16.1581 5.85007 15.7765 6.216L12.9289 8.94597C12.5474 9.31189 12.3088 10.0338 12.399 10.5503L13.0711 14.4052C13.1613 14.9219 12.8491 15.1451 12.3773 14.901L8.85757 13.0809C8.38593 12.8371 7.61413 12.8371 7.14239 13.0809L3.62261 14.901C3.15097 15.1451 2.8388 14.9219 2.92881 14.4052L3.60101 10.5503C3.69111 10.0338 3.45258 9.31189 3.07104 8.94597L0.223456 6.216C-0.158082 5.85007 -0.0389116 5.48919 0.48844 5.41382L4.42367 4.85139C4.95102 4.77602 5.57545 4.32985 5.81127 3.85996L7.57121 0.352491Z"
        fill="#EB6440" />
</svg>
