<svg fill="none" height="21" viewBox="0 0 14 21" width="14" xmlns="http://www.w3.org/2000/svg">
    <g id="row_2_1_">
        <path d="M8.57143 5.10234C7.44444 5.10234 6.53968 4.18359 6.53968 3.05156C6.53968 1.91953 7.46032 0.984375 8.57143 0.984375C9.69841 0.984375 10.6032 1.90313 10.6032 3.05156C10.6032 4.2 9.69841 5.10234 8.57143 5.10234ZM11.1587 5.74219L10.6349 5.13516L11.2857 0H14L13.9524 6.28359L11.5079 17.7023L12.6667 21H10.3333L9.33333 17.5547H6.66667L5.33333 21H3.33333L4.66667 17.5547H3.33333V15.4875H9.33333L11.1587 5.74219ZM1.5873 12.0586C2.47619 12.0586 5.26984 12.0586 5.26984 12.0586C5.26984 12.0586 6.06349 8.08828 6.15873 7.28438C6.20635 6.87422 6.47619 5.5125 8.03175 5.5125C9 5.5125 10 6.05391 10 7.38281C10 7.26797 8.73016 14.7984 8.73016 14.7984H2.25397L2.2381 19.5891C2.2381 19.5891 2.03175 20.6555 1.19048 20.6555C0.349206 20.6555 0 19.5891 0 19.5891C0 19.5891 0 15.7828 0 13.4039C0 12.8953 0.698413 12.0586 1.5873 12.0586Z"
            fill="#EB6440"
            id="seat_1_" />
    </g>
</svg>
