<svg fill="none" height="13" viewBox="0 0 29 13" width="29" xmlns="http://www.w3.org/2000/svg">
    <g id="Group 257">
        <path d="M2.0327 0.31012L9 6.50026L2.03318 12.69C1.56739 13.1033 0.813462 13.1033 0.349103 12.69C-0.116209 12.2766 -0.115733 11.6073 0.349103 11.194L5.63232 6.49984L0.348627 1.80488C-0.116209 1.39152 -0.116209 0.722204 0.348627 0.309275C0.813939 -0.103233 1.56739 -0.103233 2.0327 0.31012Z"
            fill="white"
            id="Vector" />
        <path d="M12.0327 0.31012L19 6.50026L12.0332 12.69C11.5674 13.1033 10.8135 13.1033 10.3491 12.69C9.88379 12.2766 9.88427 11.6073 10.3491 11.194L15.6323 6.49984L10.3486 1.80488C9.88379 1.39152 9.88379 0.722204 10.3486 0.309275C10.8139 -0.103233 11.5674 -0.103233 12.0327 0.31012Z" fill="white"
            id="Vector_2"
            opacity="0.8" />
        <path d="M22.0327 0.31012L29 6.50026L22.0332 12.69C21.5674 13.1033 20.8135 13.1033 20.3491 12.69C19.8838 12.2766 19.8843 11.6073 20.3491 11.194L25.6323 6.49984L20.3486 1.80488C19.8838 1.39152 19.8838 0.722204 20.3486 0.309275C20.8139 -0.103233 21.5674 -0.103233 22.0327 0.31012Z" fill="white"
            id="Vector_3"
            opacity="0.6" />
    </g>
</svg>
