<svg fill="none" height="73" viewBox="0 0 73 73" width="73" xmlns="http://www.w3.org/2000/svg">
    <g filter="url(#filter0_d_289_7709)" id="Group 481">
        <g id="Group">
            <rect fill="white" height="55" id="Rectangle 64" rx="27.5" width="55" x="9" y="7" />
            <path d="M36.5001 7C20.2338 7 7 20.2335 7 36.4999C7 52.7662 20.2338 65.9998 36.5001 65.9998C52.7662 65.9998 66 52.7662 66 36.4999C66 20.2335 52.766 7 36.5001 7ZM36.5001 57.452C24.9283 57.452 15.5477 48.0717 15.5477 36.4999C15.5477 24.9281 24.9283 15.5477 36.5001 15.5477C48.0714 15.5477 57.4523 24.9281 57.4523 36.4999C57.4523 48.0717 48.0712 57.452 36.5001 57.452Z"
                fill="#EB6440"
                id="Vector" />
            <path d="M36.2399 18.2598C26.1822 18.2598 18 26.442 18 36.4994C18 46.5569 26.1824 54.7391 36.2399 54.7391C46.2973 54.7391 54.4795 46.5569 54.4795 36.4994C54.4795 26.442 46.2971 18.2598 36.2399 18.2598ZM52.1437 35.3365H43.2937C43.1129 34.2181 42.6711 33.1866 42.0339 32.3048L48.2817 26.057C50.475 28.5826 51.8871 31.8009 52.1437 35.3365ZM37.3843 20.594C40.9178 20.8459 44.1349 22.2527 46.6619 24.4397L40.4155 30.6864C39.5337 30.0494 38.5024 29.6079 37.3843 29.4271V20.594ZM35.0953 20.594V29.4268C33.9771 29.6076 32.9456 30.0492 32.0638 30.6864L25.8171 24.4399C28.3442 22.2529 31.5618 20.8459 35.0953 20.594ZM24.1971 26.0572L30.4452 32.305C29.808 33.1866 29.3664 34.2181 29.1856 35.3363H20.3356C20.5922 31.8009 22.0043 28.5828 24.1971 26.0572ZM20.333 37.6253H29.1858C29.3664 38.7434 29.8082 39.7749 30.4454 40.6567L24.1802 46.9219C21.9892 44.3902 20.5813 41.166 20.333 37.6253ZM35.0953 52.4049C31.5522 52.1522 28.3275 50.7387 25.7972 48.5417L32.0638 42.2751C32.9456 42.9123 33.9771 43.3539 35.0953 43.5347V52.4049ZM35.0953 41.1801V41.1968C34.6013 41.0767 34.1377 40.8815 33.7154 40.6233L33.7263 40.6124C33.0656 40.2096 32.5107 39.6546 32.1079 38.9938L32.0972 39.0044C31.839 38.5821 31.6438 38.1187 31.5237 37.6248H31.5402C31.4509 37.2574 31.3986 36.8754 31.3986 36.4804C31.3986 36.0854 31.4512 35.7034 31.5402 35.336H31.5237C31.6438 34.8423 31.8387 34.3789 32.0972 33.9566L32.1079 33.9673C32.5107 33.3066 33.0659 32.7515 33.7263 32.3489L33.7154 32.338C34.1377 32.0797 34.6013 31.8843 35.0953 31.7645V31.7812C35.4629 31.6919 35.8447 31.6393 36.2399 31.6393C36.6351 31.6393 37.0169 31.6919 37.3845 31.7812V31.7645C37.8785 31.8846 38.3418 32.0795 38.7639 32.3377L38.753 32.3486C39.4139 32.7513 39.9688 33.3064 40.3717 33.967L40.3823 33.9564C40.6408 34.3787 40.8359 34.8423 40.956 35.3363H40.9396C41.0288 35.7037 41.0812 36.0857 41.0812 36.4806C41.0812 36.8756 41.0286 37.2576 40.9396 37.625H40.956C40.8359 38.119 40.641 38.5826 40.3823 39.0049L40.3717 38.9942C39.9688 39.6549 39.4136 40.2098 38.753 40.6127L38.7639 40.6233C38.3418 40.8815 37.8785 41.0767 37.3845 41.1968V41.1801C37.0169 41.2693 36.6351 41.322 36.2399 41.322C35.8447 41.322 35.4629 41.2696 35.0953 41.1801ZM37.3843 52.4049V43.5347C38.5024 43.3539 39.5337 42.9123 40.4155 42.2753L46.6819 48.5417C44.1518 50.7387 40.927 52.1522 37.3843 52.4049ZM48.2991 46.9219L42.0341 40.6569C42.6713 39.7752 43.1129 38.7437 43.2939 37.6253H52.1465C51.898 41.166 50.4903 44.3902 48.2991 46.9219Z"
                fill="#EB6440"
                id="Vector_2" />
        </g>
    </g>
    <defs>
        <filter color-interpolation-filters="sRGB" filterUnits="userSpaceOnUse" height="73" id="filter0_d_289_7709" width="73"
            x="0" y="0">
            <feFlood flood-opacity="0" result="BackgroundImageFix" />
            <feColorMatrix in="SourceAlpha" result="hardAlpha"
                type="matrix" values="0 0 0 0 0 0 0 0 0 0 0 0 0 0 0 0 0 0 127 0" />
            <feOffset />
            <feGaussianBlur stdDeviation="3.5" />
            <feComposite in2="hardAlpha" operator="out" />
            <feColorMatrix type="matrix" values="0 0 0 0 0 0 0 0 0 0 0 0 0 0 0 0 0 0 0.25 0" />
            <feBlend in2="BackgroundImageFix" mode="normal" result="effect1_dropShadow_289_7709" />
            <feBlend in="SourceGraphic" in2="effect1_dropShadow_289_7709" mode="normal"
                result="shape" />
        </filter>
    </defs>
</svg>
