<svg fill="none" height="136" viewBox="0 0 140 136" width="140" xmlns="http://www.w3.org/2000/svg">
    <g id="directions/amico">
        <g id="Floor">
            <path d="M70.1103 135.491C108.709 135.491 140 116.923 140 94.0193C140 71.1153 108.709 52.5479 70.1103 52.5479C31.5114 52.5479 0.220703 71.1153 0.220703 94.0193C0.220703 116.923 31.5114 135.491 70.1103 135.491Z"
                fill="#F5F5F5"
                id="Vector" />
        </g>
        <g id="Shadows">
            <path d="M85.174 83.4741L43.2306 107.703C42.9785 107.831 42.6996 107.898 42.4167 107.898C42.1339 107.898 41.855 107.831 41.6029 107.703L36.6301 104.961C36.1806 104.701 36.1806 104.28 36.6301 104.024L78.5863 79.7918C78.8384 79.6635 79.1173 79.5967 79.4001 79.5967C79.683 79.5967 79.9619 79.6635 80.214 79.7918L85.19 82.5335C85.6234 82.8096 85.6234 83.2141 85.174 83.4741Z"
                fill="#E0E0E0"
                id="freepik--shadow--inject-54" />
            <path d="M93.5 126C106.479 126 117 123.538 117 120.5C117 117.462 106.479 115 93.5 115C80.5213 115 70 117.462 70 120.5C70 123.538 80.5213 126 93.5 126Z"
                fill="#E0E0E0"
                id="Vector_2" />
            <path d="M79.5 124C92.4787 124 103 122.433 103 120.5C103 118.567 92.4787 117 79.5 117C66.5213 117 56 118.567 56 120.5C56 122.433 66.5213 124 79.5 124Z"
                fill="#E0E0E0"
                id="Vector_3" />
            <path d="M119.74 89.7153C123.62 89.7153 126.764 88.0063 126.764 85.8982C126.764 83.79 123.62 82.0811 119.74 82.0811C115.861 82.0811 112.716 83.79 112.716 85.8982C112.716 88.0063 115.861 89.7153 119.74 89.7153Z"
                fill="#E0E0E0"
                id="Vector_4" />
            <path d="M19.0402 94.0166C25.2104 94.0166 30.2123 91.2986 30.2123 87.9458C30.2123 84.593 25.2104 81.875 19.0402 81.875C12.8701 81.875 7.86816 84.593 7.86816 87.9458C7.86816 91.2986 12.8701 94.0166 19.0402 94.0166Z"
                fill="#E0E0E0"
                id="Vector_5" />
        </g>
        <g id="Clouds">
            <path d="M110.433 5.38593L112.596 6.64439V4.91721C112.596 3.91879 113.412 3.57528 114.41 4.14994L114.484 4.19488C114.943 4.46988 115.338 4.83984 115.643 5.27999C115.698 3.60097 117.113 3.03273 118.853 4.02794L118.985 4.10499C120.747 5.12268 122.195 7.39883 122.195 9.15811V12.163L124.192 13.3187C125.04 13.8067 125.733 14.8982 125.733 15.7458C125.733 16.5933 125.04 16.8822 124.192 16.3878L121.534 14.8533L116.324 11.8452L110.433 8.46146C109.585 7.97348 108.892 6.88196 108.892 6.03442C108.892 5.18689 109.585 4.89795 110.433 5.38593Z"
                fill="#E0E0E0"
                id="Vector_6" />
            <path d="M125.74 2.16594L127.233 3.02631V1.82885C127.233 1.14183 127.798 0.904263 128.485 1.30235L128.536 1.33124C128.853 1.52219 129.125 1.77826 129.336 2.08247C129.374 0.923525 130.35 0.53186 131.541 1.21888L131.631 1.27024C132.848 1.97331 133.843 3.53997 133.843 4.7567V6.82739L135.22 7.62356C135.515 7.80101 135.765 8.04495 135.949 8.33591C136.133 8.62687 136.246 8.9568 136.28 9.29937C136.28 9.88365 135.805 10.0827 135.22 9.74561L133.384 8.6894L129.788 6.64439L125.74 4.30725C125.445 4.1305 125.196 3.88716 125.012 3.59671C124.828 3.30627 124.714 2.97679 124.681 2.63465C124.681 2.0311 125.156 1.82885 125.74 2.16594Z"
                fill="#E0E0E0"
                id="Vector_7" />
        </g>
        <g id="Tree">
            <path d="M15.6821 49.3943C16.2589 49.3373 16.8402 49.4418 17.3611 49.696C18.3692 50.184 19.2039 50.9609 20.0996 51.6223C20.9953 52.2836 22.0258 52.9064 23.1366 52.9353C24.2474 52.9642 25.4641 52.274 25.6663 51.1728C25.679 50.9782 25.728 50.7876 25.8108 50.611C25.9219 50.4698 26.0765 50.3691 26.2505 50.3244C26.4246 50.2798 26.6085 50.2936 26.7739 50.3638C27.0979 50.5105 27.4066 50.689 27.6953 50.8967C28.8285 51.5645 30.2636 51.4136 31.5477 51.2178C32.6296 51.0604 33.9972 50.5757 33.994 49.4874C33.994 48.7747 33.3519 48.245 32.8768 47.7281C32.4017 47.2112 31.9843 46.3797 32.4338 45.8243C32.6062 45.6368 32.8292 45.503 33.0758 45.4391C34.4306 44.9993 36.0904 45.5868 37.2493 44.7392C38.0969 44.0972 38.2959 42.813 37.8497 41.8724C37.602 41.4042 37.2555 40.9955 36.8342 40.6745C36.4129 40.3536 35.9269 40.128 35.4098 40.0136C34.5013 39.7824 33.3455 39.6765 33.0052 38.8001C32.7099 38.0328 33.307 37.1949 33.9683 36.7326C34.6297 36.2703 35.4547 35.93 35.9234 35.2558C36.1537 34.8953 36.2814 34.4789 36.2927 34.0512C36.304 33.6236 36.1986 33.201 35.9877 32.8288C35.7682 32.4628 35.4726 32.1484 35.1208 31.9069C34.769 31.6654 34.3694 31.5024 33.9491 31.4291C33.5254 31.3975 33.1083 31.3067 32.7099 31.1594C32.331 30.9668 32.0453 30.4884 32.2508 30.116C32.3728 29.8913 32.6328 29.7757 32.7805 29.5671C33.0662 29.1658 32.819 28.5686 32.4145 28.2829C31.9822 28.0385 31.5158 27.86 31.0308 27.7532C30.0485 27.4322 29.1046 26.4691 29.3871 25.4803C29.6697 24.4915 31.1015 24.1126 31.5188 23.1174C31.8912 22.241 31.3037 21.2137 30.514 20.6776C29.7242 20.1414 28.7419 19.9392 27.8815 19.5315C27.0211 19.1237 26.1864 18.4046 26.1158 17.4511C26.0452 16.4977 26.7579 15.6565 27.371 14.8829C27.9842 14.1092 28.4722 13.024 27.9521 12.199C27.432 11.3739 26.3469 11.3579 25.4448 11.0721C24.8997 10.8964 24.3979 10.6073 23.9724 10.2238C23.547 9.84042 23.2074 9.37132 22.976 8.84736C22.7385 8.29518 22.6229 7.69484 22.334 7.16834C21.4608 5.52785 19.2135 4.81194 17.4863 5.01098C16.581 5.13297 16.2792 5.45401 15.8394 6.12819C15.5858 6.52306 15.3257 6.7221 15.2359 7.26465C15.1042 8.05761 15.5248 9.06246 14.7768 9.66922C13.6403 10.5874 11.8874 9.34818 11.9645 11.406C11.9611 12.2765 12.0899 13.1425 12.3465 13.9743C12.6676 14.8379 13.2743 15.2103 12.7607 16.1798C12.0929 17.4319 11.6563 17.4255 10.3208 17.4222C9.35768 17.4222 8.54546 17.3677 7.83597 18.1028C6.58714 19.387 7.32873 20.5588 8.43631 21.554C9.69798 22.684 9.03022 23.1816 8.8665 24.6456C8.78624 25.3518 8.94675 25.5669 8.31752 26.0357C7.12327 26.9217 6.45872 26.6232 6.7926 28.3568C7.11364 29.9395 6.62566 29.3969 5.25484 29.9876C4.03811 30.5109 3.23552 31.8207 2.24994 32.6362C1.60786 33.1627 0.644753 33.5672 0.593387 34.4885C0.477814 36.2542 2.6737 35.869 3.71707 36.2896C5.42177 36.9798 4.91454 39.2142 3.58224 40.0521C2.17289 40.935 0.118253 41.2656 0.00589071 43.2849C-0.0807891 44.8356 0.79885 45.1791 2.00274 45.6959C2.96585 46.1101 2.84064 46.2321 2.83743 47.3782C2.83743 49.6896 3.61434 50.3445 5.8937 49.9657C6.51651 49.863 7.46999 49.5997 8.0928 49.7859C8.96281 50.0492 8.67066 50.2643 8.69314 50.993C8.75734 52.8582 10.9404 52.3318 11.8489 51.5324C12.9083 50.6046 14.2406 49.5355 15.6821 49.3943Z"
                fill="#EB6440"
                id="Vector_8" />
            <path d="M33.0534 45.4586C34.0935 45.1215 35.3006 45.3847 36.3408 45.1375C35.7344 44.9965 35.1185 44.8999 34.498 44.8486C33.7629 44.8166 33.0293 44.9405 32.3454 45.2122C31.6615 45.4839 31.0429 45.8972 30.53 46.4249C31.0738 47.0972 31.3575 47.9427 31.3294 48.807C28.7611 49.5068 26.1928 46.0461 23.7465 47.0991C23.8974 48.3479 23.7465 50.0269 22.5362 50.3094C21.8203 50.4699 21.1012 49.9884 20.6582 49.4073C20.2151 48.8262 19.9423 48.1232 19.496 47.5389C18.8711 46.783 17.9876 46.2863 17.0171 46.1451C16.0466 46.0039 15.0582 46.2283 14.2439 46.7748C13.5761 47.2596 12.7414 47.9915 12.0769 47.5068C11.3609 46.9899 11.7976 45.5806 11.0078 45.1921C10.4813 44.9289 9.74614 45.343 9.30632 44.9577C9.14249 44.7796 9.03718 44.5555 9.00454 44.3157C8.68351 42.9962 8.42026 41.4713 9.25174 40.399C9.99012 39.4359 11.5536 38.8581 11.3866 37.6638C11.2422 36.6429 9.94518 36.3315 8.91786 36.2127C7.89055 36.0939 6.59677 35.6124 6.64813 34.5819C6.6995 33.5513 8.07032 33.0826 8.27258 32.0906C8.35605 31.6668 8.21479 31.1949 8.40741 30.8065C8.69956 30.2254 9.53425 30.2029 10.0126 29.7727C10.889 28.9958 10.2084 27.5447 10.4556 26.4018C10.6322 25.5928 11.2871 24.9572 11.5022 24.1546C11.9388 22.5494 10.4845 21.0405 8.96602 20.3888C8.36644 20.1783 7.78988 19.9072 7.24526 19.5798L7.19069 19.5381C7.226 20.2604 7.76213 20.9314 8.43631 21.5349C9.69798 22.665 9.03022 23.1626 8.8665 24.6265C8.78624 25.3328 8.94676 25.5479 8.31752 26.0166C7.12327 26.9027 6.45872 26.6041 6.7926 28.3377C7.11364 29.9204 6.62566 29.3778 5.25484 29.9686C4.03811 30.4918 3.23552 31.8017 2.24994 32.6171C1.60786 33.1436 0.644753 33.5481 0.593387 34.4695C0.477814 36.2352 2.6737 35.8499 3.71707 36.2705C5.42177 36.9607 4.91454 39.1951 3.58224 40.0331C2.17289 40.9159 0.118253 41.2466 0.00589071 43.2659C-0.0807891 44.8165 0.798851 45.16 2.00274 45.6769C2.96585 46.091 2.84064 46.213 2.83743 47.3591C2.83743 49.6706 3.61434 50.3255 5.8937 49.9467C6.51651 49.8439 7.46999 49.5807 8.0928 49.7669C8.96281 50.0301 8.67066 50.2452 8.69314 50.974C8.75734 52.8392 10.9404 52.3127 11.8489 51.5133C12.9083 50.5951 14.2406 49.5261 15.6789 49.3848C16.2557 49.3279 16.837 49.4324 17.3579 49.6866C18.366 50.1746 19.2007 50.9515 20.0964 51.6128C20.992 52.2742 22.0226 52.897 23.1334 52.9259C24.2441 52.9548 25.4609 52.2645 25.6631 51.1634C25.6758 50.9687 25.7248 50.7782 25.8076 50.6016C25.9187 50.4604 26.0733 50.3597 26.2473 50.315C26.4214 50.2703 26.6053 50.2842 26.7707 50.3544C27.0947 50.5011 27.4034 50.6796 27.6921 50.8873C28.8253 51.555 30.2604 51.4042 31.5445 51.2083C32.6264 51.051 33.994 50.5663 33.9908 49.4779C33.9908 48.7652 33.3487 48.2355 32.8736 47.7187C32.3985 47.2018 31.9811 46.3703 32.4306 45.8149C32.6018 45.6415 32.8172 45.5183 33.0534 45.4586Z" fill="black"
                id="Vector_9"
                opacity="0.15" />
            <path d="M11.1875 27.8614L18.2054 41.7752V35.3737L18.9213 18.7344L19.9582 35.3737V39.6788L27.6631 26.1953L19.9582 42.7479V89.0542C19.9501 89.1308 19.9221 89.2039 19.8771 89.2664C19.832 89.3289 19.7715 89.3786 19.7014 89.4105C19.5091 89.5071 19.2969 89.5574 19.0818 89.5574C18.8666 89.5574 18.6545 89.5071 18.4622 89.4105C18.3913 89.3797 18.3301 89.3303 18.2849 89.2676C18.2397 89.2049 18.2122 89.1312 18.2054 89.0542V45.3258L11.1875 27.8614Z"
                fill="#455A64"
                id="Vector_10" />
        </g>
        <g id="Locator">
            <path d="M121.242 30.2482C119.316 29.1342 117.55 29.0925 116.288 29.9272L113.832 31.3654C112.317 32.0781 111.377 33.892 111.421 36.5341V37.6096C111.495 42.0431 117.817 54.3035 118.6 55.8156L118.459 55.9664L118.629 55.8701L118.68 55.9664C118.68 55.9664 118.831 55.838 119.088 55.6037L121.242 54.3613C121.242 54.3613 128.196 48.6308 128.196 43.9212V42.8457C128.196 38.1072 125.082 32.4666 121.242 30.2482ZM118.353 35.8696C119.375 36.5141 120.232 37.3902 120.853 38.4269C121.474 39.4637 121.843 40.6321 121.929 41.8376C121.933 42.0892 121.915 42.3406 121.874 42.5889C121.652 42.5106 121.437 42.4117 121.232 42.2935C120.222 41.6326 119.383 40.7427 118.781 39.6962C118.18 38.6498 117.834 37.4762 117.772 36.2709H117.752C117.753 36.0557 117.772 35.841 117.807 35.6288C117.993 35.694 118.174 35.7712 118.349 35.8599L118.353 35.8696Z"
                fill="#EB6440"
                id="Vector_11" />
            <path d="M111.431 37.5932C111.511 42.3221 118.69 55.9501 118.69 55.9501C118.69 55.9501 125.557 50.12 125.467 45.3944V44.3189C125.387 39.59 122.179 34.0104 118.301 31.8563C114.423 29.7021 111.341 31.7856 111.421 36.5177L111.431 37.5932ZM114.914 37.9367C114.879 35.7344 116.423 34.7937 118.359 35.8692C119.381 36.5138 120.238 37.3898 120.859 38.4266C121.481 39.4633 121.849 40.6317 121.935 41.8373C121.974 44.0396 120.43 44.9802 118.491 43.9048C117.466 43.2613 116.608 42.3857 115.985 41.3489C115.362 40.3121 114.992 39.1431 114.905 37.9367H114.914Z" fill="black"
                id="Vector_12"
                opacity="0.2" />
        </g>
        <g id="Device">
            <path d="M78.6315 3.18415L45.2116 22.639C44.7228 22.9238 44.3173 23.332 44.0356 23.8227C43.7539 24.3134 43.6059 24.8694 43.6064 25.4352V103.89C43.606 104.099 43.661 104.305 43.7656 104.486C43.8703 104.668 44.021 104.818 44.2026 104.922C44.3841 105.027 44.5899 105.081 44.7993 105.08C45.0086 105.079 45.214 105.023 45.3946 104.917L78.4196 85.6937C78.9212 85.4019 79.3372 84.9835 79.6263 84.4804C79.9153 83.9773 80.0671 83.4071 80.0666 82.8269V4.00922C80.0641 3.84233 80.0182 3.67895 79.9336 3.53511C79.8489 3.39127 79.7283 3.2719 79.5836 3.18871C79.4389 3.10552 79.2751 3.06136 79.1082 3.06056C78.9413 3.05976 78.777 3.10235 78.6315 3.18415Z"
                fill="#455A64"
                id="Vector_13" />
            <path d="M80.0635 4.00576V4.1117C80.0635 4.0507 80.0635 3.98971 80.0635 3.92871C80.0666 3.9543 80.0666 3.98017 80.0635 4.00576Z"
                fill="#272739"
                id="Vector_14" />
            <path d="M77.6329 14.3498L46.2323 32.6167C45.8691 32.8283 45.5676 33.1315 45.3581 33.4959C45.1485 33.8604 45.0382 34.2734 45.0381 34.6938V93.1674C45.038 93.2699 45.0651 93.3706 45.1165 93.4593C45.1679 93.548 45.2419 93.6215 45.3309 93.6723C45.4199 93.7232 45.5207 93.7496 45.6232 93.7489C45.7257 93.7482 45.8262 93.7203 45.9145 93.6682L77.588 75.2504C77.8696 75.0878 78.1034 74.8537 78.2657 74.5719C78.4281 74.2901 78.5132 73.9704 78.5126 73.6452V14.8666C78.5148 14.7627 78.4893 14.66 78.4387 14.5692C78.388 14.4784 78.3141 14.4027 78.2244 14.3501C78.1348 14.2974 78.0327 14.2696 77.9287 14.2695C77.8247 14.2695 77.7226 14.2972 77.6329 14.3498Z"
                fill="white"
                id="Vector_15" />
            <path d="M45.3878 104.918C45.338 104.949 45.2853 104.975 45.2305 104.995C45.2979 104.969 45.3364 104.95 45.3878 104.918Z"
                fill="#272739"
                id="Vector_16" />
            <path d="M80.044 3.80358C80.01 3.65776 79.9425 3.52186 79.8469 3.40668C79.7512 3.2915 79.63 3.20021 79.4929 3.14007C79.3558 3.07992 79.2065 3.05258 79.057 3.0602C78.9074 3.06782 78.7617 3.1102 78.6314 3.18398L45.2148 22.6388C44.7277 22.9248 44.3235 23.3328 44.042 23.8226C43.7606 24.3123 43.6115 24.8669 43.6096 25.4318V103.89C43.6104 104.084 43.6584 104.274 43.7494 104.445C43.8405 104.617 43.9717 104.763 44.132 104.872C44.2922 104.981 44.4765 105.049 44.6691 105.071C44.8617 105.093 45.0566 105.068 45.2372 104.997C43.3849 105.909 40.9835 104.397 40.9835 104.397C40.3559 104.069 39.8319 103.572 39.4697 102.964C39.1075 102.355 38.9214 101.657 38.9321 100.949V22.4943C38.9332 21.9289 39.0818 21.3735 39.3633 20.883C39.6448 20.3926 40.0495 19.9842 40.5373 19.6981L73.9539 0.246497C73.9539 0.246497 75.3184 -0.617091 77.6972 0.88857C77.6972 0.88857 79.8193 2.02183 80.044 3.80358Z"
                fill="#263238"
                id="Vector_17" />
            <path d="M80.0445 3.80358C80.0105 3.65776 79.943 3.52186 79.8473 3.40668C79.7517 3.2915 79.6305 3.20021 79.4933 3.14007C79.3562 3.07992 79.207 3.05257 79.0574 3.0602C78.9079 3.06782 78.7622 3.1102 78.6319 3.18398L45.2152 22.6388C44.7642 22.8992 44.3839 23.2663 44.1076 23.7078L39.3467 20.902C39.6276 20.4026 40.0365 19.9871 40.5313 19.6981L73.9544 0.246497C73.9544 0.246497 75.3188 -0.617091 77.6977 0.88857C77.6977 0.88857 79.8197 2.02183 80.0445 3.80358Z"
                fill="#272739"
                id="Vector_18" />
            <path d="M57.4334 22.5715C57.3939 22.9765 57.2597 23.3665 57.0417 23.7101C56.8236 24.0536 56.5278 24.341 56.1781 24.5491C55.4847 24.9504 54.9229 24.7128 54.9229 24.0194C54.9628 23.6141 55.0972 23.2239 55.3152 22.8799C55.5332 22.5359 55.8287 22.2478 56.1781 22.0386C56.8715 21.6405 57.4334 21.8781 57.4334 22.5715Z"
                fill="#272739"
                id="Vector_19" />
            <path d="M64.0306 89.0126C64.0306 90.2615 63.0194 91.8538 61.7834 92.5761C60.5474 93.2985 59.5361 92.8683 59.5361 91.613C59.5361 90.3578 60.5474 88.7718 61.7834 88.0527C63.0194 87.3336 64.0306 87.767 64.0306 89.0126Z"
                fill="#272739"
                id="Vector_20" />
            <path d="M40.0811 35.9528C40.1148 36.3036 40.2306 36.6416 40.4191 36.9394C40.6076 37.2372 40.8635 37.4865 41.1662 37.6671C41.7665 38.0138 42.2545 37.8084 42.2545 37.208C42.2204 36.8569 42.1041 36.5188 41.915 36.2209C41.7259 35.9231 41.4694 35.674 41.1662 35.4937C40.5658 35.147 40.0811 35.3524 40.0811 35.9528Z"
                fill="#455A64"
                id="Vector_21" />
            <path d="M40.0811 43.278C40.1148 43.6288 40.2306 43.9668 40.4191 44.2646C40.6076 44.5624 40.8635 44.8117 41.1662 44.9923C41.7665 45.339 42.2545 45.1336 42.2545 44.5332C42.2204 44.1821 42.1041 43.844 41.915 43.5461C41.7259 43.2483 41.4694 42.9992 41.1662 42.8189C40.5658 42.4722 40.0811 42.6776 40.0811 43.278Z"
                fill="#455A64"
                id="Vector_22" />
            <path d="M62.3516 16.1278C62.3335 16.3157 62.2715 16.4967 62.1705 16.6562C62.0696 16.8157 61.9326 16.9492 61.7705 17.046C61.4495 17.2322 61.1895 17.123 61.1895 16.802C61.208 16.6142 61.2703 16.4334 61.3712 16.274C61.4721 16.1146 61.6088 15.981 61.7705 15.8838C62.0916 15.6976 62.3516 15.8068 62.3516 16.1278Z"
                fill="#272739"
                id="Vector_23" />
            <path d="M59.8727 22.0893L67.6996 17.5338C67.9065 17.4129 68.0781 17.2399 68.1975 17.0321C68.3169 16.8243 68.3799 16.5888 68.3801 16.3492C68.3806 16.2427 68.3528 16.138 68.2998 16.0457C68.2467 15.9535 68.1701 15.8769 68.0778 15.8237C67.9856 15.7706 67.8809 15.7428 67.7744 15.7432C67.668 15.7436 67.5635 15.7721 67.4716 15.8259L59.6415 20.3814C59.4346 20.5024 59.263 20.6753 59.1436 20.8831C59.0242 21.0909 58.9612 21.3264 58.9609 21.566C58.9612 21.6726 58.9894 21.7772 59.0429 21.8694C59.0964 21.9615 59.1732 22.038 59.2657 22.091C59.3581 22.1441 59.4628 22.1718 59.5694 22.1715C59.676 22.1712 59.7806 22.1429 59.8727 22.0893Z"
                fill="#272739"
                id="Vector_24" />
            <path d="M54.1562 28.0098V42.5046C54.157 43.1572 53.9414 43.7918 53.543 44.3088L45.042 55.4134V34.6937C45.0408 34.2735 45.1503 33.8603 45.3593 33.4957C45.5684 33.1311 45.8697 32.8279 46.233 32.6166L54.1562 28.0098Z"
                fill="#E0E0E0"
                id="Vector_25" />
            <path d="M57.1345 42.4022L66.4863 36.9767C66.7862 36.8013 67.0349 36.5505 67.2079 36.2492C67.3808 35.9479 67.4718 35.6065 67.4719 35.2591V20.2764L56.2549 26.7998V41.8885C56.2561 41.9911 56.2838 42.0916 56.3354 42.1803C56.387 42.2689 56.4607 42.3427 56.5493 42.3944C56.6378 42.4462 56.7383 42.4741 56.8409 42.4754C56.9434 42.4768 57.0446 42.4516 57.1345 42.4022Z"
                fill="#E0E0E0"
                id="Vector_26" />
            <path d="M67.4492 39.865V48.5105C67.4487 48.6911 67.401 48.8685 67.311 49.025C67.2209 49.1816 67.0914 49.3119 66.9355 49.403L60.9963 52.8734C60.8605 52.9533 60.7478 53.0674 60.6696 53.2042C60.5913 53.341 60.5501 53.4959 60.5501 53.6535V59.2781C60.5493 59.4685 60.4988 59.6555 60.4037 59.8204C60.3085 59.9854 60.172 60.1227 60.0075 60.2187L56.7298 62.1225C56.6802 62.1535 56.6231 62.1705 56.5646 62.1714C56.5061 62.1724 56.4485 62.1573 56.3979 62.1279C56.3473 62.0985 56.3058 62.0558 56.2777 62.0045C56.2496 61.9532 56.2361 61.8952 56.2386 61.8368V46.4527C56.2381 46.2133 56.3008 45.978 56.4203 45.7706C56.5398 45.5632 56.7119 45.391 56.9192 45.2713L66.8071 39.499C66.8716 39.4603 66.9453 39.4394 67.0205 39.4385C67.0958 39.4376 67.1699 39.4568 67.2353 39.4941C67.3006 39.5314 67.3549 39.5854 67.3925 39.6505C67.4301 39.7157 67.4497 39.7898 67.4492 39.865Z"
                fill="#E0E0E0"
                id="Vector_27" />
            <path d="M62.1686 53.661L67.1029 50.7877C67.139 50.7668 67.1799 50.7559 67.2216 50.7559C67.2633 50.7558 67.3042 50.7668 67.3403 50.7876C67.3765 50.8084 67.4064 50.8384 67.4273 50.8745C67.4482 50.9105 67.4592 50.9515 67.4592 50.9931V55.3849C67.4591 55.5338 67.4199 55.6801 67.3456 55.8091C67.2712 55.9381 67.1643 56.0454 67.0355 56.1201L62.2199 58.9227C62.181 58.9445 62.1372 58.9557 62.0926 58.9553C62.0481 58.955 62.0044 58.943 61.9659 58.9207C61.9274 58.8984 61.8953 58.8664 61.8729 58.8279C61.8504 58.7894 61.8384 58.7458 61.8379 58.7012V54.2485C61.8373 54.1302 61.8674 54.0139 61.9254 53.9109C61.9834 53.8079 62.0672 53.7217 62.1686 53.661Z"
                fill="#E0E0E0"
                id="Vector_28" />
            <path d="M62.1686 62.1073L67.1029 59.234C67.1388 59.2133 67.1794 59.2023 67.2208 59.2022C67.2622 59.202 67.303 59.2127 67.339 59.2331C67.375 59.2535 67.405 59.283 67.4261 59.3187C67.4472 59.3543 67.4587 59.3948 67.4593 59.4362V63.828C67.4598 63.9771 67.4209 64.1236 67.3464 64.2527C67.272 64.3818 67.1647 64.489 67.0355 64.5632L62.2199 67.3659C62.1812 67.3886 62.1371 67.4006 62.0922 67.4008C62.0473 67.4009 62.0032 67.3891 61.9643 67.3666C61.9254 67.344 61.8933 67.3116 61.8711 67.2725C61.8489 67.2335 61.8374 67.1892 61.8379 67.1443V62.6948C61.8369 62.5765 61.867 62.46 61.925 62.357C61.983 62.2539 62.067 62.1678 62.1686 62.1073Z"
                fill="#E0E0E0"
                id="Vector_29" />
            <path d="M62.1686 68.8362L67.1029 65.9469C67.139 65.926 67.1799 65.9151 67.2216 65.915C67.2633 65.915 67.3042 65.926 67.3403 65.9468C67.3765 65.9676 67.4065 65.9976 67.4273 66.0336C67.4482 66.0697 67.4592 66.1107 67.4593 66.1523V73.2151C67.4591 73.364 67.4199 73.5103 67.3456 73.6393C67.2712 73.7683 67.1643 73.8756 67.0355 73.9503L62.2199 76.753C62.1812 76.7757 62.1371 76.7877 62.0922 76.7879C62.0473 76.788 62.0031 76.7762 61.9643 76.7537C61.9254 76.7311 61.8933 76.6987 61.8711 76.6596C61.8488 76.6206 61.8374 76.5764 61.8379 76.5314V69.4237C61.8373 69.3055 61.8674 69.1891 61.9254 69.0861C61.9834 68.9831 62.0672 68.897 62.1686 68.8362Z"
                fill="#E0E0E0"
                id="Vector_30" />
            <path d="M68.6759 76.541V80.4352L57.0127 87.2251V83.2506C57.0129 83.0255 57.0724 82.8043 57.1851 82.6093C57.2978 82.4144 57.4597 82.2525 57.6548 82.1399L68.188 76.2617C68.237 76.2318 68.2932 76.2157 68.3506 76.2149C68.408 76.2141 68.4646 76.2287 68.5144 76.2573C68.5643 76.2858 68.6055 76.3272 68.6339 76.3771C68.6624 76.427 68.6769 76.4836 68.6759 76.541Z"
                fill="#E0E0E0"
                id="Vector_31" />
            <path d="M54.1557 48.02V66.4122C54.155 66.679 54.0845 66.941 53.951 67.1719C53.8174 67.4029 53.6257 67.5948 53.3948 67.7285L45.0479 72.5857V59.16L53.7158 47.8627C53.7502 47.8275 53.7939 47.8029 53.8419 47.7918C53.8898 47.7807 53.9399 47.7836 53.9863 47.8002C54.0326 47.8167 54.0732 47.8463 54.1032 47.8852C54.1332 47.9242 54.1514 47.971 54.1557 48.02Z"
                fill="#E0E0E0"
                id="Vector_32" />
            <path d="M78.5158 14.8671V23.535L70.4161 28.1548C70.3458 28.1954 70.2659 28.2167 70.1847 28.2167C70.1035 28.2167 70.0237 28.1952 69.9534 28.1545C69.8831 28.1138 69.8247 28.0553 69.7842 27.9849C69.7437 27.9145 69.7225 27.8347 69.7227 27.7535V18.9571L77.633 14.3502C77.7229 14.2979 77.8252 14.2704 77.9292 14.2705C78.0333 14.2707 78.1354 14.2984 78.2252 14.351C78.315 14.4036 78.3893 14.4791 78.4403 14.5697C78.4914 14.6604 78.5174 14.763 78.5158 14.8671Z"
                fill="#E0E0E0"
                id="Vector_33" />
            <path d="M78.5158 28.9277V49.4355L70.2331 54.2511C70.1816 54.2808 70.1231 54.2966 70.0636 54.2967C70.0041 54.2968 69.9456 54.2813 69.8939 54.2517C69.8423 54.2222 69.7993 54.1796 69.7692 54.1282C69.7392 54.0768 69.7231 54.0185 69.7227 53.9589V38.2506C69.7228 37.9782 69.778 37.7087 69.8851 37.4582C69.9921 37.2077 70.1487 36.9815 70.3455 36.7931L78.5158 28.9277Z"
                fill="#E0E0E0"
                id="Vector_34" />
            <path d="M78.5129 24.7451L70.166 29.9042C70.0295 29.9882 69.9168 30.1057 69.8386 30.2457C69.7605 30.3856 69.7196 30.5433 69.7197 30.7036V34.0038C69.7191 34.0591 69.7349 34.1134 69.7652 34.1597C69.7954 34.206 69.8387 34.2423 69.8896 34.2639C69.9405 34.2856 69.9967 34.2917 70.051 34.2814C70.1054 34.2711 70.1554 34.2448 70.1949 34.2061L78.5129 26.2989V24.7451Z"
                fill="#E0E0E0"
                id="Vector_35" />
            <path d="M60.5506 63.7409V76.9516C60.5506 77.1851 60.4891 77.4144 60.3725 77.6167C60.2559 77.819 60.0881 77.9871 59.8861 78.1041L49.7189 84.0144C49.67 84.0426 49.6145 84.0574 49.558 84.0574C49.5016 84.0573 49.4461 84.0424 49.3973 84.0141C49.3484 83.9857 49.3079 83.945 49.2798 83.896C49.2518 83.8471 49.2371 83.7915 49.2373 83.7351V73.5293C49.2373 73.3795 49.2763 73.2323 49.3507 73.1022C49.425 72.9722 49.532 72.8637 49.6611 72.7877L55.8121 69.2017C55.9423 69.1266 56.0502 69.0185 56.1252 68.8883C56.2002 68.7581 56.2395 68.6104 56.2391 68.4602V65.9946C56.2388 65.8394 56.2793 65.6868 56.3564 65.5522C56.4336 65.4175 56.5448 65.3055 56.6789 65.2273L59.8893 63.3621C59.9559 63.3221 60.0319 63.3006 60.1096 63.2998C60.1872 63.299 60.2637 63.319 60.3311 63.3576C60.3984 63.3962 60.4543 63.452 60.4929 63.5194C60.5315 63.5868 60.5514 63.6633 60.5506 63.7409Z"
                fill="#E0E0E0"
                id="Vector_36" />
            <path d="M54.7919 84.6148V88.509L45.912 93.6712C45.8234 93.722 45.723 93.7485 45.6209 93.7482C45.5188 93.7478 45.4186 93.7205 45.3304 93.6691C45.2422 93.6176 45.1691 93.5439 45.1185 93.4552C45.0678 93.3665 45.0415 93.2661 45.042 93.164V75.4813L46.1624 74.8392C46.2109 74.8127 46.2654 74.7991 46.3207 74.7998C46.3759 74.8005 46.4301 74.8155 46.4779 74.8433C46.5256 74.871 46.5654 74.9107 46.5934 74.9583C46.6214 75.006 46.6366 75.0601 46.6376 75.1153V87.4849C46.6376 87.5687 46.6595 87.6512 46.7012 87.724C46.7429 87.7968 46.8029 87.8575 46.8752 87.8999C46.9475 87.9424 47.0297 87.9653 47.1136 87.9663C47.1975 87.9672 47.2802 87.9462 47.3535 87.9054L54.031 84.1814C54.1079 84.1381 54.1946 84.1155 54.2828 84.1157C54.371 84.1159 54.4576 84.1389 54.5342 84.1826C54.6108 84.2262 54.6748 84.289 54.72 84.3647C54.7652 84.4405 54.7899 84.5266 54.7919 84.6148Z"
                fill="#E0E0E0"
                id="Vector_37" />
            <path d="M78.5152 52.5889V72.8944L71.0479 77.2734C70.9658 77.3222 70.8723 77.3485 70.7768 77.3494C70.6813 77.3503 70.5873 77.3258 70.5044 77.2784C70.4214 77.2311 70.3526 77.1626 70.3048 77.0799C70.257 76.9972 70.232 76.9033 70.2324 76.8079V58.2166C70.2333 57.9726 70.2977 57.7329 70.4193 57.5213C70.5409 57.3096 70.7155 57.1333 70.9259 57.0095L78.5152 52.5889Z"
                fill="#E0E0E0"
                id="Vector_38" />
            <path d="M48.0945 85.8991H47.7734V72.8618C47.7743 72.6886 47.8193 72.5184 47.9041 72.3673C47.9889 72.2162 48.1108 72.0892 48.2582 71.9982L54.9293 67.9853C55.0263 67.926 55.1067 67.8431 55.1628 67.7442C55.219 67.6454 55.2491 67.5339 55.2504 67.4202V45.3394C55.2512 45.1147 55.3109 44.8942 55.4235 44.6999C55.5362 44.5055 55.6979 44.3441 55.8924 44.2318L67.8543 37.0534C68.0651 36.9262 68.2396 36.7468 68.3611 36.5326C68.4825 36.3184 68.5468 36.0765 68.5477 35.8303V29.2715H68.8687V35.8303C68.8676 36.1317 68.7886 36.4278 68.6396 36.6899C68.4906 36.9519 68.2765 37.1711 68.018 37.3263L56.0594 44.5047C55.9147 44.5905 55.795 44.7127 55.7122 44.8591C55.6294 45.0056 55.5864 45.1711 55.5875 45.3394V67.4202C55.5865 67.5893 55.5424 67.7553 55.4592 67.9025C55.376 68.0498 55.2566 68.1733 55.1123 68.2614L48.4572 72.2743C48.3579 72.3365 48.2761 72.4232 48.2199 72.5261C48.1637 72.629 48.1349 72.7446 48.1362 72.8618L48.0945 85.8991Z"
                fill="#EB6440"
                id="Vector_39" />
            <path d="M48.0945 85.8991H47.7734V72.8618C47.7743 72.6886 47.8193 72.5184 47.9041 72.3673C47.9889 72.2162 48.1108 72.0892 48.2582 71.9982L54.9293 67.9853C55.0263 67.926 55.1067 67.8431 55.1628 67.7442C55.219 67.6454 55.2491 67.5339 55.2504 67.4202V45.3394C55.2512 45.1147 55.3109 44.8942 55.4235 44.6999C55.5362 44.5055 55.6979 44.3441 55.8924 44.2318L67.8543 37.0534C68.0651 36.9262 68.2396 36.7468 68.3611 36.5326C68.4825 36.3184 68.5468 36.0765 68.5477 35.8303V29.2715H68.8687V35.8303C68.8676 36.1317 68.7886 36.4278 68.6396 36.6899C68.4906 36.9519 68.2765 37.1711 68.018 37.3263L56.0594 44.5047C55.9147 44.5905 55.795 44.7127 55.7122 44.8591C55.6294 45.0056 55.5864 45.1711 55.5875 45.3394V67.4202C55.5865 67.5893 55.5424 67.7553 55.4592 67.9025C55.376 68.0498 55.2566 68.1733 55.1123 68.2614L48.4572 72.2743C48.3579 72.3365 48.2761 72.4232 48.2199 72.5261C48.1637 72.629 48.1349 72.7446 48.1362 72.8618L48.0945 85.8991Z" fill="black"
                id="Vector_40"
                opacity="0.4" />
            <path d="M48.8003 85.299C48.7728 85.5792 48.6801 85.8492 48.5296 86.0873C48.3791 86.3253 48.1749 86.5248 47.9335 86.6698C47.4519 86.9459 47.0635 86.7821 47.0635 86.3006C47.091 86.0204 47.1841 85.7505 47.3353 85.513C47.4864 85.2754 47.6913 85.0767 47.9335 84.933C48.4118 84.6569 48.8003 84.8206 48.8003 85.299Z"
                fill="#EB6440"
                id="Vector_41" />
            <path d="M69.5141 28.7706C69.4862 29.0508 69.3933 29.3206 69.2428 29.5585C69.0924 29.7965 68.8885 29.9961 68.6473 30.1415C68.1658 30.4175 67.7773 30.2538 67.7773 29.7723C67.8049 29.492 67.898 29.2222 68.0491 28.9846C68.2003 28.7471 68.4052 28.5484 68.6473 28.4046C69.1257 28.1286 69.5141 28.2923 69.5141 28.7706Z"
                fill="#EB6440"
                id="Vector_42" />
            <path d="M71.4215 23.7425C71.7833 23.201 72.0201 22.5858 72.115 21.9415C72.298 20.378 71.0909 19.6942 69.4247 20.4198C67.7585 21.1453 66.2529 22.9881 66.0699 24.5579C66.0252 24.7936 66.0307 25.0361 66.0861 25.2695C66.1414 25.5029 66.2452 25.7221 66.3909 25.9127L66.4102 25.9288C66.4603 25.9848 66.5163 26.0354 66.5771 26.0796L68.3235 27.6559C68.4391 27.7587 68.6992 27.6559 68.85 27.428L71.1519 24.1117C71.245 23.9897 71.3316 23.8677 71.4119 23.7425H71.4215ZM69.261 21.8163C70.1021 21.4503 70.7088 21.7938 70.6189 22.5836C70.5291 23.3733 69.7714 24.3075 68.9303 24.6703C68.0892 25.0331 67.4824 24.6928 67.5723 23.903C67.6622 23.1133 68.4134 22.1855 69.261 21.8227V21.8163Z"
                fill="#EB6440"
                id="Vector_43" />
            <path d="M61.1797 64.5467L57.9693 66.3959C57.8821 66.4455 57.8096 66.5175 57.7594 66.6044C57.7092 66.6913 57.683 66.7899 57.6836 66.8903V70.4474C57.6835 70.4704 57.6894 70.493 57.7008 70.513C57.7121 70.533 57.7285 70.5497 57.7483 70.5614C57.7681 70.5731 57.7907 70.5794 57.8137 70.5797C57.8367 70.5799 57.8594 70.5742 57.8794 70.563L58.971 69.9209L59.3498 70.563C59.3544 70.5717 59.3614 70.579 59.3699 70.5841C59.3783 70.5892 59.388 70.5919 59.3979 70.5919C59.4078 70.5919 59.4175 70.5892 59.426 70.5841C59.4345 70.579 59.4414 70.5717 59.4461 70.563L59.7928 69.465L61.077 68.7331C61.1819 68.6717 61.2691 68.5841 61.3299 68.4788C61.3907 68.3736 61.423 68.2543 61.4237 68.1327V64.6816C61.4256 64.6524 61.4191 64.6233 61.4051 64.5977C61.391 64.5721 61.37 64.5509 61.3444 64.5368C61.3189 64.5227 61.2898 64.5161 61.2606 64.5179C61.2315 64.5196 61.2034 64.5296 61.1797 64.5467Z"
                fill="#EB6440"
                id="Vector_44" />
            <path d="M58.6916 68.2835V68.6592L58.4925 68.7715V68.3991L58.0752 67.9497L58.2871 67.8277L58.6081 68.1648L58.9292 67.4649L59.1218 67.3525L58.6916 68.2835Z"
                fill="white"
                id="Vector_45" />
            <path d="M59.2702 68.2844C59.2418 68.2877 59.2129 68.2842 59.1861 68.2741C59.1593 68.2641 59.1353 68.2478 59.1161 68.2266C59.0753 68.1747 59.0558 68.1093 59.0615 68.0436C59.0614 67.9582 59.08 67.8738 59.1161 67.7964C59.1535 67.709 59.2057 67.6286 59.2702 67.5588C59.3347 67.4882 59.4093 67.4276 59.4917 67.379C59.5595 67.3359 59.6365 67.3095 59.7164 67.302C59.7447 67.3007 59.7729 67.3051 59.7994 67.315C59.8259 67.325 59.8501 67.3402 59.8705 67.3598C59.9099 67.4123 59.9293 67.4772 59.9251 67.5428C59.9235 67.628 59.9049 67.712 59.8705 67.79C59.7915 67.9664 59.659 68.1135 59.4917 68.2105C59.4259 68.2546 59.3493 68.2801 59.2702 68.2844ZM59.6651 67.8766C59.7155 67.8087 59.7435 67.7268 59.7453 67.6423C59.7453 67.5652 59.7228 67.5171 59.6779 67.4978C59.6488 67.4883 59.6179 67.4859 59.5877 67.4909C59.5575 67.496 59.529 67.5082 59.5045 67.5267C59.4333 67.5679 59.3737 67.6264 59.3312 67.6969C59.2886 67.763 59.2652 67.8397 59.2638 67.9184C59.2638 67.9954 59.2862 68.0436 59.3312 68.0661C59.3606 68.0749 59.3916 68.0766 59.4218 68.071C59.4519 68.0654 59.4803 68.0527 59.5045 68.0339C59.5713 67.9928 59.6266 67.9354 59.6651 67.867V67.8766Z"
                fill="white"
                id="Vector_46" />
            <path d="M60.8935 66.5693V67.3816L60.7138 67.4843V67.3816C60.681 67.436 60.6422 67.4866 60.5982 67.5324C60.5549 67.5771 60.5051 67.615 60.4505 67.6448C60.4149 67.6732 60.3732 67.6932 60.3287 67.7032C60.2843 67.7132 60.2381 67.713 60.1937 67.7026C60.1327 67.6801 60.1006 67.6063 60.1006 67.4907V67.0252L60.29 66.9161V67.3527C60.29 67.4265 60.306 67.4714 60.3414 67.4875C60.3767 67.5035 60.4216 67.4875 60.4826 67.4618C60.5488 67.424 60.604 67.3699 60.6431 67.3045C60.6827 67.2397 60.7037 67.1653 60.7041 67.0894V66.6785L60.8935 66.5693Z"
                fill="white"
                id="Vector_47" />
        </g>
        <path d="M78.7608 12.4594L45.3312 29.2856C44.8422 29.532 44.4366 29.885 44.1548 30.3094C43.8731 30.7338 43.7251 31.2147 43.7256 31.7041V99.5586C43.7252 99.7397 43.7801 99.9176 43.8848 100.074C43.9895 100.231 44.1403 100.361 44.3219 100.451C44.5034 100.542 44.7094 100.589 44.9187 100.588C45.1281 100.587 45.3336 100.539 45.5143 100.447L78.5489 83.8208C79.0505 83.5685 79.4667 83.2066 79.7558 82.7715C80.0449 82.3363 80.1968 81.8432 80.1962 81.3413V13.173C80.1937 13.0287 80.1479 12.8874 80.0632 12.763C79.9785 12.6386 79.8579 12.5353 79.7132 12.4634C79.5684 12.3914 79.4045 12.3532 79.2376 12.3525C79.0706 12.3519 78.9063 12.3887 78.7608 12.4594Z"
            fill="#455A64"
            fill-opacity="0.62" id="Vector_48" />
        <g id="Character">
            <path d="M94.9399 118.699L93.0127 118.067L93.9643 113.436L95.8915 114.068L94.9399 118.699Z"
                fill="#FFB573"
                id="Vector_49" />
            <path d="M111.703 118.723H109.672L109.169 114.027H111.197L111.703 118.723Z"
                fill="#FFB573"
                id="Vector_50" />
            <path d="M109.506 118.488H111.978C112.018 118.488 112.058 118.502 112.089 118.527C112.121 118.553 112.143 118.588 112.153 118.627L112.553 120.43C112.562 120.474 112.562 120.519 112.551 120.563C112.54 120.607 112.52 120.648 112.491 120.682C112.463 120.717 112.427 120.745 112.386 120.764C112.345 120.783 112.301 120.792 112.256 120.792C111.46 120.777 110.88 120.732 109.878 120.732C109.259 120.732 107.402 120.794 106.551 120.794C105.7 120.794 105.592 119.953 105.935 119.876C107.498 119.536 108.677 119.064 109.176 118.613C109.267 118.533 109.385 118.489 109.506 118.488Z"
                fill="#263238"
                id="Vector_51" />
            <path d="M93.0461 117.762L95.1818 118.35C95.2204 118.361 95.2541 118.385 95.2775 118.417C95.301 118.45 95.3129 118.489 95.3113 118.529L95.2178 120.375C95.2159 120.42 95.2039 120.463 95.1827 120.503C95.1615 120.542 95.1317 120.576 95.0955 120.602C95.0592 120.628 95.0175 120.645 94.9735 120.653C94.9295 120.661 94.8844 120.658 94.8415 120.646C94.0744 120.421 92.9742 120.068 92.0058 119.8C90.8745 119.488 90.6635 119.38 89.3356 119.016C88.5326 118.793 88.5326 117.92 88.8897 117.94C90.5125 118.026 90.9871 118.234 92.5332 117.784C92.6988 117.729 92.8765 117.721 93.0461 117.762Z"
                fill="#263238"
                id="Vector_52" />
            <path d="M103.037 57.0929C102.908 57.2607 102.809 57.3854 102.694 57.5268C102.579 57.6682 102.469 57.7929 102.354 57.9247C102.114 58.186 101.875 58.44 101.635 58.6893C101.151 59.1974 100.639 59.6776 100.101 60.1275C98.9884 61.09 97.7143 61.848 96.3376 62.3663C95.958 62.5001 95.5674 62.6004 95.1703 62.6659C95.0696 62.6803 94.9665 62.6995 94.8635 62.7115L94.5495 62.7402C94.4169 62.7482 94.2841 62.7482 94.1516 62.7402C94.0207 62.7327 93.8902 62.7183 93.7609 62.6971C93.339 62.6208 92.9283 62.4919 92.5384 62.3136C92.1997 62.1657 91.8714 61.9951 91.5556 61.803C90.96 61.4442 90.3905 61.0437 89.8514 60.6045C89.3185 60.1819 88.8133 59.7255 88.3389 59.2382L89.2569 58.0254C90.3835 58.5839 91.5364 59.1735 92.6391 59.5978C92.9147 59.7009 93.1856 59.7943 93.4397 59.8662C93.654 59.9302 93.8754 59.968 94.0988 59.9789C94.13 59.9805 94.1612 59.9805 94.1923 59.9789C94.2091 59.9789 94.2067 59.9789 94.281 59.9597L94.4488 59.931L94.6214 59.8902C94.734 59.8662 94.8611 59.8183 94.9689 59.7871C95.0768 59.756 95.2086 59.7033 95.3237 59.6481C95.8249 59.4341 96.3015 59.1665 96.7451 58.8499C97.2261 58.5209 97.6849 58.1606 98.1186 57.7713C98.5668 57.383 98.9959 56.9587 99.4177 56.5272C99.6287 56.3115 99.8348 56.0886 100.034 55.8633L100.331 55.5253L100.604 55.2041L103.037 57.0929Z"
                fill="#FFB573"
                id="Vector_53" />
            <path d="M104.152 56.0956C104.3 58.0276 99.9472 61.9731 99.9472 61.9731L96.0977 58.6364C96.0977 58.6364 97.718 56.9202 99.5397 55.192C100.791 54.0055 103.989 54.0031 104.152 56.0956Z"
                fill="white"
                id="Vector_54" />
            <path d="M104.152 56.0956C104.3 58.0276 99.9472 61.9731 99.9472 61.9731L96.0977 58.6364C96.0977 58.6364 97.718 56.9202 99.5397 55.192C100.791 54.0055 103.989 54.0031 104.152 56.0956Z" fill="#407BFF"
                id="Vector_55"
                opacity="0.4" />
            <path d="M102.184 57.0919C100.396 57.2549 99.2527 58.6931 98.7518 60.2823C98.6966 60.4597 98.6487 60.6418 98.6104 60.8216L99.9431 61.9769C99.9431 61.9769 101.925 60.1816 103.167 58.4198C103.234 57.5833 102.997 57.0152 102.184 57.0919Z" fill="black"
                id="Vector_56"
                opacity="0.2" />
            <path d="M89.7191 58.8996L89.0599 57.2217L86.8115 57.912C87.3007 58.4316 87.8403 58.9013 88.4223 59.3143L89.7191 58.8996Z"
                fill="#FFB573"
                id="Vector_57" />
            <path d="M87.9334 55.9199L86.0781 56.663L86.8188 57.9166L89.0672 57.2263L87.9334 55.9199Z"
                fill="#FFB573"
                id="Vector_58" />
            <path d="M93.9645 113.438L93.3916 116.219L95.3475 116.718L95.8917 114.071L93.9645 113.438Z" fill="black"
                id="Vector_59"
                opacity="0.2" />
            <path d="M111.197 114.027H109.169L109.43 116.448H111.458L111.197 114.027Z" fill="black"
                id="Vector_60" opacity="0.2" />
            <path d="M112.395 55.1582C111.8 57.3474 111.369 59.578 111.105 61.8314C110.914 63.4014 110.799 64.9019 110.727 66.2634C110.559 69.4514 110.628 71.882 110.533 72.7041L99.7102 71.9539C98.2384 60.4148 101.052 54.4703 101.052 54.4703C101.908 54.3113 102.773 54.2048 103.641 54.1515C103.825 54.1387 104.012 54.1315 104.202 54.1299C105.74 54.1506 107.276 54.2594 108.802 54.4559C109.092 54.4918 109.384 54.5326 109.67 54.5781C111.12 54.8058 112.395 55.1582 112.395 55.1582Z"
                fill="white"
                id="Vector_61" />
            <path d="M112.395 55.1582C111.8 57.3474 111.369 59.578 111.105 61.8314C110.914 63.4014 110.799 64.9019 110.727 66.2634C110.559 69.4514 110.628 71.882 110.533 72.7041L99.7102 71.9539C98.2384 60.4148 101.052 54.4703 101.052 54.4703C101.908 54.3113 102.773 54.2048 103.641 54.1515C103.825 54.1387 104.012 54.1315 104.202 54.1299C105.74 54.1506 107.276 54.2594 108.802 54.4559C109.092 54.4918 109.384 54.5326 109.67 54.5781C111.12 54.8058 112.395 55.1582 112.395 55.1582Z" fill="#407BFF"
                id="Vector_62"
                opacity="0.4" />
            <path d="M109.66 58.0771C109.642 59.7369 110.107 61.366 111 62.7657C111.031 62.4588 111.067 62.1448 111.105 61.8308C111.249 60.6491 111.436 59.4338 111.683 58.1922L109.66 58.0771Z" fill="black"
                id="Vector_63"
                opacity="0.2" />
            <path d="M108.708 49.2354C108.312 50.6951 107.835 53.3869 108.801 54.4464C108.312 54.89 107.734 55.2235 107.105 55.4245C106.476 55.6255 105.811 55.6892 105.156 55.6113C103.885 55.4939 103.883 54.5998 104.197 54.1252C105.875 53.8472 105.918 52.6199 105.709 51.4502L108.708 49.2354Z"
                fill="#FFB573"
                id="Vector_64" />
            <path d="M107.488 50.1406L105.717 51.4494C105.769 51.722 105.797 51.9987 105.801 52.2763C106.438 52.2284 107.352 51.598 107.467 50.9412C107.522 50.6778 107.529 50.4066 107.488 50.1406Z" fill="black"
                id="Vector_65"
                opacity="0.2" />
            <path d="M105.492 47.0508C105.013 47.7292 103.754 46.4803 103.802 45.3729C105.624 45.1332 104.761 43.7981 106.415 44.1409C107.791 44.4117 106.019 46.3054 105.492 47.0508Z"
                fill="#263238"
                id="Vector_66" />
            <path d="M110.032 47.4893C109.423 49.4069 109.164 50.5622 107.927 51.3244C106.067 52.4558 103.888 50.9577 103.912 48.8963C103.934 47.041 104.929 44.215 107.028 43.9202C107.491 43.853 107.962 43.9048 108.399 44.0709C108.835 44.2369 109.222 44.5116 109.523 44.869C109.824 45.2264 110.028 45.6546 110.117 46.1132C110.206 46.5717 110.177 47.0453 110.032 47.4893Z"
                fill="#FFB573"
                id="Vector_67" />
            <path d="M108.881 49.2349C108.788 48.7616 108.761 48.2775 108.802 47.7967C108.871 47.4208 108.989 47.0556 109.154 46.7109C109.154 46.7109 108.006 46.0325 107.98 45.2152C107.98 45.2152 105.928 45.8192 104.833 44.8964C103.737 43.9735 104.715 42.9069 104.154 42.4994C105.497 42.3699 105.904 43.1849 106.753 43.0075C107.601 42.8302 106.851 42.2333 106.964 41.5693C109.521 43.7722 110.633 42.7391 111.875 43.9999C112.668 44.8053 111.834 46.3154 111.834 46.3154C111.834 46.3154 113.1 48.4631 108.881 49.2349Z"
                fill="#263238"
                id="Vector_68" />
            <path d="M111.427 46.27C111.427 46.27 112.683 46.5288 112.716 45.2129C113.364 46.5456 112.553 46.7542 111.427 46.27Z"
                fill="#263238"
                id="Vector_69" />
            <path d="M105.76 49.3186C105.988 49.3817 106.228 49.389 106.46 49.3397C106.691 49.2905 106.907 49.1862 107.09 49.0357C107.1 49.0259 107.106 49.0125 107.106 48.9986C107.106 48.9847 107.1 48.9713 107.09 48.9614C107.08 48.9523 107.068 48.9473 107.054 48.9473C107.041 48.9473 107.028 48.9523 107.018 48.9614C106.847 49.0985 106.646 49.1934 106.432 49.2383C106.218 49.2833 105.996 49.2771 105.784 49.2203C105.77 49.2179 105.756 49.2204 105.744 49.2274C105.732 49.2345 105.724 49.2456 105.719 49.2586C105.718 49.2719 105.721 49.2852 105.728 49.2962C105.736 49.3073 105.747 49.3152 105.76 49.3186Z"
                fill="#263238"
                id="Vector_70" />
            <path d="M110.371 49.6087C110.19 49.7819 109.977 49.9177 109.743 50.0082C109.51 50.0987 109.26 50.1421 109.01 50.1361C108.339 50.1169 108.202 49.4697 108.555 48.9376C108.873 48.4582 109.604 47.8997 110.199 48.1777C110.793 48.4558 110.813 49.1821 110.371 49.6087Z"
                fill="#FFB573"
                id="Vector_71" />
            <path d="M92.8545 115.22L96.1647 116.131C96.1647 116.131 100.312 103.06 101.33 95.8808C101.601 93.9752 102.018 91.3002 102.653 88.4502C103.459 84.8547 104.466 80.9692 105.29 77.925C106.163 74.7178 106.824 72.4503 106.824 72.4503L99.7099 71.9541C99.7099 71.9541 96.7975 87.8917 96.1144 94.0447C95.4097 100.44 92.8545 115.22 92.8545 115.22Z"
                fill="#407BFF"
                id="Vector_72" />
            <path d="M92.8545 115.22L96.1647 116.131C96.1647 116.131 100.312 103.06 101.33 95.8808C101.601 93.9752 102.018 91.3002 102.653 88.4502C103.459 84.8547 104.466 80.9692 105.29 77.925C106.163 74.7178 106.824 72.4503 106.824 72.4503L99.7099 71.9541C99.7099 71.9541 96.7975 87.8917 96.1144 94.0447C95.4097 100.44 92.8545 115.22 92.8545 115.22Z" fill="black"
                id="Vector_73"
                opacity="0.3" />
            <path d="M102.663 88.4478C103.468 84.8523 104.475 80.9668 105.3 77.9227L104.561 76.3311C102.788 78.426 102.313 84.9195 102.663 88.4478Z" fill="black"
                id="Vector_74"
                opacity="0.2" />
            <path d="M103.548 72.2197C103.548 72.2197 104.317 89.5835 105.173 95.4705C106.11 101.911 108.493 115.986 108.493 115.986H112.206C112.206 115.986 110.979 101.175 110.434 94.8521C109.816 87.6611 110.533 72.7111 110.533 72.7111L103.548 72.2197Z"
                fill="#407BFF"
                id="Vector_75" />
            <path d="M103.548 72.2197C103.548 72.2197 104.317 89.5835 105.173 95.4705C106.11 101.911 108.493 115.986 108.493 115.986H112.206C112.206 115.986 110.979 101.175 110.434 94.8521C109.816 87.6611 110.533 72.7111 110.533 72.7111L103.548 72.2197Z" fill="black"
                id="Vector_76"
                opacity="0.3" />
            <path d="M108.048 116.061H112.422V114.755L107.532 114.671L108.048 116.061Z"
                fill="#407BFF"
                id="Vector_77" />
            <path d="M92.625 115.239L96.3643 116.27L96.9012 114.983L92.6418 113.801L92.625 115.239Z"
                fill="#407BFF"
                id="Vector_78" />
            <path d="M106.939 47.2913C106.901 47.4495 106.784 47.5573 106.681 47.5309C106.578 47.5046 106.525 47.356 106.566 47.1978C106.606 47.0396 106.721 46.9317 106.824 46.9581C106.928 46.9844 106.978 47.133 106.939 47.2913Z"
                fill="#263238"
                id="Vector_79" />
            <path d="M105.147 46.8396C105.106 46.9978 104.991 47.1057 104.888 47.0793C104.785 47.0529 104.732 46.9043 104.77 46.7437C104.809 46.5831 104.929 46.4777 105.032 46.504C105.135 46.5304 105.187 46.6814 105.147 46.8396Z"
                fill="#263238"
                id="Vector_80" />
            <path d="M105.698 47.0635C105.386 47.5005 105.016 47.8925 104.598 48.2284C104.813 48.5616 105.35 48.528 105.35 48.528L105.698 47.0635Z"
                fill="#ED893E"
                id="Vector_81" />
            <path d="M107.642 46.8529C107.624 46.8515 107.607 46.8451 107.592 46.8345C107.578 46.824 107.567 46.8096 107.56 46.793C107.516 46.681 107.446 46.581 107.356 46.5011C107.266 46.4211 107.159 46.3635 107.042 46.3327C107.017 46.3281 106.995 46.3136 106.98 46.2926C106.965 46.2715 106.959 46.2455 106.963 46.2201C106.966 46.2076 106.97 46.1957 106.977 46.1851C106.984 46.1745 106.993 46.1654 107.004 46.1582C107.014 46.1511 107.026 46.1461 107.038 46.1436C107.051 46.141 107.063 46.1409 107.076 46.1434C107.224 46.1798 107.361 46.2509 107.476 46.351C107.591 46.451 107.681 46.5771 107.737 46.7187C107.747 46.7422 107.747 46.7687 107.738 46.7924C107.729 46.8161 107.71 46.8352 107.687 46.8457C107.672 46.8504 107.657 46.8528 107.642 46.8529Z"
                fill="#263238"
                id="Vector_82" />
            <path d="M104.533 46.0296C104.512 46.0273 104.493 46.019 104.478 46.0057C104.46 45.9877 104.45 45.9636 104.45 45.9386C104.45 45.9135 104.46 45.8894 104.478 45.8714C104.573 45.7522 104.696 45.6576 104.836 45.5954C104.975 45.5333 105.128 45.5055 105.281 45.5143C105.306 45.5179 105.329 45.5311 105.344 45.5513C105.36 45.5714 105.367 45.5968 105.364 45.6222C105.36 45.6471 105.347 45.6697 105.327 45.6852C105.307 45.7007 105.282 45.7082 105.257 45.706C105.136 45.7004 105.016 45.7235 104.907 45.7735C104.797 45.8236 104.701 45.899 104.626 45.9937C104.615 46.0068 104.6 46.0169 104.584 46.0232C104.568 46.0294 104.55 46.0317 104.533 46.0296Z"
                fill="#263238"
                id="Vector_83" />
            <path d="M108.836 118.843C108.698 118.854 108.56 118.818 108.445 118.74C108.409 118.709 108.381 118.67 108.364 118.626C108.347 118.581 108.341 118.533 108.347 118.486C108.347 118.458 108.354 118.431 108.369 118.407C108.383 118.383 108.404 118.363 108.428 118.35C108.654 118.235 109.308 118.637 109.387 118.683C109.396 118.688 109.402 118.696 109.406 118.705C109.41 118.714 109.411 118.724 109.409 118.733C109.408 118.743 109.403 118.751 109.397 118.758C109.39 118.765 109.382 118.77 109.373 118.772C109.197 118.816 109.017 118.84 108.836 118.843ZM108.534 118.424C108.513 118.424 108.491 118.428 108.472 118.436C108.46 118.436 108.445 118.455 108.443 118.494C108.438 118.525 108.442 118.558 108.453 118.588C108.465 118.618 108.483 118.645 108.508 118.666C108.618 118.76 108.884 118.774 109.227 118.704C109.017 118.566 108.781 118.471 108.534 118.424Z"
                fill="#407BFF"
                id="Vector_84" />
            <path d="M109.356 118.771C109.348 118.774 109.34 118.774 109.332 118.771C109.123 118.656 108.716 118.213 108.759 117.988C108.766 117.952 108.785 117.92 108.813 117.897C108.841 117.874 108.876 117.861 108.912 117.861C108.949 117.856 108.986 117.859 109.021 117.87C109.056 117.88 109.089 117.899 109.116 117.923C109.356 118.115 109.401 118.7 109.404 118.726C109.404 118.734 109.402 118.743 109.399 118.75C109.395 118.758 109.389 118.764 109.382 118.769C109.374 118.772 109.365 118.773 109.356 118.771ZM108.946 117.949H108.924C108.862 117.949 108.857 117.985 108.855 117.997C108.829 118.131 109.095 118.477 109.296 118.625C109.281 118.394 109.198 118.173 109.056 117.99C109.026 117.964 108.986 117.949 108.946 117.949Z"
                fill="#407BFF"
                id="Vector_85" />
            <path d="M92.7801 117.975C92.4469 117.949 91.8644 117.872 91.7038 117.623C91.6814 117.587 91.6676 117.547 91.6634 117.505C91.6593 117.464 91.6649 117.422 91.6798 117.383C91.6879 117.358 91.7023 117.336 91.7217 117.318C91.741 117.3 91.7646 117.288 91.7901 117.282C92.061 117.217 92.7489 117.829 92.816 117.901C92.8228 117.907 92.8276 117.916 92.8297 117.925C92.8318 117.935 92.8312 117.944 92.828 117.953C92.8232 117.961 92.816 117.968 92.8075 117.972C92.7989 117.976 92.7893 117.977 92.7801 117.975ZM91.8213 117.366H91.8069C91.7967 117.368 91.7873 117.373 91.7797 117.38C91.7721 117.388 91.7666 117.397 91.7637 117.407C91.7529 117.433 91.7485 117.462 91.751 117.49C91.7535 117.518 91.7628 117.546 91.7781 117.57C91.8692 117.711 92.1856 117.809 92.6386 117.865C92.3558 117.634 91.9771 117.352 91.8189 117.368L91.8213 117.366Z"
                fill="#407BFF"
                id="Vector_86" />
            <path d="M92.7442 117.975C92.562 117.697 92.2648 117.187 92.3678 116.909C92.3819 116.867 92.4058 116.83 92.4375 116.8C92.4693 116.77 92.5079 116.748 92.55 116.736C92.575 116.727 92.6017 116.725 92.6277 116.73C92.6537 116.735 92.6781 116.746 92.6986 116.762C92.9144 116.94 92.8425 117.851 92.8329 117.961C92.8317 117.97 92.8276 117.979 92.8212 117.987C92.8148 117.994 92.8063 117.999 92.7969 118.002C92.7864 118.004 92.7754 118.003 92.7657 117.998C92.756 117.993 92.7484 117.985 92.7442 117.975ZM92.6411 116.839C92.6324 116.834 92.6225 116.831 92.6123 116.831C92.6022 116.831 92.5922 116.834 92.5836 116.839C92.5556 116.847 92.5299 116.861 92.5086 116.88C92.4874 116.9 92.4711 116.924 92.4613 116.952C92.4062 117.11 92.5141 117.431 92.7514 117.812C92.7633 117.424 92.7514 116.944 92.6411 116.829V116.839Z"
                fill="#407BFF"
                id="Vector_87" />
            <path d="M112.695 56.3252C113.162 56.9844 113.56 57.622 113.968 58.2859C114.375 58.9499 114.747 59.6211 115.111 60.309C115.865 61.7119 116.479 63.186 116.942 64.7099C116.997 64.9112 117.05 65.1126 117.098 65.3211C117.122 65.4242 117.144 65.5296 117.165 65.6375L117.196 65.7957L117.211 65.8772L117.23 66.0066C117.291 66.5519 117.241 67.1038 117.084 67.6294C116.846 68.4414 116.511 69.2214 116.084 69.9521C115.699 70.6364 115.274 71.2975 114.811 71.932C114.36 72.563 113.874 73.1687 113.356 73.7465L112.11 72.8716C112.759 71.57 113.421 70.2349 113.929 68.9262C114.056 68.6002 114.169 68.2742 114.267 67.9554C114.365 67.6581 114.439 67.3535 114.488 67.0445C114.529 66.8453 114.529 66.6398 114.488 66.4405L114.471 66.3854L114.44 66.2727C114.421 66.196 114.399 66.1193 114.373 66.033C114.327 65.8796 114.274 65.7214 114.219 65.5656C113.721 64.2531 113.116 62.9833 112.412 61.7688C112.062 61.1383 111.693 60.5199 111.314 59.8967C110.935 59.2735 110.537 58.6551 110.161 58.0774L112.695 56.3252Z"
                fill="#FFB573"
                id="Vector_88" />
            <path d="M112.395 55.1576C114.296 55.5412 115.962 60.1913 115.962 60.1913L111.995 63.4225C111.995 63.4225 110.696 61.059 109.655 58.7795C108.521 56.2962 110.094 54.695 112.395 55.1576Z"
                fill="white"
                id="Vector_89" />
            <path d="M112.395 55.1576C114.296 55.5412 115.962 60.1913 115.962 60.1913L111.995 63.4225C111.995 63.4225 110.696 61.059 109.655 58.7795C108.521 56.2962 110.094 54.695 112.395 55.1576Z" fill="#407BFF"
                id="Vector_90"
                opacity="0.4" />
            <path d="M112.829 72.4063L110.772 72.332L111.767 74.729C111.767 74.729 113.534 74.403 113.467 73.449L112.829 72.4063Z"
                fill="#FFB573"
                id="Vector_91" />
            <path d="M109.394 73.3196L109.89 75.1485L111.769 74.7242L110.772 72.332L109.394 73.3196Z"
                fill="#FFB573"
                id="Vector_92" />
            <path d="M85.8984 60.0769C86.3137 58.5963 87.3701 58.419 88.2461 59.683L94.7821 69.1162C95.6579 70.3802 97.5858 71.3959 99.0664 71.3737L110.114 71.2084C111.595 71.1862 112.098 72.1852 111.233 73.429L104.775 82.7083C103.91 83.952 103.611 86.1696 104.111 87.6364L107.839 98.5837C108.339 100.051 107.594 100.846 106.183 100.35L95.6562 96.6523C94.2456 96.1569 92.1328 96.5114 90.961 97.4401L82.2176 104.371C81.046 105.301 80.0822 104.792 80.0754 103.242L80.0267 91.6776C80.0203 90.1281 79.0137 88.1296 77.7899 87.2364L68.6573 80.573C67.4336 79.6798 67.583 78.5713 68.9896 78.109L79.4865 74.6592C80.8932 74.1969 82.3839 72.6073 82.7992 71.1269L85.8984 60.0769Z"
                fill="#EBB20E"
                id="Vector_93" />
            <path d="M87.2827 56.5875C87.7079 55.0713 88.7897 54.8898 89.6868 56.1841L96.3796 65.8437C97.2764 67.138 99.2506 68.1781 100.767 68.1554L112.08 67.9861C113.596 67.9634 114.111 68.9863 113.225 70.26L106.613 79.7619C105.727 81.0355 105.42 83.3063 105.932 84.8083L109.75 96.0183C110.262 97.5208 109.499 98.3349 108.054 97.8271L97.2746 94.0405C95.8302 93.5332 93.6667 93.8962 92.4667 94.8473L83.5135 101.945C82.3139 102.896 81.3269 102.376 81.32 100.789L81.2701 88.9464C81.2636 87.3597 80.2327 85.3133 78.9796 84.3987L69.6278 77.5754C68.3748 76.6608 68.5277 75.5257 69.9682 75.0523L80.7169 71.5197C82.1573 71.0463 83.6838 69.4185 84.1091 67.9026L87.2827 56.5875Z"
                fill="#FFC727"
                id="Vector_94" />
        </g>
    </g>
</svg>
