<svg fill="none" height="16" viewBox="0 0 3 16" width="3" xmlns="http://www.w3.org/2000/svg">
    <g id="Group 55">
        <path d="M3 1.50001C3 1.89784 2.84196 2.27935 2.56065 2.56066C2.27935 2.84196 1.89786 3 1.50003 3C1.1022 3 0.720653 2.84196 0.439346 2.56066C0.158038 2.27935 0 1.89784 0 1.50001C0 1.10219 0.158038 0.720646 0.439346 0.439342C0.720653 0.158037 1.1022 0 1.50003 0C1.89786 0 2.27935 0.158037 2.56065 0.439342C2.84196 0.720646 3 1.10219 3 1.50001Z"
            fill="#EB6440"
            id="Vector" />
        <path d="M2.99955 7.4634C3.00683 7.76152 2.92509 8.05505 2.76475 8.30649C2.60441 8.55793 2.37274 8.75588 2.09937 8.87504C1.826 8.9942 1.52335 9.02918 1.23001 8.9755C0.936667 8.92182 0.665987 8.78192 0.452531 8.57367C0.239076 8.36542 0.0925156 8.09828 0.0316099 7.80636C-0.0292958 7.51443 -0.00177479 7.21096 0.110602 6.93473C0.22298 6.65851 0.41514 6.42204 0.662546 6.25554C0.909951 6.08904 1.20138 6.00009 1.49959 6C1.89116 5.99988 2.2672 6.15287 2.54748 6.42631C2.82776 6.69975 2.99 7.07194 2.99955 7.4634Z"
            fill="#EB6440"
            id="Vector_2" />
        <path d="M2.99953 14.5002C2.99953 14.7969 2.91159 15.0868 2.74679 15.3335C2.582 15.5801 2.34775 15.7723 2.07371 15.8858C1.79966 15.9994 1.49808 16.029 1.20716 15.9712C0.91623 15.9133 0.649039 15.7705 0.439292 15.5607C0.229545 15.351 0.086688 15.0838 0.028819 14.7928C-0.02905 14.5019 0.00064802 14.2004 0.114162 13.9263C0.227676 13.6523 0.419884 13.418 0.66652 13.2532C0.913157 13.0884 1.20318 13.0005 1.4998 13.0005C1.69813 12.9954 1.89539 13.0308 2.07962 13.1044C2.26385 13.178 2.4312 13.2883 2.57148 13.4285C2.71176 13.5688 2.82201 13.7362 2.8956 13.9204C2.96919 14.1046 3.00455 14.3019 2.99953 14.5002Z"
            fill="#EB6440"
            id="Vector_3" />
    </g>
</svg>
