<svg fill="none" height="17" viewBox="0 0 17 17" width="17" xmlns="http://www.w3.org/2000/svg">
    <path clip-rule="evenodd" d="M8.64453 6.95242C8.89244 7.08896 9.09283 7.30062 9.21816 7.55826L11.6266 7.51532C11.9812 7.50868 12.2739 7.79716 12.2804 8.1598C12.2862 8.52206 12.0037 8.82107 11.6491 8.82771L9.17421 8.87182C8.9388 9.28326 8.50199 9.56003 8.00173 9.56003C7.25231 9.56003 6.64467 8.93896 6.64467 8.17346C6.64467 7.64531 6.93397 7.18624 7.35932 6.95242L7.3597 3.21003C7.3597 2.84738 7.6467 2.55344 8.00173 2.55344C8.35676 2.55344 8.64453 2.84738 8.64453 3.21003V6.95242ZM13.6604 2.39378C15.1084 3.87286 16.0038 5.91679 16.0038 8.17346C16.0038 10.4305 15.1084 12.4741 13.6604 13.9531C12.212 15.4326 10.2114 16.3476 8.00173 16.3476C5.79207 16.3476 3.79182 15.4326 2.34342 13.9531C0.895408 12.4741 0 10.4305 0 8.17346C0 5.9164 0.89579 3.87286 2.34342 2.39378C3.64087 1.06889 5.38162 0.197609 7.31843 0.0293634C7.9039 -0.0217739 8.50657 -0.00576919 9.08708 0.0746452C10.8626 0.320573 12.4532 1.16102 13.6604 2.39378Z" fill="#0487E2"
        fill-rule="evenodd"
        id="Vector" />
</svg>
